<?xml version="1.0" encoding="utf-8" standalone="no"?>
<!DOCTYPE svg PUBLIC "-//W3C//DTD SVG 1.1//EN"
  "http://www.w3.org/Graphics/SVG/1.1/DTD/svg11.dtd">
<svg xmlns:xlink="http://www.w3.org/1999/xlink" width="1119.26875pt" height="542.26375pt" viewBox="0 0 1119.26875 542.26375" xmlns="http://www.w3.org/2000/svg" version="1.1">
 <metadata>
  <rdf:RDF xmlns:dc="http://purl.org/dc/elements/1.1/" xmlns:cc="http://creativecommons.org/ns#" xmlns:rdf="http://www.w3.org/1999/02/22-rdf-syntax-ns#">
   <cc:Work>
    <dc:type rdf:resource="http://purl.org/dc/dcmitype/StillImage"/>
    <dc:date>2025-01-25T15:34:13.691629</dc:date>
    <dc:format>image/svg+xml</dc:format>
    <dc:creator>
     <cc:Agent>
      <dc:title>Matplotlib v3.6.3, https://matplotlib.org/</dc:title>
     </cc:Agent>
    </dc:creator>
   </cc:Work>
  </rdf:RDF>
 </metadata>
 <defs>
  <style type="text/css">*{stroke-linejoin: round; stroke-linecap: butt}</style>
 </defs>
 <g id="figure_1">
  <g id="patch_1">
   <path d="M 0 542.26375 
L 1119.26875 542.26375 
L 1119.26875 0 
L 0 0 
z
" style="fill: #ffffff"/>
  </g>
  <g id="axes_1">
   <g id="patch_2">
    <path d="M 74.47875 481.48 
L 1112.06875 481.48 
L 1112.06875 7.2 
L 74.47875 7.2 
z
" style="fill: #ffffff"/>
   </g>
   <g id="matplotlib.axis_1">
    <g id="xtick_1">
     <g id="line2d_1">
      <defs>
       <path id="m162a86483c" d="M 0 0 
L 0 3.5 
" style="stroke: #000000; stroke-width: 0.8"/>
      </defs>
      <g>
       <use xlink:href="#m162a86483c" x="121.626531" y="481.48" style="stroke: #000000; stroke-width: 0.8"/>
      </g>
     </g>
     <g id="text_1">
      <!-- 0 -->
      <g transform="translate(114.627781 505.196562) scale(0.22 -0.22)">
       <defs>
        <path id="DejaVuSans-30" d="M 2034 4250 
Q 1547 4250 1301 3770 
Q 1056 3291 1056 2328 
Q 1056 1369 1301 889 
Q 1547 409 2034 409 
Q 2525 409 2770 889 
Q 3016 1369 3016 2328 
Q 3016 3291 2770 3770 
Q 2525 4250 2034 4250 
z
M 2034 4750 
Q 2819 4750 3233 4129 
Q 3647 3509 3647 2328 
Q 3647 1150 3233 529 
Q 2819 -91 2034 -91 
Q 1250 -91 836 529 
Q 422 1150 422 2328 
Q 422 3509 836 4129 
Q 1250 4750 2034 4750 
z
" transform="scale(0.015625)"/>
       </defs>
       <use xlink:href="#DejaVuSans-30"/>
      </g>
     </g>
    </g>
    <g id="xtick_2">
     <g id="line2d_2">
      <g>
       <use xlink:href="#m162a86483c" x="275.631272" y="481.48" style="stroke: #000000; stroke-width: 0.8"/>
      </g>
     </g>
     <g id="text_2">
      <!-- 10000 -->
      <g transform="translate(240.637522 505.196562) scale(0.22 -0.22)">
       <defs>
        <path id="DejaVuSans-31" d="M 794 531 
L 1825 531 
L 1825 4091 
L 703 3866 
L 703 4441 
L 1819 4666 
L 2450 4666 
L 2450 531 
L 3481 531 
L 3481 0 
L 794 0 
L 794 531 
z
" transform="scale(0.015625)"/>
       </defs>
       <use xlink:href="#DejaVuSans-31"/>
       <use xlink:href="#DejaVuSans-30" x="63.623047"/>
       <use xlink:href="#DejaVuSans-30" x="127.246094"/>
       <use xlink:href="#DejaVuSans-30" x="190.869141"/>
       <use xlink:href="#DejaVuSans-30" x="254.492188"/>
      </g>
     </g>
    </g>
    <g id="xtick_3">
     <g id="line2d_3">
      <g>
       <use xlink:href="#m162a86483c" x="429.636013" y="481.48" style="stroke: #000000; stroke-width: 0.8"/>
      </g>
     </g>
     <g id="text_3">
      <!-- 20000 -->
      <g transform="translate(394.642263 505.196562) scale(0.22 -0.22)">
       <defs>
        <path id="DejaVuSans-32" d="M 1228 531 
L 3431 531 
L 3431 0 
L 469 0 
L 469 531 
Q 828 903 1448 1529 
Q 2069 2156 2228 2338 
Q 2531 2678 2651 2914 
Q 2772 3150 2772 3378 
Q 2772 3750 2511 3984 
Q 2250 4219 1831 4219 
Q 1534 4219 1204 4116 
Q 875 4013 500 3803 
L 500 4441 
Q 881 4594 1212 4672 
Q 1544 4750 1819 4750 
Q 2544 4750 2975 4387 
Q 3406 4025 3406 3419 
Q 3406 3131 3298 2873 
Q 3191 2616 2906 2266 
Q 2828 2175 2409 1742 
Q 1991 1309 1228 531 
z
" transform="scale(0.015625)"/>
       </defs>
       <use xlink:href="#DejaVuSans-32"/>
       <use xlink:href="#DejaVuSans-30" x="63.623047"/>
       <use xlink:href="#DejaVuSans-30" x="127.246094"/>
       <use xlink:href="#DejaVuSans-30" x="190.869141"/>
       <use xlink:href="#DejaVuSans-30" x="254.492188"/>
      </g>
     </g>
    </g>
    <g id="xtick_4">
     <g id="line2d_4">
      <g>
       <use xlink:href="#m162a86483c" x="583.640753" y="481.48" style="stroke: #000000; stroke-width: 0.8"/>
      </g>
     </g>
     <g id="text_4">
      <!-- 30000 -->
      <g transform="translate(548.647003 505.196562) scale(0.22 -0.22)">
       <defs>
        <path id="DejaVuSans-33" d="M 2597 2516 
Q 3050 2419 3304 2112 
Q 3559 1806 3559 1356 
Q 3559 666 3084 287 
Q 2609 -91 1734 -91 
Q 1441 -91 1130 -33 
Q 819 25 488 141 
L 488 750 
Q 750 597 1062 519 
Q 1375 441 1716 441 
Q 2309 441 2620 675 
Q 2931 909 2931 1356 
Q 2931 1769 2642 2001 
Q 2353 2234 1838 2234 
L 1294 2234 
L 1294 2753 
L 1863 2753 
Q 2328 2753 2575 2939 
Q 2822 3125 2822 3475 
Q 2822 3834 2567 4026 
Q 2313 4219 1838 4219 
Q 1578 4219 1281 4162 
Q 984 4106 628 3988 
L 628 4550 
Q 988 4650 1302 4700 
Q 1616 4750 1894 4750 
Q 2613 4750 3031 4423 
Q 3450 4097 3450 3541 
Q 3450 3153 3228 2886 
Q 3006 2619 2597 2516 
z
" transform="scale(0.015625)"/>
       </defs>
       <use xlink:href="#DejaVuSans-33"/>
       <use xlink:href="#DejaVuSans-30" x="63.623047"/>
       <use xlink:href="#DejaVuSans-30" x="127.246094"/>
       <use xlink:href="#DejaVuSans-30" x="190.869141"/>
       <use xlink:href="#DejaVuSans-30" x="254.492188"/>
      </g>
     </g>
    </g>
    <g id="xtick_5">
     <g id="line2d_5">
      <g>
       <use xlink:href="#m162a86483c" x="737.645494" y="481.48" style="stroke: #000000; stroke-width: 0.8"/>
      </g>
     </g>
     <g id="text_5">
      <!-- 40000 -->
      <g transform="translate(702.651744 505.196562) scale(0.22 -0.22)">
       <defs>
        <path id="DejaVuSans-34" d="M 2419 4116 
L 825 1625 
L 2419 1625 
L 2419 4116 
z
M 2253 4666 
L 3047 4666 
L 3047 1625 
L 3713 1625 
L 3713 1100 
L 3047 1100 
L 3047 0 
L 2419 0 
L 2419 1100 
L 313 1100 
L 313 1709 
L 2253 4666 
z
" transform="scale(0.015625)"/>
       </defs>
       <use xlink:href="#DejaVuSans-34"/>
       <use xlink:href="#DejaVuSans-30" x="63.623047"/>
       <use xlink:href="#DejaVuSans-30" x="127.246094"/>
       <use xlink:href="#DejaVuSans-30" x="190.869141"/>
       <use xlink:href="#DejaVuSans-30" x="254.492188"/>
      </g>
     </g>
    </g>
    <g id="xtick_6">
     <g id="line2d_6">
      <g>
       <use xlink:href="#m162a86483c" x="891.650235" y="481.48" style="stroke: #000000; stroke-width: 0.8"/>
      </g>
     </g>
     <g id="text_6">
      <!-- 50000 -->
      <g transform="translate(856.656485 505.196562) scale(0.22 -0.22)">
       <defs>
        <path id="DejaVuSans-35" d="M 691 4666 
L 3169 4666 
L 3169 4134 
L 1269 4134 
L 1269 2991 
Q 1406 3038 1543 3061 
Q 1681 3084 1819 3084 
Q 2600 3084 3056 2656 
Q 3513 2228 3513 1497 
Q 3513 744 3044 326 
Q 2575 -91 1722 -91 
Q 1428 -91 1123 -41 
Q 819 9 494 109 
L 494 744 
Q 775 591 1075 516 
Q 1375 441 1709 441 
Q 2250 441 2565 725 
Q 2881 1009 2881 1497 
Q 2881 1984 2565 2268 
Q 2250 2553 1709 2553 
Q 1456 2553 1204 2497 
Q 953 2441 691 2322 
L 691 4666 
z
" transform="scale(0.015625)"/>
       </defs>
       <use xlink:href="#DejaVuSans-35"/>
       <use xlink:href="#DejaVuSans-30" x="63.623047"/>
       <use xlink:href="#DejaVuSans-30" x="127.246094"/>
       <use xlink:href="#DejaVuSans-30" x="190.869141"/>
       <use xlink:href="#DejaVuSans-30" x="254.492188"/>
      </g>
     </g>
    </g>
    <g id="xtick_7">
     <g id="line2d_7">
      <g>
       <use xlink:href="#m162a86483c" x="1045.654976" y="481.48" style="stroke: #000000; stroke-width: 0.8"/>
      </g>
     </g>
     <g id="text_7">
      <!-- 60000 -->
      <g transform="translate(1010.661226 505.196562) scale(0.22 -0.22)">
       <defs>
        <path id="DejaVuSans-36" d="M 2113 2584 
Q 1688 2584 1439 2293 
Q 1191 2003 1191 1497 
Q 1191 994 1439 701 
Q 1688 409 2113 409 
Q 2538 409 2786 701 
Q 3034 994 3034 1497 
Q 3034 2003 2786 2293 
Q 2538 2584 2113 2584 
z
M 3366 4563 
L 3366 3988 
Q 3128 4100 2886 4159 
Q 2644 4219 2406 4219 
Q 1781 4219 1451 3797 
Q 1122 3375 1075 2522 
Q 1259 2794 1537 2939 
Q 1816 3084 2150 3084 
Q 2853 3084 3261 2657 
Q 3669 2231 3669 1497 
Q 3669 778 3244 343 
Q 2819 -91 2113 -91 
Q 1303 -91 875 529 
Q 447 1150 447 2328 
Q 447 3434 972 4092 
Q 1497 4750 2381 4750 
Q 2619 4750 2861 4703 
Q 3103 4656 3366 4563 
z
" transform="scale(0.015625)"/>
       </defs>
       <use xlink:href="#DejaVuSans-36"/>
       <use xlink:href="#DejaVuSans-30" x="63.623047"/>
       <use xlink:href="#DejaVuSans-30" x="127.246094"/>
       <use xlink:href="#DejaVuSans-30" x="190.869141"/>
       <use xlink:href="#DejaVuSans-30" x="254.492188"/>
      </g>
     </g>
    </g>
    <g id="text_8">
     <!-- S($\mathcal{D}$) -->
     <g transform="translate(568.85375 530.488437) scale(0.22 -0.22)">
      <defs>
       <path id="DejaVuSans-53" d="M 3425 4513 
L 3425 3897 
Q 3066 4069 2747 4153 
Q 2428 4238 2131 4238 
Q 1616 4238 1336 4038 
Q 1056 3838 1056 3469 
Q 1056 3159 1242 3001 
Q 1428 2844 1947 2747 
L 2328 2669 
Q 3034 2534 3370 2195 
Q 3706 1856 3706 1288 
Q 3706 609 3251 259 
Q 2797 -91 1919 -91 
Q 1588 -91 1214 -16 
Q 841 59 441 206 
L 441 856 
Q 825 641 1194 531 
Q 1563 422 1919 422 
Q 2459 422 2753 634 
Q 3047 847 3047 1241 
Q 3047 1584 2836 1778 
Q 2625 1972 2144 2069 
L 1759 2144 
Q 1053 2284 737 2584 
Q 422 2884 422 3419 
Q 422 4038 858 4394 
Q 1294 4750 2059 4750 
Q 2388 4750 2728 4690 
Q 3069 4631 3425 4513 
z
" transform="scale(0.015625)"/>
       <path id="DejaVuSans-28" d="M 1984 4856 
Q 1566 4138 1362 3434 
Q 1159 2731 1159 2009 
Q 1159 1288 1364 580 
Q 1569 -128 1984 -844 
L 1484 -844 
Q 1016 -109 783 600 
Q 550 1309 550 2009 
Q 550 2706 781 3412 
Q 1013 4119 1484 4856 
L 1984 4856 
z
" transform="scale(0.015625)"/>
       <path id="STIXNonUnicode-Italic-e230" d="M 314 3418 
L 218 3539 
Q 621 3923 1126 4083 
Q 1619 4237 2490 4237 
Q 3475 4237 4028 4080 
Q 4582 3923 4812 3596 
Q 5043 3270 5043 2701 
Q 5043 2349 4950 1993 
Q 4858 1638 4634 1273 
Q 4410 909 4070 630 
Q 3731 352 3190 176 
Q 2650 0 1978 0 
L 333 0 
L 378 154 
Q 576 154 678 275 
Q 781 397 870 710 
L 1491 2867 
Q 1517 2957 1581 3155 
Q 1645 3354 1673 3466 
Q 1702 3578 1702 3642 
Q 1702 3878 1414 3878 
Q 877 3878 314 3418 
z
M 2438 3750 
L 1510 557 
Q 1478 454 1478 390 
Q 1478 307 1568 281 
Q 1658 256 1856 256 
Q 2093 256 2355 297 
Q 2618 339 2989 489 
Q 3360 640 3645 886 
Q 3930 1133 4134 1597 
Q 4339 2061 4339 2675 
Q 4339 3328 3977 3654 
Q 3616 3981 2758 3981 
Q 2643 3981 2553 3913 
Q 2464 3846 2438 3750 
z
" transform="scale(0.015625)"/>
       <path id="DejaVuSans-29" d="M 513 4856 
L 1013 4856 
Q 1481 4119 1714 3412 
Q 1947 2706 1947 2009 
Q 1947 1309 1714 600 
Q 1481 -109 1013 -844 
L 513 -844 
Q 928 -128 1133 580 
Q 1338 1288 1338 2009 
Q 1338 2731 1133 3434 
Q 928 4138 513 4856 
z
" transform="scale(0.015625)"/>
      </defs>
      <use xlink:href="#DejaVuSans-53" transform="translate(0 0.125)"/>
      <use xlink:href="#DejaVuSans-28" transform="translate(63.476562 0.125)"/>
      <use xlink:href="#STIXNonUnicode-Italic-e230" transform="translate(102.490234 0.125)"/>
      <use xlink:href="#DejaVuSans-29" transform="translate(182.590225 0.125)"/>
     </g>
    </g>
   </g>
   <g id="matplotlib.axis_2">
    <g id="ytick_1">
     <g id="line2d_8">
      <defs>
       <path id="me5263122cc" d="M 0 0 
L -3.5 0 
" style="stroke: #000000; stroke-width: 0.8"/>
      </defs>
      <g>
       <use xlink:href="#me5263122cc" x="74.47875" y="459.921818" style="stroke: #000000; stroke-width: 0.8"/>
      </g>
     </g>
     <g id="text_9">
      <!-- 0.0 -->
      <g transform="translate(32.491875 468.280099) scale(0.22 -0.22)">
       <defs>
        <path id="DejaVuSans-2e" d="M 684 794 
L 1344 794 
L 1344 0 
L 684 0 
L 684 794 
z
" transform="scale(0.015625)"/>
       </defs>
       <use xlink:href="#DejaVuSans-30"/>
       <use xlink:href="#DejaVuSans-2e" x="63.623047"/>
       <use xlink:href="#DejaVuSans-30" x="95.410156"/>
      </g>
     </g>
    </g>
    <g id="ytick_2">
     <g id="line2d_9">
      <g>
       <use xlink:href="#me5263122cc" x="74.47875" y="373.639787" style="stroke: #000000; stroke-width: 0.8"/>
      </g>
     </g>
     <g id="text_10">
      <!-- 0.2 -->
      <g transform="translate(32.491875 381.998068) scale(0.22 -0.22)">
       <use xlink:href="#DejaVuSans-30"/>
       <use xlink:href="#DejaVuSans-2e" x="63.623047"/>
       <use xlink:href="#DejaVuSans-32" x="95.410156"/>
      </g>
     </g>
    </g>
    <g id="ytick_3">
     <g id="line2d_10">
      <g>
       <use xlink:href="#me5263122cc" x="74.47875" y="287.357756" style="stroke: #000000; stroke-width: 0.8"/>
      </g>
     </g>
     <g id="text_11">
      <!-- 0.4 -->
      <g transform="translate(32.491875 295.716037) scale(0.22 -0.22)">
       <use xlink:href="#DejaVuSans-30"/>
       <use xlink:href="#DejaVuSans-2e" x="63.623047"/>
       <use xlink:href="#DejaVuSans-34" x="95.410156"/>
      </g>
     </g>
    </g>
    <g id="ytick_4">
     <g id="line2d_11">
      <g>
       <use xlink:href="#me5263122cc" x="74.47875" y="201.075724" style="stroke: #000000; stroke-width: 0.8"/>
      </g>
     </g>
     <g id="text_12">
      <!-- 0.6 -->
      <g transform="translate(32.491875 209.434006) scale(0.22 -0.22)">
       <use xlink:href="#DejaVuSans-30"/>
       <use xlink:href="#DejaVuSans-2e" x="63.623047"/>
       <use xlink:href="#DejaVuSans-36" x="95.410156"/>
      </g>
     </g>
    </g>
    <g id="ytick_5">
     <g id="line2d_12">
      <g>
       <use xlink:href="#me5263122cc" x="74.47875" y="114.793693" style="stroke: #000000; stroke-width: 0.8"/>
      </g>
     </g>
     <g id="text_13">
      <!-- 0.8 -->
      <g transform="translate(32.491875 123.151974) scale(0.22 -0.22)">
       <defs>
        <path id="DejaVuSans-38" d="M 2034 2216 
Q 1584 2216 1326 1975 
Q 1069 1734 1069 1313 
Q 1069 891 1326 650 
Q 1584 409 2034 409 
Q 2484 409 2743 651 
Q 3003 894 3003 1313 
Q 3003 1734 2745 1975 
Q 2488 2216 2034 2216 
z
M 1403 2484 
Q 997 2584 770 2862 
Q 544 3141 544 3541 
Q 544 4100 942 4425 
Q 1341 4750 2034 4750 
Q 2731 4750 3128 4425 
Q 3525 4100 3525 3541 
Q 3525 3141 3298 2862 
Q 3072 2584 2669 2484 
Q 3125 2378 3379 2068 
Q 3634 1759 3634 1313 
Q 3634 634 3220 271 
Q 2806 -91 2034 -91 
Q 1263 -91 848 271 
Q 434 634 434 1313 
Q 434 1759 690 2068 
Q 947 2378 1403 2484 
z
M 1172 3481 
Q 1172 3119 1398 2916 
Q 1625 2713 2034 2713 
Q 2441 2713 2670 2916 
Q 2900 3119 2900 3481 
Q 2900 3844 2670 4047 
Q 2441 4250 2034 4250 
Q 1625 4250 1398 4047 
Q 1172 3844 1172 3481 
z
" transform="scale(0.015625)"/>
       </defs>
       <use xlink:href="#DejaVuSans-30"/>
       <use xlink:href="#DejaVuSans-2e" x="63.623047"/>
       <use xlink:href="#DejaVuSans-38" x="95.410156"/>
      </g>
     </g>
    </g>
    <g id="ytick_6">
     <g id="line2d_13">
      <g>
       <use xlink:href="#me5263122cc" x="74.47875" y="28.511662" style="stroke: #000000; stroke-width: 0.8"/>
      </g>
     </g>
     <g id="text_14">
      <!-- 1.0 -->
      <g transform="translate(32.491875 36.869943) scale(0.22 -0.22)">
       <use xlink:href="#DejaVuSans-31"/>
       <use xlink:href="#DejaVuSans-2e" x="63.623047"/>
       <use xlink:href="#DejaVuSans-30" x="95.410156"/>
      </g>
     </g>
    </g>
    <g id="text_15">
     <!-- div(P) -->
     <g transform="translate(23.916563 276.105937) rotate(-90) scale(0.22 -0.22)">
      <defs>
       <path id="DejaVuSans-64" d="M 2906 2969 
L 2906 4863 
L 3481 4863 
L 3481 0 
L 2906 0 
L 2906 525 
Q 2725 213 2448 61 
Q 2172 -91 1784 -91 
Q 1150 -91 751 415 
Q 353 922 353 1747 
Q 353 2572 751 3078 
Q 1150 3584 1784 3584 
Q 2172 3584 2448 3432 
Q 2725 3281 2906 2969 
z
M 947 1747 
Q 947 1113 1208 752 
Q 1469 391 1925 391 
Q 2381 391 2643 752 
Q 2906 1113 2906 1747 
Q 2906 2381 2643 2742 
Q 2381 3103 1925 3103 
Q 1469 3103 1208 2742 
Q 947 2381 947 1747 
z
" transform="scale(0.015625)"/>
       <path id="DejaVuSans-69" d="M 603 3500 
L 1178 3500 
L 1178 0 
L 603 0 
L 603 3500 
z
M 603 4863 
L 1178 4863 
L 1178 4134 
L 603 4134 
L 603 4863 
z
" transform="scale(0.015625)"/>
       <path id="DejaVuSans-76" d="M 191 3500 
L 800 3500 
L 1894 563 
L 2988 3500 
L 3597 3500 
L 2284 0 
L 1503 0 
L 191 3500 
z
" transform="scale(0.015625)"/>
       <path id="DejaVuSans-50" d="M 1259 4147 
L 1259 2394 
L 2053 2394 
Q 2494 2394 2734 2622 
Q 2975 2850 2975 3272 
Q 2975 3691 2734 3919 
Q 2494 4147 2053 4147 
L 1259 4147 
z
M 628 4666 
L 2053 4666 
Q 2838 4666 3239 4311 
Q 3641 3956 3641 3272 
Q 3641 2581 3239 2228 
Q 2838 1875 2053 1875 
L 1259 1875 
L 1259 0 
L 628 0 
L 628 4666 
z
" transform="scale(0.015625)"/>
      </defs>
      <use xlink:href="#DejaVuSans-64"/>
      <use xlink:href="#DejaVuSans-69" x="63.476562"/>
      <use xlink:href="#DejaVuSans-76" x="91.259766"/>
      <use xlink:href="#DejaVuSans-28" x="150.439453"/>
      <use xlink:href="#DejaVuSans-50" x="189.453125"/>
      <use xlink:href="#DejaVuSans-29" x="249.755859"/>
     </g>
    </g>
   </g>
   <g id="line2d_14">
    <path d="M 121.641932 28.758182 
L 121.857538 29.46643 
L 122.319553 30.165369 
L 123.104977 30.927055 
L 124.306214 31.763485 
L 126.046467 32.687977 
L 128.448941 33.700309 
L 131.683041 34.811203 
L 135.918171 36.021426 
L 140.969527 37.461394 
L 143.510605 39.008324 
L 146.636901 40.643857 
L 150.440818 42.376088 
L 155.014759 44.20785 
L 160.404925 46.35672 
L 164.486051 48.485875 
L 169.244797 50.712161 
L 174.742766 53.033906 
L 179.486112 55.061543 
L 184.691473 57.643828 
L 190.605255 60.324217 
L 200.553961 64.763528 
L 206.914357 67.755616 
L 214.029376 70.852878 
L 217.571485 72.458665 
L 224.501698 75.757415 
L 232.171134 79.158193 
L 236.960682 81.330856 
L 244.660919 84.946459 
L 253.100378 88.660038 
L 255.718459 89.897144 
L 264.050116 93.790628 
L 313.793647 116.463728 
L 323.927159 121.114662 
L 335.64692 126.48006 
L 346.488853 131.379683 
L 352.002223 133.933233 
L 363.136766 139.020324 
L 372.746662 143.431279 
L 384.451022 148.734634 
L 390.411005 151.497024 
L 402.469576 156.98482 
L 410.154413 160.528866 
L 422.690399 166.214483 
L 428.696584 169.003675 
L 441.617582 174.869457 
L 447.931776 177.79988 
L 472.233724 188.918781 
L 539.749402 219.767406 
L 554.764865 226.615518 
L 563.881945 230.823266 
L 648.676955 269.568101 
L 662.15237 275.756195 
L 712.712127 298.8761 
L 759.329362 320.186289 
L 787.558431 333.102271 
L 833.729052 354.214523 
L 878.128619 374.508733 
L 907.882335 388.129639 
L 974.01197 418.365705 
L 1008.10862 433.946608 
L 1030.901321 444.384111 
L 1064.905568 459.921818 
L 1064.905568 459.921818 
" clip-path="url(#p39114b17a0)" style="fill: none; stroke-dasharray: 7.4,3.2; stroke-dashoffset: 0; stroke: #000000; stroke-width: 2"/>
   </g>
   <g id="line2d_15">
    <path d="M 121.641932 28.758182 
L 122.504358 40.957875 
L 122.673764 41.612065 
L 122.966373 43.845528 
L 123.305183 46.083893 
L 123.505389 46.767469 
L 123.813399 48.786347 
L 124.059806 49.951824 
L 124.244612 50.422847 
L 124.537221 51.92588 
L 124.84523 53.26331 
L 125.045437 53.7532 
L 125.338046 55.155226 
L 125.599854 56.143914 
L 125.80006 56.555421 
L 126.092669 57.7843 
L 126.385278 58.785493 
L 126.585484 59.18732 
L 126.878093 60.35095 
L 127.155302 61.19859 
L 127.370908 61.612435 
L 127.678918 62.802775 
L 127.909925 63.430604 
L 128.110131 63.757138 
L 128.40274 64.742568 
L 128.695349 65.556176 
L 128.910956 65.921847 
L 129.218965 66.979066 
L 129.449972 67.539771 
L 129.665579 67.865411 
L 129.958188 68.779041 
L 130.235396 69.452556 
L 130.451003 69.783719 
L 130.759012 70.744374 
L 130.99002 71.255715 
L 131.205626 71.55325 
L 131.498235 72.39016 
L 131.775444 73.00905 
L 132.006451 73.345798 
L 132.31446 74.258245 
L 132.530067 74.673495 
L 132.761074 74.978573 
L 133.069084 75.833888 
L 133.300091 76.290791 
L 133.531098 76.585608 
L 133.839107 77.412822 
L 134.070114 77.855107 
L 134.301122 78.140632 
L 134.609131 78.942346 
L 134.840138 79.371331 
L 135.071145 79.648391 
L 135.379155 80.426826 
L 135.610162 80.843644 
L 135.841169 81.112949 
L 136.149178 81.870023 
L 136.380186 82.275653 
L 136.611193 82.53782 
L 136.919202 83.275199 
L 137.150209 83.670497 
L 137.381216 83.926066 
L 137.689226 84.645212 
L 137.920233 85.030929 
L 138.16664 85.305525 
L 138.47465 86.028555 
L 138.690257 86.359375 
L 138.936664 86.627694 
L 139.260074 87.380432 
L 139.46028 87.657991 
L 139.706688 87.920446 
L 140.030098 88.657006 
L 140.230304 88.928701 
L 140.476712 89.18566 
L 140.800122 89.907043 
L 141.000328 90.173231 
L 141.246735 90.425024 
L 141.570145 91.132132 
L 141.770351 91.393133 
L 142.016759 91.640061 
L 142.340169 92.333708 
L 142.540375 92.589816 
L 142.786783 92.83215 
L 143.110193 93.513077 
L 143.310399 93.764556 
L 143.556806 94.002543 
L 143.880216 94.671426 
L 144.080423 94.918518 
L 144.342231 95.174723 
L 144.665641 95.850915 
L 144.850446 96.052768 
L 145.112254 96.304686 
L 145.435664 96.969718 
L 145.62047 97.168281 
L 145.882278 97.416121 
L 146.205688 98.070528 
L 146.390494 98.265957 
L 146.652302 98.509911 
L 146.975712 99.154186 
L 147.160517 99.346626 
L 147.422325 99.586871 
L 147.745735 100.22147 
L 147.930541 100.411054 
L 148.192349 100.647753 
L 148.515759 101.273101 
L 148.700565 101.459951 
L 148.962373 101.693259 
L 149.285783 102.309747 
L 149.470588 102.493979 
L 149.732397 102.724036 
L 150.071207 103.369791 
L 150.240612 103.513753 
L 150.50242 103.740691 
L 150.841231 104.377794 
L 151.010636 104.519846 
L 151.272444 104.743789 
L 151.611254 105.372577 
L 151.78066 105.512795 
L 152.057868 105.753924 
L 152.396679 106.391724 
L 152.550683 106.493101 
L 152.827892 106.731208 
L 153.166702 107.361104 
L 153.320707 107.461236 
L 153.597916 107.696432 
L 153.936726 108.31871 
L 154.090731 108.417642 
L 154.367939 108.650031 
L 154.70675 109.264961 
L 154.860754 109.362735 
L 155.137963 109.592415 
L 155.476773 110.200251 
L 155.630778 110.296907 
L 155.907987 110.523972 
L 156.246797 111.124954 
L 156.400802 111.220529 
L 156.67801 111.445065 
L 157.016821 112.03942 
L 157.170825 112.133951 
L 157.448034 112.35604 
L 157.786844 112.943983 
L 157.940849 113.037501 
L 158.218058 113.257223 
L 158.556868 113.838956 
L 158.710873 113.931495 
L 158.988081 114.148923 
L 159.326892 114.72464 
L 159.480897 114.816229 
L 159.758105 115.031433 
L 160.096916 115.601316 
L 160.25092 115.691985 
L 160.543529 115.923458 
L 161.991174 117.546377 
L 162.314584 117.996756 
L 162.576392 118.273753 
L 162.869001 118.511416 
L 164.193442 119.988886 
L 164.501451 120.307216 
L 164.978866 120.825124 
L 165.286875 121.153701 
L 165.733489 121.634931 
L 166.041499 121.947654 
L 166.518913 122.456519 
L 166.826923 122.77941 
L 167.273536 123.252382 
L 167.581546 123.559783 
L 168.058961 124.060063 
L 168.36697 124.377553 
L 168.813584 124.842679 
L 169.121593 125.145021 
L 169.599008 125.637136 
L 169.922418 125.971626 
L 170.338231 126.398764 
L 170.64624 126.683935 
L 171.169856 127.208713 
L 171.493266 127.563667 
L 171.862878 127.931108 
L 172.170887 128.199704 
L 172.740705 128.758079 
L 173.079515 129.157394 
L 173.372124 129.434469 
L 173.680134 129.675048 
L 174.86597 130.913686 
L 175.17398 131.115266 
L 177.237643 133.136426 
L 177.545653 133.380102 
L 178.192473 133.977612 
L 178.546684 134.43386 
L 178.74689 134.567171 
L 179.054899 134.784697 
L 180.302338 135.995552 
L 180.625748 136.238684 
L 181.287968 136.83361 
L 181.642179 137.290729 
L 181.826984 137.394593 
L 182.150394 137.622913 
L 183.336231 138.772302 
L 183.64424 138.95954 
L 185.707904 140.839643 
L 186.031314 141.083651 
L 186.631932 141.599915 
L 186.986143 142.000901 
L 187.232551 142.178544 
L 187.555961 142.408478 
L 188.233582 142.984348 
L 188.603193 143.454809 
L 188.757198 143.502384 
L 189.080608 143.7186 
L 190.266444 144.807759 
L 190.589854 144.999643 
L 191.960496 146.168911 
L 192.299307 146.486657 
L 192.653518 146.775548 
L 192.992328 147.03528 
L 193.500544 147.453198 
L 193.839354 147.767523 
L 194.193565 148.053318 
L 194.532376 148.31028 
L 195.040591 148.723765 
L 195.394802 149.054692 
L 195.718212 149.311788 
L 196.057023 149.555034 
L 196.61144 149.999053 
L 196.96565 150.349462 
L 197.242859 150.55778 
L 197.581669 150.787614 
L 198.197688 151.273716 
L 198.5673 151.677006 
L 198.767506 151.791673 
L 199.106316 152.008385 
L 199.814738 152.565166 
L 201.909203 154.253583 
L 202.248013 154.508511 
L 202.725428 154.877196 
L 203.079639 155.181015 
L 203.43385 155.45012 
L 203.77266 155.692138 
L 204.296276 156.090036 
L 204.650487 156.412832 
L 204.958497 156.635957 
L 205.297307 156.865324 
L 205.867125 157.293341 
L 206.236736 157.655252 
L 206.483143 157.81139 
L 206.821954 158.028352 
L 207.453373 158.497897 
L 207.822985 158.890029 
L 208.00779 158.976698 
L 208.346601 159.181495 
L 209.486236 160.123148 
L 209.825046 160.285585 
L 211.934911 161.882448 
L 212.289122 162.149427 
L 212.704935 162.450816 
L 213.059146 162.716664 
L 213.474959 163.016782 
L 213.82917 163.281514 
L 214.244982 163.580376 
L 214.599193 163.844006 
L 215.015006 164.141629 
L 215.369217 164.40417 
L 215.78503 164.700569 
L 216.139241 164.962034 
L 216.555054 165.257224 
L 216.909264 165.517627 
L 217.325077 165.811623 
L 217.679288 166.070976 
L 218.095101 166.363791 
L 218.449312 166.622108 
L 218.865125 166.913757 
L 219.219336 167.171049 
L 219.635148 167.461546 
L 219.989359 167.717826 
L 220.405172 168.007184 
L 220.774783 168.27877 
L 221.175196 168.550696 
L 221.544807 168.82123 
L 221.945219 169.092107 
L 222.314831 169.3616 
L 222.715243 169.63144 
L 223.084855 169.899906 
L 223.485267 170.168721 
L 223.854878 170.43617 
L 224.255291 170.703971 
L 224.624902 170.970415 
L 225.025314 171.237213 
L 225.394926 171.502664 
L 225.795338 171.768471 
L 226.164949 172.032939 
L 226.565362 172.297766 
L 226.934973 172.561263 
L 227.335385 172.82512 
L 227.704997 173.087655 
L 228.105409 173.350554 
L 228.47502 173.612138 
L 228.875433 173.874088 
L 229.245044 174.134732 
L 229.645456 174.395744 
L 230.015068 174.655458 
L 230.41548 174.915541 
L 230.785092 175.174334 
L 231.185504 175.433499 
L 231.555115 175.691381 
L 231.955528 175.949637 
L 232.325139 176.206618 
L 232.725551 176.463975 
L 233.095163 176.720064 
L 233.495575 176.976531 
L 233.865186 177.231738 
L 234.265599 177.487323 
L 234.63521 177.741657 
L 235.035622 177.99637 
L 235.405234 178.249839 
L 235.805646 178.50369 
L 236.175257 178.756303 
L 236.57567 179.009299 
L 236.945281 179.261065 
L 237.345694 179.513216 
L 237.715305 179.764142 
L 238.115717 180.015456 
L 238.485329 180.265552 
L 238.885741 180.516037 
L 239.255352 180.765311 
L 239.655765 181.014975 
L 240.025376 181.263434 
L 240.425788 181.512285 
L 240.7954 181.759939 
L 241.195812 182.007985 
L 241.580824 182.270058 
L 241.950435 182.496761 
L 242.320047 182.733377 
L 242.75126 183.000316 
L 243.136272 183.270526 
L 243.490483 183.480276 
L 243.875495 183.730076 
L 244.275907 183.974978 
L 244.660919 184.233741 
L 245.045931 184.46285 
L 245.430942 184.720804 
L 245.815954 184.9492 
L 246.200966 185.206354 
L 246.585978 185.434044 
L 246.97099 185.690404 
L 247.356002 185.917393 
L 247.741014 186.172968 
L 248.126025 186.399263 
L 248.511037 186.654059 
L 248.896049 186.879667 
L 249.281061 187.133691 
L 249.666073 187.358618 
L 250.051085 187.611877 
L 250.436096 187.836129 
L 250.821108 188.08863 
L 251.20612 188.312213 
L 251.591132 188.563964 
L 251.976144 188.786883 
L 252.361156 189.037889 
L 252.746168 189.260152 
L 253.131179 189.51042 
L 253.516191 189.732031 
L 253.901203 189.981568 
L 254.286215 190.202533 
L 254.671227 190.451345 
L 255.056239 190.67167 
L 255.441251 190.919763 
L 255.826262 191.139453 
L 256.211274 191.386834 
L 256.596286 191.605895 
L 256.981298 191.852569 
L 257.36631 192.071007 
L 257.751322 192.31698 
L 258.136334 192.534799 
L 258.521345 192.780079 
L 258.906357 192.997284 
L 259.291369 193.241875 
L 259.676381 193.458473 
L 260.061393 193.702381 
L 260.446405 193.918375 
L 260.831416 194.161606 
L 261.216428 194.377002 
L 261.60144 194.619561 
L 261.986452 194.834365 
L 262.371464 195.076258 
L 262.756476 195.290473 
L 263.141488 195.531706 
L 263.526499 195.745338 
L 263.911511 195.985915 
L 264.296523 196.198968 
L 264.681535 196.438896 
L 265.066547 196.651375 
L 265.466959 196.904914 
L 265.836571 197.102568 
L 266.236983 197.355429 
L 266.606594 197.552556 
L 267.007007 197.804745 
L 267.376618 198.00135 
L 267.77703 198.252872 
L 268.146642 198.448958 
L 268.547054 198.699819 
L 268.916665 198.895391 
L 269.317078 199.145595 
L 269.686689 199.340657 
L 270.087101 199.59021 
L 270.456713 199.784765 
L 270.857125 200.033672 
L 271.226736 200.227725 
L 271.627149 200.47599 
L 271.99676 200.669545 
L 272.397172 200.917174 
L 272.766784 201.110234 
L 273.167196 201.357232 
L 273.536808 201.5498 
L 273.93722 201.796172 
L 274.306831 201.988253 
L 274.707244 202.234003 
L 275.076855 202.425601 
L 275.477267 202.670734 
L 275.846879 202.861851 
L 276.247291 203.106372 
L 276.616902 203.297013 
L 277.017315 203.540925 
L 277.386926 203.731094 
L 277.787338 203.974403 
L 278.15695 204.164102 
L 278.557362 204.406812 
L 278.926974 204.596045 
L 279.327386 204.838161 
L 279.696997 205.026932 
L 280.09741 205.268457 
L 280.467021 205.456769 
L 280.867433 205.697708 
L 281.237045 205.885564 
L 281.637457 206.125922 
L 282.007068 206.313326 
L 282.407481 206.553106 
L 282.777092 206.74006 
L 283.177504 206.979267 
L 283.547116 207.165776 
L 283.947528 207.404413 
L 284.317139 207.590479 
L 284.717552 207.828551 
L 285.087163 208.014178 
L 285.487575 208.251689 
L 285.857187 208.436878 
L 286.257599 208.673832 
L 286.627211 208.858588 
L 287.027623 209.094989 
L 287.397234 209.279315 
L 287.797647 209.515166 
L 288.167258 209.699064 
L 288.56767 209.934369 
L 288.937282 210.117843 
L 289.337694 210.352607 
L 289.707305 210.535659 
L 290.107718 210.769884 
L 290.477329 210.952518 
L 290.877741 211.186208 
L 291.247353 211.368426 
L 291.647765 211.601586 
L 292.017376 211.783391 
L 292.433189 212.029436 
L 292.7874 212.197418 
L 293.203213 212.442909 
L 293.557424 212.610514 
L 293.973237 212.855455 
L 294.327448 213.022685 
L 294.74326 213.26708 
L 295.097471 213.433938 
L 295.513284 213.67779 
L 295.867495 213.844278 
L 296.283308 214.08759 
L 296.637519 214.253711 
L 297.053331 214.496488 
L 297.407542 214.662244 
L 297.823355 214.904489 
L 298.177566 215.069883 
L 298.593379 215.311599 
L 298.94759 215.476632 
L 299.363403 215.717823 
L 299.717613 215.882499 
L 300.133426 216.123168 
L 300.487637 216.287488 
L 300.90345 216.527639 
L 301.257661 216.691606 
L 301.673474 216.931241 
L 302.027685 217.094857 
L 302.443497 217.333981 
L 302.797708 217.497249 
L 303.213521 217.735864 
L 303.567732 217.898785 
L 303.983545 218.136895 
L 304.337756 218.299472 
L 304.753569 218.53708 
L 305.107779 218.699314 
L 305.523592 218.936424 
L 305.877803 219.098318 
L 306.293616 219.334932 
L 306.647827 219.496488 
L 307.06364 219.732609 
L 307.417851 219.89383 
L 307.833663 220.129461 
L 308.187874 220.290349 
L 308.603687 220.525493 
L 308.957898 220.686049 
L 309.373711 220.92071 
L 309.727922 221.080936 
L 310.143734 221.315117 
L 310.497945 221.475016 
L 310.913758 221.708718 
L 311.267969 221.868292 
L 311.683782 222.101519 
L 312.037993 222.260769 
L 312.453806 222.493525 
L 312.808016 222.652454 
L 313.223829 222.884741 
L 313.57804 223.043349 
L 313.993853 223.27517 
L 314.348064 223.433461 
L 314.763877 223.664818 
L 315.118088 223.822794 
L 315.5339 224.05369 
L 315.888111 224.211352 
L 316.303924 224.44179 
L 316.658135 224.59914 
L 317.073948 224.829123 
L 317.428159 224.986162 
L 317.843971 225.215693 
L 318.198182 225.372424 
L 318.613995 225.601505 
L 318.968206 225.75793 
L 319.384019 225.986564 
L 319.73823 226.142683 
L 320.154043 226.370872 
L 320.508253 226.526689 
L 320.924066 226.754436 
L 321.278277 226.909951 
L 321.69409 227.137259 
L 322.048301 227.292475 
L 322.479514 227.532019 
L 322.818325 227.674264 
L 323.249538 227.913349 
L 323.588348 228.055322 
L 324.019562 228.293951 
L 324.358372 228.435655 
L 324.789585 228.67383 
L 325.128396 228.815265 
L 325.559609 229.052989 
L 325.898419 229.194156 
L 326.329633 229.431433 
L 326.668443 229.572334 
L 327.099656 229.809165 
L 327.438467 229.949802 
L 327.86968 230.18619 
L 328.208491 230.326564 
L 328.639704 230.562511 
L 328.978514 230.702624 
L 329.409728 230.938132 
L 329.748538 231.077986 
L 330.179751 231.313058 
L 330.518562 231.452653 
L 330.949775 231.687292 
L 331.288585 231.82663 
L 331.719799 232.060838 
L 332.058609 232.199921 
L 332.489822 232.4337 
L 332.828633 232.572528 
L 333.259846 232.805881 
L 333.598656 232.944456 
L 334.02987 233.177385 
L 334.36868 233.315709 
L 334.799893 233.548216 
L 335.138704 233.686291 
L 335.569917 233.918378 
L 335.908728 234.056204 
L 336.339941 234.287874 
L 336.678751 234.425452 
L 337.109965 234.656707 
L 337.448775 234.79404 
L 337.879988 235.024882 
L 338.218799 235.16197 
L 338.650012 235.392402 
L 338.988822 235.529246 
L 339.420036 235.75927 
L 339.758846 235.895872 
L 340.190059 236.125489 
L 340.52887 236.261851 
L 340.960083 236.491064 
L 341.298893 236.627186 
L 341.730107 236.855997 
L 342.068917 236.991881 
L 342.50013 237.220292 
L 342.838941 237.355939 
L 343.270154 237.583953 
L 343.608965 237.719364 
L 344.040178 237.946982 
L 344.378988 238.082158 
L 344.810202 238.309383 
L 345.149012 238.444326 
L 345.580225 238.671158 
L 345.919036 238.805869 
L 346.350249 239.032313 
L 346.689059 239.166792 
L 347.120273 239.392848 
L 347.459083 239.527098 
L 347.890296 239.752769 
L 348.229107 239.88679 
L 348.66032 240.112077 
L 348.999131 240.245871 
L 349.430344 240.470776 
L 349.769154 240.604343 
L 350.200368 240.828869 
L 350.539178 240.962211 
L 350.970391 241.186359 
L 351.309202 241.319477 
L 351.740415 241.543249 
L 352.079225 241.676145 
L 352.510439 241.899542 
L 352.849249 242.032216 
L 353.280462 242.255242 
L 353.619273 242.387695 
L 354.050486 242.61035 
L 354.404697 242.746697 
L 354.851311 242.98924 
L 355.14392 243.093062 
L 355.575133 243.307064 
L 355.944744 243.454703 
L 356.391358 243.696448 
L 356.683967 243.79993 
L 357.11518 244.01323 
L 357.484792 244.160385 
L 357.931405 244.40134 
L 358.224014 244.504483 
L 358.670628 244.728753 
L 359.024839 244.863765 
L 359.471453 245.103937 
L 359.764062 245.206747 
L 360.210676 245.43029 
L 360.564887 245.564866 
L 361.0115 245.804263 
L 361.31951 245.910515 
L 361.766124 246.141434 
L 362.089533 246.259662 
L 362.536147 246.490212 
L 362.859557 246.608251 
L 363.306171 246.838432 
L 363.629581 246.956283 
L 364.076195 247.186098 
L 364.399605 247.303762 
L 364.846218 247.533212 
L 365.169628 247.650689 
L 365.616242 247.879776 
L 365.939652 247.997068 
L 366.386266 248.225794 
L 366.709676 248.342902 
L 367.156289 248.571268 
L 367.479699 248.688192 
L 367.926313 248.916201 
L 368.249723 249.032942 
L 368.696337 249.260594 
L 369.019747 249.377153 
L 369.466361 249.604451 
L 369.789771 249.720829 
L 370.236384 249.947775 
L 370.559794 250.063972 
L 371.006408 250.290566 
L 371.329818 250.406584 
L 371.776432 250.632829 
L 372.099842 250.748668 
L 372.546455 250.974565 
L 372.869865 251.090226 
L 373.316479 251.315777 
L 373.639889 251.431261 
L 374.086503 251.656467 
L 374.409913 251.771775 
L 374.856526 251.996637 
L 375.179936 252.11177 
L 375.62655 252.336291 
L 375.94996 252.451249 
L 376.396574 252.67543 
L 376.719984 252.790214 
L 377.166598 253.014057 
L 377.490008 253.128668 
L 377.936621 253.352174 
L 378.260031 253.466613 
L 378.706645 253.689783 
L 379.030055 253.80405 
L 379.476669 254.026887 
L 379.800079 254.140983 
L 380.246692 254.363487 
L 380.570102 254.477414 
L 381.016716 254.699587 
L 381.355527 254.817238 
L 381.80214 255.046858 
L 382.11015 255.148777 
L 382.556764 255.370292 
L 382.895574 255.487596 
L 383.342188 255.716538 
L 383.650197 255.818157 
L 384.096811 256.039021 
L 384.435621 256.15598 
L 384.882235 256.38425 
L 385.190245 256.485571 
L 385.636858 256.705789 
L 385.975669 256.822407 
L 386.422283 257.050012 
L 386.730292 257.151038 
L 387.176906 257.370615 
L 387.515716 257.486894 
L 387.96233 257.713839 
L 388.270339 257.814573 
L 388.716953 258.033515 
L 389.055764 258.149459 
L 389.502377 258.37575 
L 389.810387 258.476193 
L 390.257001 258.694507 
L 390.595811 258.810117 
L 391.057825 259.047491 
L 391.350434 259.135916 
L 391.797048 259.353605 
L 392.135858 259.468886 
L 392.597873 259.705583 
L 392.890482 259.793756 
L 393.352496 260.022246 
L 393.660505 260.121976 
L 394.12252 260.350143 
L 394.430529 260.449731 
L 394.892543 260.677576 
L 395.200553 260.777024 
L 395.662567 261.004548 
L 395.970576 261.103856 
L 396.432591 261.33106 
L 396.7406 261.43023 
L 397.202614 261.657116 
L 397.510624 261.756146 
L 397.972638 261.982716 
L 398.280648 262.081608 
L 398.742662 262.307863 
L 399.050671 262.406618 
L 399.512685 262.632558 
L 399.820695 262.731176 
L 400.282709 262.956803 
L 400.590719 263.055285 
L 401.052733 263.280601 
L 401.360742 263.378947 
L 401.822757 263.603952 
L 402.130766 263.702163 
L 402.59278 263.92686 
L 402.90079 264.024936 
L 403.362804 264.249325 
L 403.670813 264.347267 
L 404.132828 264.57135 
L 404.440837 264.669158 
L 404.902851 264.892936 
L 405.210861 264.990611 
L 405.672875 265.214085 
L 405.980885 265.311628 
L 406.442899 265.534799 
L 406.750908 265.63221 
L 407.212923 265.855079 
L 407.520932 265.952359 
L 407.982946 266.174928 
L 408.306356 266.275783 
L 408.76837 266.505711 
L 409.060979 266.591366 
L 409.522994 266.813338 
L 409.846404 266.913923 
L 410.308418 267.143236 
L 410.601027 267.228662 
L 411.063041 267.450042 
L 411.386451 267.550359 
L 411.848465 267.779062 
L 412.141074 267.864261 
L 412.603088 268.085054 
L 412.926498 268.185106 
L 413.388513 268.413203 
L 413.681122 268.498177 
L 414.143136 268.718388 
L 414.466546 268.818175 
L 414.92856 269.045673 
L 415.221169 269.130423 
L 415.683183 269.350056 
L 416.006593 269.449582 
L 416.468607 269.676483 
L 416.761216 269.761013 
L 417.223231 269.980071 
L 417.546641 270.079338 
L 418.008655 270.305648 
L 418.301264 270.389958 
L 418.763278 270.608447 
L 419.086688 270.707456 
L 419.548702 270.93318 
L 419.841311 271.017272 
L 420.303325 271.235197 
L 420.626735 271.33395 
L 421.08875 271.559092 
L 421.381359 271.642967 
L 421.843373 271.860332 
L 422.166783 271.958831 
L 422.628797 272.183396 
L 422.921406 272.267056 
L 423.38342 272.483865 
L 423.70683 272.582113 
L 424.168844 272.806105 
L 424.461453 272.889552 
L 424.923468 273.105809 
L 425.246878 273.203807 
L 425.708892 273.42723 
L 426.001501 273.510466 
L 426.463515 273.726175 
L 426.786925 273.823925 
L 427.248939 274.046785 
L 427.541548 274.12981 
L 428.003563 274.344976 
L 428.326972 274.44248 
L 428.788987 274.664779 
L 429.081596 274.747596 
L 429.54361 274.962223 
L 429.86702 275.059483 
L 430.329034 275.281226 
L 430.621643 275.363837 
L 431.083657 275.577928 
L 431.407067 275.674946 
L 431.884482 275.907315 
L 432.161691 275.978542 
L 432.623705 276.192102 
L 432.947115 276.28888 
L 433.424529 276.520673 
L 433.701738 276.591725 
L 434.179153 276.815649 
L 434.487162 276.901296 
L 434.964577 277.132519 
L 435.241785 277.203396 
L 435.7192 277.426769 
L 436.027209 277.512207 
L 436.504624 277.742863 
L 436.781833 277.813566 
L 437.259247 278.036393 
L 437.567257 278.121622 
L 438.044672 278.351715 
L 438.32188 278.422246 
L 438.799295 278.644531 
L 439.107304 278.729552 
L 439.584719 278.959087 
L 439.861928 279.029447 
L 440.339342 279.251194 
L 440.647352 279.33601 
L 441.124766 279.56499 
L 441.401975 279.63518 
L 441.87939 279.856393 
L 442.187399 279.941004 
L 442.664814 280.169434 
L 442.942022 280.239456 
L 443.419437 280.460138 
L 443.727447 280.544547 
L 444.204861 280.77243 
L 444.48207 280.842284 
L 444.959484 281.06244 
L 445.267494 281.146647 
L 445.744909 281.373988 
L 446.022117 281.443676 
L 446.499532 281.663308 
L 446.807541 281.747316 
L 447.284956 281.974118 
L 447.562165 282.043641 
L 448.039579 282.262754 
L 448.347589 282.346564 
L 448.825003 282.572831 
L 449.102212 282.64219 
L 449.579627 282.860787 
L 449.887636 282.9444 
L 450.365051 283.170136 
L 450.642259 283.239332 
L 451.119674 283.457418 
L 451.427684 283.540835 
L 451.905098 283.766043 
L 452.182307 283.835078 
L 452.659721 284.052655 
L 452.967731 284.135878 
L 453.445146 284.360562 
L 453.722354 284.429437 
L 454.199769 284.646509 
L 454.507778 284.729539 
L 454.985193 284.953703 
L 455.262402 285.022419 
L 455.739816 285.23899 
L 456.047826 285.321828 
L 456.52524 285.545476 
L 456.802449 285.614033 
L 457.279864 285.830106 
L 457.587873 285.912754 
L 458.065288 286.135889 
L 458.342496 286.204289 
L 458.819911 286.419867 
L 459.127921 286.502326 
L 459.605335 286.724952 
L 459.897944 286.796608 
L 460.375359 287.01898 
L 460.667968 287.090554 
L 461.145383 287.312674 
L 461.437992 287.384167 
L 461.915406 287.606035 
L 462.208015 287.677447 
L 462.68543 287.899064 
L 462.978039 287.970396 
L 463.455454 288.191763 
L 463.748063 288.263014 
L 464.225478 288.484132 
L 464.518087 288.555303 
L 464.995501 288.776173 
L 465.28811 288.847264 
L 465.765525 289.067886 
L 466.058134 289.138898 
L 466.535549 289.359273 
L 466.828158 289.430206 
L 467.305572 289.650335 
L 467.598181 289.721189 
L 468.075596 289.941073 
L 468.368205 290.011848 
L 468.84562 290.231488 
L 469.138229 290.302185 
L 469.615643 290.521581 
L 469.908252 290.5922 
L 470.385667 290.811354 
L 470.678276 290.881894 
L 471.155691 291.100806 
L 471.4483 291.171269 
L 471.925715 291.38994 
L 472.218324 291.460325 
L 472.695738 291.678756 
L 472.988347 291.749064 
L 473.465762 291.967256 
L 473.758371 292.037486 
L 474.235786 292.25544 
L 474.528395 292.325594 
L 475.005809 292.543309 
L 475.298418 292.613386 
L 475.791234 292.841556 
L 476.053042 292.897533 
L 476.530456 293.107658 
L 476.838466 293.188033 
L 477.331281 293.415708 
L 477.593089 293.471564 
L 478.070504 293.681234 
L 478.378513 293.761436 
L 478.871328 293.988618 
L 479.133136 294.044354 
L 479.625952 294.263977 
L 479.918561 294.333601 
L 480.411376 294.560295 
L 480.673184 294.615911 
L 481.165999 294.835063 
L 481.458608 294.904537 
L 481.951423 295.130746 
L 482.213231 295.186243 
L 482.706046 295.404926 
L 482.998655 295.474252 
L 483.491471 295.699979 
L 483.753279 295.755357 
L 484.246094 295.973576 
L 484.538703 296.042755 
L 485.031518 296.268002 
L 485.308727 296.326553 
L 485.801542 296.551562 
L 486.07875 296.610051 
L 486.571565 296.834822 
L 486.848774 296.89325 
L 487.341589 297.117784 
L 487.618798 297.17615 
L 488.111613 297.400448 
L 488.388821 297.458752 
L 488.881637 297.682815 
L 489.158845 297.741058 
L 489.65166 297.964886 
L 489.928869 298.023068 
L 490.421684 298.246662 
L 490.698892 298.304784 
L 491.191708 298.528144 
L 491.468916 298.586205 
L 491.961731 298.809333 
L 492.23894 298.867334 
L 492.731755 299.09023 
L 493.008964 299.148171 
L 493.501779 299.370835 
L 493.778987 299.428716 
L 494.271802 299.65115 
L 494.549011 299.708971 
L 495.041826 299.931176 
L 495.319035 299.988937 
L 495.81185 300.210913 
L 496.089058 300.268615 
L 496.581874 300.490362 
L 496.859082 300.548005 
L 497.351897 300.769524 
L 497.629106 300.827108 
L 498.121921 301.048401 
L 498.399129 301.105925 
L 498.891945 301.326992 
L 499.169153 301.384458 
L 499.661968 301.605299 
L 499.939177 301.662707 
L 500.431992 301.883323 
L 500.709201 301.940672 
L 501.202016 302.161065 
L 501.479224 302.218355 
L 501.972039 302.438524 
L 502.249248 302.495757 
L 502.742063 302.715703 
L 503.019272 302.772878 
L 503.512087 302.992603 
L 503.789295 303.04972 
L 504.282111 303.269223 
L 504.559319 303.326282 
L 505.052134 303.545564 
L 505.329343 303.602567 
L 505.822158 303.821629 
L 506.099367 303.878574 
L 506.592182 304.097417 
L 506.86939 304.154305 
L 507.362205 304.372929 
L 507.639414 304.42976 
L 508.132229 304.648166 
L 508.409438 304.704941 
L 508.902253 304.92313 
L 509.179461 304.979848 
L 509.672277 305.19782 
L 509.949485 305.254482 
L 510.4423 305.472237 
L 510.719509 305.528843 
L 511.212324 305.746383 
L 511.489532 305.802933 
L 511.982348 306.020258 
L 512.259556 306.076752 
L 512.752371 306.293863 
L 513.02958 306.350302 
L 513.522395 306.567199 
L 513.799604 306.623582 
L 514.292419 306.840267 
L 514.569627 306.896594 
L 515.062442 307.113066 
L 515.339651 307.169339 
L 515.832466 307.385599 
L 516.109675 307.441817 
L 516.60249 307.657866 
L 516.879698 307.714029 
L 517.372514 307.929868 
L 517.649722 307.985976 
L 518.142537 308.201605 
L 518.419746 308.257658 
L 518.912561 308.473078 
L 519.189769 308.529077 
L 519.682585 308.744288 
L 519.959793 308.800233 
L 520.452608 309.015236 
L 520.729817 309.071127 
L 521.222632 309.285923 
L 521.499841 309.34176 
L 521.992656 309.556349 
L 522.269864 309.612132 
L 522.762679 309.826515 
L 523.039888 309.882245 
L 523.532703 310.096421 
L 523.809912 310.152098 
L 524.302727 310.36607 
L 524.579935 310.421693 
L 525.072751 310.63546 
L 525.349959 310.69103 
L 525.858175 310.914816 
L 526.119983 310.960111 
L 526.628198 311.183683 
L 526.890007 311.228935 
L 527.398222 311.452295 
L 527.66003 311.497505 
L 528.168246 311.720653 
L 528.430054 311.765819 
L 528.93827 311.988756 
L 529.200078 312.03388 
L 529.708293 312.256606 
L 529.970101 312.301687 
L 530.478317 312.524203 
L 530.740125 312.569242 
L 531.248341 312.791549 
L 531.510149 312.836545 
L 532.018364 313.058643 
L 532.280172 313.103597 
L 532.788388 313.325487 
L 533.050196 313.370399 
L 533.558412 313.592081 
L 533.82022 313.636951 
L 534.328435 313.858426 
L 534.590244 313.903254 
L 535.098459 314.124522 
L 535.360267 314.169308 
L 535.868483 314.390371 
L 536.130291 314.435116 
L 536.638507 314.655973 
L 536.900315 314.700676 
L 537.40853 314.921328 
L 537.670338 314.96599 
L 538.178554 315.186438 
L 538.440362 315.231059 
L 538.948578 315.451303 
L 539.210386 315.495883 
L 539.718601 315.715924 
L 539.980409 315.760462 
L 540.488625 315.980301 
L 540.750433 316.024799 
L 541.258649 316.244436 
L 541.520457 316.288892 
L 542.028673 316.508328 
L 542.290481 316.552743 
L 542.798696 316.771978 
L 543.060504 316.816353 
L 543.56872 317.035387 
L 543.830528 317.079722 
L 544.338744 317.298557 
L 544.600552 317.342851 
L 545.108767 317.561486 
L 545.370575 317.60574 
L 545.878791 317.824177 
L 546.140599 317.868391 
L 546.648815 318.086629 
L 546.910623 318.130803 
L 547.418838 318.348844 
L 547.680647 318.392978 
L 548.188862 318.610822 
L 548.45067 318.654915 
L 548.958886 318.872563 
L 549.220694 318.916617 
L 549.72891 319.134069 
L 549.990718 319.178083 
L 550.498933 319.395339 
L 550.760741 319.439314 
L 551.268957 319.656375 
L 551.530765 319.700311 
L 552.038981 319.917177 
L 552.300789 319.961073 
L 552.809004 320.177746 
L 553.070812 320.221603 
L 553.579028 320.438083 
L 553.840836 320.481901 
L 554.349052 320.698187 
L 554.61086 320.741966 
L 555.119075 320.95806 
L 555.380884 321.0018 
L 555.889099 321.217703 
L 556.150907 321.261404 
L 556.659123 321.477115 
L 556.920931 321.520778 
L 557.429147 321.736298 
L 557.690955 321.779922 
L 558.19917 321.995252 
L 558.460978 322.038837 
L 558.969194 322.253977 
L 559.231002 322.297524 
L 559.739218 322.512475 
L 560.001026 322.555984 
L 560.509241 322.770746 
L 560.771049 322.814217 
L 561.279265 323.028791 
L 561.541073 323.072223 
L 562.049289 323.286609 
L 562.311097 323.330003 
L 562.819313 323.544202 
L 563.081121 323.587559 
L 563.589336 323.801571 
L 563.851144 323.844889 
L 564.35936 324.058715 
L 564.621168 324.101996 
L 565.129384 324.315636 
L 565.391192 324.358879 
L 565.899407 324.572334 
L 566.161215 324.61554 
L 566.669431 324.828809 
L 566.931239 324.871978 
L 567.439455 325.085063 
L 567.701263 325.128194 
L 568.209478 325.341095 
L 568.471287 325.384189 
L 568.979502 325.596907 
L 569.24131 325.639964 
L 569.749526 325.852499 
L 570.011334 325.895519 
L 570.51955 326.107871 
L 570.781358 326.150854 
L 571.289573 326.363024 
L 571.566782 326.409133 
L 572.074997 326.627846 
L 572.321405 326.660869 
L 572.829621 326.872676 
L 573.106829 326.918706 
L 573.615045 327.137046 
L 573.861452 327.170012 
L 574.369668 327.381459 
L 574.646877 327.42741 
L 575.155092 327.645379 
L 575.4015 327.67829 
L 575.909715 327.889377 
L 576.186924 327.935251 
L 576.69514 328.15285 
L 576.941547 328.185705 
L 577.449763 328.396435 
L 577.726971 328.442231 
L 578.758803 328.779708 
L 579.96004 329.187456 
L 580.468256 329.370823 
L 580.837867 329.460495 
L 581.946701 329.841508 
L 582.454917 329.985573 
L 585.904623 331.160531 
L 586.197232 331.215445 
L 587.229064 331.549834 
L 588.430301 331.95386 
L 588.953917 332.144462 
L 589.292727 332.22091 
L 590.370761 332.578878 
L 591.079182 332.800646 
L 592.280419 333.203013 
L 592.804036 333.392835 
L 593.142846 333.468969 
L 594.220879 333.825474 
L 594.944701 334.053001 
L 596.084337 334.441404 
L 596.607953 334.610208 
L 597.039166 334.722957 
L 598.225002 335.150251 
L 598.517611 335.204451 
L 599.549443 335.534495 
L 600.75068 335.933284 
L 601.274296 336.121421 
L 601.628507 336.200337 
L 602.752742 336.581003 
L 603.230156 336.709496 
L 605.170616 337.381167 
L 605.447825 337.425631 
L 606.495057 337.759888 
L 607.634692 338.143642 
L 608.158308 338.310428 
L 608.589521 338.421831 
L 609.775358 338.844032 
L 610.083367 338.900817 
L 611.161401 339.25109 
L 612.162431 339.60634 
L 612.686048 339.732511 
L 613.73328 340.095501 
L 614.256896 340.234731 
L 614.888315 340.419591 
L 617.013581 341.095733 
L 618.107014 341.450831 
L 618.738434 341.634974 
L 620.863699 342.308496 
L 621.957133 342.662224 
L 622.588552 342.845657 
L 624.729218 343.519967 
L 625.853453 343.891798 
L 626.330868 344.017314 
L 628.286728 344.682783 
L 628.548536 344.716899 
L 629.595768 345.043457 
L 630.750804 345.42002 
L 631.27442 345.589496 
L 631.690233 345.690199 
L 632.876069 346.102738 
L 633.184079 346.158226 
L 634.277512 346.507671 
L 634.924332 346.694521 
L 636.926394 347.333721 
L 637.45001 347.508657 
L 637.835022 347.596756 
L 639.005458 347.993043 
L 639.359669 348.069027 
L 640.483903 348.435571 
L 640.976718 348.563577 
L 644.441825 349.679563 
L 644.734434 349.725446 
L 645.827868 350.071015 
L 646.490088 350.261557 
L 647.937733 350.701724 
L 662.47578 355.12622 
L 663.646216 355.513382 
L 664.015828 355.591057 
L 665.186264 355.977669 
L 665.555875 356.055233 
L 666.726311 356.441298 
L 667.095922 356.518753 
L 668.266358 356.904273 
L 668.63597 356.981619 
L 669.806406 357.366597 
L 670.176017 357.443834 
L 671.346453 357.828271 
L 671.716065 357.9054 
L 672.886501 358.289299 
L 673.256112 358.36632 
L 674.426548 358.749683 
L 674.796159 358.826596 
L 675.966596 359.209426 
L 676.336207 359.286233 
L 677.506643 359.668531 
L 677.876254 359.745231 
L 679.04669 360.127 
L 679.416302 360.203595 
L 680.586738 360.584837 
L 680.956349 360.661325 
L 682.126785 361.042043 
L 682.496397 361.118426 
L 683.666833 361.498621 
L 684.036444 361.5749 
L 685.22228 361.962867 
L 685.561091 362.027378 
L 686.716126 362.393888 
L 687.14734 362.493254 
L 689.056998 363.091739 
L 689.42661 363.167654 
L 690.612446 363.553777 
L 690.966657 363.621337 
L 692.152494 364.006937 
L 692.506705 364.074405 
L 693.692541 364.459486 
L 694.046752 364.526863 
L 695.232589 364.911426 
L 695.586799 364.978713 
L 696.772636 365.362759 
L 697.126847 365.429956 
L 698.312683 365.813489 
L 698.666894 365.880596 
L 699.852731 366.263617 
L 700.206942 366.330635 
L 701.392778 366.713146 
L 701.746989 366.780075 
L 702.932826 367.162079 
L 703.287037 367.228919 
L 704.472873 367.610417 
L 704.827084 367.677169 
L 706.01292 368.058163 
L 706.367131 368.124827 
L 707.552968 368.50532 
L 707.907179 368.571896 
L 709.093015 368.951889 
L 709.447226 369.018377 
L 710.633063 369.397873 
L 710.987274 369.464275 
L 712.17311 369.843274 
L 712.527321 369.909589 
L 713.713157 370.288095 
L 714.067368 370.354324 
L 715.253205 370.732338 
L 715.607416 370.798481 
L 716.793252 371.176005 
L 717.147463 371.242062 
L 718.3333 371.619098 
L 718.687511 371.68507 
L 719.873347 372.06162 
L 720.227558 372.127507 
L 721.413395 372.503572 
L 721.767605 372.569374 
L 722.953442 372.944957 
L 723.307653 373.010675 
L 724.493489 373.385778 
L 724.8477 373.451412 
L 726.033537 373.826035 
L 726.387748 373.891586 
L 727.573584 374.265732 
L 727.927795 374.331199 
L 729.113632 374.704871 
L 729.467842 374.770255 
L 730.653679 375.143453 
L 731.00789 375.208755 
L 732.193726 375.581481 
L 732.547937 375.6467 
L 733.733774 376.018957 
L 734.087985 376.084094 
L 735.273821 376.455883 
L 735.628032 376.520938 
L 736.813869 376.892261 
L 737.168079 376.957235 
L 738.369316 377.336194 
L 738.708127 377.392986 
L 739.909364 377.771472 
L 740.248174 377.828193 
L 741.449411 378.206209 
L 741.788222 378.262858 
L 742.989459 378.640405 
L 743.328269 378.696985 
L 744.529506 379.074064 
L 744.868317 379.130573 
L 746.069553 379.507187 
L 746.408364 379.563626 
L 747.609601 379.939776 
L 747.948411 379.996146 
L 749.149648 380.371833 
L 749.488459 380.428134 
L 750.689696 380.80336 
L 751.028506 380.859592 
L 752.229743 381.23436 
L 752.568554 381.290523 
L 753.769791 381.664833 
L 754.108601 381.720928 
L 755.309838 382.094782 
L 755.648648 382.150809 
L 756.849885 382.524209 
L 757.188696 382.580168 
L 758.389933 382.953116 
L 758.728743 383.009007 
L 759.92998 383.381505 
L 760.268791 383.437328 
L 761.470028 383.809377 
L 761.808838 383.865133 
L 763.010075 384.236734 
L 763.348885 384.292424 
L 764.550122 384.663578 
L 764.888933 384.719201 
L 766.09017 385.089912 
L 766.42898 385.145468 
L 767.630217 385.515736 
L 767.969028 385.571226 
L 769.170265 385.941053 
L 769.509075 385.996478 
L 770.710312 386.365865 
L 771.049122 386.421223 
L 772.250359 386.790173 
L 772.58917 386.845466 
L 773.790407 387.213979 
L 774.129217 387.269206 
L 775.330454 387.637285 
L 775.669265 387.692447 
L 776.870502 388.060092 
L 777.209312 388.11519 
L 778.410549 388.482403 
L 778.749359 388.537436 
L 779.950596 388.904219 
L 780.289407 388.959188 
L 781.490644 389.325542 
L 781.829454 389.380446 
L 783.030691 389.746374 
L 783.369502 389.801214 
L 784.570739 390.166715 
L 784.909549 390.221492 
L 786.110786 390.586569 
L 786.449597 390.641282 
L 787.650833 391.005937 
L 787.989644 391.060586 
L 789.190881 391.42482 
L 789.529691 391.479406 
L 790.730928 391.84322 
L 791.085139 391.901005 
L 792.963997 392.432764 
L 793.472213 392.546384 
L 810.28953 397.080961 
L 811.444566 397.408528 
L 811.968182 397.524816 
L 818.867594 399.364738 
L 836.963151 404.194124 
L 837.271161 404.231328 
L 838.487798 404.590481 
L 838.826609 404.638633 
L 840.720867 405.159266 
L 841.213682 405.262194 
L 858.801024 409.844774 
L 859.97146 410.168153 
L 860.464275 410.26973 
L 878.067017 414.795663 
L 879.268254 415.133135 
L 879.668666 415.201348 
L 882.39455 415.94063 
L 882.71796 415.979764 
L 884.612218 416.485179 
L 885.120434 416.589096 
L 892.666666 418.508936 
L 893.806301 418.808321 
L 894.530124 418.984932 
L 895.592756 419.270188 
L 896.177974 419.417908 
L 896.639988 419.506512 
L 915.505569 424.282065 
L 915.828979 424.320374 
L 917.738638 424.821823 
L 918.216053 424.912976 
L 936.588818 429.463079 
L 937.805456 429.795258 
L 938.190468 429.853938 
L 941.624773 430.726771 
L 942.071387 430.806163 
L 961.706991 435.635764 
L 962.045802 435.676066 
L 964.694683 436.340315 
L 965.2337 436.447218 
L 968.852811 437.331543 
L 969.915444 437.580832 
L 971.825103 438.064264 
L 972.425721 438.211808 
L 972.887736 438.293383 
L 992.030525 442.879888 
L 993.262563 443.208281 
L 993.632174 443.258103 
L 997.08188 444.109439 
L 997.513094 444.179623 
L 1017.918722 449.036278 
L 1018.272933 449.078402 
L 1021.722639 449.91798 
L 1022.153852 449.987196 
L 1043.329504 454.955862 
L 1043.683715 454.997401 
L 1047.148822 455.831963 
L 1047.564634 455.893609 
L 1064.905568 459.921818 
L 1064.905568 459.921818 
" clip-path="url(#p39114b17a0)" style="fill: none; stroke: #000000; stroke-width: 2; stroke-linecap: square"/>
   </g>
   <g id="patch_3">
    <path d="M 74.47875 481.48 
L 74.47875 7.2 
" style="fill: none; stroke: #000000; stroke-width: 0.8; stroke-linejoin: miter; stroke-linecap: square"/>
   </g>
   <g id="patch_4">
    <path d="M 1112.06875 481.48 
L 1112.06875 7.2 
" style="fill: none; stroke: #000000; stroke-width: 0.8; stroke-linejoin: miter; stroke-linecap: square"/>
   </g>
   <g id="patch_5">
    <path d="M 74.47875 481.48 
L 1112.06875 481.48 
" style="fill: none; stroke: #000000; stroke-width: 0.8; stroke-linejoin: miter; stroke-linecap: square"/>
   </g>
   <g id="patch_6">
    <path d="M 74.47875 7.2 
L 1112.06875 7.2 
" style="fill: none; stroke: #000000; stroke-width: 0.8; stroke-linejoin: miter; stroke-linecap: square"/>
   </g>
   <g id="legend_1">
    <g id="patch_7">
     <path d="M 859.94875 89.48 
L 1096.66875 89.48 
Q 1101.06875 89.48 1101.06875 85.08 
L 1101.06875 22.6 
Q 1101.06875 18.2 1096.66875 18.2 
L 859.94875 18.2 
Q 855.54875 18.2 855.54875 22.6 
L 855.54875 85.08 
Q 855.54875 89.48 859.94875 89.48 
z
" style="fill: #ffffff; opacity: 0.8; stroke: #cccccc; stroke-linejoin: miter"/>
    </g>
    <g id="line2d_16">
     <path d="M 864.34875 36.02 
L 886.34875 36.02 
L 908.34875 36.02 
" style="fill: none; stroke-dasharray: 7.4,3.2; stroke-dashoffset: 0; stroke: #000000; stroke-width: 2"/>
    </g>
    <g id="text_16">
     <!-- $\mathcal{D}$ maximing b -->
     <g transform="translate(925.94875 43.72) scale(0.22 -0.22)">
      <defs>
       <path id="DejaVuSans-20" transform="scale(0.015625)"/>
       <path id="DejaVuSans-6d" d="M 3328 2828 
Q 3544 3216 3844 3400 
Q 4144 3584 4550 3584 
Q 5097 3584 5394 3201 
Q 5691 2819 5691 2113 
L 5691 0 
L 5113 0 
L 5113 2094 
Q 5113 2597 4934 2840 
Q 4756 3084 4391 3084 
Q 3944 3084 3684 2787 
Q 3425 2491 3425 1978 
L 3425 0 
L 2847 0 
L 2847 2094 
Q 2847 2600 2669 2842 
Q 2491 3084 2119 3084 
Q 1678 3084 1418 2786 
Q 1159 2488 1159 1978 
L 1159 0 
L 581 0 
L 581 3500 
L 1159 3500 
L 1159 2956 
Q 1356 3278 1631 3431 
Q 1906 3584 2284 3584 
Q 2666 3584 2933 3390 
Q 3200 3197 3328 2828 
z
" transform="scale(0.015625)"/>
       <path id="DejaVuSans-61" d="M 2194 1759 
Q 1497 1759 1228 1600 
Q 959 1441 959 1056 
Q 959 750 1161 570 
Q 1363 391 1709 391 
Q 2188 391 2477 730 
Q 2766 1069 2766 1631 
L 2766 1759 
L 2194 1759 
z
M 3341 1997 
L 3341 0 
L 2766 0 
L 2766 531 
Q 2569 213 2275 61 
Q 1981 -91 1556 -91 
Q 1019 -91 701 211 
Q 384 513 384 1019 
Q 384 1609 779 1909 
Q 1175 2209 1959 2209 
L 2766 2209 
L 2766 2266 
Q 2766 2663 2505 2880 
Q 2244 3097 1772 3097 
Q 1472 3097 1187 3025 
Q 903 2953 641 2809 
L 641 3341 
Q 956 3463 1253 3523 
Q 1550 3584 1831 3584 
Q 2591 3584 2966 3190 
Q 3341 2797 3341 1997 
z
" transform="scale(0.015625)"/>
       <path id="DejaVuSans-78" d="M 3513 3500 
L 2247 1797 
L 3578 0 
L 2900 0 
L 1881 1375 
L 863 0 
L 184 0 
L 1544 1831 
L 300 3500 
L 978 3500 
L 1906 2253 
L 2834 3500 
L 3513 3500 
z
" transform="scale(0.015625)"/>
       <path id="DejaVuSans-6e" d="M 3513 2113 
L 3513 0 
L 2938 0 
L 2938 2094 
Q 2938 2591 2744 2837 
Q 2550 3084 2163 3084 
Q 1697 3084 1428 2787 
Q 1159 2491 1159 1978 
L 1159 0 
L 581 0 
L 581 3500 
L 1159 3500 
L 1159 2956 
Q 1366 3272 1645 3428 
Q 1925 3584 2291 3584 
Q 2894 3584 3203 3211 
Q 3513 2838 3513 2113 
z
" transform="scale(0.015625)"/>
       <path id="DejaVuSans-67" d="M 2906 1791 
Q 2906 2416 2648 2759 
Q 2391 3103 1925 3103 
Q 1463 3103 1205 2759 
Q 947 2416 947 1791 
Q 947 1169 1205 825 
Q 1463 481 1925 481 
Q 2391 481 2648 825 
Q 2906 1169 2906 1791 
z
M 3481 434 
Q 3481 -459 3084 -895 
Q 2688 -1331 1869 -1331 
Q 1566 -1331 1297 -1286 
Q 1028 -1241 775 -1147 
L 775 -588 
Q 1028 -725 1275 -790 
Q 1522 -856 1778 -856 
Q 2344 -856 2625 -561 
Q 2906 -266 2906 331 
L 2906 616 
Q 2728 306 2450 153 
Q 2172 0 1784 0 
Q 1141 0 747 490 
Q 353 981 353 1791 
Q 353 2603 747 3093 
Q 1141 3584 1784 3584 
Q 2172 3584 2450 3431 
Q 2728 3278 2906 2969 
L 2906 3500 
L 3481 3500 
L 3481 434 
z
" transform="scale(0.015625)"/>
       <path id="DejaVuSans-62" d="M 3116 1747 
Q 3116 2381 2855 2742 
Q 2594 3103 2138 3103 
Q 1681 3103 1420 2742 
Q 1159 2381 1159 1747 
Q 1159 1113 1420 752 
Q 1681 391 2138 391 
Q 2594 391 2855 752 
Q 3116 1113 3116 1747 
z
M 1159 2969 
Q 1341 3281 1617 3432 
Q 1894 3584 2278 3584 
Q 2916 3584 3314 3078 
Q 3713 2572 3713 1747 
Q 3713 922 3314 415 
Q 2916 -91 2278 -91 
Q 1894 -91 1617 61 
Q 1341 213 1159 525 
L 1159 0 
L 581 0 
L 581 4863 
L 1159 4863 
L 1159 2969 
z
" transform="scale(0.015625)"/>
      </defs>
      <use xlink:href="#STIXNonUnicode-Italic-e230" transform="translate(0 0.015625)"/>
      <use xlink:href="#DejaVuSans-20" transform="translate(80.099991 0.015625)"/>
      <use xlink:href="#DejaVuSans-6d" transform="translate(111.8871 0.015625)"/>
      <use xlink:href="#DejaVuSans-61" transform="translate(209.29921 0.015625)"/>
      <use xlink:href="#DejaVuSans-78" transform="translate(270.578506 0.015625)"/>
      <use xlink:href="#DejaVuSans-69" transform="translate(329.758194 0.015625)"/>
      <use xlink:href="#DejaVuSans-6d" transform="translate(357.541397 0.015625)"/>
      <use xlink:href="#DejaVuSans-69" transform="translate(454.953506 0.015625)"/>
      <use xlink:href="#DejaVuSans-6e" transform="translate(482.73671 0.015625)"/>
      <use xlink:href="#DejaVuSans-67" transform="translate(546.115616 0.015625)"/>
      <use xlink:href="#DejaVuSans-20" transform="translate(609.592178 0.015625)"/>
      <use xlink:href="#DejaVuSans-62" transform="translate(641.379288 0.015625)"/>
     </g>
    </g>
    <g id="line2d_17">
     <path d="M 864.34875 68.36 
L 886.34875 68.36 
L 908.34875 68.36 
" style="fill: none; stroke: #000000; stroke-width: 2; stroke-linecap: square"/>
    </g>
    <g id="text_17">
     <!-- $\mathcal{D}$ minimizing b -->
     <g transform="translate(925.94875 76.06) scale(0.22 -0.22)">
      <defs>
       <path id="DejaVuSans-7a" d="M 353 3500 
L 3084 3500 
L 3084 2975 
L 922 459 
L 3084 459 
L 3084 0 
L 275 0 
L 275 525 
L 2438 3041 
L 353 3041 
L 353 3500 
z
" transform="scale(0.015625)"/>
      </defs>
      <use xlink:href="#STIXNonUnicode-Italic-e230" transform="translate(0 0.015625)"/>
      <use xlink:href="#DejaVuSans-20" transform="translate(80.099991 0.015625)"/>
      <use xlink:href="#DejaVuSans-6d" transform="translate(111.8871 0.015625)"/>
      <use xlink:href="#DejaVuSans-69" transform="translate(209.29921 0.015625)"/>
      <use xlink:href="#DejaVuSans-6e" transform="translate(237.082413 0.015625)"/>
      <use xlink:href="#DejaVuSans-69" transform="translate(300.461319 0.015625)"/>
      <use xlink:href="#DejaVuSans-6d" transform="translate(328.244522 0.015625)"/>
      <use xlink:href="#DejaVuSans-69" transform="translate(425.656631 0.015625)"/>
      <use xlink:href="#DejaVuSans-7a" transform="translate(453.439835 0.015625)"/>
      <use xlink:href="#DejaVuSans-69" transform="translate(505.930069 0.015625)"/>
      <use xlink:href="#DejaVuSans-6e" transform="translate(533.713272 0.015625)"/>
      <use xlink:href="#DejaVuSans-67" transform="translate(597.092178 0.015625)"/>
      <use xlink:href="#DejaVuSans-20" transform="translate(660.568741 0.015625)"/>
      <use xlink:href="#DejaVuSans-62" transform="translate(692.35585 0.015625)"/>
     </g>
    </g>
   </g>
  </g>
 </g>
 <defs>
  <clipPath id="p39114b17a0">
   <rect x="74.47875" y="7.2" width="1037.59" height="474.28"/>
  </clipPath>
 </defs>
</svg>
