<?xml version="1.0" encoding="utf-8" standalone="no"?>
<!DOCTYPE svg PUBLIC "-//W3C//DTD SVG 1.1//EN"
  "http://www.w3.org/Graphics/SVG/1.1/DTD/svg11.dtd">
<svg xmlns:xlink="http://www.w3.org/1999/xlink" width="864pt" height="432pt" viewBox="0 0 864 432" xmlns="http://www.w3.org/2000/svg" version="1.1">
 <metadata>
  <rdf:RDF xmlns:dc="http://purl.org/dc/elements/1.1/" xmlns:cc="http://creativecommons.org/ns#" xmlns:rdf="http://www.w3.org/1999/02/22-rdf-syntax-ns#">
   <cc:Work>
    <dc:type rdf:resource="http://purl.org/dc/dcmitype/StillImage"/>
    <dc:date>2024-09-07T13:20:14.929614</dc:date>
    <dc:format>image/svg+xml</dc:format>
    <dc:creator>
     <cc:Agent>
      <dc:title>Matplotlib v3.6.3, https://matplotlib.org/</dc:title>
     </cc:Agent>
    </dc:creator>
   </cc:Work>
  </rdf:RDF>
 </metadata>
 <defs>
  <style type="text/css">*{stroke-linejoin: round; stroke-linecap: butt}</style>
 </defs>
 <g id="figure_1">
  <g id="patch_1">
   <path d="M 0 432 
L 864 432 
L 864 0 
L 0 0 
z
" style="fill: #ffffff"/>
  </g>
  <g id="axes_1">
   <g id="patch_2">
    <path d="M 90.65 354.04 
L 840.24 354.04 
L 840.24 23.76 
L 90.65 23.76 
z
" style="fill: #ffffff"/>
   </g>
   <g id="matplotlib.axis_1">
    <g id="xtick_1">
     <g id="line2d_1">
      <defs>
       <path id="mfe9d970202" d="M 0 0 
L 0 3.5 
" style="stroke: #000000; stroke-width: 0.8"/>
      </defs>
      <g>
       <use xlink:href="#mfe9d970202" x="124.650534" y="354.04" style="stroke: #000000; stroke-width: 0.8"/>
      </g>
     </g>
     <g id="text_1">
      <!-- 0 -->
      <g transform="translate(117.651784 377.756563) scale(0.22 -0.22)">
       <defs>
        <path id="DejaVuSans-30" d="M 2034 4250 
Q 1547 4250 1301 3770 
Q 1056 3291 1056 2328 
Q 1056 1369 1301 889 
Q 1547 409 2034 409 
Q 2525 409 2770 889 
Q 3016 1369 3016 2328 
Q 3016 3291 2770 3770 
Q 2525 4250 2034 4250 
z
M 2034 4750 
Q 2819 4750 3233 4129 
Q 3647 3509 3647 2328 
Q 3647 1150 3233 529 
Q 2819 -91 2034 -91 
Q 1250 -91 836 529 
Q 422 1150 422 2328 
Q 422 3509 836 4129 
Q 1250 4750 2034 4750 
z
" transform="scale(0.015625)"/>
       </defs>
       <use xlink:href="#DejaVuSans-30"/>
      </g>
     </g>
    </g>
    <g id="xtick_2">
     <g id="line2d_2">
      <g>
       <use xlink:href="#mfe9d970202" x="268.127838" y="354.04" style="stroke: #000000; stroke-width: 0.8"/>
      </g>
     </g>
     <g id="text_2">
      <!-- 2000 -->
      <g transform="translate(240.132838 377.756563) scale(0.22 -0.22)">
       <defs>
        <path id="DejaVuSans-32" d="M 1228 531 
L 3431 531 
L 3431 0 
L 469 0 
L 469 531 
Q 828 903 1448 1529 
Q 2069 2156 2228 2338 
Q 2531 2678 2651 2914 
Q 2772 3150 2772 3378 
Q 2772 3750 2511 3984 
Q 2250 4219 1831 4219 
Q 1534 4219 1204 4116 
Q 875 4013 500 3803 
L 500 4441 
Q 881 4594 1212 4672 
Q 1544 4750 1819 4750 
Q 2544 4750 2975 4387 
Q 3406 4025 3406 3419 
Q 3406 3131 3298 2873 
Q 3191 2616 2906 2266 
Q 2828 2175 2409 1742 
Q 1991 1309 1228 531 
z
" transform="scale(0.015625)"/>
       </defs>
       <use xlink:href="#DejaVuSans-32"/>
       <use xlink:href="#DejaVuSans-30" x="63.623047"/>
       <use xlink:href="#DejaVuSans-30" x="127.246094"/>
       <use xlink:href="#DejaVuSans-30" x="190.869141"/>
      </g>
     </g>
    </g>
    <g id="xtick_3">
     <g id="line2d_3">
      <g>
       <use xlink:href="#mfe9d970202" x="411.605142" y="354.04" style="stroke: #000000; stroke-width: 0.8"/>
      </g>
     </g>
     <g id="text_3">
      <!-- 4000 -->
      <g transform="translate(383.610142 377.756563) scale(0.22 -0.22)">
       <defs>
        <path id="DejaVuSans-34" d="M 2419 4116 
L 825 1625 
L 2419 1625 
L 2419 4116 
z
M 2253 4666 
L 3047 4666 
L 3047 1625 
L 3713 1625 
L 3713 1100 
L 3047 1100 
L 3047 0 
L 2419 0 
L 2419 1100 
L 313 1100 
L 313 1709 
L 2253 4666 
z
" transform="scale(0.015625)"/>
       </defs>
       <use xlink:href="#DejaVuSans-34"/>
       <use xlink:href="#DejaVuSans-30" x="63.623047"/>
       <use xlink:href="#DejaVuSans-30" x="127.246094"/>
       <use xlink:href="#DejaVuSans-30" x="190.869141"/>
      </g>
     </g>
    </g>
    <g id="xtick_4">
     <g id="line2d_4">
      <g>
       <use xlink:href="#mfe9d970202" x="555.082446" y="354.04" style="stroke: #000000; stroke-width: 0.8"/>
      </g>
     </g>
     <g id="text_4">
      <!-- 6000 -->
      <g transform="translate(527.087446 377.756563) scale(0.22 -0.22)">
       <defs>
        <path id="DejaVuSans-36" d="M 2113 2584 
Q 1688 2584 1439 2293 
Q 1191 2003 1191 1497 
Q 1191 994 1439 701 
Q 1688 409 2113 409 
Q 2538 409 2786 701 
Q 3034 994 3034 1497 
Q 3034 2003 2786 2293 
Q 2538 2584 2113 2584 
z
M 3366 4563 
L 3366 3988 
Q 3128 4100 2886 4159 
Q 2644 4219 2406 4219 
Q 1781 4219 1451 3797 
Q 1122 3375 1075 2522 
Q 1259 2794 1537 2939 
Q 1816 3084 2150 3084 
Q 2853 3084 3261 2657 
Q 3669 2231 3669 1497 
Q 3669 778 3244 343 
Q 2819 -91 2113 -91 
Q 1303 -91 875 529 
Q 447 1150 447 2328 
Q 447 3434 972 4092 
Q 1497 4750 2381 4750 
Q 2619 4750 2861 4703 
Q 3103 4656 3366 4563 
z
" transform="scale(0.015625)"/>
       </defs>
       <use xlink:href="#DejaVuSans-36"/>
       <use xlink:href="#DejaVuSans-30" x="63.623047"/>
       <use xlink:href="#DejaVuSans-30" x="127.246094"/>
       <use xlink:href="#DejaVuSans-30" x="190.869141"/>
      </g>
     </g>
    </g>
    <g id="xtick_5">
     <g id="line2d_5">
      <g>
       <use xlink:href="#mfe9d970202" x="698.559749" y="354.04" style="stroke: #000000; stroke-width: 0.8"/>
      </g>
     </g>
     <g id="text_5">
      <!-- 8000 -->
      <g transform="translate(670.564749 377.756563) scale(0.22 -0.22)">
       <defs>
        <path id="DejaVuSans-38" d="M 2034 2216 
Q 1584 2216 1326 1975 
Q 1069 1734 1069 1313 
Q 1069 891 1326 650 
Q 1584 409 2034 409 
Q 2484 409 2743 651 
Q 3003 894 3003 1313 
Q 3003 1734 2745 1975 
Q 2488 2216 2034 2216 
z
M 1403 2484 
Q 997 2584 770 2862 
Q 544 3141 544 3541 
Q 544 4100 942 4425 
Q 1341 4750 2034 4750 
Q 2731 4750 3128 4425 
Q 3525 4100 3525 3541 
Q 3525 3141 3298 2862 
Q 3072 2584 2669 2484 
Q 3125 2378 3379 2068 
Q 3634 1759 3634 1313 
Q 3634 634 3220 271 
Q 2806 -91 2034 -91 
Q 1263 -91 848 271 
Q 434 634 434 1313 
Q 434 1759 690 2068 
Q 947 2378 1403 2484 
z
M 1172 3481 
Q 1172 3119 1398 2916 
Q 1625 2713 2034 2713 
Q 2441 2713 2670 2916 
Q 2900 3119 2900 3481 
Q 2900 3844 2670 4047 
Q 2441 4250 2034 4250 
Q 1625 4250 1398 4047 
Q 1172 3844 1172 3481 
z
" transform="scale(0.015625)"/>
       </defs>
       <use xlink:href="#DejaVuSans-38"/>
       <use xlink:href="#DejaVuSans-30" x="63.623047"/>
       <use xlink:href="#DejaVuSans-30" x="127.246094"/>
       <use xlink:href="#DejaVuSans-30" x="190.869141"/>
      </g>
     </g>
    </g>
    <g id="text_6">
     <!-- S($D$) -->
     <g transform="translate(441.355 403.048438) scale(0.22 -0.22)">
      <defs>
       <path id="DejaVuSans-53" d="M 3425 4513 
L 3425 3897 
Q 3066 4069 2747 4153 
Q 2428 4238 2131 4238 
Q 1616 4238 1336 4038 
Q 1056 3838 1056 3469 
Q 1056 3159 1242 3001 
Q 1428 2844 1947 2747 
L 2328 2669 
Q 3034 2534 3370 2195 
Q 3706 1856 3706 1288 
Q 3706 609 3251 259 
Q 2797 -91 1919 -91 
Q 1588 -91 1214 -16 
Q 841 59 441 206 
L 441 856 
Q 825 641 1194 531 
Q 1563 422 1919 422 
Q 2459 422 2753 634 
Q 3047 847 3047 1241 
Q 3047 1584 2836 1778 
Q 2625 1972 2144 2069 
L 1759 2144 
Q 1053 2284 737 2584 
Q 422 2884 422 3419 
Q 422 4038 858 4394 
Q 1294 4750 2059 4750 
Q 2388 4750 2728 4690 
Q 3069 4631 3425 4513 
z
" transform="scale(0.015625)"/>
       <path id="DejaVuSans-28" d="M 1984 4856 
Q 1566 4138 1362 3434 
Q 1159 2731 1159 2009 
Q 1159 1288 1364 580 
Q 1569 -128 1984 -844 
L 1484 -844 
Q 1016 -109 783 600 
Q 550 1309 550 2009 
Q 550 2706 781 3412 
Q 1013 4119 1484 4856 
L 1984 4856 
z
" transform="scale(0.015625)"/>
       <path id="DejaVuSans-Oblique-44" d="M 1081 4666 
L 2438 4666 
Q 3519 4666 4070 4208 
Q 4622 3750 4622 2847 
Q 4622 2250 4412 1698 
Q 4203 1147 3834 769 
Q 3463 381 2891 190 
Q 2319 0 1538 0 
L 172 0 
L 1081 4666 
z
M 1613 4147 
L 909 519 
L 1734 519 
Q 2794 519 3375 1128 
Q 3956 1738 3956 2847 
Q 3956 3519 3581 3833 
Q 3206 4147 2406 4147 
L 1613 4147 
z
" transform="scale(0.015625)"/>
       <path id="DejaVuSans-29" d="M 513 4856 
L 1013 4856 
Q 1481 4119 1714 3412 
Q 1947 2706 1947 2009 
Q 1947 1309 1714 600 
Q 1481 -109 1013 -844 
L 513 -844 
Q 928 -128 1133 580 
Q 1338 1288 1338 2009 
Q 1338 2731 1133 3434 
Q 928 4138 513 4856 
z
" transform="scale(0.015625)"/>
      </defs>
      <use xlink:href="#DejaVuSans-53" transform="translate(0 0.125)"/>
      <use xlink:href="#DejaVuSans-28" transform="translate(63.476562 0.125)"/>
      <use xlink:href="#DejaVuSans-Oblique-44" transform="translate(102.490234 0.125)"/>
      <use xlink:href="#DejaVuSans-29" transform="translate(179.492188 0.125)"/>
     </g>
    </g>
   </g>
   <g id="matplotlib.axis_2">
    <g id="ytick_1">
     <g id="line2d_6">
      <defs>
       <path id="md7f8c76846" d="M 0 0 
L -3.5 0 
" style="stroke: #000000; stroke-width: 0.8"/>
      </defs>
      <g>
       <use xlink:href="#md7f8c76846" x="90.65" y="339.027273" style="stroke: #000000; stroke-width: 0.8"/>
      </g>
     </g>
     <g id="text_7">
      <!-- 0.0 -->
      <g transform="translate(48.663125 347.385554) scale(0.22 -0.22)">
       <defs>
        <path id="DejaVuSans-2e" d="M 684 794 
L 1344 794 
L 1344 0 
L 684 0 
L 684 794 
z
" transform="scale(0.015625)"/>
       </defs>
       <use xlink:href="#DejaVuSans-30"/>
       <use xlink:href="#DejaVuSans-2e" x="63.623047"/>
       <use xlink:href="#DejaVuSans-30" x="95.410156"/>
      </g>
     </g>
    </g>
    <g id="ytick_2">
     <g id="line2d_7">
      <g>
       <use xlink:href="#md7f8c76846" x="90.65" y="278.889106" style="stroke: #000000; stroke-width: 0.8"/>
      </g>
     </g>
     <g id="text_8">
      <!-- 0.2 -->
      <g transform="translate(48.663125 287.247387) scale(0.22 -0.22)">
       <use xlink:href="#DejaVuSans-30"/>
       <use xlink:href="#DejaVuSans-2e" x="63.623047"/>
       <use xlink:href="#DejaVuSans-32" x="95.410156"/>
      </g>
     </g>
    </g>
    <g id="ytick_3">
     <g id="line2d_8">
      <g>
       <use xlink:href="#md7f8c76846" x="90.65" y="218.750939" style="stroke: #000000; stroke-width: 0.8"/>
      </g>
     </g>
     <g id="text_9">
      <!-- 0.4 -->
      <g transform="translate(48.663125 227.109221) scale(0.22 -0.22)">
       <use xlink:href="#DejaVuSans-30"/>
       <use xlink:href="#DejaVuSans-2e" x="63.623047"/>
       <use xlink:href="#DejaVuSans-34" x="95.410156"/>
      </g>
     </g>
    </g>
    <g id="ytick_4">
     <g id="line2d_9">
      <g>
       <use xlink:href="#md7f8c76846" x="90.65" y="158.612773" style="stroke: #000000; stroke-width: 0.8"/>
      </g>
     </g>
     <g id="text_10">
      <!-- 0.6 -->
      <g transform="translate(48.663125 166.971054) scale(0.22 -0.22)">
       <use xlink:href="#DejaVuSans-30"/>
       <use xlink:href="#DejaVuSans-2e" x="63.623047"/>
       <use xlink:href="#DejaVuSans-36" x="95.410156"/>
      </g>
     </g>
    </g>
    <g id="ytick_5">
     <g id="line2d_10">
      <g>
       <use xlink:href="#md7f8c76846" x="90.65" y="98.474606" style="stroke: #000000; stroke-width: 0.8"/>
      </g>
     </g>
     <g id="text_11">
      <!-- 0.8 -->
      <g transform="translate(48.663125 106.832887) scale(0.22 -0.22)">
       <use xlink:href="#DejaVuSans-30"/>
       <use xlink:href="#DejaVuSans-2e" x="63.623047"/>
       <use xlink:href="#DejaVuSans-38" x="95.410156"/>
      </g>
     </g>
    </g>
    <g id="ytick_6">
     <g id="line2d_11">
      <g>
       <use xlink:href="#md7f8c76846" x="90.65" y="38.336439" style="stroke: #000000; stroke-width: 0.8"/>
      </g>
     </g>
     <g id="text_12">
      <!-- 1.0 -->
      <g transform="translate(48.663125 46.69472) scale(0.22 -0.22)">
       <defs>
        <path id="DejaVuSans-31" d="M 794 531 
L 1825 531 
L 1825 4091 
L 703 3866 
L 703 4441 
L 1819 4666 
L 2450 4666 
L 2450 531 
L 3481 531 
L 3481 0 
L 794 0 
L 794 531 
z
" transform="scale(0.015625)"/>
       </defs>
       <use xlink:href="#DejaVuSans-31"/>
       <use xlink:href="#DejaVuSans-2e" x="63.623047"/>
       <use xlink:href="#DejaVuSans-30" x="95.410156"/>
      </g>
     </g>
    </g>
    <g id="text_13">
     <!-- div(P) -->
     <g transform="translate(40.087813 220.665938) rotate(-90) scale(0.22 -0.22)">
      <defs>
       <path id="DejaVuSans-64" d="M 2906 2969 
L 2906 4863 
L 3481 4863 
L 3481 0 
L 2906 0 
L 2906 525 
Q 2725 213 2448 61 
Q 2172 -91 1784 -91 
Q 1150 -91 751 415 
Q 353 922 353 1747 
Q 353 2572 751 3078 
Q 1150 3584 1784 3584 
Q 2172 3584 2448 3432 
Q 2725 3281 2906 2969 
z
M 947 1747 
Q 947 1113 1208 752 
Q 1469 391 1925 391 
Q 2381 391 2643 752 
Q 2906 1113 2906 1747 
Q 2906 2381 2643 2742 
Q 2381 3103 1925 3103 
Q 1469 3103 1208 2742 
Q 947 2381 947 1747 
z
" transform="scale(0.015625)"/>
       <path id="DejaVuSans-69" d="M 603 3500 
L 1178 3500 
L 1178 0 
L 603 0 
L 603 3500 
z
M 603 4863 
L 1178 4863 
L 1178 4134 
L 603 4134 
L 603 4863 
z
" transform="scale(0.015625)"/>
       <path id="DejaVuSans-76" d="M 191 3500 
L 800 3500 
L 1894 563 
L 2988 3500 
L 3597 3500 
L 2284 0 
L 1503 0 
L 191 3500 
z
" transform="scale(0.015625)"/>
       <path id="DejaVuSans-50" d="M 1259 4147 
L 1259 2394 
L 2053 2394 
Q 2494 2394 2734 2622 
Q 2975 2850 2975 3272 
Q 2975 3691 2734 3919 
Q 2494 4147 2053 4147 
L 1259 4147 
z
M 628 4666 
L 2053 4666 
Q 2838 4666 3239 4311 
Q 3641 3956 3641 3272 
Q 3641 2581 3239 2228 
Q 2838 1875 2053 1875 
L 1259 1875 
L 1259 0 
L 628 0 
L 628 4666 
z
" transform="scale(0.015625)"/>
      </defs>
      <use xlink:href="#DejaVuSans-64"/>
      <use xlink:href="#DejaVuSans-69" x="63.476562"/>
      <use xlink:href="#DejaVuSans-76" x="91.259766"/>
      <use xlink:href="#DejaVuSans-28" x="150.439453"/>
      <use xlink:href="#DejaVuSans-50" x="189.453125"/>
      <use xlink:href="#DejaVuSans-29" x="249.755859"/>
     </g>
    </g>
   </g>
   <g id="line2d_12">
    <path d="M 124.722273 38.772727 
L 125.080966 39.405122 
L 125.726614 40.026176 
L 126.802694 40.726088 
L 128.452683 41.512665 
L 130.820058 42.382409 
L 134.191775 43.367959 
L 138.783049 44.67389 
L 141.078685 45.980825 
L 144.01997 47.383502 
L 147.678641 48.870787 
L 153.274256 51.093671 
L 156.932927 52.872103 
L 161.308985 54.748065 
L 167.550248 57.383801 
L 172.284999 59.567135 
L 177.737136 61.831273 
L 180.463205 63.024333 
L 185.843604 65.502163 
L 191.94139 68.061719 
L 194.308765 69.127997 
L 200.40655 71.893774 
L 224.941169 82.679283 
L 232.545467 85.969831 
L 236.347615 87.675591 
L 244.238867 91.159742 
L 251.843164 94.526216 
L 260.380063 98.23357 
L 264.182212 99.952 
L 273.006066 103.820364 
L 278.745158 106.380603 
L 288.071183 110.441548 
L 292.088548 112.261209 
L 309.305824 119.862801 
L 386.71183 153.987359 
L 406.942129 162.915606 
L 432.481089 174.186078 
L 508.811015 207.847146 
L 532.269554 218.189832 
L 550.706388 226.334097 
L 585.571373 241.71176 
L 616.347254 255.282652 
L 640.594919 265.985207 
L 670.86863 279.337351 
L 696.479328 290.635109 
L 719.005265 300.586972 
L 806.167727 339.027273 
L 806.167727 339.027273 
" clip-path="url(#pa73acd05e2)" style="fill: none; stroke-dasharray: 7.4,3.2; stroke-dashoffset: 0; stroke: #000000; stroke-width: 2"/>
   </g>
   <g id="line2d_13">
    <path d="M 124.722273 38.772727 
L 128.309205 60.155207 
L 128.667899 60.307347 
L 129.09833 60.770305 
L 129.600501 61.672756 
L 130.246149 63.338451 
L 131.107013 66.272509 
L 131.967877 69.199005 
L 132.398308 69.383481 
L 132.900479 69.87316 
L 133.474388 70.777622 
L 134.191775 72.380893 
L 135.052639 74.904047 
L 135.483071 76.122617 
L 135.985241 76.280966 
L 136.487412 76.682665 
L 137.061321 77.429899 
L 137.778707 78.770251 
L 138.639571 80.916461 
L 139.070003 81.967432 
L 139.572174 82.10464 
L 140.146083 82.520171 
L 140.791731 83.307989 
L 141.509117 84.560336 
L 142.369981 86.543808 
L 142.656936 87.116885 
L 143.230845 87.272721 
L 143.804754 87.675591 
L 144.450402 88.416538 
L 145.167789 89.58126 
L 146.028652 91.420351 
L 146.243868 91.772384 
L 146.817778 91.91468 
L 147.391687 92.282896 
L 148.037335 92.961384 
L 148.82646 94.155748 
L 149.687324 95.888448 
L 149.830801 96.053581 
L 150.40471 96.185348 
L 151.050358 96.583762 
L 151.767744 97.330595 
L 152.55687 98.507831 
L 153.561211 100.050777 
L 154.206859 100.25862 
L 154.852507 100.713435 
L 155.569893 101.501858 
L 156.359018 102.700397 
L 157.076405 103.785474 
L 157.722053 103.95539 
L 158.3677 104.358811 
L 159.085087 105.075688 
L 159.874212 106.180293 
L 160.663337 107.325166 
L 161.308985 107.486385 
L 161.954633 107.869323 
L 162.67202 108.550367 
L 163.461145 109.601135 
L 164.25027 110.6919 
L 164.895918 110.845634 
L 165.613304 111.264448 
L 166.402429 112.021356 
L 167.263293 113.190055 
L 167.837203 113.908795 
L 168.48285 114.055998 
L 169.200237 114.457151 
L 169.989362 115.182619 
L 170.850226 116.303945 
L 171.424135 116.994238 
L 172.141522 117.163452 
L 172.858908 117.572896 
L 173.648033 118.29628 
L 174.508897 119.402716 
L 175.011068 119.963136 
L 175.728454 120.126208 
L 176.445841 120.520892 
L 177.234966 121.218551 
L 178.09583 122.286481 
L 178.598 122.827776 
L 179.315387 122.985329 
L 180.032773 123.366743 
L 180.821899 124.041239 
L 181.682762 125.074423 
L 182.184933 125.598425 
L 182.902319 125.750985 
L 183.691445 126.169158 
L 184.48057 126.845955 
L 185.341434 127.872285 
L 185.771866 128.283771 
L 186.489252 128.431784 
L 187.278377 128.837571 
L 188.067502 129.494558 
L 189.000105 130.587392 
L 189.358798 130.891238 
L 190.076185 131.035088 
L 190.86531 131.429528 
L 191.726174 132.138384 
L 192.658776 133.226848 
L 192.873992 133.424231 
L 193.663117 133.567252 
L 194.452242 133.951247 
L 195.313106 134.641544 
L 196.245709 135.702028 
L 196.532663 135.89733 
L 197.321788 136.05816 
L 198.110914 136.453747 
L 198.971777 137.149678 
L 199.90438 138.208307 
L 200.047857 138.303557 
L 200.836982 138.439608 
L 201.626108 138.804982 
L 202.486971 139.462152 
L 203.419574 140.472596 
L 203.706528 140.658793 
L 204.495654 140.81215 
L 205.284779 141.189454 
L 206.145643 141.853553 
L 207.078245 142.864553 
L 207.293461 142.958293 
L 208.082586 143.108285 
L 208.871711 143.477349 
L 209.732575 144.127087 
L 210.665178 145.116563 
L 210.880394 145.208328 
L 211.669519 145.355166 
L 212.530383 145.75993 
L 213.391246 146.417079 
L 214.610804 147.422429 
L 215.399929 147.604622 
L 216.260793 148.042732 
L 217.193395 148.795768 
L 218.125998 149.576221 
L 218.915123 149.736098 
L 219.775987 150.145431 
L 220.708589 150.86241 
L 221.71293 151.694973 
L 222.573794 151.876178 
L 223.434658 152.297868 
L 224.36726 153.022968 
L 225.299863 153.774845 
L 226.160727 153.95279 
L 227.02159 154.366934 
L 227.954193 155.079183 
L 228.886795 155.817901 
L 229.747659 155.992756 
L 230.608523 156.399744 
L 231.541125 157.099803 
L 232.473728 157.826029 
L 233.334592 157.99795 
L 234.195456 158.398141 
L 235.128058 159.086614 
L 236.060661 159.800963 
L 236.921524 159.970092 
L 237.782388 160.363815 
L 238.714991 161.04126 
L 239.647593 161.744295 
L 240.508457 161.910764 
L 241.369321 162.298324 
L 242.301923 162.965254 
L 243.234526 163.657495 
L 244.09539 163.821427 
L 244.956253 164.203103 
L 245.888856 164.859993 
L 246.821458 165.541924 
L 247.682322 165.70343 
L 248.614925 166.120454 
L 249.547527 166.786804 
L 250.408391 167.398841 
L 251.269255 167.558027 
L 252.201857 167.969085 
L 253.13446 168.62598 
L 253.995323 169.229418 
L 254.856187 169.38638 
L 255.78879 169.791721 
L 256.721392 170.439553 
L 257.582256 171.034745 
L 258.44312 171.189574 
L 259.375722 171.58943 
L 260.308325 172.228564 
L 261.169189 172.815838 
L 262.101791 172.990531 
L 263.034394 173.403377 
L 264.038735 174.111797 
L 264.684383 174.570154 
L 265.616985 174.724459 
L 266.549588 175.113981 
L 267.553929 175.794202 
L 268.343054 176.309064 
L 269.275656 176.47934 
L 270.208259 176.88179 
L 271.2126 177.572513 
L 271.929986 178.022922 
L 272.862589 178.191111 
L 273.795191 178.588649 
L 274.799533 179.271008 
L 275.516919 179.716006 
L 276.449522 179.882183 
L 277.382124 180.274985 
L 278.386465 180.949275 
L 279.103852 181.389052 
L 280.036454 181.553288 
L 280.969057 181.941519 
L 281.973398 182.608021 
L 282.690784 183.042757 
L 283.623387 183.205118 
L 284.555989 183.588934 
L 285.56033 184.247911 
L 286.277717 184.677775 
L 287.210319 184.838325 
L 288.142922 185.217873 
L 289.147263 185.869574 
L 289.864649 186.294727 
L 290.797252 186.453524 
L 291.729854 186.828944 
L 292.734196 187.473605 
L 293.451582 187.894198 
L 294.384185 188.051299 
L 295.388526 188.460131 
L 296.392867 189.115491 
L 296.966776 189.473595 
L 297.899378 189.612699 
L 298.90372 189.999752 
L 299.908061 190.630992 
L 300.625447 191.042889 
L 301.55805 191.196754 
L 302.562391 191.597195 
L 303.566732 192.239198 
L 304.140641 192.59005 
L 305.073244 192.726346 
L 306.077585 193.105613 
L 307.081926 193.724236 
L 307.799312 194.127955 
L 308.803654 194.298915 
L 309.807995 194.708454 
L 310.812336 195.354708 
L 311.314506 195.644777 
L 312.318847 195.797166 
L 313.323189 196.185938 
L 314.32753 196.809352 
L 314.973178 197.153104 
L 315.977519 197.320811 
L 316.98186 197.722586 
L 318.05794 198.410781 
L 318.488372 198.641304 
L 319.492713 198.790848 
L 320.497054 199.172383 
L 321.573134 199.836723 
L 322.075304 200.118756 
L 323.079645 200.266935 
L 324.083986 200.645001 
L 325.160066 201.303337 
L 325.662237 201.582837 
L 326.666578 201.729688 
L 327.670919 202.104377 
L 328.746999 202.75687 
L 329.249169 203.033903 
L 330.25351 203.179462 
L 331.257852 203.550863 
L 332.333931 204.197666 
L 332.836102 204.472296 
L 333.840443 204.616596 
L 334.844784 204.984794 
L 335.920864 205.626053 
L 336.423035 205.898342 
L 337.427376 206.041414 
L 338.431717 206.406491 
L 339.507797 207.042346 
L 340.009967 207.312353 
L 341.014308 207.45423 
L 342.018649 207.816263 
L 343.094729 208.446849 
L 343.5969 208.71463 
L 344.601241 208.855339 
L 345.605582 209.214404 
L 346.681662 209.839849 
L 347.255571 210.108229 
L 348.259912 210.263299 
L 349.264253 210.634897 
L 350.340333 211.271715 
L 350.770765 211.485116 
L 351.775106 211.623576 
L 352.779447 211.976917 
L 353.855527 212.592447 
L 354.429436 212.856594 
L 355.433777 213.009224 
L 356.509857 213.409244 
L 357.585937 214.052257 
L 357.94463 214.211966 
L 358.948971 214.348281 
L 360.025051 214.729079 
L 361.101131 215.351169 
L 361.531563 215.559658 
L 362.535904 215.694937 
L 363.611984 216.07285 
L 364.688063 216.690253 
L 365.118495 216.897178 
L 366.122836 217.031445 
L 367.198916 217.406537 
L 368.274996 218.019358 
L 368.705428 218.224754 
L 369.781508 218.375476 
L 370.857587 218.7636 
L 371.933667 219.387597 
L 372.29236 219.542604 
L 373.36844 219.692231 
L 374.44452 220.077542 
L 375.5206 220.697044 
L 375.879293 220.850939 
L 376.955373 220.999494 
L 378.031453 221.382053 
L 379.107532 221.997155 
L 379.466226 222.149961 
L 380.542305 222.297467 
L 381.618385 222.677333 
L 382.694465 223.288127 
L 383.053158 223.439867 
L 384.129238 223.586346 
L 385.205318 223.963575 
L 386.353136 224.618693 
L 386.640091 224.720847 
L 387.716171 224.86632 
L 388.79225 225.240965 
L 389.940069 225.891621 
L 390.227023 225.993082 
L 391.303103 226.13757 
L 392.379183 226.509684 
L 393.527001 227.155968 
L 393.813956 227.256751 
L 394.890036 227.400272 
L 395.966116 227.769906 
L 397.113934 228.411905 
L 397.400889 228.512022 
L 398.476968 228.654597 
L 399.553048 229.021799 
L 400.700867 229.659598 
L 400.987821 229.759062 
L 402.063901 229.900709 
L 403.139981 230.265527 
L 404.287799 230.899207 
L 404.574754 230.998031 
L 405.650834 231.138768 
L 406.726913 231.501248 
L 407.874732 232.130886 
L 408.161686 232.229083 
L 409.237766 232.368927 
L 410.313846 232.729113 
L 411.461664 233.354787 
L 411.748619 233.452368 
L 412.824699 233.591335 
L 413.900779 233.949271 
L 415.048597 234.571055 
L 415.335552 234.668031 
L 416.411631 234.806139 
L 417.487711 235.161865 
L 418.63553 235.77983 
L 418.922484 235.876213 
L 419.998564 236.013477 
L 421.074644 236.367034 
L 422.222462 236.98125 
L 422.509417 237.07705 
L 423.585497 237.213485 
L 424.661576 237.564913 
L 425.809395 238.175448 
L 426.096349 238.270675 
L 427.172429 238.406296 
L 428.320248 238.786497 
L 429.468066 239.408469 
L 429.683282 239.457216 
L 430.759362 239.592038 
L 431.90718 239.970003 
L 433.054999 240.588336 
L 433.270215 240.636798 
L 434.346294 240.770834 
L 435.494113 241.146602 
L 436.641931 241.761359 
L 436.857147 241.809542 
L 437.933227 241.942806 
L 439.081045 242.316415 
L 440.228864 242.927656 
L 440.44408 242.975565 
L 441.52016 243.10807 
L 442.667978 243.479557 
L 443.815796 244.087343 
L 444.031012 244.134982 
L 445.178831 244.282916 
L 446.326649 244.667049 
L 448.048377 245.315495 
L 449.196195 245.55079 
L 450.344014 246.020581 
L 451.348355 246.439926 
L 452.496173 246.615469 
L 453.643992 247.024497 
L 455.078765 247.589244 
L 456.226583 247.792907 
L 457.374402 248.228662 
L 458.593959 248.718261 
L 459.741777 248.906369 
L 460.889596 249.32539 
L 462.25263 249.85115 
L 463.400448 250.052637 
L 464.548267 250.483751 
L 465.767824 250.968157 
L 466.915642 251.154276 
L 468.063461 251.568881 
L 469.426495 252.089122 
L 470.574314 252.288502 
L 471.722132 252.715119 
L 472.941689 253.194495 
L 474.089508 253.378687 
L 475.237326 253.789011 
L 476.60036 254.303905 
L 477.748179 254.501241 
L 478.895997 254.9235 
L 480.115554 255.397999 
L 481.263373 255.580323 
L 482.411191 255.986496 
L 483.774226 256.496203 
L 484.922044 256.691559 
L 486.069862 257.10959 
L 487.28942 257.579357 
L 488.437238 257.759869 
L 489.585056 258.162015 
L 490.948091 258.66669 
L 492.095909 258.860122 
L 493.243728 259.274051 
L 494.463285 259.739225 
L 495.611103 259.917978 
L 496.758922 260.316214 
L 498.121956 260.816002 
L 499.269774 261.007568 
L 500.417593 261.417512 
L 501.63715 261.878226 
L 502.784968 262.055269 
L 503.932787 262.449708 
L 505.295821 262.944748 
L 506.44364 263.1345 
L 507.663197 263.573111 
L 508.811015 263.996952 
L 509.958834 264.172334 
L 511.178391 264.594632 
L 512.397948 265.04889 
L 513.545766 265.223459 
L 514.765323 265.643804 
L 515.98488 266.095969 
L 517.132699 266.269737 
L 518.352256 266.688156 
L 519.571813 267.138257 
L 520.719631 267.311233 
L 521.939188 267.727753 
L 523.158745 268.175818 
L 524.306564 268.348014 
L 525.526121 268.76266 
L 526.745678 269.208717 
L 527.893496 269.380143 
L 529.113054 269.792939 
L 530.404349 270.241529 
L 531.552168 270.425315 
L 532.771725 270.850173 
L 533.919543 271.260773 
L 535.1391 271.448246 
L 536.358657 271.871243 
L 537.506476 272.280051 
L 538.726033 272.466708 
L 539.94559 272.887869 
L 541.093408 273.294907 
L 542.312966 273.480759 
L 543.532523 273.900106 
L 544.680341 274.305399 
L 545.899898 274.490456 
L 547.119455 274.908013 
L 548.267274 275.311582 
L 549.486831 275.495853 
L 550.706388 275.911644 
L 551.854206 276.313511 
L 553.073763 276.497007 
L 554.29332 276.911053 
L 555.441139 277.311239 
L 556.660696 277.49397 
L 557.880253 277.906292 
L 559.028071 278.304819 
L 560.247629 278.486793 
L 561.467186 278.897414 
L 562.615004 279.294302 
L 563.834561 279.47553 
L 565.054118 279.88447 
L 566.201937 280.279738 
L 567.421494 280.460228 
L 568.641051 280.867508 
L 569.788869 281.261177 
L 571.008426 281.440938 
L 572.227983 281.846578 
L 573.375802 282.238666 
L 574.595359 282.417708 
L 575.814916 282.821727 
L 576.962734 283.212254 
L 578.182291 283.390585 
L 579.401849 283.793002 
L 580.549667 284.181986 
L 581.769224 284.359614 
L 582.988781 284.760449 
L 584.1366 285.147908 
L 585.356157 285.324841 
L 586.575714 285.724113 
L 587.723532 286.110065 
L 588.943089 286.286311 
L 590.162646 286.684037 
L 591.310465 287.0685 
L 592.530022 287.244067 
L 593.749579 287.640265 
L 594.897397 288.023255 
L 596.116954 288.198152 
L 597.336512 288.592839 
L 598.48433 288.974374 
L 599.703887 289.148608 
L 600.923444 289.541802 
L 602.071263 289.921898 
L 603.29082 290.095475 
L 604.510377 290.487193 
L 605.658195 290.865865 
L 606.877752 291.038795 
L 608.097309 291.429052 
L 609.245128 291.806318 
L 610.464685 291.978606 
L 611.684242 292.36742 
L 612.83206 292.743294 
L 614.051617 292.914948 
L 615.342913 293.331821 
L 616.418993 293.676832 
L 617.63855 293.847859 
L 618.929846 294.263212 
L 620.005926 294.606969 
L 621.225483 294.777375 
L 622.516778 295.191226 
L 623.592858 295.533742 
L 624.812415 295.703535 
L 626.103711 296.115899 
L 627.179791 296.457188 
L 628.399348 296.626374 
L 629.690644 297.037266 
L 630.766723 297.377342 
L 631.98628 297.545927 
L 633.277576 297.955364 
L 634.353656 298.294239 
L 635.573213 298.46223 
L 636.864509 298.870227 
L 637.940589 299.207913 
L 639.160146 299.375316 
L 640.451441 299.781888 
L 641.527521 300.118398 
L 642.818817 300.301569 
L 644.110113 300.719764 
L 645.114454 301.025728 
L 646.405749 301.208266 
L 647.697045 301.625022 
L 648.701386 301.929934 
L 649.992682 302.111847 
L 651.283978 302.527177 
L 652.288319 302.83105 
L 653.579615 303.012343 
L 654.87091 303.426262 
L 655.875252 303.729106 
L 657.166547 303.909786 
L 658.457843 304.322308 
L 659.462184 304.624133 
L 660.75348 304.804206 
L 662.044776 305.215346 
L 663.049117 305.516161 
L 664.340412 305.695634 
L 665.631708 306.105405 
L 666.636049 306.405222 
L 667.927345 306.5841 
L 669.218641 306.992516 
L 670.222982 307.291344 
L 671.514278 307.469632 
L 672.805573 307.876707 
L 673.809914 308.174555 
L 675.10121 308.352261 
L 676.392506 308.758006 
L 677.396847 309.054886 
L 678.688143 309.232014 
L 679.979439 309.636444 
L 680.98378 309.932362 
L 682.275075 310.108919 
L 683.566371 310.512045 
L 684.570712 310.807013 
L 685.862008 310.983003 
L 687.153304 311.38484 
L 688.157645 311.678866 
L 689.448941 311.854294 
L 690.740236 312.254853 
L 691.744577 312.547946 
L 693.035873 312.722819 
L 694.327169 313.122111 
L 695.33151 313.41428 
L 696.622806 313.588603 
L 697.914102 313.986641 
L 698.918443 314.277895 
L 700.209738 314.451672 
L 701.501034 314.848468 
L 702.505375 315.138815 
L 703.796671 315.312052 
L 705.087967 315.707617 
L 706.092308 315.997066 
L 707.383604 316.169768 
L 708.674899 316.564114 
L 709.67924 316.852672 
L 710.970536 317.024844 
L 712.261832 317.417981 
L 713.266173 317.705658 
L 714.557469 317.877304 
L 715.848765 318.269244 
L 716.853106 318.556047 
L 718.144401 318.727173 
L 719.435697 319.117927 
L 720.440038 319.403863 
L 721.731334 319.574473 
L 723.02263 319.964051 
L 724.026971 320.24913 
L 725.318267 320.419229 
L 726.609562 320.807642 
L 727.613903 321.09187 
L 728.905199 321.261462 
L 730.196495 321.64872 
L 731.200836 321.932105 
L 732.492132 322.101195 
L 733.783427 322.487309 
L 734.787769 322.769858 
L 736.079064 322.938451 
L 737.37036 323.32343 
L 738.374701 323.605152 
L 739.665997 323.773251 
L 740.957293 324.157106 
L 741.961634 324.438006 
L 743.25293 324.605616 
L 744.615964 325.015913 
L 745.548566 325.268443 
L 746.839862 325.435568 
L 748.202897 325.844681 
L 749.135499 326.096484 
L 750.426795 326.263128 
L 751.789829 326.671066 
L 752.722432 326.922148 
L 754.013727 327.088316 
L 755.376762 327.49509 
L 756.309364 327.745457 
L 757.60066 327.911153 
L 758.963694 328.316773 
L 759.896297 328.566431 
L 761.187593 328.731658 
L 762.550627 329.136133 
L 763.483229 329.385089 
L 764.774525 329.549851 
L 766.13756 329.953192 
L 767.070162 330.20145 
L 768.361458 330.365752 
L 769.724492 330.767967 
L 770.657095 331.015535 
L 772.020129 331.194655 
L 773.383163 331.608065 
L 774.172289 331.824443 
L 775.535323 331.990754 
L 776.898357 332.390746 
L 777.83096 332.636948 
L 779.193994 332.815082 
L 780.557029 333.226221 
L 781.417892 333.444314 
L 782.780927 333.621961 
L 784.143961 334.031978 
L 785.004825 334.249478 
L 786.367859 334.426641 
L 787.730894 334.835545 
L 788.591758 335.052456 
L 789.954792 335.22914 
L 791.317826 335.63694 
L 792.17869 335.853267 
L 793.541725 336.029476 
L 794.904759 336.436181 
L 795.765623 336.651928 
L 797.128657 336.827666 
L 798.491692 337.233285 
L 799.352555 337.448457 
L 800.71559 337.623727 
L 802.078624 338.028269 
L 802.939488 338.242871 
L 804.302522 338.417677 
L 805.665557 338.82115 
L 806.167727 339.027273 
L 806.167727 339.027273 
" clip-path="url(#pa73acd05e2)" style="fill: none; stroke: #000000; stroke-width: 2; stroke-linecap: square"/>
   </g>
   <g id="patch_3">
    <path d="M 90.65 354.04 
L 90.65 23.76 
" style="fill: none; stroke: #000000; stroke-width: 0.8; stroke-linejoin: miter; stroke-linecap: square"/>
   </g>
   <g id="patch_4">
    <path d="M 840.24 354.04 
L 840.24 23.76 
" style="fill: none; stroke: #000000; stroke-width: 0.8; stroke-linejoin: miter; stroke-linecap: square"/>
   </g>
   <g id="patch_5">
    <path d="M 90.65 354.04 
L 840.24 354.04 
" style="fill: none; stroke: #000000; stroke-width: 0.8; stroke-linejoin: miter; stroke-linecap: square"/>
   </g>
   <g id="patch_6">
    <path d="M 90.65 23.76 
L 840.24 23.76 
" style="fill: none; stroke: #000000; stroke-width: 0.8; stroke-linejoin: miter; stroke-linecap: square"/>
   </g>
   <g id="legend_1">
    <g id="patch_7">
     <path d="M 588.78 106.04 
L 824.84 106.04 
Q 829.24 106.04 829.24 101.64 
L 829.24 39.16 
Q 829.24 34.76 824.84 34.76 
L 588.78 34.76 
Q 584.38 34.76 584.38 39.16 
L 584.38 101.64 
Q 584.38 106.04 588.78 106.04 
z
" style="fill: #ffffff; opacity: 0.8; stroke: #cccccc; stroke-linejoin: miter"/>
    </g>
    <g id="line2d_14">
     <path d="M 593.18 52.58 
L 615.18 52.58 
L 637.18 52.58 
" style="fill: none; stroke-dasharray: 7.4,3.2; stroke-dashoffset: 0; stroke: #000000; stroke-width: 2"/>
    </g>
    <g id="text_14">
     <!-- $D$ maximing b -->
     <g transform="translate(654.78 60.28) scale(0.22 -0.22)">
      <defs>
       <path id="DejaVuSans-20" transform="scale(0.015625)"/>
       <path id="DejaVuSans-6d" d="M 3328 2828 
Q 3544 3216 3844 3400 
Q 4144 3584 4550 3584 
Q 5097 3584 5394 3201 
Q 5691 2819 5691 2113 
L 5691 0 
L 5113 0 
L 5113 2094 
Q 5113 2597 4934 2840 
Q 4756 3084 4391 3084 
Q 3944 3084 3684 2787 
Q 3425 2491 3425 1978 
L 3425 0 
L 2847 0 
L 2847 2094 
Q 2847 2600 2669 2842 
Q 2491 3084 2119 3084 
Q 1678 3084 1418 2786 
Q 1159 2488 1159 1978 
L 1159 0 
L 581 0 
L 581 3500 
L 1159 3500 
L 1159 2956 
Q 1356 3278 1631 3431 
Q 1906 3584 2284 3584 
Q 2666 3584 2933 3390 
Q 3200 3197 3328 2828 
z
" transform="scale(0.015625)"/>
       <path id="DejaVuSans-61" d="M 2194 1759 
Q 1497 1759 1228 1600 
Q 959 1441 959 1056 
Q 959 750 1161 570 
Q 1363 391 1709 391 
Q 2188 391 2477 730 
Q 2766 1069 2766 1631 
L 2766 1759 
L 2194 1759 
z
M 3341 1997 
L 3341 0 
L 2766 0 
L 2766 531 
Q 2569 213 2275 61 
Q 1981 -91 1556 -91 
Q 1019 -91 701 211 
Q 384 513 384 1019 
Q 384 1609 779 1909 
Q 1175 2209 1959 2209 
L 2766 2209 
L 2766 2266 
Q 2766 2663 2505 2880 
Q 2244 3097 1772 3097 
Q 1472 3097 1187 3025 
Q 903 2953 641 2809 
L 641 3341 
Q 956 3463 1253 3523 
Q 1550 3584 1831 3584 
Q 2591 3584 2966 3190 
Q 3341 2797 3341 1997 
z
" transform="scale(0.015625)"/>
       <path id="DejaVuSans-78" d="M 3513 3500 
L 2247 1797 
L 3578 0 
L 2900 0 
L 1881 1375 
L 863 0 
L 184 0 
L 1544 1831 
L 300 3500 
L 978 3500 
L 1906 2253 
L 2834 3500 
L 3513 3500 
z
" transform="scale(0.015625)"/>
       <path id="DejaVuSans-6e" d="M 3513 2113 
L 3513 0 
L 2938 0 
L 2938 2094 
Q 2938 2591 2744 2837 
Q 2550 3084 2163 3084 
Q 1697 3084 1428 2787 
Q 1159 2491 1159 1978 
L 1159 0 
L 581 0 
L 581 3500 
L 1159 3500 
L 1159 2956 
Q 1366 3272 1645 3428 
Q 1925 3584 2291 3584 
Q 2894 3584 3203 3211 
Q 3513 2838 3513 2113 
z
" transform="scale(0.015625)"/>
       <path id="DejaVuSans-67" d="M 2906 1791 
Q 2906 2416 2648 2759 
Q 2391 3103 1925 3103 
Q 1463 3103 1205 2759 
Q 947 2416 947 1791 
Q 947 1169 1205 825 
Q 1463 481 1925 481 
Q 2391 481 2648 825 
Q 2906 1169 2906 1791 
z
M 3481 434 
Q 3481 -459 3084 -895 
Q 2688 -1331 1869 -1331 
Q 1566 -1331 1297 -1286 
Q 1028 -1241 775 -1147 
L 775 -588 
Q 1028 -725 1275 -790 
Q 1522 -856 1778 -856 
Q 2344 -856 2625 -561 
Q 2906 -266 2906 331 
L 2906 616 
Q 2728 306 2450 153 
Q 2172 0 1784 0 
Q 1141 0 747 490 
Q 353 981 353 1791 
Q 353 2603 747 3093 
Q 1141 3584 1784 3584 
Q 2172 3584 2450 3431 
Q 2728 3278 2906 2969 
L 2906 3500 
L 3481 3500 
L 3481 434 
z
" transform="scale(0.015625)"/>
       <path id="DejaVuSans-62" d="M 3116 1747 
Q 3116 2381 2855 2742 
Q 2594 3103 2138 3103 
Q 1681 3103 1420 2742 
Q 1159 2381 1159 1747 
Q 1159 1113 1420 752 
Q 1681 391 2138 391 
Q 2594 391 2855 752 
Q 3116 1113 3116 1747 
z
M 1159 2969 
Q 1341 3281 1617 3432 
Q 1894 3584 2278 3584 
Q 2916 3584 3314 3078 
Q 3713 2572 3713 1747 
Q 3713 922 3314 415 
Q 2916 -91 2278 -91 
Q 1894 -91 1617 61 
Q 1341 213 1159 525 
L 1159 0 
L 581 0 
L 581 4863 
L 1159 4863 
L 1159 2969 
z
" transform="scale(0.015625)"/>
      </defs>
      <use xlink:href="#DejaVuSans-Oblique-44" transform="translate(0 0.015625)"/>
      <use xlink:href="#DejaVuSans-20" transform="translate(77.001953 0.015625)"/>
      <use xlink:href="#DejaVuSans-6d" transform="translate(108.789062 0.015625)"/>
      <use xlink:href="#DejaVuSans-61" transform="translate(206.201172 0.015625)"/>
      <use xlink:href="#DejaVuSans-78" transform="translate(267.480469 0.015625)"/>
      <use xlink:href="#DejaVuSans-69" transform="translate(326.660156 0.015625)"/>
      <use xlink:href="#DejaVuSans-6d" transform="translate(354.443359 0.015625)"/>
      <use xlink:href="#DejaVuSans-69" transform="translate(451.855469 0.015625)"/>
      <use xlink:href="#DejaVuSans-6e" transform="translate(479.638672 0.015625)"/>
      <use xlink:href="#DejaVuSans-67" transform="translate(543.017578 0.015625)"/>
      <use xlink:href="#DejaVuSans-20" transform="translate(606.494141 0.015625)"/>
      <use xlink:href="#DejaVuSans-62" transform="translate(638.28125 0.015625)"/>
     </g>
    </g>
    <g id="line2d_15">
     <path d="M 593.18 84.92 
L 615.18 84.92 
L 637.18 84.92 
" style="fill: none; stroke: #000000; stroke-width: 2; stroke-linecap: square"/>
    </g>
    <g id="text_15">
     <!-- $D$ minimizing b -->
     <g transform="translate(654.78 92.62) scale(0.22 -0.22)">
      <defs>
       <path id="DejaVuSans-7a" d="M 353 3500 
L 3084 3500 
L 3084 2975 
L 922 459 
L 3084 459 
L 3084 0 
L 275 0 
L 275 525 
L 2438 3041 
L 353 3041 
L 353 3500 
z
" transform="scale(0.015625)"/>
      </defs>
      <use xlink:href="#DejaVuSans-Oblique-44" transform="translate(0 0.015625)"/>
      <use xlink:href="#DejaVuSans-20" transform="translate(77.001953 0.015625)"/>
      <use xlink:href="#DejaVuSans-6d" transform="translate(108.789062 0.015625)"/>
      <use xlink:href="#DejaVuSans-69" transform="translate(206.201172 0.015625)"/>
      <use xlink:href="#DejaVuSans-6e" transform="translate(233.984375 0.015625)"/>
      <use xlink:href="#DejaVuSans-69" transform="translate(297.363281 0.015625)"/>
      <use xlink:href="#DejaVuSans-6d" transform="translate(325.146484 0.015625)"/>
      <use xlink:href="#DejaVuSans-69" transform="translate(422.558594 0.015625)"/>
      <use xlink:href="#DejaVuSans-7a" transform="translate(450.341797 0.015625)"/>
      <use xlink:href="#DejaVuSans-69" transform="translate(502.832031 0.015625)"/>
      <use xlink:href="#DejaVuSans-6e" transform="translate(530.615234 0.015625)"/>
      <use xlink:href="#DejaVuSans-67" transform="translate(593.994141 0.015625)"/>
      <use xlink:href="#DejaVuSans-20" transform="translate(657.470703 0.015625)"/>
      <use xlink:href="#DejaVuSans-62" transform="translate(689.257812 0.015625)"/>
     </g>
    </g>
   </g>
  </g>
 </g>
 <defs>
  <clipPath id="pa73acd05e2">
   <rect x="90.65" y="23.76" width="749.59" height="330.28"/>
  </clipPath>
 </defs>
</svg>
