<?xml version="1.0" encoding="utf-8" standalone="no"?>
<!DOCTYPE svg PUBLIC "-//W3C//DTD SVG 1.1//EN"
  "http://www.w3.org/Graphics/SVG/1.1/DTD/svg11.dtd">
<svg xmlns:xlink="http://www.w3.org/1999/xlink" width="831.26875pt" height="398.26375pt" viewBox="0 0 831.26875 398.26375" xmlns="http://www.w3.org/2000/svg" version="1.1">
 <metadata>
  <rdf:RDF xmlns:dc="http://purl.org/dc/elements/1.1/" xmlns:cc="http://creativecommons.org/ns#" xmlns:rdf="http://www.w3.org/1999/02/22-rdf-syntax-ns#">
   <cc:Work>
    <dc:type rdf:resource="http://purl.org/dc/dcmitype/StillImage"/>
    <dc:date>2025-01-16T16:28:27.565879</dc:date>
    <dc:format>image/svg+xml</dc:format>
    <dc:creator>
     <cc:Agent>
      <dc:title>Matplotlib v3.6.3, https://matplotlib.org/</dc:title>
     </cc:Agent>
    </dc:creator>
   </cc:Work>
  </rdf:RDF>
 </metadata>
 <defs>
  <style type="text/css">*{stroke-linejoin: round; stroke-linecap: butt}</style>
 </defs>
 <g id="figure_1">
  <g id="patch_1">
   <path d="M 0 398.26375 
L 831.26875 398.26375 
L 831.26875 0 
L 0 0 
z
" style="fill: #ffffff"/>
  </g>
  <g id="axes_1">
   <g id="patch_2">
    <path d="M 74.47875 337.48 
L 824.06875 337.48 
L 824.06875 7.2 
L 74.47875 7.2 
z
" style="fill: #ffffff"/>
   </g>
   <g id="matplotlib.axis_1">
    <g id="xtick_1">
     <g id="line2d_1">
      <defs>
       <path id="m5b483f5e2a" d="M 0 0 
L 0 3.5 
" style="stroke: #000000; stroke-width: 0.8"/>
      </defs>
      <g>
       <use xlink:href="#m5b483f5e2a" x="108.539897" y="337.48" style="stroke: #000000; stroke-width: 0.8"/>
      </g>
     </g>
     <g id="text_1">
      <!-- 0 -->
      <g transform="translate(101.541147 361.196562) scale(0.22 -0.22)">
       <defs>
        <path id="DejaVuSans-30" d="M 2034 4250 
Q 1547 4250 1301 3770 
Q 1056 3291 1056 2328 
Q 1056 1369 1301 889 
Q 1547 409 2034 409 
Q 2525 409 2770 889 
Q 3016 1369 3016 2328 
Q 3016 3291 2770 3770 
Q 2525 4250 2034 4250 
z
M 2034 4750 
Q 2819 4750 3233 4129 
Q 3647 3509 3647 2328 
Q 3647 1150 3233 529 
Q 2819 -91 2034 -91 
Q 1250 -91 836 529 
Q 422 1150 422 2328 
Q 422 3509 836 4129 
Q 1250 4750 2034 4750 
z
" transform="scale(0.015625)"/>
       </defs>
       <use xlink:href="#DejaVuSans-30"/>
      </g>
     </g>
    </g>
    <g id="xtick_2">
     <g id="line2d_2">
      <g>
       <use xlink:href="#m5b483f5e2a" x="219.798114" y="337.48" style="stroke: #000000; stroke-width: 0.8"/>
      </g>
     </g>
     <g id="text_2">
      <!-- 10000 -->
      <g transform="translate(184.804364 361.196562) scale(0.22 -0.22)">
       <defs>
        <path id="DejaVuSans-31" d="M 794 531 
L 1825 531 
L 1825 4091 
L 703 3866 
L 703 4441 
L 1819 4666 
L 2450 4666 
L 2450 531 
L 3481 531 
L 3481 0 
L 794 0 
L 794 531 
z
" transform="scale(0.015625)"/>
       </defs>
       <use xlink:href="#DejaVuSans-31"/>
       <use xlink:href="#DejaVuSans-30" x="63.623047"/>
       <use xlink:href="#DejaVuSans-30" x="127.246094"/>
       <use xlink:href="#DejaVuSans-30" x="190.869141"/>
       <use xlink:href="#DejaVuSans-30" x="254.492188"/>
      </g>
     </g>
    </g>
    <g id="xtick_3">
     <g id="line2d_3">
      <g>
       <use xlink:href="#m5b483f5e2a" x="331.056331" y="337.48" style="stroke: #000000; stroke-width: 0.8"/>
      </g>
     </g>
     <g id="text_3">
      <!-- 20000 -->
      <g transform="translate(296.062581 361.196562) scale(0.22 -0.22)">
       <defs>
        <path id="DejaVuSans-32" d="M 1228 531 
L 3431 531 
L 3431 0 
L 469 0 
L 469 531 
Q 828 903 1448 1529 
Q 2069 2156 2228 2338 
Q 2531 2678 2651 2914 
Q 2772 3150 2772 3378 
Q 2772 3750 2511 3984 
Q 2250 4219 1831 4219 
Q 1534 4219 1204 4116 
Q 875 4013 500 3803 
L 500 4441 
Q 881 4594 1212 4672 
Q 1544 4750 1819 4750 
Q 2544 4750 2975 4387 
Q 3406 4025 3406 3419 
Q 3406 3131 3298 2873 
Q 3191 2616 2906 2266 
Q 2828 2175 2409 1742 
Q 1991 1309 1228 531 
z
" transform="scale(0.015625)"/>
       </defs>
       <use xlink:href="#DejaVuSans-32"/>
       <use xlink:href="#DejaVuSans-30" x="63.623047"/>
       <use xlink:href="#DejaVuSans-30" x="127.246094"/>
       <use xlink:href="#DejaVuSans-30" x="190.869141"/>
       <use xlink:href="#DejaVuSans-30" x="254.492188"/>
      </g>
     </g>
    </g>
    <g id="xtick_4">
     <g id="line2d_4">
      <g>
       <use xlink:href="#m5b483f5e2a" x="442.314549" y="337.48" style="stroke: #000000; stroke-width: 0.8"/>
      </g>
     </g>
     <g id="text_4">
      <!-- 30000 -->
      <g transform="translate(407.320799 361.196562) scale(0.22 -0.22)">
       <defs>
        <path id="DejaVuSans-33" d="M 2597 2516 
Q 3050 2419 3304 2112 
Q 3559 1806 3559 1356 
Q 3559 666 3084 287 
Q 2609 -91 1734 -91 
Q 1441 -91 1130 -33 
Q 819 25 488 141 
L 488 750 
Q 750 597 1062 519 
Q 1375 441 1716 441 
Q 2309 441 2620 675 
Q 2931 909 2931 1356 
Q 2931 1769 2642 2001 
Q 2353 2234 1838 2234 
L 1294 2234 
L 1294 2753 
L 1863 2753 
Q 2328 2753 2575 2939 
Q 2822 3125 2822 3475 
Q 2822 3834 2567 4026 
Q 2313 4219 1838 4219 
Q 1578 4219 1281 4162 
Q 984 4106 628 3988 
L 628 4550 
Q 988 4650 1302 4700 
Q 1616 4750 1894 4750 
Q 2613 4750 3031 4423 
Q 3450 4097 3450 3541 
Q 3450 3153 3228 2886 
Q 3006 2619 2597 2516 
z
" transform="scale(0.015625)"/>
       </defs>
       <use xlink:href="#DejaVuSans-33"/>
       <use xlink:href="#DejaVuSans-30" x="63.623047"/>
       <use xlink:href="#DejaVuSans-30" x="127.246094"/>
       <use xlink:href="#DejaVuSans-30" x="190.869141"/>
       <use xlink:href="#DejaVuSans-30" x="254.492188"/>
      </g>
     </g>
    </g>
    <g id="xtick_5">
     <g id="line2d_5">
      <g>
       <use xlink:href="#m5b483f5e2a" x="553.572766" y="337.48" style="stroke: #000000; stroke-width: 0.8"/>
      </g>
     </g>
     <g id="text_5">
      <!-- 40000 -->
      <g transform="translate(518.579016 361.196562) scale(0.22 -0.22)">
       <defs>
        <path id="DejaVuSans-34" d="M 2419 4116 
L 825 1625 
L 2419 1625 
L 2419 4116 
z
M 2253 4666 
L 3047 4666 
L 3047 1625 
L 3713 1625 
L 3713 1100 
L 3047 1100 
L 3047 0 
L 2419 0 
L 2419 1100 
L 313 1100 
L 313 1709 
L 2253 4666 
z
" transform="scale(0.015625)"/>
       </defs>
       <use xlink:href="#DejaVuSans-34"/>
       <use xlink:href="#DejaVuSans-30" x="63.623047"/>
       <use xlink:href="#DejaVuSans-30" x="127.246094"/>
       <use xlink:href="#DejaVuSans-30" x="190.869141"/>
       <use xlink:href="#DejaVuSans-30" x="254.492188"/>
      </g>
     </g>
    </g>
    <g id="xtick_6">
     <g id="line2d_6">
      <g>
       <use xlink:href="#m5b483f5e2a" x="664.830983" y="337.48" style="stroke: #000000; stroke-width: 0.8"/>
      </g>
     </g>
     <g id="text_6">
      <!-- 50000 -->
      <g transform="translate(629.837233 361.196562) scale(0.22 -0.22)">
       <defs>
        <path id="DejaVuSans-35" d="M 691 4666 
L 3169 4666 
L 3169 4134 
L 1269 4134 
L 1269 2991 
Q 1406 3038 1543 3061 
Q 1681 3084 1819 3084 
Q 2600 3084 3056 2656 
Q 3513 2228 3513 1497 
Q 3513 744 3044 326 
Q 2575 -91 1722 -91 
Q 1428 -91 1123 -41 
Q 819 9 494 109 
L 494 744 
Q 775 591 1075 516 
Q 1375 441 1709 441 
Q 2250 441 2565 725 
Q 2881 1009 2881 1497 
Q 2881 1984 2565 2268 
Q 2250 2553 1709 2553 
Q 1456 2553 1204 2497 
Q 953 2441 691 2322 
L 691 4666 
z
" transform="scale(0.015625)"/>
       </defs>
       <use xlink:href="#DejaVuSans-35"/>
       <use xlink:href="#DejaVuSans-30" x="63.623047"/>
       <use xlink:href="#DejaVuSans-30" x="127.246094"/>
       <use xlink:href="#DejaVuSans-30" x="190.869141"/>
       <use xlink:href="#DejaVuSans-30" x="254.492188"/>
      </g>
     </g>
    </g>
    <g id="xtick_7">
     <g id="line2d_7">
      <g>
       <use xlink:href="#m5b483f5e2a" x="776.0892" y="337.48" style="stroke: #000000; stroke-width: 0.8"/>
      </g>
     </g>
     <g id="text_7">
      <!-- 60000 -->
      <g transform="translate(741.09545 361.196562) scale(0.22 -0.22)">
       <defs>
        <path id="DejaVuSans-36" d="M 2113 2584 
Q 1688 2584 1439 2293 
Q 1191 2003 1191 1497 
Q 1191 994 1439 701 
Q 1688 409 2113 409 
Q 2538 409 2786 701 
Q 3034 994 3034 1497 
Q 3034 2003 2786 2293 
Q 2538 2584 2113 2584 
z
M 3366 4563 
L 3366 3988 
Q 3128 4100 2886 4159 
Q 2644 4219 2406 4219 
Q 1781 4219 1451 3797 
Q 1122 3375 1075 2522 
Q 1259 2794 1537 2939 
Q 1816 3084 2150 3084 
Q 2853 3084 3261 2657 
Q 3669 2231 3669 1497 
Q 3669 778 3244 343 
Q 2819 -91 2113 -91 
Q 1303 -91 875 529 
Q 447 1150 447 2328 
Q 447 3434 972 4092 
Q 1497 4750 2381 4750 
Q 2619 4750 2861 4703 
Q 3103 4656 3366 4563 
z
" transform="scale(0.015625)"/>
       </defs>
       <use xlink:href="#DejaVuSans-36"/>
       <use xlink:href="#DejaVuSans-30" x="63.623047"/>
       <use xlink:href="#DejaVuSans-30" x="127.246094"/>
       <use xlink:href="#DejaVuSans-30" x="190.869141"/>
       <use xlink:href="#DejaVuSans-30" x="254.492188"/>
      </g>
     </g>
    </g>
    <g id="text_8">
     <!-- S($\mathcal{D}$) -->
     <g transform="translate(424.85375 386.488437) scale(0.22 -0.22)">
      <defs>
       <path id="DejaVuSans-53" d="M 3425 4513 
L 3425 3897 
Q 3066 4069 2747 4153 
Q 2428 4238 2131 4238 
Q 1616 4238 1336 4038 
Q 1056 3838 1056 3469 
Q 1056 3159 1242 3001 
Q 1428 2844 1947 2747 
L 2328 2669 
Q 3034 2534 3370 2195 
Q 3706 1856 3706 1288 
Q 3706 609 3251 259 
Q 2797 -91 1919 -91 
Q 1588 -91 1214 -16 
Q 841 59 441 206 
L 441 856 
Q 825 641 1194 531 
Q 1563 422 1919 422 
Q 2459 422 2753 634 
Q 3047 847 3047 1241 
Q 3047 1584 2836 1778 
Q 2625 1972 2144 2069 
L 1759 2144 
Q 1053 2284 737 2584 
Q 422 2884 422 3419 
Q 422 4038 858 4394 
Q 1294 4750 2059 4750 
Q 2388 4750 2728 4690 
Q 3069 4631 3425 4513 
z
" transform="scale(0.015625)"/>
       <path id="DejaVuSans-28" d="M 1984 4856 
Q 1566 4138 1362 3434 
Q 1159 2731 1159 2009 
Q 1159 1288 1364 580 
Q 1569 -128 1984 -844 
L 1484 -844 
Q 1016 -109 783 600 
Q 550 1309 550 2009 
Q 550 2706 781 3412 
Q 1013 4119 1484 4856 
L 1984 4856 
z
" transform="scale(0.015625)"/>
       <path id="STIXNonUnicode-Italic-e230" d="M 314 3418 
L 218 3539 
Q 621 3923 1126 4083 
Q 1619 4237 2490 4237 
Q 3475 4237 4028 4080 
Q 4582 3923 4812 3596 
Q 5043 3270 5043 2701 
Q 5043 2349 4950 1993 
Q 4858 1638 4634 1273 
Q 4410 909 4070 630 
Q 3731 352 3190 176 
Q 2650 0 1978 0 
L 333 0 
L 378 154 
Q 576 154 678 275 
Q 781 397 870 710 
L 1491 2867 
Q 1517 2957 1581 3155 
Q 1645 3354 1673 3466 
Q 1702 3578 1702 3642 
Q 1702 3878 1414 3878 
Q 877 3878 314 3418 
z
M 2438 3750 
L 1510 557 
Q 1478 454 1478 390 
Q 1478 307 1568 281 
Q 1658 256 1856 256 
Q 2093 256 2355 297 
Q 2618 339 2989 489 
Q 3360 640 3645 886 
Q 3930 1133 4134 1597 
Q 4339 2061 4339 2675 
Q 4339 3328 3977 3654 
Q 3616 3981 2758 3981 
Q 2643 3981 2553 3913 
Q 2464 3846 2438 3750 
z
" transform="scale(0.015625)"/>
       <path id="DejaVuSans-29" d="M 513 4856 
L 1013 4856 
Q 1481 4119 1714 3412 
Q 1947 2706 1947 2009 
Q 1947 1309 1714 600 
Q 1481 -109 1013 -844 
L 513 -844 
Q 928 -128 1133 580 
Q 1338 1288 1338 2009 
Q 1338 2731 1133 3434 
Q 928 4138 513 4856 
z
" transform="scale(0.015625)"/>
      </defs>
      <use xlink:href="#DejaVuSans-53" transform="translate(0 0.125)"/>
      <use xlink:href="#DejaVuSans-28" transform="translate(63.476562 0.125)"/>
      <use xlink:href="#STIXNonUnicode-Italic-e230" transform="translate(102.490234 0.125)"/>
      <use xlink:href="#DejaVuSans-29" transform="translate(182.590225 0.125)"/>
     </g>
    </g>
   </g>
   <g id="matplotlib.axis_2">
    <g id="ytick_1">
     <g id="line2d_8">
      <defs>
       <path id="me354a0cf48" d="M 0 0 
L -3.5 0 
" style="stroke: #000000; stroke-width: 0.8"/>
      </defs>
      <g>
       <use xlink:href="#me354a0cf48" x="74.47875" y="322.467273" style="stroke: #000000; stroke-width: 0.8"/>
      </g>
     </g>
     <g id="text_9">
      <!-- 0.0 -->
      <g transform="translate(32.491875 330.825554) scale(0.22 -0.22)">
       <defs>
        <path id="DejaVuSans-2e" d="M 684 794 
L 1344 794 
L 1344 0 
L 684 0 
L 684 794 
z
" transform="scale(0.015625)"/>
       </defs>
       <use xlink:href="#DejaVuSans-30"/>
       <use xlink:href="#DejaVuSans-2e" x="63.623047"/>
       <use xlink:href="#DejaVuSans-30" x="95.410156"/>
      </g>
     </g>
    </g>
    <g id="ytick_2">
     <g id="line2d_9">
      <g>
       <use xlink:href="#me354a0cf48" x="74.47875" y="262.382029" style="stroke: #000000; stroke-width: 0.8"/>
      </g>
     </g>
     <g id="text_10">
      <!-- 0.2 -->
      <g transform="translate(32.491875 270.74031) scale(0.22 -0.22)">
       <use xlink:href="#DejaVuSans-30"/>
       <use xlink:href="#DejaVuSans-2e" x="63.623047"/>
       <use xlink:href="#DejaVuSans-32" x="95.410156"/>
      </g>
     </g>
    </g>
    <g id="ytick_3">
     <g id="line2d_10">
      <g>
       <use xlink:href="#me354a0cf48" x="74.47875" y="202.296786" style="stroke: #000000; stroke-width: 0.8"/>
      </g>
     </g>
     <g id="text_11">
      <!-- 0.4 -->
      <g transform="translate(32.491875 210.655067) scale(0.22 -0.22)">
       <use xlink:href="#DejaVuSans-30"/>
       <use xlink:href="#DejaVuSans-2e" x="63.623047"/>
       <use xlink:href="#DejaVuSans-34" x="95.410156"/>
      </g>
     </g>
    </g>
    <g id="ytick_4">
     <g id="line2d_11">
      <g>
       <use xlink:href="#me354a0cf48" x="74.47875" y="142.211542" style="stroke: #000000; stroke-width: 0.8"/>
      </g>
     </g>
     <g id="text_12">
      <!-- 0.6 -->
      <g transform="translate(32.491875 150.569823) scale(0.22 -0.22)">
       <use xlink:href="#DejaVuSans-30"/>
       <use xlink:href="#DejaVuSans-2e" x="63.623047"/>
       <use xlink:href="#DejaVuSans-36" x="95.410156"/>
      </g>
     </g>
    </g>
    <g id="ytick_5">
     <g id="line2d_12">
      <g>
       <use xlink:href="#me354a0cf48" x="74.47875" y="82.126299" style="stroke: #000000; stroke-width: 0.8"/>
      </g>
     </g>
     <g id="text_13">
      <!-- 0.8 -->
      <g transform="translate(32.491875 90.48458) scale(0.22 -0.22)">
       <defs>
        <path id="DejaVuSans-38" d="M 2034 2216 
Q 1584 2216 1326 1975 
Q 1069 1734 1069 1313 
Q 1069 891 1326 650 
Q 1584 409 2034 409 
Q 2484 409 2743 651 
Q 3003 894 3003 1313 
Q 3003 1734 2745 1975 
Q 2488 2216 2034 2216 
z
M 1403 2484 
Q 997 2584 770 2862 
Q 544 3141 544 3541 
Q 544 4100 942 4425 
Q 1341 4750 2034 4750 
Q 2731 4750 3128 4425 
Q 3525 4100 3525 3541 
Q 3525 3141 3298 2862 
Q 3072 2584 2669 2484 
Q 3125 2378 3379 2068 
Q 3634 1759 3634 1313 
Q 3634 634 3220 271 
Q 2806 -91 2034 -91 
Q 1263 -91 848 271 
Q 434 634 434 1313 
Q 434 1759 690 2068 
Q 947 2378 1403 2484 
z
M 1172 3481 
Q 1172 3119 1398 2916 
Q 1625 2713 2034 2713 
Q 2441 2713 2670 2916 
Q 2900 3119 2900 3481 
Q 2900 3844 2670 4047 
Q 2441 4250 2034 4250 
Q 1625 4250 1398 4047 
Q 1172 3844 1172 3481 
z
" transform="scale(0.015625)"/>
       </defs>
       <use xlink:href="#DejaVuSans-30"/>
       <use xlink:href="#DejaVuSans-2e" x="63.623047"/>
       <use xlink:href="#DejaVuSans-38" x="95.410156"/>
      </g>
     </g>
    </g>
    <g id="ytick_6">
     <g id="line2d_13">
      <g>
       <use xlink:href="#me354a0cf48" x="74.47875" y="22.041055" style="stroke: #000000; stroke-width: 0.8"/>
      </g>
     </g>
     <g id="text_14">
      <!-- 1.0 -->
      <g transform="translate(32.491875 30.399336) scale(0.22 -0.22)">
       <use xlink:href="#DejaVuSans-31"/>
       <use xlink:href="#DejaVuSans-2e" x="63.623047"/>
       <use xlink:href="#DejaVuSans-30" x="95.410156"/>
      </g>
     </g>
    </g>
    <g id="text_15">
     <!-- div(P) -->
     <g transform="translate(23.916563 204.105937) rotate(-90) scale(0.22 -0.22)">
      <defs>
       <path id="DejaVuSans-64" d="M 2906 2969 
L 2906 4863 
L 3481 4863 
L 3481 0 
L 2906 0 
L 2906 525 
Q 2725 213 2448 61 
Q 2172 -91 1784 -91 
Q 1150 -91 751 415 
Q 353 922 353 1747 
Q 353 2572 751 3078 
Q 1150 3584 1784 3584 
Q 2172 3584 2448 3432 
Q 2725 3281 2906 2969 
z
M 947 1747 
Q 947 1113 1208 752 
Q 1469 391 1925 391 
Q 2381 391 2643 752 
Q 2906 1113 2906 1747 
Q 2906 2381 2643 2742 
Q 2381 3103 1925 3103 
Q 1469 3103 1208 2742 
Q 947 2381 947 1747 
z
" transform="scale(0.015625)"/>
       <path id="DejaVuSans-69" d="M 603 3500 
L 1178 3500 
L 1178 0 
L 603 0 
L 603 3500 
z
M 603 4863 
L 1178 4863 
L 1178 4134 
L 603 4134 
L 603 4863 
z
" transform="scale(0.015625)"/>
       <path id="DejaVuSans-76" d="M 191 3500 
L 800 3500 
L 1894 563 
L 2988 3500 
L 3597 3500 
L 2284 0 
L 1503 0 
L 191 3500 
z
" transform="scale(0.015625)"/>
       <path id="DejaVuSans-50" d="M 1259 4147 
L 1259 2394 
L 2053 2394 
Q 2494 2394 2734 2622 
Q 2975 2850 2975 3272 
Q 2975 3691 2734 3919 
Q 2494 4147 2053 4147 
L 1259 4147 
z
M 628 4666 
L 2053 4666 
Q 2838 4666 3239 4311 
Q 3641 3956 3641 3272 
Q 3641 2581 3239 2228 
Q 2838 1875 2053 1875 
L 1259 1875 
L 1259 0 
L 628 0 
L 628 4666 
z
" transform="scale(0.015625)"/>
      </defs>
      <use xlink:href="#DejaVuSans-64"/>
      <use xlink:href="#DejaVuSans-69" x="63.476562"/>
      <use xlink:href="#DejaVuSans-76" x="91.259766"/>
      <use xlink:href="#DejaVuSans-28" x="150.439453"/>
      <use xlink:href="#DejaVuSans-50" x="189.453125"/>
      <use xlink:href="#DejaVuSans-29" x="249.755859"/>
     </g>
    </g>
   </g>
   <g id="line2d_14">
    <path d="M 108.551023 22.212727 
L 108.751288 22.789357 
L 109.207446 23.370822 
L 110.019631 24.020875 
L 111.310227 24.749996 
L 113.234994 25.567654 
L 115.994197 26.484678 
L 119.788103 27.499581 
L 122.513929 28.273486 
L 124.727968 29.55355 
L 127.565052 30.928301 
L 131.125315 32.398449 
L 135.53114 33.969489 
L 136.343325 34.354866 
L 139.859085 36.119216 
L 144.075771 37.979774 
L 149.082391 39.939469 
L 150.28398 40.501996 
L 154.801064 42.646001 
L 160.052451 44.886997 
L 164.914436 46.979644 
L 170.354962 49.457045 
L 176.563171 52.035079 
L 178.143038 52.782351 
L 184.20661 55.532962 
L 210.452424 67.070231 
L 285.562846 100.085816 
L 290.035427 102.103788 
L 309.427734 110.643498 
L 328.352757 118.968328 
L 339.400698 123.828294 
L 347.08864 127.250299 
L 789.996477 322.467273 
L 789.996477 322.467273 
" clip-path="url(#p810554034a)" style="fill: none; stroke-dasharray: 7.4,3.2; stroke-dashoffset: 0; stroke: #000000; stroke-width: 2"/>
   </g>
   <g id="line2d_15">
    <path d="M 108.551023 22.212727 
L 109.218572 30.82993 
L 109.407711 31.878931 
L 109.886121 34.704129 
L 110.142015 36.338365 
L 110.331154 37.027746 
L 110.509167 37.614092 
L 111.399233 41.272165 
L 111.56612 41.60264 
L 111.822014 42.730929 
L 112.000027 43.151143 
L 112.189166 43.608978 
L 113.090358 46.368273 
L 113.268371 46.695587 
L 113.535391 47.73516 
L 113.668901 47.861022 
L 113.869166 48.268713 
L 114.748105 50.542764 
L 114.937244 50.831346 
L 115.204264 51.726437 
L 115.337774 51.835444 
L 115.538039 52.189437 
L 116.428105 54.195111 
L 116.628369 54.49072 
L 117.663071 56.546725 
L 117.907839 57.124386 
L 118.141481 57.502466 
L 118.363997 57.882725 
L 118.786779 58.636221 
L 119.042673 59.233337 
L 119.242937 59.512798 
L 119.465454 59.857272 
L 119.932738 60.648585 
L 120.199758 61.302586 
L 120.344394 61.421383 
L 120.555784 61.711805 
L 121.423598 63.229488 
L 121.634989 63.466716 
L 123.103598 65.836293 
L 123.326114 66.091266 
L 124.249557 67.507924 
L 124.483199 67.813171 
L 124.928232 68.433521 
L 125.195252 68.964106 
L 125.362139 69.100515 
L 125.595782 69.395497 
L 126.040814 69.995382 
L 126.31896 70.537747 
L 126.474722 70.640945 
L 126.708364 70.926633 
L 127.153397 71.507954 
L 127.431542 72.033911 
L 127.587304 72.134028 
L 127.820946 72.411248 
L 128.265979 72.975628 
L 128.544124 73.486582 
L 128.699886 73.583877 
L 128.944654 73.872392 
L 129.356309 74.377408 
L 129.623329 74.821509 
L 129.812468 74.994045 
L 130.057236 75.274917 
L 130.468892 75.766751 
L 130.735911 76.199461 
L 130.936176 76.374401 
L 131.180944 76.660046 
L 131.570348 77.11009 
L 131.837368 77.519579 
L 132.048758 77.713931 
L 132.293526 77.992738 
L 132.68293 78.432147 
L 132.94995 78.832104 
L 133.16134 79.021979 
L 133.417234 79.312687 
L 133.773261 79.704493 
L 134.04028 80.071312 
L 134.285048 80.307495 
L 134.540942 80.603397 
L 134.874717 80.959619 
L 135.141737 81.306738 
L 135.397631 81.55857 
L 135.653524 81.848282 
L 135.998425 82.205706 
L 136.265445 82.557366 
L 136.510213 82.783883 
L 136.766107 83.067779 
L 137.111007 83.418101 
L 137.378027 83.762854 
L 137.622795 83.984963 
L 137.889815 84.281138 
L 138.212463 84.598764 
L 138.479483 84.925799 
L 138.746503 85.169963 
L 139.013523 85.471756 
L 139.31392 85.758015 
L 139.58094 86.068084 
L 139.859085 86.326478 
L 140.126105 86.622867 
L 140.426502 86.904045 
L 140.693522 87.208662 
L 140.971667 87.462552 
L 141.238687 87.753817 
L 141.539084 88.030176 
L 141.81723 88.347621 
L 142.084249 88.579231 
L 142.351269 88.865629 
L 142.651666 89.137409 
L 142.929812 89.44964 
L 143.196832 89.677476 
L 143.463851 89.959243 
L 143.764248 90.226664 
L 144.042394 90.53393 
L 144.309414 90.758171 
L 144.587559 91.052395 
L 144.876831 91.29879 
L 145.154976 91.60132 
L 145.421996 91.822131 
L 145.700141 92.111888 
L 145.989413 92.354571 
L 146.267558 92.652578 
L 146.534578 92.870111 
L 146.812724 93.155598 
L 147.101995 93.394731 
L 147.380141 93.688412 
L 147.64716 93.90281 
L 147.925306 94.18421 
L 148.214577 94.419945 
L 148.492723 94.709482 
L 148.759742 94.920876 
L 149.037888 95.198361 
L 149.327159 95.430838 
L 149.605305 95.716403 
L 149.872325 95.924916 
L 150.15047 96.198644 
L 150.439742 96.427995 
L 150.729013 96.726124 
L 150.984907 96.915493 
L 151.263052 97.185613 
L 151.552324 97.411961 
L 151.841595 97.706213 
L 152.097489 97.893136 
L 152.38676 98.175465 
L 152.664906 98.383245 
L 152.954177 98.673769 
L 153.210071 98.858336 
L 153.499342 99.137131 
L 153.777488 99.342327 
L 154.066759 99.629259 
L 154.322653 99.811559 
L 154.611925 100.086949 
L 154.89007 100.289654 
L 155.179342 100.573125 
L 155.435235 100.753239 
L 155.724507 101.025346 
L 156.002652 101.225648 
L 156.291924 101.50578 
L 156.547818 101.683785 
L 156.837089 101.952723 
L 157.115235 102.150707 
L 157.404506 102.427616 
L 157.6604 102.603584 
L 157.949671 102.869462 
L 158.227817 103.065206 
L 158.517088 103.338999 
L 158.772982 103.512999 
L 159.062253 103.775919 
L 159.340399 103.969497 
L 159.640796 104.255515 
L 159.885564 104.412374 
L 160.174836 104.672432 
L 160.452981 104.863915 
L 160.753378 105.146855 
L 160.998146 105.302035 
L 161.298544 105.573966 
L 161.565563 105.748777 
L 161.86596 106.028736 
L 162.110728 106.18229 
L 162.411126 106.451385 
L 162.678145 106.624383 
L 162.978543 106.901453 
L 163.223311 107.053431 
L 163.523708 107.319777 
L 163.790728 107.491017 
L 164.091125 107.765286 
L 164.335893 107.915735 
L 164.63629 108.179415 
L 164.90331 108.348949 
L 165.203707 108.6205 
L 165.448475 108.769466 
L 165.748872 109.030558 
L 166.015892 109.198436 
L 166.316289 109.467349 
L 166.561057 109.614874 
L 166.861454 109.873453 
L 167.128474 110.039724 
L 167.428871 110.306074 
L 167.673639 110.452199 
L 167.974037 110.708336 
L 168.241056 110.873044 
L 168.541453 111.136903 
L 168.797347 111.286787 
L 169.097745 111.549426 
L 169.353638 111.69862 
L 169.654036 111.960056 
L 169.90993 112.10857 
L 170.221453 112.383011 
L 170.455095 112.511613 
L 170.755492 112.761936 
L 171.022512 112.922922 
L 171.334035 113.194912 
L 171.567677 113.32237 
L 171.8792 113.584159 
L 172.135094 113.730042 
L 172.446617 113.999645 
L 172.680259 114.125989 
L 172.991782 114.3855 
L 173.247676 114.530119 
L 173.559199 114.797396 
L 173.792841 114.922655 
L 174.104364 115.179946 
L 174.360258 115.323334 
L 174.671781 115.588345 
L 174.905423 115.712546 
L 175.216946 115.967674 
L 175.47284 116.10986 
L 175.784363 116.372661 
L 176.018006 116.495832 
L 176.329529 116.748849 
L 176.585423 116.889865 
L 176.896946 117.150511 
L 177.141714 117.277472 
L 177.453237 117.537059 
L 177.698005 117.663507 
L 178.009528 117.92205 
L 178.254296 118.04799 
L 178.565819 118.3055 
L 178.810587 118.43094 
L 179.12211 118.68743 
L 179.366878 118.812374 
L 179.678401 119.067856 
L 179.923169 119.192311 
L 180.234692 119.446796 
L 180.47946 119.570768 
L 180.790983 119.824267 
L 181.035751 119.947761 
L 181.347274 120.200288 
L 181.592042 120.323309 
L 181.914691 120.588182 
L 182.137208 120.692797 
L 182.448731 120.935077 
L 182.704624 121.070132 
L 183.027273 121.333012 
L 183.24979 121.436843 
L 183.572439 121.69018 
L 183.817207 121.811364 
L 184.139855 122.072297 
L 184.373498 122.179923 
L 184.696147 122.439898 
L 184.929789 122.54713 
L 185.252438 122.806158 
L 185.48608 122.913001 
L 185.808729 123.171091 
L 186.042371 123.277549 
L 186.36502 123.534713 
L 186.598662 123.64079 
L 186.921311 123.897036 
L 187.154953 124.002736 
L 187.477602 124.258075 
L 187.711244 124.363402 
L 188.033893 124.617843 
L 188.267535 124.722801 
L 188.590184 124.976354 
L 188.823826 125.080947 
L 189.146475 125.33362 
L 189.380118 125.437852 
L 189.702766 125.689655 
L 189.936409 125.793529 
L 190.259057 126.044471 
L 190.4927 126.147991 
L 190.815349 126.398081 
L 191.048991 126.501251 
L 191.37164 126.750497 
L 191.605282 126.853319 
L 191.927931 127.10173 
L 192.161573 127.204209 
L 192.484222 127.451794 
L 192.717864 127.553933 
L 193.040513 127.800698 
L 193.274155 127.9025 
L 193.596804 128.148455 
L 193.830446 128.249924 
L 194.153095 128.495076 
L 194.386737 128.596215 
L 194.720512 128.853128 
L 194.943028 128.941385 
L 195.276803 129.19747 
L 195.499319 129.285443 
L 195.833094 129.540708 
L 196.055611 129.628401 
L 196.389385 129.882855 
L 196.611902 129.97027 
L 196.945676 130.223919 
L 197.168193 130.311059 
L 197.501967 130.563911 
L 197.724484 130.650778 
L 198.058258 130.902842 
L 198.280775 130.989439 
L 198.61455 131.240721 
L 198.837066 131.327049 
L 199.170841 131.577557 
L 199.393357 131.663621 
L 199.727132 131.913361 
L 199.949648 131.999161 
L 200.283423 132.248141 
L 200.505939 132.333682 
L 200.839714 132.581908 
L 201.06223 132.66719 
L 201.396005 132.91467 
L 201.618521 132.999696 
L 201.952296 133.246436 
L 202.174813 133.331209 
L 202.508587 133.577215 
L 202.731104 133.661737 
L 203.064878 133.907016 
L 203.287395 133.991289 
L 203.621169 134.235848 
L 203.843686 134.319874 
L 204.17746 134.563719 
L 204.399977 134.6475 
L 204.733751 134.890637 
L 204.956268 134.974176 
L 205.290043 135.216611 
L 205.512559 135.29991 
L 205.846334 135.541649 
L 206.06885 135.624709 
L 206.402625 135.865758 
L 206.625141 135.948582 
L 206.958916 136.188948 
L 207.181432 136.271537 
L 207.515207 136.511224 
L 207.737723 136.593581 
L 208.071498 136.832596 
L 208.294014 136.914723 
L 208.627789 137.153071 
L 208.850306 137.234969 
L 209.195206 137.484528 
L 209.406597 137.554328 
L 209.751497 137.803198 
L 209.962888 137.872806 
L 210.307788 138.120993 
L 210.519179 138.190411 
L 210.864079 138.43792 
L 211.07547 138.507149 
L 211.42037 138.753987 
L 211.631761 138.823029 
L 211.976661 139.069201 
L 212.188052 139.138056 
L 212.532953 139.383567 
L 212.744343 139.452238 
L 213.089244 139.697094 
L 213.300634 139.765582 
L 213.645535 140.009787 
L 213.856925 140.078094 
L 214.201826 140.321654 
L 214.413216 140.389781 
L 214.758117 140.6327 
L 214.969507 140.700649 
L 215.314408 140.942933 
L 215.525799 141.010704 
L 215.870699 141.252359 
L 216.08209 141.319954 
L 216.42699 141.560983 
L 216.638381 141.628404 
L 216.983281 141.868813 
L 217.194672 141.936061 
L 217.539572 142.175854 
L 217.750963 142.24293 
L 218.095863 142.482112 
L 218.307254 142.549017 
L 218.652154 142.787593 
L 218.863545 142.854329 
L 219.208446 143.092303 
L 219.419836 143.158872 
L 219.764737 143.396249 
L 219.976127 143.46265 
L 220.321028 143.699435 
L 220.532418 143.765671 
L 220.877319 144.001867 
L 221.099835 144.071924 
L 221.444736 144.315 
L 221.645001 144.36946 
L 221.989901 144.604492 
L 222.212417 144.674205 
L 222.557318 144.91609 
L 222.757583 144.970284 
L 223.102483 145.20417 
L 223.325 145.273543 
L 223.681026 145.52583 
L 223.870165 145.568185 
L 224.215065 145.800941 
L 224.437582 145.86998 
L 224.793608 146.121054 
L 224.982747 146.163206 
L 225.338773 146.406105 
L 225.539038 146.45965 
L 225.895064 146.701971 
L 226.095329 146.755389 
L 226.451355 146.997137 
L 226.65162 147.050428 
L 227.007647 147.291606 
L 227.207911 147.344773 
L 227.563938 147.585386 
L 227.764202 147.638427 
L 228.120229 147.878479 
L 228.320494 147.931397 
L 228.67652 148.170891 
L 228.876785 148.223687 
L 229.232811 148.462627 
L 229.444202 148.519146 
L 229.800228 148.764971 
L 229.989367 148.806244 
L 230.345393 149.044088 
L 230.556784 149.100348 
L 230.91281 149.345051 
L 231.101949 149.386136 
L 231.457975 149.622899 
L 231.669366 149.678904 
L 232.025392 149.9225 
L 232.214531 149.9634 
L 232.570557 150.199096 
L 232.781948 150.25485 
L 233.137974 150.497353 
L 233.327113 150.53807 
L 233.68314 150.772715 
L 233.89453 150.82822 
L 234.250557 151.069646 
L 234.439695 151.110182 
L 234.795722 151.343788 
L 235.007112 151.399048 
L 235.363139 151.639411 
L 235.552278 151.679769 
L 235.908304 151.91235 
L 236.119695 151.967369 
L 236.475721 152.206682 
L 236.66486 152.246864 
L 237.020886 152.478434 
L 237.232277 152.533214 
L 237.588303 152.771491 
L 237.788568 152.815219 
L 238.144594 153.052983 
L 238.344859 153.096616 
L 238.700885 153.333871 
L 238.90115 153.377411 
L 239.257176 153.61416 
L 239.457441 153.657607 
L 239.813467 153.893852 
L 240.013732 153.937207 
L 240.770288 154.320526 
L 241.549096 154.743163 
L 241.905122 154.892321 
L 242.450287 155.161248 
L 243.195717 155.571624 
L 243.551743 155.705747 
L 244.330551 156.124018 
L 244.686577 156.271642 
L 245.409756 156.670096 
L 245.765782 156.796128 
L 246.589093 157.222798 
L 246.945119 157.390128 
L 247.323397 157.550727 
L 267.249744 166.971885 
L 267.628022 167.192958 
L 267.839412 167.235894 
L 268.651597 167.62681 
L 269.018749 167.767939 
L 291.214764 177.530991 
L 292.060326 177.92511 
L 292.349598 178.011676 
L 293.729199 178.632478 
L 294.018471 178.718652 
L 295.398073 179.336664 
L 295.687344 179.422452 
L 297.066946 180.037711 
L 297.367343 180.127128 
L 299.29211 180.967631 
L 299.592507 181.056525 
L 301.5284 181.90053 
L 301.806546 181.976559 
L 303.186148 182.58203 
L 303.486545 182.67003 
L 305.422438 183.505601 
L 305.700584 183.580875 
L 307.091311 184.188626 
L 307.369457 184.263583 
L 308.760185 184.868785 
L 309.03833 184.943429 
L 310.429058 185.546114 
L 310.707203 185.620449 
L 312.097931 186.22065 
L 312.376077 186.294679 
L 313.766804 186.892425 
L 314.056076 186.969995 
L 315.991969 187.78389 
L 316.28124 187.861043 
L 318.228259 188.67881 
L 318.495279 188.743528 
L 319.886006 189.332523 
L 320.175278 189.408963 
L 322.122296 190.219203 
L 322.389316 190.283328 
L 323.79117 190.875069 
L 324.058189 190.938945 
L 325.460043 191.528397 
L 325.727063 191.592027 
L 327.128916 192.179217 
L 327.395936 192.242603 
L 328.79779 192.827556 
L 329.064809 192.890702 
L 330.466663 193.473444 
L 330.744808 193.540047 
L 332.691827 194.33086 
L 332.969973 194.397132 
L 334.916991 195.184031 
L 335.195137 195.249977 
L 337.153282 196.041064 
L 337.409176 196.095002 
L 338.811029 196.667051 
L 339.089175 196.732436 
L 341.047319 197.51684 
L 341.303213 197.570325 
L 342.716192 198.14553 
L 342.972086 198.198823 
L 344.385066 198.771983 
L 344.64096 198.825088 
L 346.053939 199.396224 
L 346.320959 199.452713 
L 348.279103 200.225143 
L 348.546123 200.281369 
L 350.504268 201.050223 
L 350.771287 201.106191 
L 352.729432 201.871518 
L 352.996452 201.92723 
L 354.954596 202.689079 
L 355.221616 202.744539 
L 357.190887 203.510834 
L 357.435655 203.554677 
L 358.848634 204.110978 
L 359.115654 204.166004 
L 361.084924 204.926343 
L 361.340818 204.973311 
L 363.310088 205.730308 
L 363.565982 205.777071 
L 365.535253 206.53077 
L 365.791147 206.57733 
L 367.760417 207.327774 
L 368.016311 207.374133 
L 369.985582 208.121364 
L 370.241475 208.167526 
L 372.210746 208.911584 
L 372.46664 208.957551 
L 374.43591 209.698476 
L 374.691804 209.74425 
L 376.661075 210.482083 
L 376.916968 210.527666 
L 379.398027 211.427779 
L 379.742927 211.517314 
L 385.19458 213.419365 
L 386.029016 213.721342 
L 386.696566 213.976402 
L 387.119347 214.093063 
L 387.842525 214.361038 
L 388.265307 214.494925 
L 388.732591 214.639735 
L 389.656034 214.95569 
L 390.512723 215.272197 
L 390.891001 215.374967 
L 393.505569 216.278714 
L 394.262125 216.528298 
L 395.719607 217.033989 
L 396.453911 217.271136 
L 399.079605 218.168174 
L 399.869539 218.43314 
L 400.748479 218.730866 
L 401.549538 219.000387 
L 402.383974 219.28635 
L 403.084901 219.506986 
L 440.278523 231.61391 
L 441.168589 231.924462 
L 441.502364 231.996063 
L 445.274017 233.187719 
L 446.141831 233.479234 
L 446.575738 233.594405 
L 447.921963 234.041602 
L 448.366996 234.175015 
L 448.800903 234.289808 
L 450.147127 234.735543 
L 450.59216 234.868521 
L 451.026067 234.982939 
L 452.372291 235.427227 
L 452.817324 235.559774 
L 453.251231 235.673823 
L 454.597456 236.116676 
L 455.042489 236.248796 
L 455.487521 236.367085 
L 456.466594 236.664444 
L 458.992155 237.48109 
L 459.292552 237.534092 
L 465.322748 239.382575 
L 466.657846 239.797113 
L 467.436654 240.041942 
L 467.892813 240.199854 
L 468.19321 240.252195 
L 474.245657 242.082935 
L 475.680888 242.551276 
L 475.981285 242.603059 
L 482.055984 244.420012 
L 485.093333 245.348483 
L 485.516114 245.451665 
L 486.88459 245.87649 
L 487.340749 246.019499 
L 487.696775 246.093961 
L 489.866311 246.733307 
L 536.005093 259.944245 
L 537.985489 260.529475 
L 538.319264 260.587549 
L 540.889329 261.312831 
L 541.657011 261.512347 
L 544.227075 262.234837 
L 544.994757 262.433587 
L 547.564822 263.153316 
L 548.34363 263.354913 
L 550.379655 263.920255 
L 551.225217 264.154811 
L 552.004025 264.371385 
L 552.749455 264.559513 
L 559.39157 266.366678 
L 564.676336 267.82638 
L 565.054614 267.899513 
L 566.534348 268.300813 
L 567.43554 268.563421 
L 567.891698 268.668183 
L 568.759512 268.898467 
L 569.660704 269.16044 
L 570.127988 269.269419 
L 570.951299 269.489853 
L 571.785736 269.711579 
L 572.65355 269.940893 
L 573.554742 270.201766 
L 574.022026 270.310288 
L 574.845337 270.529799 
L 575.679773 270.750597 
L 576.547588 270.978954 
L 577.448779 271.23874 
L 577.927189 271.351362 
L 578.717123 271.562812 
L 579.507056 271.761219 
L 581.454075 272.29615 
L 582.088247 272.451139 
L 582.956061 272.687119 
L 583.679239 272.884284 
L 584.313411 273.038911 
L 585.181225 273.274338 
L 585.904404 273.471043 
L 586.538575 273.625309 
L 587.40639 273.860188 
L 588.129568 274.056435 
L 588.76374 274.210343 
L 589.631554 274.444678 
L 590.354732 274.640471 
L 591.00003 274.795598 
L 591.890096 275.04267 
L 592.535393 275.221298 
L 593.02493 275.344191 
L 593.525592 275.464292 
L 594.24877 275.659298 
L 594.894068 275.813802 
L 595.784133 276.059884 
L 596.429431 276.237796 
L 596.918967 276.360198 
L 597.430755 276.484627 
L 598.131682 276.673412 
L 598.621218 276.810874 
L 598.98837 276.87582 
L 600.490356 277.266702 
L 601.83658 277.621818 
L 602.671017 277.836495 
L 603.538831 278.067511 
L 604.262009 278.260536 
L 604.918433 278.415139 
L 605.83075 278.672737 
L 606.275783 278.768036 
L 607.154723 278.991046 
L 608.078166 279.257291 
L 608.445318 279.321618 
L 609.95843 279.710792 
L 611.360284 280.088643 
L 612.005581 280.26378 
L 612.495118 280.384274 
L 613.095912 280.548723 
L 613.585448 280.659057 
L 614.230746 280.833807 
L 614.720282 280.954037 
L 615.321076 281.118124 
L 615.810612 281.228215 
L 616.45591 281.402582 
L 616.945446 281.522548 
L 617.546241 281.686276 
L 618.035777 281.796126 
L 618.681074 281.970113 
L 619.170611 282.089817 
L 619.771405 282.253187 
L 620.260941 282.362799 
L 620.906239 282.536407 
L 621.395775 282.655851 
L 621.996569 282.818867 
L 622.486105 282.92824 
L 623.131403 283.101472 
L 623.620939 283.220658 
L 624.221734 283.383321 
L 624.71127 283.492459 
L 625.356567 283.665317 
L 625.846104 283.784246 
L 626.446898 283.94656 
L 626.936434 284.055463 
L 627.581732 284.22795 
L 628.071268 284.346623 
L 628.672062 284.508589 
L 629.161598 284.617259 
L 629.806896 284.789378 
L 630.307558 284.913011 
L 630.785968 285.018992 
L 631.55365 285.213974 
L 632.343583 285.399747 
L 634.435238 285.926519 
L 635.848217 286.300446 
L 636.471263 286.466342 
L 636.971925 286.584178 
L 637.57272 286.744775 
L 638.073382 286.85748 
L 638.696428 287.023027 
L 639.19709 287.140616 
L 639.797884 287.300876 
L 640.298546 287.413344 
L 640.921592 287.578545 
L 641.422254 287.695888 
L 642.023048 287.855813 
L 642.52371 287.968047 
L 643.146756 288.132903 
L 643.647418 288.250002 
L 644.248213 288.409594 
L 644.748875 288.521595 
L 645.371921 288.686109 
L 645.872583 288.802965 
L 646.473377 288.962227 
L 646.974039 289.073996 
L 647.608211 289.238335 
L 648.108873 289.359911 
L 648.609535 289.473167 
L 649.321587 289.653395 
L 650.022514 289.808904 
L 651.913904 290.285053 
L 652.726089 290.484004 
L 653.593903 290.701074 
L 654.372711 290.892976 
L 655.196021 291.087808 
L 656.564497 291.437724 
L 657.309927 291.603247 
L 720.727111 306.75688 
L 789.996477 322.467273 
L 789.996477 322.467273 
" clip-path="url(#p810554034a)" style="fill: none; stroke: #000000; stroke-width: 2; stroke-linecap: square"/>
   </g>
   <g id="patch_3">
    <path d="M 74.47875 337.48 
L 74.47875 7.2 
" style="fill: none; stroke: #000000; stroke-width: 0.8; stroke-linejoin: miter; stroke-linecap: square"/>
   </g>
   <g id="patch_4">
    <path d="M 824.06875 337.48 
L 824.06875 7.2 
" style="fill: none; stroke: #000000; stroke-width: 0.8; stroke-linejoin: miter; stroke-linecap: square"/>
   </g>
   <g id="patch_5">
    <path d="M 74.47875 337.48 
L 824.06875 337.48 
" style="fill: none; stroke: #000000; stroke-width: 0.8; stroke-linejoin: miter; stroke-linecap: square"/>
   </g>
   <g id="patch_6">
    <path d="M 74.47875 7.2 
L 824.06875 7.2 
" style="fill: none; stroke: #000000; stroke-width: 0.8; stroke-linejoin: miter; stroke-linecap: square"/>
   </g>
   <g id="legend_1">
    <g id="patch_7">
     <path d="M 571.94875 89.48 
L 808.66875 89.48 
Q 813.06875 89.48 813.06875 85.08 
L 813.06875 22.6 
Q 813.06875 18.2 808.66875 18.2 
L 571.94875 18.2 
Q 567.54875 18.2 567.54875 22.6 
L 567.54875 85.08 
Q 567.54875 89.48 571.94875 89.48 
z
" style="fill: #ffffff; opacity: 0.8; stroke: #cccccc; stroke-linejoin: miter"/>
    </g>
    <g id="line2d_16">
     <path d="M 576.34875 36.02 
L 598.34875 36.02 
L 620.34875 36.02 
" style="fill: none; stroke-dasharray: 7.4,3.2; stroke-dashoffset: 0; stroke: #000000; stroke-width: 2"/>
    </g>
    <g id="text_16">
     <!-- $\mathcal{D}$ maximing b -->
     <g transform="translate(637.94875 43.72) scale(0.22 -0.22)">
      <defs>
       <path id="DejaVuSans-20" transform="scale(0.015625)"/>
       <path id="DejaVuSans-6d" d="M 3328 2828 
Q 3544 3216 3844 3400 
Q 4144 3584 4550 3584 
Q 5097 3584 5394 3201 
Q 5691 2819 5691 2113 
L 5691 0 
L 5113 0 
L 5113 2094 
Q 5113 2597 4934 2840 
Q 4756 3084 4391 3084 
Q 3944 3084 3684 2787 
Q 3425 2491 3425 1978 
L 3425 0 
L 2847 0 
L 2847 2094 
Q 2847 2600 2669 2842 
Q 2491 3084 2119 3084 
Q 1678 3084 1418 2786 
Q 1159 2488 1159 1978 
L 1159 0 
L 581 0 
L 581 3500 
L 1159 3500 
L 1159 2956 
Q 1356 3278 1631 3431 
Q 1906 3584 2284 3584 
Q 2666 3584 2933 3390 
Q 3200 3197 3328 2828 
z
" transform="scale(0.015625)"/>
       <path id="DejaVuSans-61" d="M 2194 1759 
Q 1497 1759 1228 1600 
Q 959 1441 959 1056 
Q 959 750 1161 570 
Q 1363 391 1709 391 
Q 2188 391 2477 730 
Q 2766 1069 2766 1631 
L 2766 1759 
L 2194 1759 
z
M 3341 1997 
L 3341 0 
L 2766 0 
L 2766 531 
Q 2569 213 2275 61 
Q 1981 -91 1556 -91 
Q 1019 -91 701 211 
Q 384 513 384 1019 
Q 384 1609 779 1909 
Q 1175 2209 1959 2209 
L 2766 2209 
L 2766 2266 
Q 2766 2663 2505 2880 
Q 2244 3097 1772 3097 
Q 1472 3097 1187 3025 
Q 903 2953 641 2809 
L 641 3341 
Q 956 3463 1253 3523 
Q 1550 3584 1831 3584 
Q 2591 3584 2966 3190 
Q 3341 2797 3341 1997 
z
" transform="scale(0.015625)"/>
       <path id="DejaVuSans-78" d="M 3513 3500 
L 2247 1797 
L 3578 0 
L 2900 0 
L 1881 1375 
L 863 0 
L 184 0 
L 1544 1831 
L 300 3500 
L 978 3500 
L 1906 2253 
L 2834 3500 
L 3513 3500 
z
" transform="scale(0.015625)"/>
       <path id="DejaVuSans-6e" d="M 3513 2113 
L 3513 0 
L 2938 0 
L 2938 2094 
Q 2938 2591 2744 2837 
Q 2550 3084 2163 3084 
Q 1697 3084 1428 2787 
Q 1159 2491 1159 1978 
L 1159 0 
L 581 0 
L 581 3500 
L 1159 3500 
L 1159 2956 
Q 1366 3272 1645 3428 
Q 1925 3584 2291 3584 
Q 2894 3584 3203 3211 
Q 3513 2838 3513 2113 
z
" transform="scale(0.015625)"/>
       <path id="DejaVuSans-67" d="M 2906 1791 
Q 2906 2416 2648 2759 
Q 2391 3103 1925 3103 
Q 1463 3103 1205 2759 
Q 947 2416 947 1791 
Q 947 1169 1205 825 
Q 1463 481 1925 481 
Q 2391 481 2648 825 
Q 2906 1169 2906 1791 
z
M 3481 434 
Q 3481 -459 3084 -895 
Q 2688 -1331 1869 -1331 
Q 1566 -1331 1297 -1286 
Q 1028 -1241 775 -1147 
L 775 -588 
Q 1028 -725 1275 -790 
Q 1522 -856 1778 -856 
Q 2344 -856 2625 -561 
Q 2906 -266 2906 331 
L 2906 616 
Q 2728 306 2450 153 
Q 2172 0 1784 0 
Q 1141 0 747 490 
Q 353 981 353 1791 
Q 353 2603 747 3093 
Q 1141 3584 1784 3584 
Q 2172 3584 2450 3431 
Q 2728 3278 2906 2969 
L 2906 3500 
L 3481 3500 
L 3481 434 
z
" transform="scale(0.015625)"/>
       <path id="DejaVuSans-62" d="M 3116 1747 
Q 3116 2381 2855 2742 
Q 2594 3103 2138 3103 
Q 1681 3103 1420 2742 
Q 1159 2381 1159 1747 
Q 1159 1113 1420 752 
Q 1681 391 2138 391 
Q 2594 391 2855 752 
Q 3116 1113 3116 1747 
z
M 1159 2969 
Q 1341 3281 1617 3432 
Q 1894 3584 2278 3584 
Q 2916 3584 3314 3078 
Q 3713 2572 3713 1747 
Q 3713 922 3314 415 
Q 2916 -91 2278 -91 
Q 1894 -91 1617 61 
Q 1341 213 1159 525 
L 1159 0 
L 581 0 
L 581 4863 
L 1159 4863 
L 1159 2969 
z
" transform="scale(0.015625)"/>
      </defs>
      <use xlink:href="#STIXNonUnicode-Italic-e230" transform="translate(0 0.015625)"/>
      <use xlink:href="#DejaVuSans-20" transform="translate(80.099991 0.015625)"/>
      <use xlink:href="#DejaVuSans-6d" transform="translate(111.8871 0.015625)"/>
      <use xlink:href="#DejaVuSans-61" transform="translate(209.29921 0.015625)"/>
      <use xlink:href="#DejaVuSans-78" transform="translate(270.578506 0.015625)"/>
      <use xlink:href="#DejaVuSans-69" transform="translate(329.758194 0.015625)"/>
      <use xlink:href="#DejaVuSans-6d" transform="translate(357.541397 0.015625)"/>
      <use xlink:href="#DejaVuSans-69" transform="translate(454.953506 0.015625)"/>
      <use xlink:href="#DejaVuSans-6e" transform="translate(482.73671 0.015625)"/>
      <use xlink:href="#DejaVuSans-67" transform="translate(546.115616 0.015625)"/>
      <use xlink:href="#DejaVuSans-20" transform="translate(609.592178 0.015625)"/>
      <use xlink:href="#DejaVuSans-62" transform="translate(641.379288 0.015625)"/>
     </g>
    </g>
    <g id="line2d_17">
     <path d="M 576.34875 68.36 
L 598.34875 68.36 
L 620.34875 68.36 
" style="fill: none; stroke: #000000; stroke-width: 2; stroke-linecap: square"/>
    </g>
    <g id="text_17">
     <!-- $\mathcal{D}$ minimizing b -->
     <g transform="translate(637.94875 76.06) scale(0.22 -0.22)">
      <defs>
       <path id="DejaVuSans-7a" d="M 353 3500 
L 3084 3500 
L 3084 2975 
L 922 459 
L 3084 459 
L 3084 0 
L 275 0 
L 275 525 
L 2438 3041 
L 353 3041 
L 353 3500 
z
" transform="scale(0.015625)"/>
      </defs>
      <use xlink:href="#STIXNonUnicode-Italic-e230" transform="translate(0 0.015625)"/>
      <use xlink:href="#DejaVuSans-20" transform="translate(80.099991 0.015625)"/>
      <use xlink:href="#DejaVuSans-6d" transform="translate(111.8871 0.015625)"/>
      <use xlink:href="#DejaVuSans-69" transform="translate(209.29921 0.015625)"/>
      <use xlink:href="#DejaVuSans-6e" transform="translate(237.082413 0.015625)"/>
      <use xlink:href="#DejaVuSans-69" transform="translate(300.461319 0.015625)"/>
      <use xlink:href="#DejaVuSans-6d" transform="translate(328.244522 0.015625)"/>
      <use xlink:href="#DejaVuSans-69" transform="translate(425.656631 0.015625)"/>
      <use xlink:href="#DejaVuSans-7a" transform="translate(453.439835 0.015625)"/>
      <use xlink:href="#DejaVuSans-69" transform="translate(505.930069 0.015625)"/>
      <use xlink:href="#DejaVuSans-6e" transform="translate(533.713272 0.015625)"/>
      <use xlink:href="#DejaVuSans-67" transform="translate(597.092178 0.015625)"/>
      <use xlink:href="#DejaVuSans-20" transform="translate(660.568741 0.015625)"/>
      <use xlink:href="#DejaVuSans-62" transform="translate(692.35585 0.015625)"/>
     </g>
    </g>
   </g>
  </g>
 </g>
 <defs>
  <clipPath id="p810554034a">
   <rect x="74.47875" y="7.2" width="749.59" height="330.28"/>
  </clipPath>
 </defs>
</svg>
