<?xml version="1.0" encoding="utf-8" standalone="no"?>
<!DOCTYPE svg PUBLIC "-//W3C//DTD SVG 1.1//EN"
  "http://www.w3.org/Graphics/SVG/1.1/DTD/svg11.dtd">
<svg xmlns:xlink="http://www.w3.org/1999/xlink" width="1097.33pt" height="521.3pt" viewBox="0 0 1097.33 521.3" xmlns="http://www.w3.org/2000/svg" version="1.1">
 <metadata>
  <rdf:RDF xmlns:dc="http://purl.org/dc/elements/1.1/" xmlns:cc="http://creativecommons.org/ns#" xmlns:rdf="http://www.w3.org/1999/02/22-rdf-syntax-ns#">
   <cc:Work>
    <dc:type rdf:resource="http://purl.org/dc/dcmitype/StillImage"/>
    <dc:date>2025-01-26T14:13:51.708926</dc:date>
    <dc:format>image/svg+xml</dc:format>
    <dc:creator>
     <cc:Agent>
      <dc:title>Matplotlib v3.6.3, https://matplotlib.org/</dc:title>
     </cc:Agent>
    </dc:creator>
   </cc:Work>
  </rdf:RDF>
 </metadata>
 <defs>
  <style type="text/css">*{stroke-linejoin: round; stroke-linecap: butt}</style>
 </defs>
 <g id="figure_1">
  <g id="patch_1">
   <path d="M 0 521.3 
L 1097.33 521.3 
L 1097.33 0 
L 0 0 
z
" style="fill: #ffffff"/>
  </g>
  <g id="axes_1">
   <g id="patch_2">
    <path d="M 100.06 441.16 
L 1090.13 441.16 
L 1090.13 7.2 
L 100.06 7.2 
z
" style="fill: #ffffff"/>
   </g>
   <g id="matplotlib.axis_1">
    <g id="xtick_1">
     <g id="line2d_1">
      <defs>
       <path id="m69a68cea67" d="M 0 0 
L 0 3.5 
" style="stroke: #000000; stroke-width: 0.8"/>
      </defs>
      <g>
       <use xlink:href="#m69a68cea67" x="145.048487" y="441.16" style="stroke: #000000; stroke-width: 0.8"/>
      </g>
     </g>
     <g id="text_1">
      <!-- 0 -->
      <g transform="translate(134.868487 472.475) scale(0.32 -0.32)">
       <defs>
        <path id="DejaVuSans-30" d="M 2034 4250 
Q 1547 4250 1301 3770 
Q 1056 3291 1056 2328 
Q 1056 1369 1301 889 
Q 1547 409 2034 409 
Q 2525 409 2770 889 
Q 3016 1369 3016 2328 
Q 3016 3291 2770 3770 
Q 2525 4250 2034 4250 
z
M 2034 4750 
Q 2819 4750 3233 4129 
Q 3647 3509 3647 2328 
Q 3647 1150 3233 529 
Q 2819 -91 2034 -91 
Q 1250 -91 836 529 
Q 422 1150 422 2328 
Q 422 3509 836 4129 
Q 1250 4750 2034 4750 
z
" transform="scale(0.015625)"/>
       </defs>
       <use xlink:href="#DejaVuSans-30"/>
      </g>
     </g>
    </g>
    <g id="xtick_2">
     <g id="line2d_2">
      <g>
       <use xlink:href="#m69a68cea67" x="292.000051" y="441.16" style="stroke: #000000; stroke-width: 0.8"/>
      </g>
     </g>
     <g id="text_2">
      <!-- 10000 -->
      <g transform="translate(241.100051 472.475) scale(0.32 -0.32)">
       <defs>
        <path id="DejaVuSans-31" d="M 794 531 
L 1825 531 
L 1825 4091 
L 703 3866 
L 703 4441 
L 1819 4666 
L 2450 4666 
L 2450 531 
L 3481 531 
L 3481 0 
L 794 0 
L 794 531 
z
" transform="scale(0.015625)"/>
       </defs>
       <use xlink:href="#DejaVuSans-31"/>
       <use xlink:href="#DejaVuSans-30" x="63.623047"/>
       <use xlink:href="#DejaVuSans-30" x="127.246094"/>
       <use xlink:href="#DejaVuSans-30" x="190.869141"/>
       <use xlink:href="#DejaVuSans-30" x="254.492188"/>
      </g>
     </g>
    </g>
    <g id="xtick_3">
     <g id="line2d_3">
      <g>
       <use xlink:href="#m69a68cea67" x="438.951615" y="441.16" style="stroke: #000000; stroke-width: 0.8"/>
      </g>
     </g>
     <g id="text_3">
      <!-- 20000 -->
      <g transform="translate(388.051615 472.475) scale(0.32 -0.32)">
       <defs>
        <path id="DejaVuSans-32" d="M 1228 531 
L 3431 531 
L 3431 0 
L 469 0 
L 469 531 
Q 828 903 1448 1529 
Q 2069 2156 2228 2338 
Q 2531 2678 2651 2914 
Q 2772 3150 2772 3378 
Q 2772 3750 2511 3984 
Q 2250 4219 1831 4219 
Q 1534 4219 1204 4116 
Q 875 4013 500 3803 
L 500 4441 
Q 881 4594 1212 4672 
Q 1544 4750 1819 4750 
Q 2544 4750 2975 4387 
Q 3406 4025 3406 3419 
Q 3406 3131 3298 2873 
Q 3191 2616 2906 2266 
Q 2828 2175 2409 1742 
Q 1991 1309 1228 531 
z
" transform="scale(0.015625)"/>
       </defs>
       <use xlink:href="#DejaVuSans-32"/>
       <use xlink:href="#DejaVuSans-30" x="63.623047"/>
       <use xlink:href="#DejaVuSans-30" x="127.246094"/>
       <use xlink:href="#DejaVuSans-30" x="190.869141"/>
       <use xlink:href="#DejaVuSans-30" x="254.492188"/>
      </g>
     </g>
    </g>
    <g id="xtick_4">
     <g id="line2d_4">
      <g>
       <use xlink:href="#m69a68cea67" x="585.90318" y="441.16" style="stroke: #000000; stroke-width: 0.8"/>
      </g>
     </g>
     <g id="text_4">
      <!-- 30000 -->
      <g transform="translate(535.00318 472.475) scale(0.32 -0.32)">
       <defs>
        <path id="DejaVuSans-33" d="M 2597 2516 
Q 3050 2419 3304 2112 
Q 3559 1806 3559 1356 
Q 3559 666 3084 287 
Q 2609 -91 1734 -91 
Q 1441 -91 1130 -33 
Q 819 25 488 141 
L 488 750 
Q 750 597 1062 519 
Q 1375 441 1716 441 
Q 2309 441 2620 675 
Q 2931 909 2931 1356 
Q 2931 1769 2642 2001 
Q 2353 2234 1838 2234 
L 1294 2234 
L 1294 2753 
L 1863 2753 
Q 2328 2753 2575 2939 
Q 2822 3125 2822 3475 
Q 2822 3834 2567 4026 
Q 2313 4219 1838 4219 
Q 1578 4219 1281 4162 
Q 984 4106 628 3988 
L 628 4550 
Q 988 4650 1302 4700 
Q 1616 4750 1894 4750 
Q 2613 4750 3031 4423 
Q 3450 4097 3450 3541 
Q 3450 3153 3228 2886 
Q 3006 2619 2597 2516 
z
" transform="scale(0.015625)"/>
       </defs>
       <use xlink:href="#DejaVuSans-33"/>
       <use xlink:href="#DejaVuSans-30" x="63.623047"/>
       <use xlink:href="#DejaVuSans-30" x="127.246094"/>
       <use xlink:href="#DejaVuSans-30" x="190.869141"/>
       <use xlink:href="#DejaVuSans-30" x="254.492188"/>
      </g>
     </g>
    </g>
    <g id="xtick_5">
     <g id="line2d_5">
      <g>
       <use xlink:href="#m69a68cea67" x="732.854744" y="441.16" style="stroke: #000000; stroke-width: 0.8"/>
      </g>
     </g>
     <g id="text_5">
      <!-- 40000 -->
      <g transform="translate(681.954744 472.475) scale(0.32 -0.32)">
       <defs>
        <path id="DejaVuSans-34" d="M 2419 4116 
L 825 1625 
L 2419 1625 
L 2419 4116 
z
M 2253 4666 
L 3047 4666 
L 3047 1625 
L 3713 1625 
L 3713 1100 
L 3047 1100 
L 3047 0 
L 2419 0 
L 2419 1100 
L 313 1100 
L 313 1709 
L 2253 4666 
z
" transform="scale(0.015625)"/>
       </defs>
       <use xlink:href="#DejaVuSans-34"/>
       <use xlink:href="#DejaVuSans-30" x="63.623047"/>
       <use xlink:href="#DejaVuSans-30" x="127.246094"/>
       <use xlink:href="#DejaVuSans-30" x="190.869141"/>
       <use xlink:href="#DejaVuSans-30" x="254.492188"/>
      </g>
     </g>
    </g>
    <g id="xtick_6">
     <g id="line2d_6">
      <g>
       <use xlink:href="#m69a68cea67" x="879.806308" y="441.16" style="stroke: #000000; stroke-width: 0.8"/>
      </g>
     </g>
     <g id="text_6">
      <!-- 50000 -->
      <g transform="translate(828.906308 472.475) scale(0.32 -0.32)">
       <defs>
        <path id="DejaVuSans-35" d="M 691 4666 
L 3169 4666 
L 3169 4134 
L 1269 4134 
L 1269 2991 
Q 1406 3038 1543 3061 
Q 1681 3084 1819 3084 
Q 2600 3084 3056 2656 
Q 3513 2228 3513 1497 
Q 3513 744 3044 326 
Q 2575 -91 1722 -91 
Q 1428 -91 1123 -41 
Q 819 9 494 109 
L 494 744 
Q 775 591 1075 516 
Q 1375 441 1709 441 
Q 2250 441 2565 725 
Q 2881 1009 2881 1497 
Q 2881 1984 2565 2268 
Q 2250 2553 1709 2553 
Q 1456 2553 1204 2497 
Q 953 2441 691 2322 
L 691 4666 
z
" transform="scale(0.015625)"/>
       </defs>
       <use xlink:href="#DejaVuSans-35"/>
       <use xlink:href="#DejaVuSans-30" x="63.623047"/>
       <use xlink:href="#DejaVuSans-30" x="127.246094"/>
       <use xlink:href="#DejaVuSans-30" x="190.869141"/>
       <use xlink:href="#DejaVuSans-30" x="254.492188"/>
      </g>
     </g>
    </g>
    <g id="xtick_7">
     <g id="line2d_7">
      <g>
       <use xlink:href="#m69a68cea67" x="1026.757873" y="441.16" style="stroke: #000000; stroke-width: 0.8"/>
      </g>
     </g>
     <g id="text_7">
      <!-- 60000 -->
      <g transform="translate(975.857873 472.475) scale(0.32 -0.32)">
       <defs>
        <path id="DejaVuSans-36" d="M 2113 2584 
Q 1688 2584 1439 2293 
Q 1191 2003 1191 1497 
Q 1191 994 1439 701 
Q 1688 409 2113 409 
Q 2538 409 2786 701 
Q 3034 994 3034 1497 
Q 3034 2003 2786 2293 
Q 2538 2584 2113 2584 
z
M 3366 4563 
L 3366 3988 
Q 3128 4100 2886 4159 
Q 2644 4219 2406 4219 
Q 1781 4219 1451 3797 
Q 1122 3375 1075 2522 
Q 1259 2794 1537 2939 
Q 1816 3084 2150 3084 
Q 2853 3084 3261 2657 
Q 3669 2231 3669 1497 
Q 3669 778 3244 343 
Q 2819 -91 2113 -91 
Q 1303 -91 875 529 
Q 447 1150 447 2328 
Q 447 3434 972 4092 
Q 1497 4750 2381 4750 
Q 2619 4750 2861 4703 
Q 3103 4656 3366 4563 
z
" transform="scale(0.015625)"/>
       </defs>
       <use xlink:href="#DejaVuSans-36"/>
       <use xlink:href="#DejaVuSans-30" x="63.623047"/>
       <use xlink:href="#DejaVuSans-30" x="127.246094"/>
       <use xlink:href="#DejaVuSans-30" x="190.869141"/>
       <use xlink:href="#DejaVuSans-30" x="254.492188"/>
      </g>
     </g>
    </g>
    <g id="text_8">
     <!-- S($\mathcal{D}$) -->
     <g transform="translate(559.575 507.445) scale(0.32 -0.32)">
      <defs>
       <path id="DejaVuSans-53" d="M 3425 4513 
L 3425 3897 
Q 3066 4069 2747 4153 
Q 2428 4238 2131 4238 
Q 1616 4238 1336 4038 
Q 1056 3838 1056 3469 
Q 1056 3159 1242 3001 
Q 1428 2844 1947 2747 
L 2328 2669 
Q 3034 2534 3370 2195 
Q 3706 1856 3706 1288 
Q 3706 609 3251 259 
Q 2797 -91 1919 -91 
Q 1588 -91 1214 -16 
Q 841 59 441 206 
L 441 856 
Q 825 641 1194 531 
Q 1563 422 1919 422 
Q 2459 422 2753 634 
Q 3047 847 3047 1241 
Q 3047 1584 2836 1778 
Q 2625 1972 2144 2069 
L 1759 2144 
Q 1053 2284 737 2584 
Q 422 2884 422 3419 
Q 422 4038 858 4394 
Q 1294 4750 2059 4750 
Q 2388 4750 2728 4690 
Q 3069 4631 3425 4513 
z
" transform="scale(0.015625)"/>
       <path id="DejaVuSans-28" d="M 1984 4856 
Q 1566 4138 1362 3434 
Q 1159 2731 1159 2009 
Q 1159 1288 1364 580 
Q 1569 -128 1984 -844 
L 1484 -844 
Q 1016 -109 783 600 
Q 550 1309 550 2009 
Q 550 2706 781 3412 
Q 1013 4119 1484 4856 
L 1984 4856 
z
" transform="scale(0.015625)"/>
       <path id="STIXNonUnicode-Italic-e230" d="M 314 3418 
L 218 3539 
Q 621 3923 1126 4083 
Q 1619 4237 2490 4237 
Q 3475 4237 4028 4080 
Q 4582 3923 4812 3596 
Q 5043 3270 5043 2701 
Q 5043 2349 4950 1993 
Q 4858 1638 4634 1273 
Q 4410 909 4070 630 
Q 3731 352 3190 176 
Q 2650 0 1978 0 
L 333 0 
L 378 154 
Q 576 154 678 275 
Q 781 397 870 710 
L 1491 2867 
Q 1517 2957 1581 3155 
Q 1645 3354 1673 3466 
Q 1702 3578 1702 3642 
Q 1702 3878 1414 3878 
Q 877 3878 314 3418 
z
M 2438 3750 
L 1510 557 
Q 1478 454 1478 390 
Q 1478 307 1568 281 
Q 1658 256 1856 256 
Q 2093 256 2355 297 
Q 2618 339 2989 489 
Q 3360 640 3645 886 
Q 3930 1133 4134 1597 
Q 4339 2061 4339 2675 
Q 4339 3328 3977 3654 
Q 3616 3981 2758 3981 
Q 2643 3981 2553 3913 
Q 2464 3846 2438 3750 
z
" transform="scale(0.015625)"/>
       <path id="DejaVuSans-29" d="M 513 4856 
L 1013 4856 
Q 1481 4119 1714 3412 
Q 1947 2706 1947 2009 
Q 1947 1309 1714 600 
Q 1481 -109 1013 -844 
L 513 -844 
Q 928 -128 1133 580 
Q 1338 1288 1338 2009 
Q 1338 2731 1133 3434 
Q 928 4138 513 4856 
z
" transform="scale(0.015625)"/>
      </defs>
      <use xlink:href="#DejaVuSans-53" transform="translate(0 0.125)"/>
      <use xlink:href="#DejaVuSans-28" transform="translate(63.476562 0.125)"/>
      <use xlink:href="#STIXNonUnicode-Italic-e230" transform="translate(102.490234 0.125)"/>
      <use xlink:href="#DejaVuSans-29" transform="translate(182.590225 0.125)"/>
     </g>
    </g>
   </g>
   <g id="matplotlib.axis_2">
    <g id="ytick_1">
     <g id="line2d_8">
      <defs>
       <path id="md7a00c1e25" d="M 0 0 
L -3.5 0 
" style="stroke: #000000; stroke-width: 0.8"/>
      </defs>
      <g>
       <use xlink:href="#md7a00c1e25" x="100.06" y="421.434545" style="stroke: #000000; stroke-width: 0.8"/>
      </g>
     </g>
     <g id="text_9">
      <!-- 0.0 -->
      <g transform="translate(42.17 433.592045) scale(0.32 -0.32)">
       <defs>
        <path id="DejaVuSans-2e" d="M 684 794 
L 1344 794 
L 1344 0 
L 684 0 
L 684 794 
z
" transform="scale(0.015625)"/>
       </defs>
       <use xlink:href="#DejaVuSans-30"/>
       <use xlink:href="#DejaVuSans-2e" x="63.623047"/>
       <use xlink:href="#DejaVuSans-30" x="95.410156"/>
      </g>
     </g>
    </g>
    <g id="ytick_2">
     <g id="line2d_9">
      <g>
       <use xlink:href="#md7a00c1e25" x="100.06" y="342.487615" style="stroke: #000000; stroke-width: 0.8"/>
      </g>
     </g>
     <g id="text_10">
      <!-- 0.2 -->
      <g transform="translate(42.17 354.645115) scale(0.32 -0.32)">
       <use xlink:href="#DejaVuSans-30"/>
       <use xlink:href="#DejaVuSans-2e" x="63.623047"/>
       <use xlink:href="#DejaVuSans-32" x="95.410156"/>
      </g>
     </g>
    </g>
    <g id="ytick_3">
     <g id="line2d_10">
      <g>
       <use xlink:href="#md7a00c1e25" x="100.06" y="263.540684" style="stroke: #000000; stroke-width: 0.8"/>
      </g>
     </g>
     <g id="text_11">
      <!-- 0.4 -->
      <g transform="translate(42.17 275.698184) scale(0.32 -0.32)">
       <use xlink:href="#DejaVuSans-30"/>
       <use xlink:href="#DejaVuSans-2e" x="63.623047"/>
       <use xlink:href="#DejaVuSans-34" x="95.410156"/>
      </g>
     </g>
    </g>
    <g id="ytick_4">
     <g id="line2d_11">
      <g>
       <use xlink:href="#md7a00c1e25" x="100.06" y="184.593753" style="stroke: #000000; stroke-width: 0.8"/>
      </g>
     </g>
     <g id="text_12">
      <!-- 0.6 -->
      <g transform="translate(42.17 196.751253) scale(0.32 -0.32)">
       <use xlink:href="#DejaVuSans-30"/>
       <use xlink:href="#DejaVuSans-2e" x="63.623047"/>
       <use xlink:href="#DejaVuSans-36" x="95.410156"/>
      </g>
     </g>
    </g>
    <g id="ytick_5">
     <g id="line2d_12">
      <g>
       <use xlink:href="#md7a00c1e25" x="100.06" y="105.646823" style="stroke: #000000; stroke-width: 0.8"/>
      </g>
     </g>
     <g id="text_13">
      <!-- 0.8 -->
      <g transform="translate(42.17 117.804323) scale(0.32 -0.32)">
       <defs>
        <path id="DejaVuSans-38" d="M 2034 2216 
Q 1584 2216 1326 1975 
Q 1069 1734 1069 1313 
Q 1069 891 1326 650 
Q 1584 409 2034 409 
Q 2484 409 2743 651 
Q 3003 894 3003 1313 
Q 3003 1734 2745 1975 
Q 2488 2216 2034 2216 
z
M 1403 2484 
Q 997 2584 770 2862 
Q 544 3141 544 3541 
Q 544 4100 942 4425 
Q 1341 4750 2034 4750 
Q 2731 4750 3128 4425 
Q 3525 4100 3525 3541 
Q 3525 3141 3298 2862 
Q 3072 2584 2669 2484 
Q 3125 2378 3379 2068 
Q 3634 1759 3634 1313 
Q 3634 634 3220 271 
Q 2806 -91 2034 -91 
Q 1263 -91 848 271 
Q 434 634 434 1313 
Q 434 1759 690 2068 
Q 947 2378 1403 2484 
z
M 1172 3481 
Q 1172 3119 1398 2916 
Q 1625 2713 2034 2713 
Q 2441 2713 2670 2916 
Q 2900 3119 2900 3481 
Q 2900 3844 2670 4047 
Q 2441 4250 2034 4250 
Q 1625 4250 1398 4047 
Q 1172 3844 1172 3481 
z
" transform="scale(0.015625)"/>
       </defs>
       <use xlink:href="#DejaVuSans-30"/>
       <use xlink:href="#DejaVuSans-2e" x="63.623047"/>
       <use xlink:href="#DejaVuSans-38" x="95.410156"/>
      </g>
     </g>
    </g>
    <g id="ytick_6">
     <g id="line2d_13">
      <g>
       <use xlink:href="#md7a00c1e25" x="100.06" y="26.699892" style="stroke: #000000; stroke-width: 0.8"/>
      </g>
     </g>
     <g id="text_14">
      <!-- 1.0 -->
      <g transform="translate(42.17 38.857392) scale(0.32 -0.32)">
       <use xlink:href="#DejaVuSans-31"/>
       <use xlink:href="#DejaVuSans-2e" x="63.623047"/>
       <use xlink:href="#DejaVuSans-30" x="95.410156"/>
      </g>
     </g>
    </g>
    <g id="text_15">
     <!-- div(P) -->
     <g transform="translate(31.515 270.385) rotate(-90) scale(0.32 -0.32)">
      <defs>
       <path id="DejaVuSans-64" d="M 2906 2969 
L 2906 4863 
L 3481 4863 
L 3481 0 
L 2906 0 
L 2906 525 
Q 2725 213 2448 61 
Q 2172 -91 1784 -91 
Q 1150 -91 751 415 
Q 353 922 353 1747 
Q 353 2572 751 3078 
Q 1150 3584 1784 3584 
Q 2172 3584 2448 3432 
Q 2725 3281 2906 2969 
z
M 947 1747 
Q 947 1113 1208 752 
Q 1469 391 1925 391 
Q 2381 391 2643 752 
Q 2906 1113 2906 1747 
Q 2906 2381 2643 2742 
Q 2381 3103 1925 3103 
Q 1469 3103 1208 2742 
Q 947 2381 947 1747 
z
" transform="scale(0.015625)"/>
       <path id="DejaVuSans-69" d="M 603 3500 
L 1178 3500 
L 1178 0 
L 603 0 
L 603 3500 
z
M 603 4863 
L 1178 4863 
L 1178 4134 
L 603 4134 
L 603 4863 
z
" transform="scale(0.015625)"/>
       <path id="DejaVuSans-76" d="M 191 3500 
L 800 3500 
L 1894 563 
L 2988 3500 
L 3597 3500 
L 2284 0 
L 1503 0 
L 191 3500 
z
" transform="scale(0.015625)"/>
       <path id="DejaVuSans-50" d="M 1259 4147 
L 1259 2394 
L 2053 2394 
Q 2494 2394 2734 2622 
Q 2975 2850 2975 3272 
Q 2975 3691 2734 3919 
Q 2494 4147 2053 4147 
L 1259 4147 
z
M 628 4666 
L 2053 4666 
Q 2838 4666 3239 4311 
Q 3641 3956 3641 3272 
Q 3641 2581 3239 2228 
Q 2838 1875 2053 1875 
L 1259 1875 
L 1259 0 
L 628 0 
L 628 4666 
z
" transform="scale(0.015625)"/>
      </defs>
      <use xlink:href="#DejaVuSans-64"/>
      <use xlink:href="#DejaVuSans-69" x="63.476562"/>
      <use xlink:href="#DejaVuSans-76" x="91.259766"/>
      <use xlink:href="#DejaVuSans-28" x="150.439453"/>
      <use xlink:href="#DejaVuSans-50" x="189.453125"/>
      <use xlink:href="#DejaVuSans-29" x="249.755859"/>
     </g>
    </g>
   </g>
   <g id="line2d_14">
    <path d="M 145.063182 26.925455 
L 145.268914 27.573492 
L 145.724464 28.229732 
L 146.503307 28.944212 
L 147.723005 29.742899 
L 149.501119 30.626237 
L 151.999296 31.605556 
L 155.379182 32.680493 
L 159.846509 33.857731 
L 163.417432 34.832669 
L 165.915609 36.296251 
L 169.030982 37.855556 
L 172.851723 39.511374 
L 177.466002 41.262228 
L 181.96272 42.981079 
L 186.003888 45.003853 
L 190.750423 47.125459 
L 196.275802 49.346203 
L 200.199409 50.963347 
L 205.357409 53.415501 
L 211.250166 55.966593 
L 220.155431 59.773101 
L 226.474348 62.62672 
L 233.557414 65.577237 
L 236.658092 66.938652 
L 243.564815 70.084218 
L 251.235687 73.329755 
L 255.085818 75.021921 
L 262.741995 78.464925 
L 311.809122 99.916433 
L 321.478535 104.138546 
L 329.590261 107.704213 
L 339.759309 112.146171 
L 347.885731 115.724019 
L 358.56911 120.380385 
L 365.799127 123.573736 
L 376.938055 128.428401 
L 384.035816 131.568579 
L 395.644989 136.621137 
L 402.066773 139.472199 
L 414.102106 144.708403 
L 420.274071 147.45473 
L 432.735564 152.871305 
L 438.393199 155.398363 
L 461.876059 165.700307 
L 511.148919 187.298763 
L 539.201973 199.575093 
L 551.060964 204.802288 
L 671.237953 257.487311 
L 700.09924 270.138438 
L 724.875274 281.00666 
L 754.471319 293.980412 
L 779.43839 304.935798 
L 819.306349 322.425786 
L 1026.272932 413.1697 
L 1045.126818 421.434545 
L 1045.126818 421.434545 
" clip-path="url(#pf0acba0d41)" style="fill: none; stroke-dasharray: 7.4,3.2; stroke-dashoffset: 0; stroke: #000000; stroke-width: 2"/>
   </g>
   <g id="line2d_15">
    <path d="M 145.063182 26.925455 
L 145.900806 38.121473 
L 146.077148 38.846813 
L 146.385746 41.284921 
L 146.635564 42.751334 
L 146.811905 43.275294 
L 147.091113 44.914688 
L 147.385017 46.339393 
L 147.576054 46.854644 
L 147.869957 48.410225 
L 148.119774 49.347326 
L 148.310811 49.79557 
L 148.604715 51.164863 
L 148.854532 52.00014 
L 149.060264 52.446662 
L 149.354167 53.719436 
L 149.58929 54.400052 
L 149.795022 54.808475 
L 150.088925 55.978759 
L 150.324048 56.608004 
L 150.52978 56.986666 
L 150.823683 58.075812 
L 151.058806 58.6638 
L 151.264538 59.018385 
L 151.558441 60.041227 
L 151.793563 60.595138 
L 151.999296 60.929722 
L 152.293199 61.897064 
L 152.528321 62.42221 
L 152.748749 62.772996 
L 153.057347 63.780774 
L 153.248384 64.148728 
L 153.454116 64.432958 
L 153.748019 65.286273 
L 153.997837 65.821198 
L 154.218264 66.141766 
L 154.526863 67.065526 
L 154.7179 67.403797 
L 154.938327 67.693384 
L 155.23223 68.504509 
L 155.467353 68.947603 
L 155.68778 69.244621 
L 155.996378 70.102391 
L 156.187415 70.417171 
L 156.407843 70.686924 
L 156.701746 71.443815 
L 156.936868 71.858077 
L 157.171991 72.163499 
L 157.480589 72.990274 
L 157.656931 73.235825 
L 157.892053 73.514877 
L 158.200652 74.295751 
L 158.391689 74.582972 
L 158.626811 74.854218 
L 158.935409 75.613715 
L 159.141142 75.902031 
L 159.376264 76.182499 
L 159.684862 76.943183 
L 159.861204 77.169505 
L 160.096327 77.426923 
L 160.404925 78.148455 
L 160.610657 78.422644 
L 160.84578 78.689516 
L 161.154378 79.414035 
L 161.33072 79.629793 
L 161.565842 79.875302 
L 161.874441 80.564047 
L 162.080173 80.826001 
L 162.329991 81.104932 
L 162.653284 81.860916 
L 162.800236 81.980693 
L 163.050053 82.238256 
L 163.373347 82.959126 
L 163.534993 83.119421 
L 163.784811 83.371809 
L 164.108105 84.078439 
L 164.269751 84.235616 
L 164.519569 84.483128 
L 164.842862 85.176332 
L 165.004509 85.330565 
L 165.254327 85.573474 
L 165.57762 86.253987 
L 165.739267 86.405437 
L 165.989085 86.643991 
L 166.312378 87.312486 
L 166.474025 87.461298 
L 166.723842 87.695722 
L 167.047136 88.352814 
L 167.208783 88.499121 
L 167.4586 88.729623 
L 167.781894 89.375877 
L 167.958236 89.526685 
L 168.222748 89.788522 
L 169.574703 91.629427 
L 169.868606 92.082333 
L 170.191899 92.508933 
L 170.456412 92.786672 
L 171.632025 94.399134 
L 171.896537 94.642196 
L 173.263187 96.369183 
L 173.571785 96.835372 
L 173.850993 97.167919 
L 174.130201 97.434918 
L 175.305814 98.943707 
L 175.585022 99.190832 
L 176.83411 100.713665 
L 177.128013 101.029206 
L 177.627648 101.608772 
L 177.936247 101.999992 
L 178.288931 102.404312 
L 178.582834 102.699447 
L 179.126554 103.311876 
L 179.435153 103.722192 
L 179.743751 104.058677 
L 180.037654 104.334417 
L 180.640156 104.994507 
L 180.963449 105.464874 
L 181.183876 105.672919 
L 181.463084 105.89905 
L 182.726868 107.303754 
L 183.020771 107.606171 
L 183.491016 108.107702 
L 183.799614 108.454766 
L 184.181688 108.858284 
L 184.475591 109.142658 
L 184.989922 109.676298 
L 185.29852 110.042471 
L 185.636509 110.38455 
L 185.930412 110.651635 
L 186.488828 111.218193 
L 186.812121 111.627753 
L 187.076634 111.8778 
L 187.370537 112.116394 
L 188.502064 113.343263 
L 188.795967 113.542687 
L 190.765118 115.538655 
L 191.073717 115.796857 
L 191.646828 116.342534 
L 191.984816 116.765793 
L 192.219939 116.953146 
L 192.528537 117.195507 
L 193.175124 117.801799 
L 193.527808 118.296386 
L 193.674759 118.346364 
L 193.983358 118.573421 
L 195.114885 119.715161 
L 195.423483 119.915963 
L 196.716657 121.128514 
L 197.03995 121.448023 
L 197.407329 121.776359 
L 197.730622 122.05849 
L 198.186172 122.466051 
L 198.509466 122.781112 
L 198.876845 123.104908 
L 199.200138 123.383163 
L 199.655688 123.785163 
L 199.978981 124.095957 
L 200.34636 124.415396 
L 200.669654 124.689929 
L 201.125204 125.08659 
L 201.448497 125.393286 
L 201.815876 125.708539 
L 202.139169 125.979497 
L 202.594719 126.371026 
L 202.918013 126.673782 
L 203.285392 126.98501 
L 203.608685 127.252528 
L 204.064235 127.639119 
L 204.402223 127.957429 
L 204.740212 128.239172 
L 205.063506 128.492399 
L 205.563141 128.908404 
L 205.901129 129.245599 
L 206.195033 129.478527 
L 206.518326 129.717843 
L 207.062047 130.164085 
L 207.400035 130.519746 
L 207.664548 130.708739 
L 207.987842 130.945231 
L 208.531562 131.386241 
L 208.884246 131.758833 
L 209.119369 131.919493 
L 209.442662 132.142655 
L 210.045164 132.625279 
L 210.397847 133.027986 
L 210.588884 133.121492 
L 210.912178 133.342139 
L 211.514679 133.819359 
L 211.867363 134.217593 
L 212.0584 134.310066 
L 212.381693 134.52828 
L 212.984195 135.000274 
L 213.336879 135.394182 
L 213.527916 135.485655 
L 213.851209 135.701515 
L 214.468406 136.179372 
L 214.835785 136.602621 
L 214.982736 136.644278 
L 215.30603 136.847707 
L 216.408166 137.784864 
L 216.73146 137.95603 
L 218.083414 139.006541 
L 218.436098 139.353932 
L 218.685916 139.508511 
L 219.023904 139.741671 
L 219.538235 140.12472 
L 219.890918 140.457964 
L 220.155431 140.630472 
L 220.49342 140.861341 
L 221.00775 141.240646 
L 221.360434 141.570652 
L 221.624947 141.741492 
L 221.962935 141.970135 
L 222.477266 142.345803 
L 222.82995 142.672665 
L 223.094462 142.841884 
L 223.432451 143.068365 
L 223.946782 143.440499 
L 224.299465 143.764304 
L 224.563978 143.931948 
L 224.901967 144.156327 
L 225.416297 144.525025 
L 225.768981 144.845858 
L 226.033494 145.011968 
L 226.371482 145.234303 
L 226.885813 145.599659 
L 227.238497 145.917599 
L 227.503009 146.082219 
L 227.840998 146.302564 
L 228.355328 146.664666 
L 228.722707 146.998191 
L 228.972525 147.14296 
L 229.325209 147.375915 
L 229.810149 147.712524 
L 230.177528 148.032686 
L 230.442041 148.19444 
L 230.794724 148.425382 
L 231.279665 148.759098 
L 231.647044 149.076522 
L 231.911556 149.236897 
L 232.26424 149.465879 
L 232.74918 149.796774 
L 233.116559 150.111529 
L 233.381072 150.270561 
L 233.733756 150.497631 
L 234.218696 150.825775 
L 234.586075 151.137927 
L 234.850588 151.29565 
L 235.203271 151.520855 
L 235.688212 151.846316 
L 236.05559 152.155929 
L 236.320103 152.312373 
L 236.672787 152.535758 
L 237.157727 152.858602 
L 237.525106 153.165736 
L 237.804314 153.325553 
L 238.156998 153.556781 
L 238.612548 153.855827 
L 238.979927 154.150579 
L 239.27383 154.326107 
L 239.626513 154.555524 
L 240.082063 154.85224 
L 240.449442 155.144706 
L 240.743345 155.318877 
L 241.096029 155.546527 
L 241.551579 155.840966 
L 241.918958 156.131197 
L 242.212861 156.304043 
L 242.565545 156.529965 
L 243.021095 156.822179 
L 243.388474 157.110226 
L 243.682377 157.281776 
L 244.049756 157.520206 
L 244.475915 157.789644 
L 244.843294 158.065888 
L 245.166587 158.257077 
L 245.533966 158.503394 
L 245.930736 158.750407 
L 246.298114 159.015032 
L 246.636103 159.220402 
L 247.003482 159.464931 
L 247.400251 159.710158 
L 247.76763 159.972879 
L 248.105619 160.176774 
L 248.472998 160.419555 
L 248.869767 160.663034 
L 249.237146 160.923889 
L 249.575134 161.126343 
L 249.942513 161.367411 
L 250.339283 161.60918 
L 250.706661 161.86821 
L 251.059345 162.074324 
L 251.426724 162.323087 
L 251.794103 162.543306 
L 252.161482 162.791211 
L 252.528861 163.010675 
L 252.89624 163.257731 
L 253.263619 163.476446 
L 253.630998 163.722663 
L 253.998376 163.940637 
L 254.365755 164.186022 
L 254.733134 164.403263 
L 255.100513 164.647826 
L 255.467892 164.86434 
L 255.835271 165.108088 
L 256.20265 165.323883 
L 256.570029 165.566824 
L 256.952103 165.787212 
L 257.334177 166.053262 
L 257.65747 166.233507 
L 258.024849 166.465767 
L 258.421619 166.698732 
L 258.803693 166.963053 
L 259.126986 167.14213 
L 259.494365 167.37289 
L 259.905829 167.609952 
L 260.287903 167.881937 
L 260.596502 168.044913 
L 260.978576 168.288036 
L 261.36065 168.504195 
L 261.742724 168.765157 
L 262.066017 168.941965 
L 262.448091 169.183558 
L 262.830165 169.398361 
L 263.21224 169.65769 
L 263.535533 169.833396 
L 263.917607 170.073487 
L 264.299681 170.286958 
L 264.681755 170.544685 
L 265.005049 170.719309 
L 265.387123 170.957926 
L 265.769197 171.17009 
L 266.151271 171.426245 
L 266.474564 171.599806 
L 266.856638 171.836975 
L 267.238712 172.047856 
L 267.620786 172.302467 
L 267.94408 172.474985 
L 268.326154 172.710732 
L 268.708228 172.920353 
L 269.090302 173.173447 
L 269.428291 173.349624 
L 269.810365 173.592974 
L 270.163049 173.782659 
L 270.545123 174.025293 
L 270.897806 174.214422 
L 271.27988 174.456347 
L 271.632564 174.644925 
L 272.014638 174.886147 
L 272.367322 175.074179 
L 272.749396 175.314705 
L 273.10208 175.502195 
L 273.484154 175.74203 
L 273.836838 175.928983 
L 274.218912 176.168133 
L 274.571595 176.354554 
L 274.95367 176.593025 
L 275.306353 176.778919 
L 275.688427 177.016716 
L 276.041111 177.202086 
L 276.423185 177.439217 
L 276.775869 177.624068 
L 277.157943 177.860536 
L 277.510627 178.044872 
L 277.892701 178.280684 
L 278.26008 178.469371 
L 278.656849 178.727116 
L 278.965447 178.878478 
L 279.347521 179.10432 
L 279.729595 179.305159 
L 280.126365 179.561494 
L 280.434963 179.71203 
L 280.817037 179.936644 
L 281.199111 180.136394 
L 281.59588 180.391343 
L 281.904479 180.541067 
L 282.301248 180.777516 
L 282.668627 180.963149 
L 283.065396 181.216734 
L 283.373994 181.36566 
L 283.770763 181.60085 
L 284.138142 181.785498 
L 284.534912 182.03774 
L 284.84351 182.185879 
L 285.240279 182.419831 
L 285.607658 182.603509 
L 286.004427 182.85443 
L 286.313025 183.001795 
L 286.709795 183.234527 
L 287.077174 183.41725 
L 287.473943 183.66687 
L 287.797236 183.817845 
L 288.194005 184.0581 
L 288.531994 184.222104 
L 288.928763 184.461744 
L 289.266752 184.625329 
L 289.663521 184.864358 
L 290.00151 185.027527 
L 290.398279 185.265949 
L 290.736268 185.428705 
L 291.133037 185.666526 
L 291.471025 185.828873 
L 291.867795 186.066096 
L 292.205783 186.228036 
L 292.602552 186.464667 
L 292.940541 186.626203 
L 293.33731 186.862246 
L 293.675299 187.023382 
L 294.072068 187.25884 
L 294.410057 187.419578 
L 294.806826 187.654458 
L 295.144814 187.814801 
L 295.541584 188.049105 
L 295.879572 188.209056 
L 296.276342 188.442789 
L 296.61433 188.602352 
L 297.011099 188.835517 
L 297.349088 188.994694 
L 297.745857 189.227297 
L 298.083846 189.38609 
L 298.480615 189.618134 
L 298.833299 189.781071 
L 299.230068 190.020965 
L 299.553361 190.166071 
L 299.950131 190.397009 
L 300.302814 190.559171 
L 300.699584 190.797928 
L 301.022877 190.942347 
L 301.419646 191.172196 
L 301.77233 191.333594 
L 302.183794 191.584344 
L 302.477698 191.71081 
L 302.874467 191.931276 
L 303.241846 192.104392 
L 303.65331 192.353975 
L 303.947213 192.479853 
L 304.343982 192.699298 
L 304.711361 192.871614 
L 305.122826 193.120046 
L 305.431424 193.24947 
L 305.842888 193.488799 
L 306.166182 193.63089 
L 306.577646 193.869673 
L 306.90094 194.011441 
L 307.312404 194.249681 
L 307.635697 194.391128 
L 308.047162 194.62883 
L 308.370455 194.769958 
L 308.78192 195.007124 
L 309.105213 195.147935 
L 309.516677 195.384571 
L 309.839971 195.525067 
L 310.251435 195.761174 
L 310.574729 195.901357 
L 310.986193 196.13694 
L 311.309487 196.276813 
L 311.720951 196.511875 
L 312.044244 196.651439 
L 312.455709 196.885984 
L 312.779002 197.025242 
L 313.190467 197.259272 
L 313.51376 197.398225 
L 313.925224 197.631745 
L 314.248518 197.770396 
L 314.659982 198.003408 
L 314.983276 198.141758 
L 315.39474 198.374267 
L 315.718033 198.512318 
L 316.129498 198.744326 
L 316.452791 198.882081 
L 316.864256 199.113591 
L 317.187549 199.251051 
L 317.599013 199.482067 
L 317.922307 199.619233 
L 318.333771 199.849758 
L 318.657065 199.986634 
L 319.068529 200.216671 
L 319.391823 200.353257 
L 319.803287 200.582809 
L 320.141276 200.723347 
L 320.55274 200.960587 
L 320.861338 201.084191 
L 321.272803 201.312782 
L 321.610791 201.452733 
L 322.022256 201.688984 
L 322.330854 201.812074 
L 322.742318 202.039716 
L 323.080307 202.179088 
L 323.491771 202.414362 
L 323.80037 202.536944 
L 324.211834 202.763649 
L 324.549822 202.902448 
L 324.961287 203.136757 
L 325.269885 203.258838 
L 325.68135 203.484617 
L 326.019338 203.622851 
L 326.430803 203.856207 
L 326.739401 203.977793 
L 327.150865 204.202657 
L 327.488854 204.340332 
L 327.900318 204.572747 
L 328.208916 204.693843 
L 328.620381 204.917804 
L 328.958369 205.054927 
L 329.384529 205.298804 
L 329.678432 205.407024 
L 330.089896 205.630093 
L 330.427885 205.76667 
L 330.854045 206.00958 
L 331.147948 206.117371 
L 331.574107 206.351594 
L 331.882706 206.471492 
L 332.308865 206.705254 
L 332.617463 206.824916 
L 333.043623 207.05822 
L 333.352221 207.177649 
L 333.778381 207.410497 
L 334.086979 207.529693 
L 334.513139 207.762089 
L 334.821737 207.881053 
L 335.247896 208.112999 
L 335.556495 208.231733 
L 335.982654 208.463232 
L 336.291252 208.581738 
L 336.717412 208.812791 
L 337.02601 208.931069 
L 337.45217 209.16168 
L 337.760768 209.279733 
L 338.186928 209.509904 
L 338.495526 209.627732 
L 338.921685 209.857466 
L 339.230284 209.97507 
L 339.656443 210.204369 
L 339.965042 210.321751 
L 340.391201 210.550618 
L 340.699799 210.667779 
L 341.125959 210.896216 
L 341.449252 211.01716 
L 341.875412 211.253159 
L 342.169315 211.357889 
L 342.595475 211.585473 
L 342.918768 211.705967 
L 343.344928 211.941089 
L 343.638831 212.04543 
L 344.06499 212.272171 
L 344.388284 212.392219 
L 344.814443 212.626473 
L 345.108346 212.73043 
L 345.534506 212.956337 
L 345.857799 213.075944 
L 346.283959 213.30934 
L 346.577862 213.412917 
L 347.004022 213.637999 
L 347.327315 213.757171 
L 347.753474 213.989717 
L 348.047378 214.092918 
L 348.473537 214.317185 
L 348.796831 214.435925 
L 349.22299 214.667632 
L 349.516893 214.770461 
L 349.943053 214.99392 
L 350.266346 215.112234 
L 350.692506 215.34311 
L 350.986409 215.445571 
L 351.412568 215.668232 
L 351.735862 215.786124 
L 352.162021 216.016178 
L 352.455925 216.118275 
L 352.882084 216.340147 
L 353.205378 216.457621 
L 353.631537 216.686862 
L 353.92544 216.788599 
L 354.3516 217.009689 
L 354.674893 217.12675 
L 355.101053 217.355187 
L 355.394956 217.456567 
L 355.821115 217.676883 
L 356.144409 217.793536 
L 356.570568 218.021177 
L 356.864471 218.122204 
L 357.290631 218.341755 
L 357.613924 218.458004 
L 358.054779 218.696649 
L 358.333987 218.785535 
L 358.760147 219.004329 
L 359.08344 219.120177 
L 359.524295 219.358002 
L 359.803503 219.446583 
L 360.244357 219.676096 
L 360.538261 219.776258 
L 360.979115 220.00538 
L 361.273018 220.105371 
L 361.713873 220.334104 
L 362.022471 220.437733 
L 362.463326 220.673943 
L 362.742534 220.761923 
L 363.183389 220.989883 
L 363.491987 221.093163 
L 363.932842 221.328577 
L 364.21205 221.416261 
L 364.652904 221.643456 
L 364.961503 221.74639 
L 365.402357 221.981016 
L 365.681565 222.068408 
L 366.12242 222.294845 
L 366.431018 222.397436 
L 366.871873 222.631283 
L 367.151081 222.718385 
L 367.591936 222.944072 
L 367.900534 223.046324 
L 368.341389 223.279399 
L 368.620597 223.366214 
L 369.061451 223.591158 
L 369.37005 223.693074 
L 369.810904 223.925385 
L 370.090112 224.011916 
L 370.530967 224.236125 
L 370.839565 224.337709 
L 371.28042 224.569263 
L 371.559628 224.655512 
L 372.000483 224.878993 
L 372.309081 224.980247 
L 372.749936 225.211051 
L 373.029144 225.297022 
L 373.469998 225.519782 
L 373.778597 225.62071 
L 374.219451 225.850772 
L 374.498659 225.936466 
L 374.939514 226.158512 
L 375.248112 226.259117 
L 375.688967 226.488444 
L 375.968175 226.573865 
L 376.40903 226.795203 
L 376.717628 226.895488 
L 377.158483 227.124087 
L 377.43769 227.209237 
L 377.878545 227.429875 
L 378.187143 227.529843 
L 378.627998 227.757721 
L 378.907206 227.842603 
L 379.348061 228.062547 
L 379.656659 228.162201 
L 380.097514 228.389364 
L 380.376722 228.47398 
L 380.817576 228.693237 
L 381.126175 228.79258 
L 381.567029 229.019035 
L 381.846237 229.103388 
L 382.287092 229.321964 
L 382.59569 229.420999 
L 383.036545 229.646753 
L 383.330448 229.734479 
L 383.771303 229.959885 
L 384.065206 230.047475 
L 384.506061 230.272535 
L 384.799964 230.359991 
L 385.240819 230.584706 
L 385.534722 230.672028 
L 385.975576 230.896399 
L 386.26948 230.983588 
L 386.710334 231.207617 
L 387.004237 231.294674 
L 387.445092 231.518363 
L 387.738995 231.605287 
L 388.17985 231.828638 
L 388.473753 231.915431 
L 388.914608 232.138444 
L 389.208511 232.225106 
L 389.649365 232.447784 
L 389.943269 232.534315 
L 390.398818 232.767893 
L 390.663331 232.839482 
L 391.104186 233.0541 
L 391.412784 233.151345 
L 391.868334 233.384225 
L 392.132847 233.455601 
L 392.588397 233.680519 
L 392.8823 233.766536 
L 393.33785 233.998725 
L 393.602363 234.069889 
L 394.057912 234.294142 
L 394.351816 234.379904 
L 394.807365 234.611409 
L 395.071878 234.682363 
L 395.527428 234.905956 
L 395.821331 234.991467 
L 396.276881 235.222292 
L 396.541394 235.293039 
L 396.996944 235.515978 
L 397.290847 235.601239 
L 397.746397 235.831391 
L 398.010909 235.901932 
L 398.466459 236.124223 
L 398.760362 236.209236 
L 399.215912 236.438721 
L 399.480425 236.509058 
L 399.935975 236.730706 
L 400.229878 236.815474 
L 400.685428 237.044298 
L 400.949941 237.114432 
L 401.405491 237.335443 
L 401.699394 237.419968 
L 402.154944 237.648136 
L 402.434152 237.721565 
L 402.889701 237.949408 
L 403.168909 238.022733 
L 403.624459 238.250251 
L 403.903667 238.323471 
L 404.359217 238.550666 
L 404.638425 238.623783 
L 405.093975 238.850656 
L 405.373183 238.92367 
L 405.828733 239.150223 
L 406.107941 239.223133 
L 406.563491 239.449368 
L 406.842699 239.522176 
L 407.298248 239.748092 
L 407.577456 239.820798 
L 408.033006 240.046399 
L 408.312214 240.119003 
L 408.767764 240.344289 
L 409.046972 240.416792 
L 409.502522 240.641764 
L 409.78173 240.714166 
L 410.23728 240.938826 
L 410.516488 241.011128 
L 410.972037 241.235477 
L 411.251245 241.307679 
L 411.706795 241.531718 
L 411.986003 241.60382 
L 412.441553 241.827551 
L 412.720761 241.899554 
L 413.176311 242.122978 
L 413.455519 242.194882 
L 413.911069 242.418 
L 414.190277 242.489807 
L 414.645827 242.71262 
L 414.925035 242.784328 
L 415.380584 243.006838 
L 415.659792 243.078449 
L 416.115342 243.300656 
L 416.39455 243.37217 
L 416.8501 243.594077 
L 417.129308 243.665494 
L 417.584858 243.887101 
L 417.864066 243.958421 
L 418.319616 244.17973 
L 418.598824 244.250955 
L 419.054374 244.471966 
L 419.333581 244.543095 
L 419.789131 244.76381 
L 420.068339 244.834844 
L 420.523889 245.055265 
L 420.803097 245.126204 
L 421.258647 245.34633 
L 421.537855 245.417175 
L 421.993405 245.637009 
L 422.272613 245.70776 
L 422.728163 245.927303 
L 423.007371 245.99796 
L 423.46292 246.217212 
L 423.742128 246.287776 
L 424.197678 246.506739 
L 424.476886 246.57721 
L 424.932436 246.795886 
L 425.211644 246.866264 
L 425.667194 247.084653 
L 425.946402 247.154939 
L 426.416647 247.383763 
L 426.68116 247.443236 
L 427.151405 247.671761 
L 427.415918 247.731157 
L 427.886163 247.959385 
L 428.150675 248.018704 
L 428.62092 248.246636 
L 428.885433 248.305878 
L 429.355678 248.533514 
L 429.620191 248.59268 
L 430.090436 248.820022 
L 430.354949 248.879111 
L 430.825194 249.106161 
L 431.089707 249.165174 
L 431.559952 249.391932 
L 431.824464 249.45087 
L 432.294709 249.677337 
L 432.559222 249.736199 
L 433.029467 249.962377 
L 433.29398 250.021164 
L 433.764225 250.247054 
L 434.028738 250.305766 
L 434.498983 250.531368 
L 434.763496 250.590006 
L 435.233741 250.815322 
L 435.498254 250.873886 
L 435.968499 251.098917 
L 436.233011 251.157406 
L 436.703256 251.382154 
L 436.967769 251.440569 
L 437.438014 251.665034 
L 437.702527 251.723376 
L 438.172772 251.947558 
L 438.437285 252.005827 
L 438.90753 252.229729 
L 439.172043 252.287925 
L 439.642288 252.511548 
L 439.9068 252.569671 
L 440.377045 252.793015 
L 440.641558 252.851066 
L 441.111803 253.074132 
L 441.376316 253.132111 
L 441.846561 253.3549 
L 442.111074 253.412807 
L 442.581319 253.635321 
L 442.845832 253.693157 
L 443.316077 253.915396 
L 443.58059 253.97316 
L 444.050835 254.195126 
L 444.315347 254.252819 
L 444.785592 254.474513 
L 445.050105 254.532135 
L 445.52035 254.753557 
L 445.784863 254.811109 
L 446.255108 255.03226 
L 446.519621 255.089742 
L 446.989866 255.310624 
L 447.254379 255.368036 
L 447.724624 255.588649 
L 447.989137 255.645991 
L 448.459382 255.866336 
L 448.723894 255.923609 
L 449.194139 256.143688 
L 449.458652 256.200892 
L 449.928897 256.420705 
L 450.19341 256.477839 
L 450.663655 256.697388 
L 450.928168 256.754454 
L 451.398413 256.973738 
L 451.662926 257.030736 
L 452.133171 257.249758 
L 452.397683 257.306687 
L 452.867928 257.525447 
L 453.132441 257.582308 
L 453.602686 257.800808 
L 453.867199 257.857601 
L 454.337444 258.07584 
L 454.601957 258.132566 
L 455.072202 258.350547 
L 455.336715 258.407205 
L 455.80696 258.624927 
L 456.071473 258.681519 
L 456.541718 258.898984 
L 456.80623 258.955509 
L 457.276475 259.172717 
L 457.540988 259.229176 
L 458.011233 259.446129 
L 458.275746 259.502521 
L 458.745991 259.71922 
L 459.010504 259.775546 
L 459.480749 259.991991 
L 459.745262 260.048251 
L 460.215507 260.264444 
L 460.480019 260.320638 
L 460.950265 260.536579 
L 461.214777 260.592708 
L 461.685022 260.808397 
L 461.949535 260.864461 
L 462.41978 261.079901 
L 462.684293 261.1359 
L 463.154538 261.35109 
L 463.419051 261.407025 
L 463.889296 261.621967 
L 464.153809 261.677837 
L 464.624054 261.892531 
L 464.888566 261.948337 
L 465.358811 262.162784 
L 465.623324 262.218526 
L 466.108264 262.44298 
L 466.358082 262.488406 
L 466.843022 262.712603 
L 467.09284 262.757977 
L 467.57778 262.981918 
L 467.827598 263.027241 
L 468.312538 263.250927 
L 468.562356 263.296198 
L 469.047296 263.519631 
L 469.297113 263.56485 
L 469.782054 263.788029 
L 470.031871 263.833198 
L 470.516811 264.056125 
L 470.766629 264.101242 
L 471.251569 264.323917 
L 471.501387 264.368984 
L 471.986327 264.591409 
L 472.236145 264.636425 
L 472.721085 264.8586 
L 472.970902 264.903565 
L 473.455843 265.125491 
L 473.70566 265.170406 
L 474.1906 265.392084 
L 474.440418 265.436949 
L 474.925358 265.65838 
L 475.175176 265.703195 
L 475.660116 265.924379 
L 475.909934 265.969144 
L 476.394874 266.190083 
L 476.644692 266.234798 
L 477.129632 266.455492 
L 477.379449 266.500158 
L 477.86439 266.720608 
L 478.114207 266.765224 
L 478.599147 266.985431 
L 478.848965 267.029999 
L 479.333905 267.249963 
L 479.583723 267.294481 
L 480.068663 267.514204 
L 480.318481 267.558674 
L 480.803421 267.778155 
L 481.053239 267.822576 
L 481.538179 268.041818 
L 481.787996 268.086191 
L 482.272936 268.305193 
L 482.522754 268.349518 
L 483.007694 268.568282 
L 483.257512 268.612558 
L 483.742452 268.831084 
L 483.99227 268.875312 
L 484.47721 269.093602 
L 484.727028 269.137782 
L 485.211968 269.355835 
L 485.461785 269.399968 
L 485.946726 269.617786 
L 486.196543 269.66187 
L 486.681483 269.879454 
L 486.931301 269.923491 
L 487.416241 270.140841 
L 487.666059 270.184831 
L 488.150999 270.401948 
L 488.400817 270.445891 
L 488.885757 270.662775 
L 489.135575 270.706671 
L 489.620515 270.923324 
L 489.885028 270.970401 
L 490.369968 271.193687 
L 490.60509 271.227397 
L 491.09003 271.443589 
L 491.354543 271.490566 
L 491.839483 271.713379 
L 492.074606 271.747016 
L 492.559546 271.96275 
L 492.824059 272.009628 
L 493.308999 272.23197 
L 493.544121 272.265537 
L 494.029062 272.480815 
L 494.293574 272.527594 
L 494.778515 272.749468 
L 495.013637 272.782964 
L 495.498577 272.99779 
L 495.76309 273.044472 
L 496.24803 273.26588 
L 496.483153 273.299306 
L 496.968093 273.513683 
L 497.232606 273.560266 
L 497.717546 273.781212 
L 497.952668 273.814569 
L 498.437609 274.028499 
L 498.702121 274.074986 
L 499.187062 274.295472 
L 499.422184 274.32876 
L 499.907124 274.542246 
L 500.171637 274.588636 
L 500.656577 274.808666 
L 500.8917 274.841885 
L 501.37664 275.05493 
L 501.641153 275.101225 
L 502.126093 275.320801 
L 502.361215 275.353951 
L 502.846155 275.566558 
L 503.110668 275.612758 
L 503.595608 275.831883 
L 503.830731 275.864965 
L 504.315671 276.077137 
L 504.580184 276.123241 
L 505.065124 276.341919 
L 505.300247 276.374933 
L 505.785187 276.586672 
L 506.0497 276.632683 
L 506.53464 276.850915 
L 506.769762 276.883862 
L 507.254702 277.09517 
L 507.519215 277.141087 
L 508.503791 277.479418 
L 509.650013 277.888094 
L 510.134953 278.071842 
L 510.487637 278.161693 
L 511.545688 278.543404 
L 512.030628 278.687709 
L 515.322343 279.864109 
L 515.601551 279.919069 
L 516.586127 280.253692 
L 517.732349 280.657904 
L 518.231984 280.848558 
L 518.569973 280.928522 
L 519.628024 281.306085 
L 520.112964 281.448825 
L 523.404679 282.612533 
L 523.698582 282.670182 
L 524.727243 283.025729 
L 525.682429 283.386234 
L 526.182064 283.514247 
L 527.181335 283.882475 
L 527.68097 284.023687 
L 528.283471 284.211158 
L 530.311403 284.896631 
L 531.340064 285.249116 
L 532.295249 285.606525 
L 532.794884 285.733441 
L 533.794155 286.098519 
L 534.29379 286.238525 
L 534.896292 286.424398 
L 536.924223 287.104045 
L 537.967579 287.460862 
L 538.584776 287.651616 
L 540.480451 288.302112 
L 540.980086 288.473983 
L 541.376856 288.576099 
L 542.508383 288.994351 
L 542.802286 289.050598 
L 543.845642 289.404772 
L 544.462839 289.594115 
L 546.358514 290.239816 
L 546.858149 290.410424 
L 547.254918 290.511791 
L 548.386445 290.926979 
L 548.680348 290.982815 
L 549.723705 291.334403 
L 550.340901 291.522366 
L 552.251271 292.165198 
L 552.750907 292.341081 
L 553.118286 292.42965 
L 554.235118 292.827986 
L 554.587801 292.907887 
L 555.704633 293.305509 
L 556.057317 293.385267 
L 557.174149 293.782178 
L 557.526833 293.861794 
L 558.643664 294.257998 
L 558.996348 294.337472 
L 560.11318 294.732973 
L 560.465864 294.812307 
L 561.582696 295.207108 
L 561.93538 295.286302 
L 563.052211 295.680407 
L 563.404895 295.759462 
L 564.521727 296.152875 
L 564.874411 296.231791 
L 565.991243 296.624516 
L 566.343926 296.703294 
L 567.460758 297.095335 
L 567.813442 297.173975 
L 568.930274 297.565335 
L 569.282958 297.643839 
L 570.39979 298.03452 
L 570.752473 298.112889 
L 571.869305 298.502896 
L 572.221989 298.58113 
L 573.338821 298.970466 
L 573.691505 299.048566 
L 574.808337 299.437235 
L 575.16102 299.515201 
L 576.277852 299.903206 
L 576.630536 299.981039 
L 577.747368 300.368384 
L 578.100052 300.446084 
L 579.216883 300.832772 
L 579.569567 300.910341 
L 580.686399 301.296375 
L 581.039083 301.373813 
L 582.155915 301.759197 
L 582.508599 301.836504 
L 583.62543 302.221241 
L 583.978114 302.298419 
L 585.094946 302.682511 
L 585.44763 302.759561 
L 586.564462 303.143012 
L 586.917145 303.219933 
L 588.033977 303.602747 
L 588.386661 303.679541 
L 589.503493 304.06172 
L 589.856177 304.138387 
L 590.973009 304.519935 
L 591.325692 304.596475 
L 592.457219 304.985714 
L 592.795208 305.05381 
L 593.926735 305.44241 
L 594.264724 305.510394 
L 595.396251 305.898359 
L 595.734239 305.966232 
L 596.865766 306.353565 
L 597.203755 306.421327 
L 598.335282 306.80803 
L 598.673271 306.875683 
L 599.804798 307.26176 
L 600.142786 307.329303 
L 601.274313 307.714757 
L 601.612302 307.782191 
L 602.743829 308.167025 
L 603.081818 308.234351 
L 604.213345 308.618567 
L 604.551333 308.685785 
L 605.68286 309.069388 
L 606.020849 309.136498 
L 607.152376 309.519489 
L 607.490364 309.586493 
L 608.621891 309.968876 
L 608.95988 310.035773 
L 610.091407 310.417551 
L 610.429396 310.484342 
L 611.560923 310.865517 
L 611.898911 310.932203 
L 613.030438 311.312778 
L 613.368427 311.37936 
L 614.499954 311.759337 
L 614.837943 311.825815 
L 615.96947 312.205198 
L 616.307458 312.271572 
L 617.438985 312.650364 
L 617.776974 312.716635 
L 618.908501 313.094838 
L 619.24649 313.161006 
L 620.378017 313.538623 
L 620.716005 313.604688 
L 621.847532 313.981723 
L 622.185521 314.047686 
L 623.317048 314.42414 
L 623.655037 314.490002 
L 624.786564 314.865878 
L 625.124552 314.931639 
L 626.256079 315.30694 
L 626.594068 315.3726 
L 627.725595 315.747328 
L 628.063583 315.812889 
L 629.195111 316.187047 
L 629.533099 316.252508 
L 630.664626 316.626099 
L 631.01731 316.694882 
L 632.178227 317.089456 
L 632.457435 317.12651 
L 633.574267 317.486468 
L 633.971036 317.574376 
L 635.807931 318.157573 
L 636.160615 318.225994 
L 637.321532 318.618498 
L 637.60074 318.655358 
L 638.717572 319.013434 
L 639.114341 319.100883 
L 640.951236 319.681041 
L 641.303919 319.749107 
L 643.082033 320.293847 
L 643.596364 320.423357 
L 650.076928 322.33235 
L 651.164369 322.667068 
L 651.6787 322.79554 
L 658.173959 324.692325 
L 659.290791 325.043155 
L 659.702255 325.132503 
L 662.273908 325.917835 
L 662.597201 325.973263 
L 663.743423 326.342629 
L 664.066717 326.397978 
L 665.212939 326.766822 
L 665.550928 326.825399 
L 667.329041 327.357318 
L 667.858067 327.488269 
L 672.090272 328.711783 
L 673.118933 329.006454 
L 674.206375 329.330764 
L 674.7354 329.494134 
L 675.117474 329.571082 
L 676.969064 330.139018 
L 677.307053 330.196943 
L 679.099862 330.729909 
L 679.584802 330.843767 
L 694.926545 335.181961 
L 696.087463 335.54814 
L 696.396061 335.594015 
L 697.556978 335.959706 
L 697.865577 336.005521 
L 699.026494 336.370726 
L 699.349787 336.419683 
L 701.142596 336.941958 
L 701.642232 337.057718 
L 708.225662 338.888391 
L 771.400139 355.938632 
L 776.176065 357.232243 
L 776.514054 357.281265 
L 778.395034 357.816426 
L 778.703632 357.854761 
L 780.525831 358.356475 
L 780.981381 358.447663 
L 797.807335 362.810961 
L 799.64423 363.312014 
L 800.07039 363.391434 
L 825.419534 369.888938 
L 825.742828 369.928963 
L 828.270395 370.588568 
L 828.784725 370.694706 
L 832.252782 371.574502 
L 833.310833 371.83995 
L 834.398275 372.120217 
L 834.971386 372.289638 
L 835.294679 372.329386 
L 837.822246 372.984418 
L 838.351272 373.094008 
L 841.069876 373.780361 
L 842.127927 374.044123 
L 843.215369 374.322614 
L 843.78848 374.490962 
L 844.111773 374.530458 
L 846.654035 375.187703 
L 847.138976 375.282078 
L 852.076548 376.516162 
L 853.105209 376.764782 
L 854.427773 377.087289 
L 859.218394 378.310117 
L 859.556383 378.352295 
L 862.848098 379.192773 
L 863.274257 379.265584 
L 881.540337 383.725326 
L 882.730644 384.051303 
L 883.068633 384.092804 
L 886.375043 384.926418 
L 886.771812 384.987982 
L 912.120957 391.100609 
L 912.473641 391.144448 
L 917.984325 392.487423 
L 918.366399 392.541109 
L 943.715544 398.529588 
L 944.068227 398.572551 
L 949.578911 399.888795 
L 949.960985 399.941417 
L 976.044888 405.980737 
L 976.412267 406.026008 
L 1002.496169 411.96996 
L 1002.863548 412.014527 
L 1028.947451 417.867492 
L 1029.329525 417.914574 
L 1045.126818 421.434545 
L 1045.126818 421.434545 
" clip-path="url(#pf0acba0d41)" style="fill: none; stroke: #000000; stroke-width: 2; stroke-linecap: square"/>
   </g>
   <g id="patch_3">
    <path d="M 100.06 441.16 
L 100.06 7.2 
" style="fill: none; stroke: #000000; stroke-width: 0.8; stroke-linejoin: miter; stroke-linecap: square"/>
   </g>
   <g id="patch_4">
    <path d="M 1090.13 441.16 
L 1090.13 7.2 
" style="fill: none; stroke: #000000; stroke-width: 0.8; stroke-linejoin: miter; stroke-linecap: square"/>
   </g>
   <g id="patch_5">
    <path d="M 100.06 441.16 
L 1090.13 441.16 
" style="fill: none; stroke: #000000; stroke-width: 0.8; stroke-linejoin: miter; stroke-linecap: square"/>
   </g>
   <g id="patch_6">
    <path d="M 100.06 7.2 
L 1090.13 7.2 
" style="fill: none; stroke: #000000; stroke-width: 0.8; stroke-linejoin: miter; stroke-linecap: square"/>
   </g>
   <g id="legend_1">
    <g id="patch_7">
     <path d="M 723.41 126.88 
L 1067.73 126.88 
Q 1074.13 126.88 1074.13 120.48 
L 1074.13 29.6 
Q 1074.13 23.2 1067.73 23.2 
L 723.41 23.2 
Q 717.01 23.2 717.01 29.6 
L 717.01 120.48 
Q 717.01 126.88 723.41 126.88 
z
" style="fill: #ffffff; opacity: 0.8; stroke: #cccccc; stroke-linejoin: miter"/>
    </g>
    <g id="line2d_16">
     <path d="M 729.81 49.12 
L 761.81 49.12 
L 793.81 49.12 
" style="fill: none; stroke-dasharray: 7.4,3.2; stroke-dashoffset: 0; stroke: #000000; stroke-width: 2"/>
    </g>
    <g id="text_16">
     <!-- $\mathcal{D}$ maximing b -->
     <g transform="translate(819.41 60.32) scale(0.32 -0.32)">
      <defs>
       <path id="DejaVuSans-20" transform="scale(0.015625)"/>
       <path id="DejaVuSans-6d" d="M 3328 2828 
Q 3544 3216 3844 3400 
Q 4144 3584 4550 3584 
Q 5097 3584 5394 3201 
Q 5691 2819 5691 2113 
L 5691 0 
L 5113 0 
L 5113 2094 
Q 5113 2597 4934 2840 
Q 4756 3084 4391 3084 
Q 3944 3084 3684 2787 
Q 3425 2491 3425 1978 
L 3425 0 
L 2847 0 
L 2847 2094 
Q 2847 2600 2669 2842 
Q 2491 3084 2119 3084 
Q 1678 3084 1418 2786 
Q 1159 2488 1159 1978 
L 1159 0 
L 581 0 
L 581 3500 
L 1159 3500 
L 1159 2956 
Q 1356 3278 1631 3431 
Q 1906 3584 2284 3584 
Q 2666 3584 2933 3390 
Q 3200 3197 3328 2828 
z
" transform="scale(0.015625)"/>
       <path id="DejaVuSans-61" d="M 2194 1759 
Q 1497 1759 1228 1600 
Q 959 1441 959 1056 
Q 959 750 1161 570 
Q 1363 391 1709 391 
Q 2188 391 2477 730 
Q 2766 1069 2766 1631 
L 2766 1759 
L 2194 1759 
z
M 3341 1997 
L 3341 0 
L 2766 0 
L 2766 531 
Q 2569 213 2275 61 
Q 1981 -91 1556 -91 
Q 1019 -91 701 211 
Q 384 513 384 1019 
Q 384 1609 779 1909 
Q 1175 2209 1959 2209 
L 2766 2209 
L 2766 2266 
Q 2766 2663 2505 2880 
Q 2244 3097 1772 3097 
Q 1472 3097 1187 3025 
Q 903 2953 641 2809 
L 641 3341 
Q 956 3463 1253 3523 
Q 1550 3584 1831 3584 
Q 2591 3584 2966 3190 
Q 3341 2797 3341 1997 
z
" transform="scale(0.015625)"/>
       <path id="DejaVuSans-78" d="M 3513 3500 
L 2247 1797 
L 3578 0 
L 2900 0 
L 1881 1375 
L 863 0 
L 184 0 
L 1544 1831 
L 300 3500 
L 978 3500 
L 1906 2253 
L 2834 3500 
L 3513 3500 
z
" transform="scale(0.015625)"/>
       <path id="DejaVuSans-6e" d="M 3513 2113 
L 3513 0 
L 2938 0 
L 2938 2094 
Q 2938 2591 2744 2837 
Q 2550 3084 2163 3084 
Q 1697 3084 1428 2787 
Q 1159 2491 1159 1978 
L 1159 0 
L 581 0 
L 581 3500 
L 1159 3500 
L 1159 2956 
Q 1366 3272 1645 3428 
Q 1925 3584 2291 3584 
Q 2894 3584 3203 3211 
Q 3513 2838 3513 2113 
z
" transform="scale(0.015625)"/>
       <path id="DejaVuSans-67" d="M 2906 1791 
Q 2906 2416 2648 2759 
Q 2391 3103 1925 3103 
Q 1463 3103 1205 2759 
Q 947 2416 947 1791 
Q 947 1169 1205 825 
Q 1463 481 1925 481 
Q 2391 481 2648 825 
Q 2906 1169 2906 1791 
z
M 3481 434 
Q 3481 -459 3084 -895 
Q 2688 -1331 1869 -1331 
Q 1566 -1331 1297 -1286 
Q 1028 -1241 775 -1147 
L 775 -588 
Q 1028 -725 1275 -790 
Q 1522 -856 1778 -856 
Q 2344 -856 2625 -561 
Q 2906 -266 2906 331 
L 2906 616 
Q 2728 306 2450 153 
Q 2172 0 1784 0 
Q 1141 0 747 490 
Q 353 981 353 1791 
Q 353 2603 747 3093 
Q 1141 3584 1784 3584 
Q 2172 3584 2450 3431 
Q 2728 3278 2906 2969 
L 2906 3500 
L 3481 3500 
L 3481 434 
z
" transform="scale(0.015625)"/>
       <path id="DejaVuSans-62" d="M 3116 1747 
Q 3116 2381 2855 2742 
Q 2594 3103 2138 3103 
Q 1681 3103 1420 2742 
Q 1159 2381 1159 1747 
Q 1159 1113 1420 752 
Q 1681 391 2138 391 
Q 2594 391 2855 752 
Q 3116 1113 3116 1747 
z
M 1159 2969 
Q 1341 3281 1617 3432 
Q 1894 3584 2278 3584 
Q 2916 3584 3314 3078 
Q 3713 2572 3713 1747 
Q 3713 922 3314 415 
Q 2916 -91 2278 -91 
Q 1894 -91 1617 61 
Q 1341 213 1159 525 
L 1159 0 
L 581 0 
L 581 4863 
L 1159 4863 
L 1159 2969 
z
" transform="scale(0.015625)"/>
      </defs>
      <use xlink:href="#STIXNonUnicode-Italic-e230" transform="translate(0 0.015625)"/>
      <use xlink:href="#DejaVuSans-20" transform="translate(80.099991 0.015625)"/>
      <use xlink:href="#DejaVuSans-6d" transform="translate(111.8871 0.015625)"/>
      <use xlink:href="#DejaVuSans-61" transform="translate(209.29921 0.015625)"/>
      <use xlink:href="#DejaVuSans-78" transform="translate(270.578506 0.015625)"/>
      <use xlink:href="#DejaVuSans-69" transform="translate(329.758194 0.015625)"/>
      <use xlink:href="#DejaVuSans-6d" transform="translate(357.541397 0.015625)"/>
      <use xlink:href="#DejaVuSans-69" transform="translate(454.953506 0.015625)"/>
      <use xlink:href="#DejaVuSans-6e" transform="translate(482.73671 0.015625)"/>
      <use xlink:href="#DejaVuSans-67" transform="translate(546.115616 0.015625)"/>
      <use xlink:href="#DejaVuSans-20" transform="translate(609.592178 0.015625)"/>
      <use xlink:href="#DejaVuSans-62" transform="translate(641.379288 0.015625)"/>
     </g>
    </g>
    <g id="line2d_17">
     <path d="M 729.81 96.16 
L 761.81 96.16 
L 793.81 96.16 
" style="fill: none; stroke: #000000; stroke-width: 2; stroke-linecap: square"/>
    </g>
    <g id="text_17">
     <!-- $\mathcal{D}$ minimizing b -->
     <g transform="translate(819.41 107.36) scale(0.32 -0.32)">
      <defs>
       <path id="DejaVuSans-7a" d="M 353 3500 
L 3084 3500 
L 3084 2975 
L 922 459 
L 3084 459 
L 3084 0 
L 275 0 
L 275 525 
L 2438 3041 
L 353 3041 
L 353 3500 
z
" transform="scale(0.015625)"/>
      </defs>
      <use xlink:href="#STIXNonUnicode-Italic-e230" transform="translate(0 0.015625)"/>
      <use xlink:href="#DejaVuSans-20" transform="translate(80.099991 0.015625)"/>
      <use xlink:href="#DejaVuSans-6d" transform="translate(111.8871 0.015625)"/>
      <use xlink:href="#DejaVuSans-69" transform="translate(209.29921 0.015625)"/>
      <use xlink:href="#DejaVuSans-6e" transform="translate(237.082413 0.015625)"/>
      <use xlink:href="#DejaVuSans-69" transform="translate(300.461319 0.015625)"/>
      <use xlink:href="#DejaVuSans-6d" transform="translate(328.244522 0.015625)"/>
      <use xlink:href="#DejaVuSans-69" transform="translate(425.656631 0.015625)"/>
      <use xlink:href="#DejaVuSans-7a" transform="translate(453.439835 0.015625)"/>
      <use xlink:href="#DejaVuSans-69" transform="translate(505.930069 0.015625)"/>
      <use xlink:href="#DejaVuSans-6e" transform="translate(533.713272 0.015625)"/>
      <use xlink:href="#DejaVuSans-67" transform="translate(597.092178 0.015625)"/>
      <use xlink:href="#DejaVuSans-20" transform="translate(660.568741 0.015625)"/>
      <use xlink:href="#DejaVuSans-62" transform="translate(692.35585 0.015625)"/>
     </g>
    </g>
   </g>
  </g>
 </g>
 <defs>
  <clipPath id="pf0acba0d41">
   <rect x="100.06" y="7.2" width="990.07" height="433.96"/>
  </clipPath>
 </defs>
</svg>
