<?xml version="1.0" encoding="utf-8" standalone="no"?>
<!DOCTYPE svg PUBLIC "-//W3C//DTD SVG 1.1//EN"
  "http://www.w3.org/Graphics/SVG/1.1/DTD/svg11.dtd">
<svg xmlns:xlink="http://www.w3.org/1999/xlink" width="1434.87625pt" height="870.203625pt" viewBox="0 0 1434.87625 870.203625" xmlns="http://www.w3.org/2000/svg" version="1.1">
 <metadata>
  <rdf:RDF xmlns:dc="http://purl.org/dc/elements/1.1/" xmlns:cc="http://creativecommons.org/ns#" xmlns:rdf="http://www.w3.org/1999/02/22-rdf-syntax-ns#">
   <cc:Work>
    <dc:type rdf:resource="http://purl.org/dc/dcmitype/StillImage"/>
    <dc:date>2025-01-26T14:12:33.807280</dc:date>
    <dc:format>image/svg+xml</dc:format>
    <dc:creator>
     <cc:Agent>
      <dc:title>Matplotlib v3.6.3, https://matplotlib.org/</dc:title>
     </cc:Agent>
    </dc:creator>
   </cc:Work>
  </rdf:RDF>
 </metadata>
 <defs>
  <style type="text/css">*{stroke-linejoin: round; stroke-linecap: butt}</style>
 </defs>
 <g id="figure_1">
  <g id="patch_1">
   <path d="M 0 870.203625 
L 1434.87625 870.203625 
L 1434.87625 0 
L 0 0 
z
" style="fill: #ffffff"/>
  </g>
  <g id="axes_1">
   <g id="patch_2">
    <path d="M 88.47625 386.059875 
L 482.358603 386.059875 
L 482.358603 33.259875 
L 88.47625 33.259875 
z
" style="fill: #ffffff"/>
   </g>
   <g id="matplotlib.axis_1"/>
   <g id="matplotlib.axis_2">
    <g id="ytick_1">
     <g id="line2d_1">
      <defs>
       <path id="m7695ed6a10" d="M 0 0 
L -3.5 0 
" style="stroke: #000000; stroke-width: 0.8"/>
      </defs>
      <g>
       <use xlink:href="#m7695ed6a10" x="88.47625" y="337.268386" style="stroke: #000000; stroke-width: 0.8"/>
      </g>
     </g>
     <g id="text_1">
      <!-- 0.00 -->
      <g transform="translate(32.491875 345.626667) scale(0.22 -0.22)">
       <defs>
        <path id="DejaVuSans-30" d="M 2034 4250 
Q 1547 4250 1301 3770 
Q 1056 3291 1056 2328 
Q 1056 1369 1301 889 
Q 1547 409 2034 409 
Q 2525 409 2770 889 
Q 3016 1369 3016 2328 
Q 3016 3291 2770 3770 
Q 2525 4250 2034 4250 
z
M 2034 4750 
Q 2819 4750 3233 4129 
Q 3647 3509 3647 2328 
Q 3647 1150 3233 529 
Q 2819 -91 2034 -91 
Q 1250 -91 836 529 
Q 422 1150 422 2328 
Q 422 3509 836 4129 
Q 1250 4750 2034 4750 
z
" transform="scale(0.015625)"/>
        <path id="DejaVuSans-2e" d="M 684 794 
L 1344 794 
L 1344 0 
L 684 0 
L 684 794 
z
" transform="scale(0.015625)"/>
       </defs>
       <use xlink:href="#DejaVuSans-30"/>
       <use xlink:href="#DejaVuSans-2e" x="63.623047"/>
       <use xlink:href="#DejaVuSans-30" x="95.410156"/>
       <use xlink:href="#DejaVuSans-30" x="159.033203"/>
      </g>
     </g>
    </g>
    <g id="ytick_2">
     <g id="line2d_2">
      <g>
       <use xlink:href="#m7695ed6a10" x="88.47625" y="255.380571" style="stroke: #000000; stroke-width: 0.8"/>
      </g>
     </g>
     <g id="text_2">
      <!-- 0.02 -->
      <g transform="translate(32.491875 263.738853) scale(0.22 -0.22)">
       <defs>
        <path id="DejaVuSans-32" d="M 1228 531 
L 3431 531 
L 3431 0 
L 469 0 
L 469 531 
Q 828 903 1448 1529 
Q 2069 2156 2228 2338 
Q 2531 2678 2651 2914 
Q 2772 3150 2772 3378 
Q 2772 3750 2511 3984 
Q 2250 4219 1831 4219 
Q 1534 4219 1204 4116 
Q 875 4013 500 3803 
L 500 4441 
Q 881 4594 1212 4672 
Q 1544 4750 1819 4750 
Q 2544 4750 2975 4387 
Q 3406 4025 3406 3419 
Q 3406 3131 3298 2873 
Q 3191 2616 2906 2266 
Q 2828 2175 2409 1742 
Q 1991 1309 1228 531 
z
" transform="scale(0.015625)"/>
       </defs>
       <use xlink:href="#DejaVuSans-30"/>
       <use xlink:href="#DejaVuSans-2e" x="63.623047"/>
       <use xlink:href="#DejaVuSans-30" x="95.410156"/>
       <use xlink:href="#DejaVuSans-32" x="159.033203"/>
      </g>
     </g>
    </g>
    <g id="ytick_3">
     <g id="line2d_3">
      <g>
       <use xlink:href="#m7695ed6a10" x="88.47625" y="173.492757" style="stroke: #000000; stroke-width: 0.8"/>
      </g>
     </g>
     <g id="text_3">
      <!-- 0.04 -->
      <g transform="translate(32.491875 181.851038) scale(0.22 -0.22)">
       <defs>
        <path id="DejaVuSans-34" d="M 2419 4116 
L 825 1625 
L 2419 1625 
L 2419 4116 
z
M 2253 4666 
L 3047 4666 
L 3047 1625 
L 3713 1625 
L 3713 1100 
L 3047 1100 
L 3047 0 
L 2419 0 
L 2419 1100 
L 313 1100 
L 313 1709 
L 2253 4666 
z
" transform="scale(0.015625)"/>
       </defs>
       <use xlink:href="#DejaVuSans-30"/>
       <use xlink:href="#DejaVuSans-2e" x="63.623047"/>
       <use xlink:href="#DejaVuSans-30" x="95.410156"/>
       <use xlink:href="#DejaVuSans-34" x="159.033203"/>
      </g>
     </g>
    </g>
    <g id="ytick_4">
     <g id="line2d_4">
      <g>
       <use xlink:href="#m7695ed6a10" x="88.47625" y="91.604943" style="stroke: #000000; stroke-width: 0.8"/>
      </g>
     </g>
     <g id="text_4">
      <!-- 0.06 -->
      <g transform="translate(32.491875 99.963224) scale(0.22 -0.22)">
       <defs>
        <path id="DejaVuSans-36" d="M 2113 2584 
Q 1688 2584 1439 2293 
Q 1191 2003 1191 1497 
Q 1191 994 1439 701 
Q 1688 409 2113 409 
Q 2538 409 2786 701 
Q 3034 994 3034 1497 
Q 3034 2003 2786 2293 
Q 2538 2584 2113 2584 
z
M 3366 4563 
L 3366 3988 
Q 3128 4100 2886 4159 
Q 2644 4219 2406 4219 
Q 1781 4219 1451 3797 
Q 1122 3375 1075 2522 
Q 1259 2794 1537 2939 
Q 1816 3084 2150 3084 
Q 2853 3084 3261 2657 
Q 3669 2231 3669 1497 
Q 3669 778 3244 343 
Q 2819 -91 2113 -91 
Q 1303 -91 875 529 
Q 447 1150 447 2328 
Q 447 3434 972 4092 
Q 1497 4750 2381 4750 
Q 2619 4750 2861 4703 
Q 3103 4656 3366 4563 
z
" transform="scale(0.015625)"/>
       </defs>
       <use xlink:href="#DejaVuSans-30"/>
       <use xlink:href="#DejaVuSans-2e" x="63.623047"/>
       <use xlink:href="#DejaVuSans-30" x="95.410156"/>
       <use xlink:href="#DejaVuSans-36" x="159.033203"/>
      </g>
     </g>
    </g>
    <g id="text_5">
     <!-- Count -->
     <g transform="translate(23.916563 242.326437) rotate(-90) scale(0.22 -0.22)">
      <defs>
       <path id="DejaVuSans-43" d="M 4122 4306 
L 4122 3641 
Q 3803 3938 3442 4084 
Q 3081 4231 2675 4231 
Q 1875 4231 1450 3742 
Q 1025 3253 1025 2328 
Q 1025 1406 1450 917 
Q 1875 428 2675 428 
Q 3081 428 3442 575 
Q 3803 722 4122 1019 
L 4122 359 
Q 3791 134 3420 21 
Q 3050 -91 2638 -91 
Q 1578 -91 968 557 
Q 359 1206 359 2328 
Q 359 3453 968 4101 
Q 1578 4750 2638 4750 
Q 3056 4750 3426 4639 
Q 3797 4528 4122 4306 
z
" transform="scale(0.015625)"/>
       <path id="DejaVuSans-6f" d="M 1959 3097 
Q 1497 3097 1228 2736 
Q 959 2375 959 1747 
Q 959 1119 1226 758 
Q 1494 397 1959 397 
Q 2419 397 2687 759 
Q 2956 1122 2956 1747 
Q 2956 2369 2687 2733 
Q 2419 3097 1959 3097 
z
M 1959 3584 
Q 2709 3584 3137 3096 
Q 3566 2609 3566 1747 
Q 3566 888 3137 398 
Q 2709 -91 1959 -91 
Q 1206 -91 779 398 
Q 353 888 353 1747 
Q 353 2609 779 3096 
Q 1206 3584 1959 3584 
z
" transform="scale(0.015625)"/>
       <path id="DejaVuSans-75" d="M 544 1381 
L 544 3500 
L 1119 3500 
L 1119 1403 
Q 1119 906 1312 657 
Q 1506 409 1894 409 
Q 2359 409 2629 706 
Q 2900 1003 2900 1516 
L 2900 3500 
L 3475 3500 
L 3475 0 
L 2900 0 
L 2900 538 
Q 2691 219 2414 64 
Q 2138 -91 1772 -91 
Q 1169 -91 856 284 
Q 544 659 544 1381 
z
M 1991 3584 
L 1991 3584 
z
" transform="scale(0.015625)"/>
       <path id="DejaVuSans-6e" d="M 3513 2113 
L 3513 0 
L 2938 0 
L 2938 2094 
Q 2938 2591 2744 2837 
Q 2550 3084 2163 3084 
Q 1697 3084 1428 2787 
Q 1159 2491 1159 1978 
L 1159 0 
L 581 0 
L 581 3500 
L 1159 3500 
L 1159 2956 
Q 1366 3272 1645 3428 
Q 1925 3584 2291 3584 
Q 2894 3584 3203 3211 
Q 3513 2838 3513 2113 
z
" transform="scale(0.015625)"/>
       <path id="DejaVuSans-74" d="M 1172 4494 
L 1172 3500 
L 2356 3500 
L 2356 3053 
L 1172 3053 
L 1172 1153 
Q 1172 725 1289 603 
Q 1406 481 1766 481 
L 2356 481 
L 2356 0 
L 1766 0 
Q 1100 0 847 248 
Q 594 497 594 1153 
L 594 3053 
L 172 3053 
L 172 3500 
L 594 3500 
L 594 4494 
L 1172 4494 
z
" transform="scale(0.015625)"/>
      </defs>
      <use xlink:href="#DejaVuSans-43"/>
      <use xlink:href="#DejaVuSans-6f" x="69.824219"/>
      <use xlink:href="#DejaVuSans-75" x="131.005859"/>
      <use xlink:href="#DejaVuSans-6e" x="194.384766"/>
      <use xlink:href="#DejaVuSans-74" x="257.763672"/>
     </g>
    </g>
   </g>
   <g id="line2d_5">
    <path d="M 106.379993 337.268386 
L 124.283737 335.947614 
L 142.18748 335.947614 
L 160.091223 326.702216 
L 177.994967 330.224273 
L 195.89871 328.022987 
L 213.802453 323.840545 
L 231.706197 326.922345 
L 249.60994 318.777589 
L 267.513683 320.09836 
L 285.417426 314.595147 
L 303.32117 310.852962 
L 321.224913 301.167306 
L 339.128656 297.425121 
L 357.0324 297.425121 
L 374.936143 289.940751 
L 392.839886 283.997281 
L 410.74363 288.840108 
L 428.647373 271.229826 
L 446.551116 295.664093 
L 464.45486 346.513784 
" clip-path="url(#p779f8b893a)" style="fill: none; stroke-dasharray: ; stroke-dashoffset: 0; stroke: #000000; stroke-width: 1.5"/>
   </g>
   <g id="line2d_6">
    <path d="M 88.47625 337.268386 
L 482.358603 337.268386 
" clip-path="url(#p779f8b893a)" style="fill: none; stroke: #000000; stroke-width: 1.5; stroke-linecap: square"/>
   </g>
   <g id="patch_3">
    <path d="M 88.47625 386.059875 
L 88.47625 33.259875 
" style="fill: none; stroke: #000000; stroke-width: 0.8; stroke-linejoin: miter; stroke-linecap: square"/>
   </g>
   <g id="patch_4">
    <path d="M 482.358603 386.059875 
L 482.358603 33.259875 
" style="fill: none; stroke: #000000; stroke-width: 0.8; stroke-linejoin: miter; stroke-linecap: square"/>
   </g>
   <g id="patch_5">
    <path d="M 88.47625 386.059875 
L 482.358603 386.059875 
" style="fill: none; stroke: #000000; stroke-width: 0.8; stroke-linejoin: miter; stroke-linecap: square"/>
   </g>
   <g id="patch_6">
    <path d="M 88.47625 33.259875 
L 482.358603 33.259875 
" style="fill: none; stroke: #000000; stroke-width: 0.8; stroke-linejoin: miter; stroke-linecap: square"/>
   </g>
   <g id="text_6">
    <!-- Overall -->
    <g transform="translate(238.241864 27.259875) scale(0.264 -0.264)">
     <defs>
      <path id="DejaVuSans-4f" d="M 2522 4238 
Q 1834 4238 1429 3725 
Q 1025 3213 1025 2328 
Q 1025 1447 1429 934 
Q 1834 422 2522 422 
Q 3209 422 3611 934 
Q 4013 1447 4013 2328 
Q 4013 3213 3611 3725 
Q 3209 4238 2522 4238 
z
M 2522 4750 
Q 3503 4750 4090 4092 
Q 4678 3434 4678 2328 
Q 4678 1225 4090 567 
Q 3503 -91 2522 -91 
Q 1538 -91 948 565 
Q 359 1222 359 2328 
Q 359 3434 948 4092 
Q 1538 4750 2522 4750 
z
" transform="scale(0.015625)"/>
      <path id="DejaVuSans-76" d="M 191 3500 
L 800 3500 
L 1894 563 
L 2988 3500 
L 3597 3500 
L 2284 0 
L 1503 0 
L 191 3500 
z
" transform="scale(0.015625)"/>
      <path id="DejaVuSans-65" d="M 3597 1894 
L 3597 1613 
L 953 1613 
Q 991 1019 1311 708 
Q 1631 397 2203 397 
Q 2534 397 2845 478 
Q 3156 559 3463 722 
L 3463 178 
Q 3153 47 2828 -22 
Q 2503 -91 2169 -91 
Q 1331 -91 842 396 
Q 353 884 353 1716 
Q 353 2575 817 3079 
Q 1281 3584 2069 3584 
Q 2775 3584 3186 3129 
Q 3597 2675 3597 1894 
z
M 3022 2063 
Q 3016 2534 2758 2815 
Q 2500 3097 2075 3097 
Q 1594 3097 1305 2825 
Q 1016 2553 972 2059 
L 3022 2063 
z
" transform="scale(0.015625)"/>
      <path id="DejaVuSans-72" d="M 2631 2963 
Q 2534 3019 2420 3045 
Q 2306 3072 2169 3072 
Q 1681 3072 1420 2755 
Q 1159 2438 1159 1844 
L 1159 0 
L 581 0 
L 581 3500 
L 1159 3500 
L 1159 2956 
Q 1341 3275 1631 3429 
Q 1922 3584 2338 3584 
Q 2397 3584 2469 3576 
Q 2541 3569 2628 3553 
L 2631 2963 
z
" transform="scale(0.015625)"/>
      <path id="DejaVuSans-61" d="M 2194 1759 
Q 1497 1759 1228 1600 
Q 959 1441 959 1056 
Q 959 750 1161 570 
Q 1363 391 1709 391 
Q 2188 391 2477 730 
Q 2766 1069 2766 1631 
L 2766 1759 
L 2194 1759 
z
M 3341 1997 
L 3341 0 
L 2766 0 
L 2766 531 
Q 2569 213 2275 61 
Q 1981 -91 1556 -91 
Q 1019 -91 701 211 
Q 384 513 384 1019 
Q 384 1609 779 1909 
Q 1175 2209 1959 2209 
L 2766 2209 
L 2766 2266 
Q 2766 2663 2505 2880 
Q 2244 3097 1772 3097 
Q 1472 3097 1187 3025 
Q 903 2953 641 2809 
L 641 3341 
Q 956 3463 1253 3523 
Q 1550 3584 1831 3584 
Q 2591 3584 2966 3190 
Q 3341 2797 3341 1997 
z
" transform="scale(0.015625)"/>
      <path id="DejaVuSans-6c" d="M 603 4863 
L 1178 4863 
L 1178 0 
L 603 0 
L 603 4863 
z
" transform="scale(0.015625)"/>
     </defs>
     <use xlink:href="#DejaVuSans-4f"/>
     <use xlink:href="#DejaVuSans-76" x="78.710938"/>
     <use xlink:href="#DejaVuSans-65" x="137.890625"/>
     <use xlink:href="#DejaVuSans-72" x="199.414062"/>
     <use xlink:href="#DejaVuSans-61" x="240.527344"/>
     <use xlink:href="#DejaVuSans-6c" x="301.806641"/>
     <use xlink:href="#DejaVuSans-6c" x="329.589844"/>
    </g>
   </g>
  </g>
  <g id="axes_2">
   <g id="patch_7">
    <path d="M 561.135074 386.059875 
L 955.017426 386.059875 
L 955.017426 33.259875 
L 561.135074 33.259875 
z
" style="fill: #ffffff"/>
   </g>
   <g id="matplotlib.axis_3"/>
   <g id="matplotlib.axis_4"/>
   <g id="line2d_7">
    <path d="M 579.038817 337.268386 
L 596.94256 337.268386 
L 614.846303 337.268386 
L 632.750047 337.268386 
L 650.65379 337.268386 
L 668.557533 337.268386 
L 686.461277 337.268386 
L 704.36502 337.268386 
L 722.268763 337.268386 
L 740.172507 337.268386 
L 758.07625 337.268386 
L 775.979993 337.268386 
L 793.883737 337.268386 
L 811.78748 337.268386 
L 829.691223 337.268386 
L 847.594967 337.268386 
L 865.49871 337.268386 
L 883.402453 337.268386 
L 901.306197 337.268386 
L 919.20994 337.268386 
L 937.113683 337.268386 
" clip-path="url(#p15eb78744e)" style="fill: none; stroke-dasharray: ; stroke-dashoffset: 0; stroke: #000000; stroke-width: 1.5"/>
   </g>
   <g id="line2d_8">
    <path d="M 579.038817 337.268386 
L 596.94256 337.268386 
L 614.846303 337.268386 
L 632.750047 316.114034 
L 650.65379 324.985213 
L 668.557533 321.573221 
L 686.461277 310.654846 
L 704.36502 310.654846 
L 722.268763 285.406103 
L 740.172507 305.878057 
L 758.07625 297.689275 
L 775.979993 291.547689 
L 793.883737 279.946916 
L 811.78748 271.758134 
L 829.691223 292.230088 
L 847.594967 285.406103 
L 865.49871 301.101268 
L 883.402453 283.358908 
L 901.306197 257.427767 
L 919.20994 291.547689 
L 937.113683 345.457167 
" clip-path="url(#p15eb78744e)" style="fill: none; stroke-dasharray: 1.5,7.5; stroke-dashoffset: 0; stroke: #000000; stroke-width: 1.5"/>
   </g>
   <g id="line2d_9">
    <path d="M 579.038817 337.268386 
L 596.94256 333.856393 
L 614.846303 331.581732 
L 632.750047 322.483086 
L 650.65379 330.444401 
L 668.557533 319.071094 
L 686.461277 314.521771 
L 704.36502 328.16974 
L 722.268763 325.895078 
L 740.172507 302.011132 
L 758.07625 297.461809 
L 775.979993 294.049817 
L 793.883737 257.655233 
L 811.78748 264.479217 
L 829.691223 237.183279 
L 847.594967 224.672641 
L 865.49871 207.61268 
L 883.402453 239.457941 
L 901.306197 221.260649 
L 919.20994 228.084633 
L 937.113683 379.349624 
" clip-path="url(#p15eb78744e)" style="fill: none; stroke-dasharray: 1.5,1.5; stroke-dashoffset: 0; stroke: #000000; stroke-width: 1.5"/>
   </g>
   <g id="line2d_10">
    <path d="M 579.038817 337.268386 
L 596.94256 327.032409 
L 614.846303 333.856393 
L 632.750047 323.620417 
L 650.65379 309.972448 
L 668.557533 327.032409 
L 686.461277 330.444401 
L 704.36502 337.268386 
L 722.268763 344.09237 
L 740.172507 333.856393 
L 758.07625 303.148463 
L 775.979993 286.088502 
L 793.883737 303.148463 
L 811.78748 265.616548 
L 829.691223 245.144595 
L 847.594967 200.788695 
L 865.49871 81.368966 
L 883.402453 149.608811 
L 901.306197 60.897012 
L 919.20994 248.556587 
L 937.113683 313.38444 
" clip-path="url(#p15eb78744e)" style="fill: none; stroke-dasharray: 7.5,7.5; stroke-dashoffset: 0; stroke: #000000; stroke-width: 1.5"/>
   </g>
   <g id="line2d_11">
    <path d="M 561.135074 337.268386 
L 955.017426 337.268386 
" clip-path="url(#p15eb78744e)" style="fill: none; stroke: #000000; stroke-width: 1.5; stroke-linecap: square"/>
   </g>
   <g id="patch_8">
    <path d="M 561.135074 386.059875 
L 561.135074 33.259875 
" style="fill: none; stroke: #000000; stroke-width: 0.8; stroke-linejoin: miter; stroke-linecap: square"/>
   </g>
   <g id="patch_9">
    <path d="M 955.017426 386.059875 
L 955.017426 33.259875 
" style="fill: none; stroke: #000000; stroke-width: 0.8; stroke-linejoin: miter; stroke-linecap: square"/>
   </g>
   <g id="patch_10">
    <path d="M 561.135074 386.059875 
L 955.017426 386.059875 
" style="fill: none; stroke: #000000; stroke-width: 0.8; stroke-linejoin: miter; stroke-linecap: square"/>
   </g>
   <g id="patch_11">
    <path d="M 561.135074 33.259875 
L 955.017426 33.259875 
" style="fill: none; stroke: #000000; stroke-width: 0.8; stroke-linejoin: miter; stroke-linecap: square"/>
   </g>
   <g id="text_7">
    <!-- Population Size -->
    <g transform="translate(657.440688 27.259875) scale(0.264 -0.264)">
     <defs>
      <path id="DejaVuSans-50" d="M 1259 4147 
L 1259 2394 
L 2053 2394 
Q 2494 2394 2734 2622 
Q 2975 2850 2975 3272 
Q 2975 3691 2734 3919 
Q 2494 4147 2053 4147 
L 1259 4147 
z
M 628 4666 
L 2053 4666 
Q 2838 4666 3239 4311 
Q 3641 3956 3641 3272 
Q 3641 2581 3239 2228 
Q 2838 1875 2053 1875 
L 1259 1875 
L 1259 0 
L 628 0 
L 628 4666 
z
" transform="scale(0.015625)"/>
      <path id="DejaVuSans-70" d="M 1159 525 
L 1159 -1331 
L 581 -1331 
L 581 3500 
L 1159 3500 
L 1159 2969 
Q 1341 3281 1617 3432 
Q 1894 3584 2278 3584 
Q 2916 3584 3314 3078 
Q 3713 2572 3713 1747 
Q 3713 922 3314 415 
Q 2916 -91 2278 -91 
Q 1894 -91 1617 61 
Q 1341 213 1159 525 
z
M 3116 1747 
Q 3116 2381 2855 2742 
Q 2594 3103 2138 3103 
Q 1681 3103 1420 2742 
Q 1159 2381 1159 1747 
Q 1159 1113 1420 752 
Q 1681 391 2138 391 
Q 2594 391 2855 752 
Q 3116 1113 3116 1747 
z
" transform="scale(0.015625)"/>
      <path id="DejaVuSans-69" d="M 603 3500 
L 1178 3500 
L 1178 0 
L 603 0 
L 603 3500 
z
M 603 4863 
L 1178 4863 
L 1178 4134 
L 603 4134 
L 603 4863 
z
" transform="scale(0.015625)"/>
      <path id="DejaVuSans-20" transform="scale(0.015625)"/>
      <path id="DejaVuSans-53" d="M 3425 4513 
L 3425 3897 
Q 3066 4069 2747 4153 
Q 2428 4238 2131 4238 
Q 1616 4238 1336 4038 
Q 1056 3838 1056 3469 
Q 1056 3159 1242 3001 
Q 1428 2844 1947 2747 
L 2328 2669 
Q 3034 2534 3370 2195 
Q 3706 1856 3706 1288 
Q 3706 609 3251 259 
Q 2797 -91 1919 -91 
Q 1588 -91 1214 -16 
Q 841 59 441 206 
L 441 856 
Q 825 641 1194 531 
Q 1563 422 1919 422 
Q 2459 422 2753 634 
Q 3047 847 3047 1241 
Q 3047 1584 2836 1778 
Q 2625 1972 2144 2069 
L 1759 2144 
Q 1053 2284 737 2584 
Q 422 2884 422 3419 
Q 422 4038 858 4394 
Q 1294 4750 2059 4750 
Q 2388 4750 2728 4690 
Q 3069 4631 3425 4513 
z
" transform="scale(0.015625)"/>
      <path id="DejaVuSans-7a" d="M 353 3500 
L 3084 3500 
L 3084 2975 
L 922 459 
L 3084 459 
L 3084 0 
L 275 0 
L 275 525 
L 2438 3041 
L 353 3041 
L 353 3500 
z
" transform="scale(0.015625)"/>
     </defs>
     <use xlink:href="#DejaVuSans-50"/>
     <use xlink:href="#DejaVuSans-6f" x="56.677734"/>
     <use xlink:href="#DejaVuSans-70" x="117.859375"/>
     <use xlink:href="#DejaVuSans-75" x="181.335938"/>
     <use xlink:href="#DejaVuSans-6c" x="244.714844"/>
     <use xlink:href="#DejaVuSans-61" x="272.498047"/>
     <use xlink:href="#DejaVuSans-74" x="333.777344"/>
     <use xlink:href="#DejaVuSans-69" x="372.986328"/>
     <use xlink:href="#DejaVuSans-6f" x="400.769531"/>
     <use xlink:href="#DejaVuSans-6e" x="461.951172"/>
     <use xlink:href="#DejaVuSans-20" x="525.330078"/>
     <use xlink:href="#DejaVuSans-53" x="557.117188"/>
     <use xlink:href="#DejaVuSans-69" x="620.59375"/>
     <use xlink:href="#DejaVuSans-7a" x="648.376953"/>
     <use xlink:href="#DejaVuSans-65" x="700.867188"/>
    </g>
   </g>
   <g id="legend_1">
    <g id="patch_12">
     <path d="M 576.535074 180.027375 
L 674.930074 180.027375 
Q 679.330074 180.027375 679.330074 175.627375 
L 679.330074 48.659875 
Q 679.330074 44.259875 674.930074 44.259875 
L 576.535074 44.259875 
Q 572.135074 44.259875 572.135074 48.659875 
L 572.135074 175.627375 
Q 572.135074 180.027375 576.535074 180.027375 
z
" style="fill: #ffffff; opacity: 0.8; stroke: #cccccc; stroke-linejoin: miter"/>
    </g>
    <g id="line2d_12">
     <path d="M 580.935074 62.076438 
L 602.935074 62.076438 
L 624.935074 62.076438 
" style="fill: none; stroke-dasharray: ; stroke-dashoffset: 0; stroke: #000000; stroke-width: 1.5"/>
    </g>
    <g id="text_8">
     <!-- 2 -->
     <g transform="translate(642.535074 69.776438) scale(0.22 -0.22)">
      <use xlink:href="#DejaVuSans-32"/>
     </g>
    </g>
    <g id="line2d_13">
     <path d="M 580.935074 94.368313 
L 602.935074 94.368313 
L 624.935074 94.368313 
" style="fill: none; stroke-dasharray: 1.5,7.5; stroke-dashoffset: 0; stroke: #000000; stroke-width: 1.5"/>
    </g>
    <g id="text_9">
     <!-- 5 -->
     <g transform="translate(642.535074 102.068313) scale(0.22 -0.22)">
      <defs>
       <path id="DejaVuSans-35" d="M 691 4666 
L 3169 4666 
L 3169 4134 
L 1269 4134 
L 1269 2991 
Q 1406 3038 1543 3061 
Q 1681 3084 1819 3084 
Q 2600 3084 3056 2656 
Q 3513 2228 3513 1497 
Q 3513 744 3044 326 
Q 2575 -91 1722 -91 
Q 1428 -91 1123 -41 
Q 819 9 494 109 
L 494 744 
Q 775 591 1075 516 
Q 1375 441 1709 441 
Q 2250 441 2565 725 
Q 2881 1009 2881 1497 
Q 2881 1984 2565 2268 
Q 2250 2553 1709 2553 
Q 1456 2553 1204 2497 
Q 953 2441 691 2322 
L 691 4666 
z
" transform="scale(0.015625)"/>
      </defs>
      <use xlink:href="#DejaVuSans-35"/>
     </g>
    </g>
    <g id="line2d_14">
     <path d="M 580.935074 126.660188 
L 602.935074 126.660188 
L 624.935074 126.660188 
" style="fill: none; stroke-dasharray: 1.5,1.5; stroke-dashoffset: 0; stroke: #000000; stroke-width: 1.5"/>
    </g>
    <g id="text_10">
     <!-- 10 -->
     <g transform="translate(642.535074 134.360188) scale(0.22 -0.22)">
      <defs>
       <path id="DejaVuSans-31" d="M 794 531 
L 1825 531 
L 1825 4091 
L 703 3866 
L 703 4441 
L 1819 4666 
L 2450 4666 
L 2450 531 
L 3481 531 
L 3481 0 
L 794 0 
L 794 531 
z
" transform="scale(0.015625)"/>
      </defs>
      <use xlink:href="#DejaVuSans-31"/>
      <use xlink:href="#DejaVuSans-30" x="63.623047"/>
     </g>
    </g>
    <g id="line2d_15">
     <path d="M 580.935074 158.952063 
L 602.935074 158.952063 
L 624.935074 158.952063 
" style="fill: none; stroke-dasharray: 7.5,7.5; stroke-dashoffset: 0; stroke: #000000; stroke-width: 1.5"/>
    </g>
    <g id="text_11">
     <!-- 25 -->
     <g transform="translate(642.535074 166.652063) scale(0.22 -0.22)">
      <use xlink:href="#DejaVuSans-32"/>
      <use xlink:href="#DejaVuSans-35" x="63.623047"/>
     </g>
    </g>
   </g>
  </g>
  <g id="axes_3">
   <g id="patch_13">
    <path d="M 1033.793897 386.059875 
L 1427.67625 386.059875 
L 1427.67625 33.259875 
L 1033.793897 33.259875 
z
" style="fill: #ffffff"/>
   </g>
   <g id="matplotlib.axis_5"/>
   <g id="matplotlib.axis_6"/>
   <g id="line2d_16">
    <path d="M 1051.69764 337.268386 
L 1069.601384 337.268386 
L 1087.505127 337.268386 
L 1105.40887 255.380571 
L 1123.312614 289.500494 
L 1141.216357 289.500494 
L 1159.1201 265.616548 
L 1177.023844 251.968579 
L 1194.927587 156.432796 
L 1212.83133 231.496625 
L 1230.735074 245.144595 
L 1248.638817 214.436664 
L 1266.54256 211.024672 
L 1284.446303 217.848656 
L 1302.350047 251.968579 
L 1320.25379 248.556587 
L 1338.157533 234.908618 
L 1356.061277 258.792564 
L 1373.96502 180.316742 
L 1391.868763 193.964711 
L 1409.772507 327.032409 
" clip-path="url(#p857a4965a0)" style="fill: none; stroke-dasharray: ; stroke-dashoffset: 0; stroke: #000000; stroke-width: 1.5"/>
   </g>
   <g id="line2d_17">
    <path d="M 1051.69764 337.268386 
L 1069.601384 337.268386 
L 1087.505127 337.268386 
L 1105.40887 320.890823 
L 1123.312614 333.173995 
L 1141.216357 323.620417 
L 1159.1201 311.337244 
L 1177.023844 326.35001 
L 1194.927587 314.066838 
L 1212.83133 322.25562 
L 1230.735074 308.607651 
L 1248.638817 312.702041 
L 1266.54256 274.487728 
L 1284.446303 277.217322 
L 1302.350047 279.946916 
L 1320.25379 271.758134 
L 1338.157533 260.839759 
L 1356.061277 259.474962 
L 1373.96502 271.758134 
L 1391.868763 247.19179 
L 1409.772507 355.010745 
" clip-path="url(#p857a4965a0)" style="fill: none; stroke-dasharray: 1.5,7.5; stroke-dashoffset: 0; stroke: #000000; stroke-width: 1.5"/>
   </g>
   <g id="line2d_18">
    <path d="M 1051.69764 337.268386 
L 1069.601384 333.856393 
L 1087.505127 332.719063 
L 1105.40887 328.16974 
L 1123.312614 329.30707 
L 1141.216357 328.16974 
L 1159.1201 321.345755 
L 1177.023844 329.30707 
L 1194.927587 328.16974 
L 1212.83133 328.16974 
L 1230.735074 312.247109 
L 1248.638817 312.247109 
L 1266.54256 309.972448 
L 1284.446303 304.285794 
L 1302.350047 306.560455 
L 1320.25379 297.461809 
L 1338.157533 302.011132 
L 1356.061277 276.989856 
L 1373.96502 280.401848 
L 1391.868763 307.697786 
L 1409.772507 304.285794 
" clip-path="url(#p857a4965a0)" style="fill: none; stroke-dasharray: 1.5,1.5; stroke-dashoffset: 0; stroke: #000000; stroke-width: 1.5"/>
   </g>
   <g id="line2d_19">
    <path d="M 1051.69764 337.268386 
L 1069.601384 336.415388 
L 1087.505127 336.415388 
L 1105.40887 333.856393 
L 1123.312614 330.444401 
L 1141.216357 329.591403 
L 1159.1201 333.003395 
L 1177.023844 331.297399 
L 1194.927587 331.297399 
L 1212.83133 329.591403 
L 1230.735074 322.767419 
L 1248.638817 309.972448 
L 1266.54256 315.943434 
L 1284.446303 303.148463 
L 1302.350047 301.442467 
L 1320.25379 285.235504 
L 1338.157533 245.144595 
L 1356.061277 269.881538 
L 1373.96502 251.968579 
L 1391.868763 338.121384 
L 1409.772507 381.624285 
" clip-path="url(#p857a4965a0)" style="fill: none; stroke-dasharray: 7.5,7.5; stroke-dashoffset: 0; stroke: #000000; stroke-width: 1.5"/>
   </g>
   <g id="line2d_20">
    <path d="M 1051.69764 337.268386 
L 1069.601384 335.903589 
L 1087.505127 336.585987 
L 1105.40887 337.268386 
L 1123.312614 337.268386 
L 1141.216357 336.585987 
L 1159.1201 335.903589 
L 1177.023844 337.268386 
L 1194.927587 337.950784 
L 1212.83133 324.302815 
L 1230.735074 326.35001 
L 1248.638817 329.079604 
L 1266.54256 315.431635 
L 1284.446303 314.749237 
L 1302.350047 306.560455 
L 1320.25379 306.560455 
L 1338.157533 325.667612 
L 1356.061277 331.809198 
L 1373.96502 299.054072 
L 1391.868763 299.054072 
L 1409.772507 343.409972 
" clip-path="url(#p857a4965a0)" style="fill: none; stroke-dasharray: 4.5,7.5,1.5,7.5; stroke-dashoffset: 0; stroke: #000000; stroke-width: 1.5"/>
   </g>
   <g id="line2d_21">
    <path d="M 1033.793897 337.268386 
L 1427.67625 337.268386 
" clip-path="url(#p857a4965a0)" style="fill: none; stroke: #000000; stroke-width: 1.5; stroke-linecap: square"/>
   </g>
   <g id="patch_14">
    <path d="M 1033.793897 386.059875 
L 1033.793897 33.259875 
" style="fill: none; stroke: #000000; stroke-width: 0.8; stroke-linejoin: miter; stroke-linecap: square"/>
   </g>
   <g id="patch_15">
    <path d="M 1427.67625 386.059875 
L 1427.67625 33.259875 
" style="fill: none; stroke: #000000; stroke-width: 0.8; stroke-linejoin: miter; stroke-linecap: square"/>
   </g>
   <g id="patch_16">
    <path d="M 1033.793897 386.059875 
L 1427.67625 386.059875 
" style="fill: none; stroke: #000000; stroke-width: 0.8; stroke-linejoin: miter; stroke-linecap: square"/>
   </g>
   <g id="patch_17">
    <path d="M 1033.793897 33.259875 
L 1427.67625 33.259875 
" style="fill: none; stroke: #000000; stroke-width: 0.8; stroke-linejoin: miter; stroke-linecap: square"/>
   </g>
   <g id="text_12">
    <!-- Number of Jobs -->
    <g transform="translate(1129.367324 27.259875) scale(0.264 -0.264)">
     <defs>
      <path id="DejaVuSans-4e" d="M 628 4666 
L 1478 4666 
L 3547 763 
L 3547 4666 
L 4159 4666 
L 4159 0 
L 3309 0 
L 1241 3903 
L 1241 0 
L 628 0 
L 628 4666 
z
" transform="scale(0.015625)"/>
      <path id="DejaVuSans-6d" d="M 3328 2828 
Q 3544 3216 3844 3400 
Q 4144 3584 4550 3584 
Q 5097 3584 5394 3201 
Q 5691 2819 5691 2113 
L 5691 0 
L 5113 0 
L 5113 2094 
Q 5113 2597 4934 2840 
Q 4756 3084 4391 3084 
Q 3944 3084 3684 2787 
Q 3425 2491 3425 1978 
L 3425 0 
L 2847 0 
L 2847 2094 
Q 2847 2600 2669 2842 
Q 2491 3084 2119 3084 
Q 1678 3084 1418 2786 
Q 1159 2488 1159 1978 
L 1159 0 
L 581 0 
L 581 3500 
L 1159 3500 
L 1159 2956 
Q 1356 3278 1631 3431 
Q 1906 3584 2284 3584 
Q 2666 3584 2933 3390 
Q 3200 3197 3328 2828 
z
" transform="scale(0.015625)"/>
      <path id="DejaVuSans-62" d="M 3116 1747 
Q 3116 2381 2855 2742 
Q 2594 3103 2138 3103 
Q 1681 3103 1420 2742 
Q 1159 2381 1159 1747 
Q 1159 1113 1420 752 
Q 1681 391 2138 391 
Q 2594 391 2855 752 
Q 3116 1113 3116 1747 
z
M 1159 2969 
Q 1341 3281 1617 3432 
Q 1894 3584 2278 3584 
Q 2916 3584 3314 3078 
Q 3713 2572 3713 1747 
Q 3713 922 3314 415 
Q 2916 -91 2278 -91 
Q 1894 -91 1617 61 
Q 1341 213 1159 525 
L 1159 0 
L 581 0 
L 581 4863 
L 1159 4863 
L 1159 2969 
z
" transform="scale(0.015625)"/>
      <path id="DejaVuSans-66" d="M 2375 4863 
L 2375 4384 
L 1825 4384 
Q 1516 4384 1395 4259 
Q 1275 4134 1275 3809 
L 1275 3500 
L 2222 3500 
L 2222 3053 
L 1275 3053 
L 1275 0 
L 697 0 
L 697 3053 
L 147 3053 
L 147 3500 
L 697 3500 
L 697 3744 
Q 697 4328 969 4595 
Q 1241 4863 1831 4863 
L 2375 4863 
z
" transform="scale(0.015625)"/>
      <path id="DejaVuSans-4a" d="M 628 4666 
L 1259 4666 
L 1259 325 
Q 1259 -519 939 -900 
Q 619 -1281 -91 -1281 
L -331 -1281 
L -331 -750 
L -134 -750 
Q 284 -750 456 -515 
Q 628 -281 628 325 
L 628 4666 
z
" transform="scale(0.015625)"/>
      <path id="DejaVuSans-73" d="M 2834 3397 
L 2834 2853 
Q 2591 2978 2328 3040 
Q 2066 3103 1784 3103 
Q 1356 3103 1142 2972 
Q 928 2841 928 2578 
Q 928 2378 1081 2264 
Q 1234 2150 1697 2047 
L 1894 2003 
Q 2506 1872 2764 1633 
Q 3022 1394 3022 966 
Q 3022 478 2636 193 
Q 2250 -91 1575 -91 
Q 1294 -91 989 -36 
Q 684 19 347 128 
L 347 722 
Q 666 556 975 473 
Q 1284 391 1588 391 
Q 1994 391 2212 530 
Q 2431 669 2431 922 
Q 2431 1156 2273 1281 
Q 2116 1406 1581 1522 
L 1381 1569 
Q 847 1681 609 1914 
Q 372 2147 372 2553 
Q 372 3047 722 3315 
Q 1072 3584 1716 3584 
Q 2034 3584 2315 3537 
Q 2597 3491 2834 3397 
z
" transform="scale(0.015625)"/>
     </defs>
     <use xlink:href="#DejaVuSans-4e"/>
     <use xlink:href="#DejaVuSans-75" x="74.804688"/>
     <use xlink:href="#DejaVuSans-6d" x="138.183594"/>
     <use xlink:href="#DejaVuSans-62" x="235.595703"/>
     <use xlink:href="#DejaVuSans-65" x="299.072266"/>
     <use xlink:href="#DejaVuSans-72" x="360.595703"/>
     <use xlink:href="#DejaVuSans-20" x="401.708984"/>
     <use xlink:href="#DejaVuSans-6f" x="433.496094"/>
     <use xlink:href="#DejaVuSans-66" x="494.677734"/>
     <use xlink:href="#DejaVuSans-20" x="529.882812"/>
     <use xlink:href="#DejaVuSans-4a" x="561.669922"/>
     <use xlink:href="#DejaVuSans-6f" x="591.162109"/>
     <use xlink:href="#DejaVuSans-62" x="652.34375"/>
     <use xlink:href="#DejaVuSans-73" x="715.820312"/>
    </g>
   </g>
   <g id="legend_2">
    <g id="patch_18">
     <path d="M 1049.193897 212.31925 
L 1147.588897 212.31925 
Q 1151.988897 212.31925 1151.988897 207.91925 
L 1151.988897 48.659875 
Q 1151.988897 44.259875 1147.588897 44.259875 
L 1049.193897 44.259875 
Q 1044.793897 44.259875 1044.793897 48.659875 
L 1044.793897 207.91925 
Q 1044.793897 212.31925 1049.193897 212.31925 
z
" style="fill: #ffffff; opacity: 0.8; stroke: #cccccc; stroke-linejoin: miter"/>
    </g>
    <g id="line2d_22">
     <path d="M 1053.593897 62.076438 
L 1075.593897 62.076438 
L 1097.593897 62.076438 
" style="fill: none; stroke-dasharray: ; stroke-dashoffset: 0; stroke: #000000; stroke-width: 1.5"/>
    </g>
    <g id="text_13">
     <!-- 5 -->
     <g transform="translate(1115.193897 69.776438) scale(0.22 -0.22)">
      <use xlink:href="#DejaVuSans-35"/>
     </g>
    </g>
    <g id="line2d_23">
     <path d="M 1053.593897 94.368313 
L 1075.593897 94.368313 
L 1097.593897 94.368313 
" style="fill: none; stroke-dasharray: 1.5,7.5; stroke-dashoffset: 0; stroke: #000000; stroke-width: 1.5"/>
    </g>
    <g id="text_14">
     <!-- 10 -->
     <g transform="translate(1115.193897 102.068313) scale(0.22 -0.22)">
      <use xlink:href="#DejaVuSans-31"/>
      <use xlink:href="#DejaVuSans-30" x="63.623047"/>
     </g>
    </g>
    <g id="line2d_24">
     <path d="M 1053.593897 126.660188 
L 1075.593897 126.660188 
L 1097.593897 126.660188 
" style="fill: none; stroke-dasharray: 1.5,1.5; stroke-dashoffset: 0; stroke: #000000; stroke-width: 1.5"/>
    </g>
    <g id="text_15">
     <!-- 15 -->
     <g transform="translate(1115.193897 134.360188) scale(0.22 -0.22)">
      <use xlink:href="#DejaVuSans-31"/>
      <use xlink:href="#DejaVuSans-35" x="63.623047"/>
     </g>
    </g>
    <g id="line2d_25">
     <path d="M 1053.593897 158.952063 
L 1075.593897 158.952063 
L 1097.593897 158.952063 
" style="fill: none; stroke-dasharray: 7.5,7.5; stroke-dashoffset: 0; stroke: #000000; stroke-width: 1.5"/>
    </g>
    <g id="text_16">
     <!-- 25 -->
     <g transform="translate(1115.193897 166.652063) scale(0.22 -0.22)">
      <use xlink:href="#DejaVuSans-32"/>
      <use xlink:href="#DejaVuSans-35" x="63.623047"/>
     </g>
    </g>
    <g id="line2d_26">
     <path d="M 1053.593897 191.243938 
L 1075.593897 191.243938 
L 1097.593897 191.243938 
" style="fill: none; stroke-dasharray: 4.5,7.5,1.5,7.5; stroke-dashoffset: 0; stroke: #000000; stroke-width: 1.5"/>
    </g>
    <g id="text_17">
     <!-- 50 -->
     <g transform="translate(1115.193897 198.943938) scale(0.22 -0.22)">
      <use xlink:href="#DejaVuSans-35"/>
      <use xlink:href="#DejaVuSans-30" x="63.623047"/>
     </g>
    </g>
   </g>
  </g>
  <g id="axes_4">
   <g id="patch_19">
    <path d="M 88.47625 809.419875 
L 482.358603 809.419875 
L 482.358603 456.619875 
L 88.47625 456.619875 
z
" style="fill: #ffffff"/>
   </g>
   <g id="matplotlib.axis_7">
    <g id="xtick_1">
     <g id="line2d_27">
      <defs>
       <path id="m57cbe283bf" d="M 0 0 
L 0 3.5 
" style="stroke: #000000; stroke-width: 0.8"/>
      </defs>
      <g>
       <use xlink:href="#m57cbe283bf" x="106.379993" y="809.419875" style="stroke: #000000; stroke-width: 0.8"/>
      </g>
     </g>
     <g id="text_18">
      <!-- 0.0 -->
      <g transform="translate(88.886556 833.136437) scale(0.22 -0.22)">
       <use xlink:href="#DejaVuSans-30"/>
       <use xlink:href="#DejaVuSans-2e" x="63.623047"/>
       <use xlink:href="#DejaVuSans-30" x="95.410156"/>
      </g>
     </g>
    </g>
    <g id="xtick_2">
     <g id="line2d_28">
      <g>
       <use xlink:href="#m57cbe283bf" x="177.994967" y="809.419875" style="stroke: #000000; stroke-width: 0.8"/>
      </g>
     </g>
     <g id="text_19">
      <!-- 0.2 -->
      <g transform="translate(160.501529 833.136437) scale(0.22 -0.22)">
       <use xlink:href="#DejaVuSans-30"/>
       <use xlink:href="#DejaVuSans-2e" x="63.623047"/>
       <use xlink:href="#DejaVuSans-32" x="95.410156"/>
      </g>
     </g>
    </g>
    <g id="xtick_3">
     <g id="line2d_29">
      <g>
       <use xlink:href="#m57cbe283bf" x="249.60994" y="809.419875" style="stroke: #000000; stroke-width: 0.8"/>
      </g>
     </g>
     <g id="text_20">
      <!-- 0.4 -->
      <g transform="translate(232.116502 833.136437) scale(0.22 -0.22)">
       <use xlink:href="#DejaVuSans-30"/>
       <use xlink:href="#DejaVuSans-2e" x="63.623047"/>
       <use xlink:href="#DejaVuSans-34" x="95.410156"/>
      </g>
     </g>
    </g>
    <g id="xtick_4">
     <g id="line2d_30">
      <g>
       <use xlink:href="#m57cbe283bf" x="321.224913" y="809.419875" style="stroke: #000000; stroke-width: 0.8"/>
      </g>
     </g>
     <g id="text_21">
      <!-- 0.6 -->
      <g transform="translate(303.731476 833.136437) scale(0.22 -0.22)">
       <use xlink:href="#DejaVuSans-30"/>
       <use xlink:href="#DejaVuSans-2e" x="63.623047"/>
       <use xlink:href="#DejaVuSans-36" x="95.410156"/>
      </g>
     </g>
    </g>
    <g id="xtick_5">
     <g id="line2d_31">
      <g>
       <use xlink:href="#m57cbe283bf" x="392.839886" y="809.419875" style="stroke: #000000; stroke-width: 0.8"/>
      </g>
     </g>
     <g id="text_22">
      <!-- 0.8 -->
      <g transform="translate(375.346449 833.136437) scale(0.22 -0.22)">
       <defs>
        <path id="DejaVuSans-38" d="M 2034 2216 
Q 1584 2216 1326 1975 
Q 1069 1734 1069 1313 
Q 1069 891 1326 650 
Q 1584 409 2034 409 
Q 2484 409 2743 651 
Q 3003 894 3003 1313 
Q 3003 1734 2745 1975 
Q 2488 2216 2034 2216 
z
M 1403 2484 
Q 997 2584 770 2862 
Q 544 3141 544 3541 
Q 544 4100 942 4425 
Q 1341 4750 2034 4750 
Q 2731 4750 3128 4425 
Q 3525 4100 3525 3541 
Q 3525 3141 3298 2862 
Q 3072 2584 2669 2484 
Q 3125 2378 3379 2068 
Q 3634 1759 3634 1313 
Q 3634 634 3220 271 
Q 2806 -91 2034 -91 
Q 1263 -91 848 271 
Q 434 634 434 1313 
Q 434 1759 690 2068 
Q 947 2378 1403 2484 
z
M 1172 3481 
Q 1172 3119 1398 2916 
Q 1625 2713 2034 2713 
Q 2441 2713 2670 2916 
Q 2900 3119 2900 3481 
Q 2900 3844 2670 4047 
Q 2441 4250 2034 4250 
Q 1625 4250 1398 4047 
Q 1172 3844 1172 3481 
z
" transform="scale(0.015625)"/>
       </defs>
       <use xlink:href="#DejaVuSans-30"/>
       <use xlink:href="#DejaVuSans-2e" x="63.623047"/>
       <use xlink:href="#DejaVuSans-38" x="95.410156"/>
      </g>
     </g>
    </g>
    <g id="xtick_6">
     <g id="line2d_32">
      <g>
       <use xlink:href="#m57cbe283bf" x="464.45486" y="809.419875" style="stroke: #000000; stroke-width: 0.8"/>
      </g>
     </g>
     <g id="text_23">
      <!-- 1.0 -->
      <g transform="translate(446.961422 833.136437) scale(0.22 -0.22)">
       <use xlink:href="#DejaVuSans-31"/>
       <use xlink:href="#DejaVuSans-2e" x="63.623047"/>
       <use xlink:href="#DejaVuSans-30" x="95.410156"/>
      </g>
     </g>
    </g>
    <g id="text_24">
     <!-- Diversity -->
     <g transform="translate(236.481176 858.428312) scale(0.22 -0.22)">
      <defs>
       <path id="DejaVuSans-44" d="M 1259 4147 
L 1259 519 
L 2022 519 
Q 2988 519 3436 956 
Q 3884 1394 3884 2338 
Q 3884 3275 3436 3711 
Q 2988 4147 2022 4147 
L 1259 4147 
z
M 628 4666 
L 1925 4666 
Q 3281 4666 3915 4102 
Q 4550 3538 4550 2338 
Q 4550 1131 3912 565 
Q 3275 0 1925 0 
L 628 0 
L 628 4666 
z
" transform="scale(0.015625)"/>
       <path id="DejaVuSans-79" d="M 2059 -325 
Q 1816 -950 1584 -1140 
Q 1353 -1331 966 -1331 
L 506 -1331 
L 506 -850 
L 844 -850 
Q 1081 -850 1212 -737 
Q 1344 -625 1503 -206 
L 1606 56 
L 191 3500 
L 800 3500 
L 1894 763 
L 2988 3500 
L 3597 3500 
L 2059 -325 
z
" transform="scale(0.015625)"/>
      </defs>
      <use xlink:href="#DejaVuSans-44"/>
      <use xlink:href="#DejaVuSans-69" x="77.001953"/>
      <use xlink:href="#DejaVuSans-76" x="104.785156"/>
      <use xlink:href="#DejaVuSans-65" x="163.964844"/>
      <use xlink:href="#DejaVuSans-72" x="225.488281"/>
      <use xlink:href="#DejaVuSans-73" x="266.601562"/>
      <use xlink:href="#DejaVuSans-69" x="318.701172"/>
      <use xlink:href="#DejaVuSans-74" x="346.484375"/>
      <use xlink:href="#DejaVuSans-79" x="385.693359"/>
     </g>
    </g>
   </g>
   <g id="matplotlib.axis_8">
    <g id="ytick_5">
     <g id="line2d_33">
      <g>
       <use xlink:href="#m7695ed6a10" x="88.47625" y="760.628386" style="stroke: #000000; stroke-width: 0.8"/>
      </g>
     </g>
     <g id="text_25">
      <!-- 0.00 -->
      <g transform="translate(32.491875 768.986667) scale(0.22 -0.22)">
       <use xlink:href="#DejaVuSans-30"/>
       <use xlink:href="#DejaVuSans-2e" x="63.623047"/>
       <use xlink:href="#DejaVuSans-30" x="95.410156"/>
       <use xlink:href="#DejaVuSans-30" x="159.033203"/>
      </g>
     </g>
    </g>
    <g id="ytick_6">
     <g id="line2d_34">
      <g>
       <use xlink:href="#m7695ed6a10" x="88.47625" y="678.740571" style="stroke: #000000; stroke-width: 0.8"/>
      </g>
     </g>
     <g id="text_26">
      <!-- 0.02 -->
      <g transform="translate(32.491875 687.098853) scale(0.22 -0.22)">
       <use xlink:href="#DejaVuSans-30"/>
       <use xlink:href="#DejaVuSans-2e" x="63.623047"/>
       <use xlink:href="#DejaVuSans-30" x="95.410156"/>
       <use xlink:href="#DejaVuSans-32" x="159.033203"/>
      </g>
     </g>
    </g>
    <g id="ytick_7">
     <g id="line2d_35">
      <g>
       <use xlink:href="#m7695ed6a10" x="88.47625" y="596.852757" style="stroke: #000000; stroke-width: 0.8"/>
      </g>
     </g>
     <g id="text_27">
      <!-- 0.04 -->
      <g transform="translate(32.491875 605.211038) scale(0.22 -0.22)">
       <use xlink:href="#DejaVuSans-30"/>
       <use xlink:href="#DejaVuSans-2e" x="63.623047"/>
       <use xlink:href="#DejaVuSans-30" x="95.410156"/>
       <use xlink:href="#DejaVuSans-34" x="159.033203"/>
      </g>
     </g>
    </g>
    <g id="ytick_8">
     <g id="line2d_36">
      <g>
       <use xlink:href="#m7695ed6a10" x="88.47625" y="514.964943" style="stroke: #000000; stroke-width: 0.8"/>
      </g>
     </g>
     <g id="text_28">
      <!-- 0.06 -->
      <g transform="translate(32.491875 523.323224) scale(0.22 -0.22)">
       <use xlink:href="#DejaVuSans-30"/>
       <use xlink:href="#DejaVuSans-2e" x="63.623047"/>
       <use xlink:href="#DejaVuSans-30" x="95.410156"/>
       <use xlink:href="#DejaVuSans-36" x="159.033203"/>
      </g>
     </g>
    </g>
    <g id="text_29">
     <!-- Count -->
     <g transform="translate(23.916563 665.686438) rotate(-90) scale(0.22 -0.22)">
      <use xlink:href="#DejaVuSans-43"/>
      <use xlink:href="#DejaVuSans-6f" x="69.824219"/>
      <use xlink:href="#DejaVuSans-75" x="131.005859"/>
      <use xlink:href="#DejaVuSans-6e" x="194.384766"/>
      <use xlink:href="#DejaVuSans-74" x="257.763672"/>
     </g>
    </g>
   </g>
   <g id="line2d_37">
    <path d="M 106.379993 760.628386 
L 124.283737 758.069391 
L 142.18748 758.069391 
L 160.091223 740.156432 
L 177.994967 748.259914 
L 195.89871 745.27442 
L 213.802453 736.317941 
L 231.706197 740.582931 
L 249.60994 727.361461 
L 267.513683 736.74444 
L 285.417426 729.067457 
L 303.32117 719.684478 
L 321.224913 707.316007 
L 339.128656 702.624517 
L 357.0324 704.757012 
L 374.936143 691.535542 
L 392.839886 672.769585 
L 410.74363 687.697051 
L 428.647373 662.533608 
L 446.551116 695.800533 
L 464.45486 769.158366 
" clip-path="url(#pd1b6f7a672)" style="fill: none; stroke-dasharray: ; stroke-dashoffset: 0; stroke: #000000; stroke-width: 1.5"/>
   </g>
   <g id="line2d_38">
    <path d="M 106.379993 760.628386 
L 124.283737 760.628386 
L 142.18748 760.628386 
L 160.091223 760.628386 
L 177.994967 758.069391 
L 195.89871 755.510397 
L 213.802453 758.069391 
L 231.706197 759.775388 
L 249.60994 753.804401 
L 267.513683 747.833415 
L 285.417426 739.303434 
L 303.32117 750.392409 
L 321.224913 746.980417 
L 339.128656 746.127419 
L 357.0324 748.686413 
L 374.936143 741.862428 
L 392.839886 750.392409 
L 410.74363 740.156432 
L 428.647373 733.332448 
L 446.551116 755.510397 
L 464.45486 775.129353 
" clip-path="url(#pd1b6f7a672)" style="fill: none; stroke-dasharray: 1.5,7.5; stroke-dashoffset: 0; stroke: #000000; stroke-width: 1.5"/>
   </g>
   <g id="line2d_39">
    <path d="M 106.379993 760.628386 
L 124.283737 760.628386 
L 142.18748 760.628386 
L 160.091223 760.628386 
L 177.994967 760.628386 
L 195.89871 760.628386 
L 213.802453 759.653531 
L 231.706197 761.603241 
L 249.60994 762.578096 
L 267.513683 753.804401 
L 285.417426 756.728966 
L 303.32117 748.930126 
L 321.224913 738.206722 
L 339.128656 733.332448 
L 357.0324 725.533608 
L 374.936143 730.407883 
L 392.839886 737.231867 
L 410.74363 736.257012 
L 428.647373 723.583898 
L 446.551116 730.407883 
L 464.45486 765.50266 
" clip-path="url(#pd1b6f7a672)" style="fill: none; stroke-dasharray: 1.5,1.5; stroke-dashoffset: 0; stroke: #000000; stroke-width: 1.5"/>
   </g>
   <g id="line2d_40">
    <path d="M 88.47625 760.628386 
L 482.358603 760.628386 
" clip-path="url(#pd1b6f7a672)" style="fill: none; stroke: #000000; stroke-width: 1.5; stroke-linecap: square"/>
   </g>
   <g id="patch_20">
    <path d="M 88.47625 809.419875 
L 88.47625 456.619875 
" style="fill: none; stroke: #000000; stroke-width: 0.8; stroke-linejoin: miter; stroke-linecap: square"/>
   </g>
   <g id="patch_21">
    <path d="M 482.358603 809.419875 
L 482.358603 456.619875 
" style="fill: none; stroke: #000000; stroke-width: 0.8; stroke-linejoin: miter; stroke-linecap: square"/>
   </g>
   <g id="patch_22">
    <path d="M 88.47625 809.419875 
L 482.358603 809.419875 
" style="fill: none; stroke: #000000; stroke-width: 0.8; stroke-linejoin: miter; stroke-linecap: square"/>
   </g>
   <g id="patch_23">
    <path d="M 88.47625 456.619875 
L 482.358603 456.619875 
" style="fill: none; stroke: #000000; stroke-width: 0.8; stroke-linejoin: miter; stroke-linecap: square"/>
   </g>
   <g id="text_30">
    <!-- Number of Machines -->
    <g transform="translate(149.143926 450.619875) scale(0.264 -0.264)">
     <defs>
      <path id="DejaVuSans-4d" d="M 628 4666 
L 1569 4666 
L 2759 1491 
L 3956 4666 
L 4897 4666 
L 4897 0 
L 4281 0 
L 4281 4097 
L 3078 897 
L 2444 897 
L 1241 4097 
L 1241 0 
L 628 0 
L 628 4666 
z
" transform="scale(0.015625)"/>
      <path id="DejaVuSans-63" d="M 3122 3366 
L 3122 2828 
Q 2878 2963 2633 3030 
Q 2388 3097 2138 3097 
Q 1578 3097 1268 2742 
Q 959 2388 959 1747 
Q 959 1106 1268 751 
Q 1578 397 2138 397 
Q 2388 397 2633 464 
Q 2878 531 3122 666 
L 3122 134 
Q 2881 22 2623 -34 
Q 2366 -91 2075 -91 
Q 1284 -91 818 406 
Q 353 903 353 1747 
Q 353 2603 823 3093 
Q 1294 3584 2113 3584 
Q 2378 3584 2631 3529 
Q 2884 3475 3122 3366 
z
" transform="scale(0.015625)"/>
      <path id="DejaVuSans-68" d="M 3513 2113 
L 3513 0 
L 2938 0 
L 2938 2094 
Q 2938 2591 2744 2837 
Q 2550 3084 2163 3084 
Q 1697 3084 1428 2787 
Q 1159 2491 1159 1978 
L 1159 0 
L 581 0 
L 581 4863 
L 1159 4863 
L 1159 2956 
Q 1366 3272 1645 3428 
Q 1925 3584 2291 3584 
Q 2894 3584 3203 3211 
Q 3513 2838 3513 2113 
z
" transform="scale(0.015625)"/>
     </defs>
     <use xlink:href="#DejaVuSans-4e"/>
     <use xlink:href="#DejaVuSans-75" x="74.804688"/>
     <use xlink:href="#DejaVuSans-6d" x="138.183594"/>
     <use xlink:href="#DejaVuSans-62" x="235.595703"/>
     <use xlink:href="#DejaVuSans-65" x="299.072266"/>
     <use xlink:href="#DejaVuSans-72" x="360.595703"/>
     <use xlink:href="#DejaVuSans-20" x="401.708984"/>
     <use xlink:href="#DejaVuSans-6f" x="433.496094"/>
     <use xlink:href="#DejaVuSans-66" x="494.677734"/>
     <use xlink:href="#DejaVuSans-20" x="529.882812"/>
     <use xlink:href="#DejaVuSans-4d" x="561.669922"/>
     <use xlink:href="#DejaVuSans-61" x="647.949219"/>
     <use xlink:href="#DejaVuSans-63" x="709.228516"/>
     <use xlink:href="#DejaVuSans-68" x="764.208984"/>
     <use xlink:href="#DejaVuSans-69" x="827.587891"/>
     <use xlink:href="#DejaVuSans-6e" x="855.371094"/>
     <use xlink:href="#DejaVuSans-65" x="918.75"/>
     <use xlink:href="#DejaVuSans-73" x="980.273438"/>
    </g>
   </g>
   <g id="legend_3">
    <g id="patch_24">
     <path d="M 382.561103 571.0955 
L 466.958603 571.0955 
Q 471.358603 571.0955 471.358603 566.6955 
L 471.358603 472.019875 
Q 471.358603 467.619875 466.958603 467.619875 
L 382.561103 467.619875 
Q 378.161103 467.619875 378.161103 472.019875 
L 378.161103 566.6955 
Q 378.161103 571.0955 382.561103 571.0955 
z
" style="fill: #ffffff; opacity: 0.8; stroke: #cccccc; stroke-linejoin: miter"/>
    </g>
    <g id="line2d_41">
     <path d="M 386.961103 485.436437 
L 408.961103 485.436437 
L 430.961103 485.436437 
" style="fill: none; stroke-dasharray: ; stroke-dashoffset: 0; stroke: #000000; stroke-width: 1.5"/>
    </g>
    <g id="text_31">
     <!-- 1 -->
     <g transform="translate(448.561103 493.136437) scale(0.22 -0.22)">
      <use xlink:href="#DejaVuSans-31"/>
     </g>
    </g>
    <g id="line2d_42">
     <path d="M 386.961103 517.728312 
L 408.961103 517.728312 
L 430.961103 517.728312 
" style="fill: none; stroke-dasharray: 1.5,7.5; stroke-dashoffset: 0; stroke: #000000; stroke-width: 1.5"/>
    </g>
    <g id="text_32">
     <!-- 3 -->
     <g transform="translate(448.561103 525.428312) scale(0.22 -0.22)">
      <defs>
       <path id="DejaVuSans-33" d="M 2597 2516 
Q 3050 2419 3304 2112 
Q 3559 1806 3559 1356 
Q 3559 666 3084 287 
Q 2609 -91 1734 -91 
Q 1441 -91 1130 -33 
Q 819 25 488 141 
L 488 750 
Q 750 597 1062 519 
Q 1375 441 1716 441 
Q 2309 441 2620 675 
Q 2931 909 2931 1356 
Q 2931 1769 2642 2001 
Q 2353 2234 1838 2234 
L 1294 2234 
L 1294 2753 
L 1863 2753 
Q 2328 2753 2575 2939 
Q 2822 3125 2822 3475 
Q 2822 3834 2567 4026 
Q 2313 4219 1838 4219 
Q 1578 4219 1281 4162 
Q 984 4106 628 3988 
L 628 4550 
Q 988 4650 1302 4700 
Q 1616 4750 1894 4750 
Q 2613 4750 3031 4423 
Q 3450 4097 3450 3541 
Q 3450 3153 3228 2886 
Q 3006 2619 2597 2516 
z
" transform="scale(0.015625)"/>
      </defs>
      <use xlink:href="#DejaVuSans-33"/>
     </g>
    </g>
    <g id="line2d_43">
     <path d="M 386.961103 550.020187 
L 408.961103 550.020187 
L 430.961103 550.020187 
" style="fill: none; stroke-dasharray: 1.5,1.5; stroke-dashoffset: 0; stroke: #000000; stroke-width: 1.5"/>
    </g>
    <g id="text_33">
     <!-- 5 -->
     <g transform="translate(448.561103 557.720187) scale(0.22 -0.22)">
      <use xlink:href="#DejaVuSans-35"/>
     </g>
    </g>
   </g>
  </g>
  <g id="axes_5">
   <g id="patch_25">
    <path d="M 561.135074 809.419875 
L 955.017426 809.419875 
L 955.017426 456.619875 
L 561.135074 456.619875 
z
" style="fill: #ffffff"/>
   </g>
   <g id="matplotlib.axis_9">
    <g id="xtick_7">
     <g id="line2d_44">
      <g>
       <use xlink:href="#m57cbe283bf" x="579.038817" y="809.419875" style="stroke: #000000; stroke-width: 0.8"/>
      </g>
     </g>
     <g id="text_34">
      <!-- 0.0 -->
      <g transform="translate(561.545379 833.136437) scale(0.22 -0.22)">
       <use xlink:href="#DejaVuSans-30"/>
       <use xlink:href="#DejaVuSans-2e" x="63.623047"/>
       <use xlink:href="#DejaVuSans-30" x="95.410156"/>
      </g>
     </g>
    </g>
    <g id="xtick_8">
     <g id="line2d_45">
      <g>
       <use xlink:href="#m57cbe283bf" x="650.65379" y="809.419875" style="stroke: #000000; stroke-width: 0.8"/>
      </g>
     </g>
     <g id="text_35">
      <!-- 0.2 -->
      <g transform="translate(633.160353 833.136437) scale(0.22 -0.22)">
       <use xlink:href="#DejaVuSans-30"/>
       <use xlink:href="#DejaVuSans-2e" x="63.623047"/>
       <use xlink:href="#DejaVuSans-32" x="95.410156"/>
      </g>
     </g>
    </g>
    <g id="xtick_9">
     <g id="line2d_46">
      <g>
       <use xlink:href="#m57cbe283bf" x="722.268763" y="809.419875" style="stroke: #000000; stroke-width: 0.8"/>
      </g>
     </g>
     <g id="text_36">
      <!-- 0.4 -->
      <g transform="translate(704.775326 833.136437) scale(0.22 -0.22)">
       <use xlink:href="#DejaVuSans-30"/>
       <use xlink:href="#DejaVuSans-2e" x="63.623047"/>
       <use xlink:href="#DejaVuSans-34" x="95.410156"/>
      </g>
     </g>
    </g>
    <g id="xtick_10">
     <g id="line2d_47">
      <g>
       <use xlink:href="#m57cbe283bf" x="793.883737" y="809.419875" style="stroke: #000000; stroke-width: 0.8"/>
      </g>
     </g>
     <g id="text_37">
      <!-- 0.6 -->
      <g transform="translate(776.390299 833.136437) scale(0.22 -0.22)">
       <use xlink:href="#DejaVuSans-30"/>
       <use xlink:href="#DejaVuSans-2e" x="63.623047"/>
       <use xlink:href="#DejaVuSans-36" x="95.410156"/>
      </g>
     </g>
    </g>
    <g id="xtick_11">
     <g id="line2d_48">
      <g>
       <use xlink:href="#m57cbe283bf" x="865.49871" y="809.419875" style="stroke: #000000; stroke-width: 0.8"/>
      </g>
     </g>
     <g id="text_38">
      <!-- 0.8 -->
      <g transform="translate(848.005272 833.136437) scale(0.22 -0.22)">
       <use xlink:href="#DejaVuSans-30"/>
       <use xlink:href="#DejaVuSans-2e" x="63.623047"/>
       <use xlink:href="#DejaVuSans-38" x="95.410156"/>
      </g>
     </g>
    </g>
    <g id="xtick_12">
     <g id="line2d_49">
      <g>
       <use xlink:href="#m57cbe283bf" x="937.113683" y="809.419875" style="stroke: #000000; stroke-width: 0.8"/>
      </g>
     </g>
     <g id="text_39">
      <!-- 1.0 -->
      <g transform="translate(919.620246 833.136437) scale(0.22 -0.22)">
       <use xlink:href="#DejaVuSans-31"/>
       <use xlink:href="#DejaVuSans-2e" x="63.623047"/>
       <use xlink:href="#DejaVuSans-30" x="95.410156"/>
      </g>
     </g>
    </g>
    <g id="text_40">
     <!-- Diversity -->
     <g transform="translate(709.14 858.428312) scale(0.22 -0.22)">
      <use xlink:href="#DejaVuSans-44"/>
      <use xlink:href="#DejaVuSans-69" x="77.001953"/>
      <use xlink:href="#DejaVuSans-76" x="104.785156"/>
      <use xlink:href="#DejaVuSans-65" x="163.964844"/>
      <use xlink:href="#DejaVuSans-72" x="225.488281"/>
      <use xlink:href="#DejaVuSans-73" x="266.601562"/>
      <use xlink:href="#DejaVuSans-69" x="318.701172"/>
      <use xlink:href="#DejaVuSans-74" x="346.484375"/>
      <use xlink:href="#DejaVuSans-79" x="385.693359"/>
     </g>
    </g>
   </g>
   <g id="matplotlib.axis_10"/>
   <g id="line2d_50">
    <path d="M 579.038817 760.628386 
L 596.94256 759.968 
L 614.846303 759.307614 
L 632.750047 750.722602 
L 650.65379 751.382987 
L 668.557533 752.703758 
L 686.461277 748.741445 
L 704.36502 751.382987 
L 722.268763 743.45836 
L 740.172507 746.099902 
L 758.07625 738.835661 
L 775.979993 736.194118 
L 793.883737 726.94872 
L 811.78748 737.51489 
L 829.691223 734.212962 
L 847.594967 722.326021 
L 865.49871 703.174838 
L 883.402453 708.457923 
L 901.306197 717.703322 
L 919.20994 704.49561 
L 937.113683 755.345301 
" clip-path="url(#pd9d6d0fb97)" style="fill: none; stroke-dasharray: ; stroke-dashoffset: 0; stroke: #000000; stroke-width: 1.5"/>
   </g>
   <g id="line2d_51">
    <path d="M 579.038817 760.628386 
L 596.94256 759.307614 
L 614.846303 759.307614 
L 632.750047 749.40183 
L 650.65379 754.684915 
L 668.557533 751.382987 
L 686.461277 745.439517 
L 704.36502 750.062216 
L 722.268763 740.156432 
L 740.172507 742.137589 
L 758.07625 736.854504 
L 775.979993 734.873347 
L 793.883737 728.929877 
L 811.78748 716.38255 
L 829.691223 718.363707 
L 847.594967 716.38255 
L 865.49871 714.401394 
L 883.402453 712.420237 
L 901.306197 678.080186 
L 919.20994 742.797974 
L 937.113683 790.345738 
" clip-path="url(#pd9d6d0fb97)" style="fill: none; stroke-dasharray: 1.5,7.5; stroke-dashoffset: 0; stroke: #000000; stroke-width: 1.5"/>
   </g>
   <g id="line2d_52">
    <path d="M 579.038817 760.628386 
L 596.94256 758.647229 
L 614.846303 759.307614 
L 632.750047 750.062216 
L 650.65379 754.684915 
L 668.557533 750.062216 
L 686.461277 747.420674 
L 704.36502 749.40183 
L 722.268763 742.797974 
L 740.172507 742.137589 
L 758.07625 738.175275 
L 775.979993 731.571419 
L 793.883737 717.703322 
L 811.78748 708.457923 
L 829.691223 709.778694 
L 847.594967 701.193682 
L 865.49871 704.49561 
L 883.402453 715.722165 
L 901.306197 687.98597 
L 919.20994 709.778694 
L 937.113683 763.930314 
" clip-path="url(#pd9d6d0fb97)" style="fill: none; stroke-dasharray: 1.5,1.5; stroke-dashoffset: 0; stroke: #000000; stroke-width: 1.5"/>
   </g>
   <g id="line2d_53">
    <path d="M 561.135074 760.628386 
L 955.017426 760.628386 
" clip-path="url(#pd9d6d0fb97)" style="fill: none; stroke: #000000; stroke-width: 1.5; stroke-linecap: square"/>
   </g>
   <g id="patch_26">
    <path d="M 561.135074 809.419875 
L 561.135074 456.619875 
" style="fill: none; stroke: #000000; stroke-width: 0.8; stroke-linejoin: miter; stroke-linecap: square"/>
   </g>
   <g id="patch_27">
    <path d="M 955.017426 809.419875 
L 955.017426 456.619875 
" style="fill: none; stroke: #000000; stroke-width: 0.8; stroke-linejoin: miter; stroke-linecap: square"/>
   </g>
   <g id="patch_28">
    <path d="M 561.135074 809.419875 
L 955.017426 809.419875 
" style="fill: none; stroke: #000000; stroke-width: 0.8; stroke-linejoin: miter; stroke-linecap: square"/>
   </g>
   <g id="patch_29">
    <path d="M 561.135074 456.619875 
L 955.017426 456.619875 
" style="fill: none; stroke: #000000; stroke-width: 0.8; stroke-linejoin: miter; stroke-linecap: square"/>
   </g>
   <g id="text_41">
    <!-- Quality Parameter -->
    <g transform="translate(638.040813 450.619875) scale(0.264 -0.264)">
     <defs>
      <path id="DejaVuSans-51" d="M 2522 4238 
Q 1834 4238 1429 3725 
Q 1025 3213 1025 2328 
Q 1025 1447 1429 934 
Q 1834 422 2522 422 
Q 3209 422 3611 934 
Q 4013 1447 4013 2328 
Q 4013 3213 3611 3725 
Q 3209 4238 2522 4238 
z
M 3406 84 
L 4238 -825 
L 3475 -825 
L 2784 -78 
Q 2681 -84 2626 -87 
Q 2572 -91 2522 -91 
Q 1538 -91 948 567 
Q 359 1225 359 2328 
Q 359 3434 948 4092 
Q 1538 4750 2522 4750 
Q 3503 4750 4090 4092 
Q 4678 3434 4678 2328 
Q 4678 1516 4351 937 
Q 4025 359 3406 84 
z
" transform="scale(0.015625)"/>
     </defs>
     <use xlink:href="#DejaVuSans-51"/>
     <use xlink:href="#DejaVuSans-75" x="78.710938"/>
     <use xlink:href="#DejaVuSans-61" x="142.089844"/>
     <use xlink:href="#DejaVuSans-6c" x="203.369141"/>
     <use xlink:href="#DejaVuSans-69" x="231.152344"/>
     <use xlink:href="#DejaVuSans-74" x="258.935547"/>
     <use xlink:href="#DejaVuSans-79" x="298.144531"/>
     <use xlink:href="#DejaVuSans-20" x="357.324219"/>
     <use xlink:href="#DejaVuSans-50" x="389.111328"/>
     <use xlink:href="#DejaVuSans-61" x="444.914062"/>
     <use xlink:href="#DejaVuSans-72" x="506.193359"/>
     <use xlink:href="#DejaVuSans-61" x="547.306641"/>
     <use xlink:href="#DejaVuSans-6d" x="608.585938"/>
     <use xlink:href="#DejaVuSans-65" x="705.998047"/>
     <use xlink:href="#DejaVuSans-74" x="767.521484"/>
     <use xlink:href="#DejaVuSans-65" x="806.730469"/>
     <use xlink:href="#DejaVuSans-72" x="868.253906"/>
    </g>
   </g>
   <g id="legend_4">
    <g id="patch_30">
     <path d="M 834.230551 571.0955 
L 939.617426 571.0955 
Q 944.017426 571.0955 944.017426 566.6955 
L 944.017426 472.019875 
Q 944.017426 467.619875 939.617426 467.619875 
L 834.230551 467.619875 
Q 829.830551 467.619875 829.830551 472.019875 
L 829.830551 566.6955 
Q 829.830551 571.0955 834.230551 571.0955 
z
" style="fill: #ffffff; opacity: 0.8; stroke: #cccccc; stroke-linejoin: miter"/>
    </g>
    <g id="line2d_54">
     <path d="M 838.630551 485.436437 
L 860.630551 485.436437 
L 882.630551 485.436437 
" style="fill: none; stroke-dasharray: ; stroke-dashoffset: 0; stroke: #000000; stroke-width: 1.5"/>
    </g>
    <g id="text_42">
     <!-- 0.3 -->
     <g transform="translate(900.230551 493.136437) scale(0.22 -0.22)">
      <use xlink:href="#DejaVuSans-30"/>
      <use xlink:href="#DejaVuSans-2e" x="63.623047"/>
      <use xlink:href="#DejaVuSans-33" x="95.410156"/>
     </g>
    </g>
    <g id="line2d_55">
     <path d="M 838.630551 517.728312 
L 860.630551 517.728312 
L 882.630551 517.728312 
" style="fill: none; stroke-dasharray: 1.5,7.5; stroke-dashoffset: 0; stroke: #000000; stroke-width: 1.5"/>
    </g>
    <g id="text_43">
     <!-- 0.6 -->
     <g transform="translate(900.230551 525.428312) scale(0.22 -0.22)">
      <use xlink:href="#DejaVuSans-30"/>
      <use xlink:href="#DejaVuSans-2e" x="63.623047"/>
      <use xlink:href="#DejaVuSans-36" x="95.410156"/>
     </g>
    </g>
    <g id="line2d_56">
     <path d="M 838.630551 550.020187 
L 860.630551 550.020187 
L 882.630551 550.020187 
" style="fill: none; stroke-dasharray: 1.5,1.5; stroke-dashoffset: 0; stroke: #000000; stroke-width: 1.5"/>
    </g>
    <g id="text_44">
     <!-- 1. -->
     <g transform="translate(900.230551 557.720187) scale(0.22 -0.22)">
      <use xlink:href="#DejaVuSans-31"/>
      <use xlink:href="#DejaVuSans-2e" x="63.623047"/>
     </g>
    </g>
   </g>
  </g>
  <g id="axes_6">
   <g id="patch_31">
    <path d="M 1033.793897 809.419875 
L 1427.67625 809.419875 
L 1427.67625 456.619875 
L 1033.793897 456.619875 
z
" style="fill: #ffffff"/>
   </g>
   <g id="matplotlib.axis_11">
    <g id="xtick_13">
     <g id="line2d_57">
      <g>
       <use xlink:href="#m57cbe283bf" x="1051.69764" y="809.419875" style="stroke: #000000; stroke-width: 0.8"/>
      </g>
     </g>
     <g id="text_45">
      <!-- 0.0 -->
      <g transform="translate(1034.204203 833.136437) scale(0.22 -0.22)">
       <use xlink:href="#DejaVuSans-30"/>
       <use xlink:href="#DejaVuSans-2e" x="63.623047"/>
       <use xlink:href="#DejaVuSans-30" x="95.410156"/>
      </g>
     </g>
    </g>
    <g id="xtick_14">
     <g id="line2d_58">
      <g>
       <use xlink:href="#m57cbe283bf" x="1123.312614" y="809.419875" style="stroke: #000000; stroke-width: 0.8"/>
      </g>
     </g>
     <g id="text_46">
      <!-- 0.2 -->
      <g transform="translate(1105.819176 833.136437) scale(0.22 -0.22)">
       <use xlink:href="#DejaVuSans-30"/>
       <use xlink:href="#DejaVuSans-2e" x="63.623047"/>
       <use xlink:href="#DejaVuSans-32" x="95.410156"/>
      </g>
     </g>
    </g>
    <g id="xtick_15">
     <g id="line2d_59">
      <g>
       <use xlink:href="#m57cbe283bf" x="1194.927587" y="809.419875" style="stroke: #000000; stroke-width: 0.8"/>
      </g>
     </g>
     <g id="text_47">
      <!-- 0.4 -->
      <g transform="translate(1177.434149 833.136437) scale(0.22 -0.22)">
       <use xlink:href="#DejaVuSans-30"/>
       <use xlink:href="#DejaVuSans-2e" x="63.623047"/>
       <use xlink:href="#DejaVuSans-34" x="95.410156"/>
      </g>
     </g>
    </g>
    <g id="xtick_16">
     <g id="line2d_60">
      <g>
       <use xlink:href="#m57cbe283bf" x="1266.54256" y="809.419875" style="stroke: #000000; stroke-width: 0.8"/>
      </g>
     </g>
     <g id="text_48">
      <!-- 0.6 -->
      <g transform="translate(1249.049123 833.136437) scale(0.22 -0.22)">
       <use xlink:href="#DejaVuSans-30"/>
       <use xlink:href="#DejaVuSans-2e" x="63.623047"/>
       <use xlink:href="#DejaVuSans-36" x="95.410156"/>
      </g>
     </g>
    </g>
    <g id="xtick_17">
     <g id="line2d_61">
      <g>
       <use xlink:href="#m57cbe283bf" x="1338.157533" y="809.419875" style="stroke: #000000; stroke-width: 0.8"/>
      </g>
     </g>
     <g id="text_49">
      <!-- 0.8 -->
      <g transform="translate(1320.664096 833.136437) scale(0.22 -0.22)">
       <use xlink:href="#DejaVuSans-30"/>
       <use xlink:href="#DejaVuSans-2e" x="63.623047"/>
       <use xlink:href="#DejaVuSans-38" x="95.410156"/>
      </g>
     </g>
    </g>
    <g id="xtick_18">
     <g id="line2d_62">
      <g>
       <use xlink:href="#m57cbe283bf" x="1409.772507" y="809.419875" style="stroke: #000000; stroke-width: 0.8"/>
      </g>
     </g>
     <g id="text_50">
      <!-- 1.0 -->
      <g transform="translate(1392.279069 833.136437) scale(0.22 -0.22)">
       <use xlink:href="#DejaVuSans-31"/>
       <use xlink:href="#DejaVuSans-2e" x="63.623047"/>
       <use xlink:href="#DejaVuSans-30" x="95.410156"/>
      </g>
     </g>
    </g>
    <g id="text_51">
     <!-- Diversity -->
     <g transform="translate(1181.798824 858.428312) scale(0.22 -0.22)">
      <use xlink:href="#DejaVuSans-44"/>
      <use xlink:href="#DejaVuSans-69" x="77.001953"/>
      <use xlink:href="#DejaVuSans-76" x="104.785156"/>
      <use xlink:href="#DejaVuSans-65" x="163.964844"/>
      <use xlink:href="#DejaVuSans-72" x="225.488281"/>
      <use xlink:href="#DejaVuSans-73" x="266.601562"/>
      <use xlink:href="#DejaVuSans-69" x="318.701172"/>
      <use xlink:href="#DejaVuSans-74" x="346.484375"/>
      <use xlink:href="#DejaVuSans-79" x="385.693359"/>
     </g>
    </g>
   </g>
   <g id="matplotlib.axis_12"/>
   <g id="line2d_63">
    <path d="M 1051.69764 760.628386 
L 1069.601384 760.628386 
L 1087.505127 760.628386 
L 1105.40887 748.301188 
L 1123.312614 753.584273 
L 1141.216357 754.464787 
L 1159.1201 751.823244 
L 1177.023844 751.823244 
L 1194.927587 746.54016 
L 1212.83133 749.181702 
L 1230.735074 732.451933 
L 1248.638817 726.288334 
L 1266.54256 704.275481 
L 1284.446303 695.47034 
L 1302.350047 698.111882 
L 1320.25379 689.306741 
L 1338.157533 677.860057 
L 1356.061277 712.200108 
L 1373.96502 687.545713 
L 1391.868763 692.828797 
L 1409.772507 735.97399 
" clip-path="url(#p66b07152c8)" style="fill: none; stroke-dasharray: ; stroke-dashoffset: 0; stroke: #000000; stroke-width: 1.5"/>
   </g>
   <g id="line2d_64">
    <path d="M 1051.69764 760.628386 
L 1069.601384 760.628386 
L 1087.505127 759.747872 
L 1105.40887 752.703758 
L 1123.312614 757.986843 
L 1141.216357 757.106329 
L 1159.1201 750.94273 
L 1177.023844 754.464787 
L 1194.927587 742.137589 
L 1212.83133 741.257075 
L 1230.735074 746.54016 
L 1248.638817 738.615532 
L 1266.54256 728.049363 
L 1284.446303 719.244221 
L 1302.350047 713.961137 
L 1320.25379 705.155995 
L 1338.157533 681.382114 
L 1356.061277 706.036509 
L 1373.96502 701.633939 
L 1391.868763 728.049363 
L 1409.772507 776.47764 
" clip-path="url(#p66b07152c8)" style="fill: none; stroke-dasharray: 1.5,7.5; stroke-dashoffset: 0; stroke: #000000; stroke-width: 1.5"/>
   </g>
   <g id="line2d_65">
    <path d="M 1051.69764 760.628386 
L 1069.601384 757.986843 
L 1087.505127 759.747872 
L 1105.40887 750.062216 
L 1123.312614 751.823244 
L 1141.216357 751.823244 
L 1159.1201 748.301188 
L 1177.023844 748.301188 
L 1194.927587 743.898617 
L 1212.83133 741.257075 
L 1230.735074 739.496046 
L 1248.638817 741.257075 
L 1266.54256 735.093476 
L 1284.446303 737.735018 
L 1302.350047 727.168849 
L 1320.25379 728.929877 
L 1338.157533 742.137589 
L 1356.061277 716.602679 
L 1373.96502 696.350854 
L 1391.868763 710.43908 
L 1409.772507 771.194555 
" clip-path="url(#p66b07152c8)" style="fill: none; stroke-dasharray: 1.5,1.5; stroke-dashoffset: 0; stroke: #000000; stroke-width: 1.5"/>
   </g>
   <g id="line2d_66">
    <path d="M 1051.69764 760.628386 
L 1069.601384 757.986843 
L 1087.505127 757.106329 
L 1105.40887 749.181702 
L 1123.312614 750.94273 
L 1141.216357 742.137589 
L 1159.1201 737.735018 
L 1177.023844 746.54016 
L 1194.927587 735.97399 
L 1212.83133 742.137589 
L 1230.735074 733.332448 
L 1248.638817 730.690905 
L 1266.54256 730.690905 
L 1284.446303 730.690905 
L 1302.350047 743.898617 
L 1320.25379 729.810391 
L 1338.157533 728.049363 
L 1356.061277 713.961137 
L 1373.96502 692.828797 
L 1391.868763 744.779131 
L 1409.772507 795.848951 
" clip-path="url(#p66b07152c8)" style="fill: none; stroke-dasharray: 7.5,7.5; stroke-dashoffset: 0; stroke: #000000; stroke-width: 1.5"/>
   </g>
   <g id="line2d_67">
    <path d="M 1033.793897 760.628386 
L 1427.67625 760.628386 
" clip-path="url(#p66b07152c8)" style="fill: none; stroke: #000000; stroke-width: 1.5; stroke-linecap: square"/>
   </g>
   <g id="patch_32">
    <path d="M 1033.793897 809.419875 
L 1033.793897 456.619875 
" style="fill: none; stroke: #000000; stroke-width: 0.8; stroke-linejoin: miter; stroke-linecap: square"/>
   </g>
   <g id="patch_33">
    <path d="M 1427.67625 809.419875 
L 1427.67625 456.619875 
" style="fill: none; stroke: #000000; stroke-width: 0.8; stroke-linejoin: miter; stroke-linecap: square"/>
   </g>
   <g id="patch_34">
    <path d="M 1033.793897 809.419875 
L 1427.67625 809.419875 
" style="fill: none; stroke: #000000; stroke-width: 0.8; stroke-linejoin: miter; stroke-linecap: square"/>
   </g>
   <g id="patch_35">
    <path d="M 1033.793897 456.619875 
L 1427.67625 456.619875 
" style="fill: none; stroke: #000000; stroke-width: 0.8; stroke-linejoin: miter; stroke-linecap: square"/>
   </g>
   <g id="text_52">
    <!-- Mutation Operator -->
    <g transform="translate(1109.150699 450.619875) scale(0.264 -0.264)">
     <use xlink:href="#DejaVuSans-4d"/>
     <use xlink:href="#DejaVuSans-75" x="86.279297"/>
     <use xlink:href="#DejaVuSans-74" x="149.658203"/>
     <use xlink:href="#DejaVuSans-61" x="188.867188"/>
     <use xlink:href="#DejaVuSans-74" x="250.146484"/>
     <use xlink:href="#DejaVuSans-69" x="289.355469"/>
     <use xlink:href="#DejaVuSans-6f" x="317.138672"/>
     <use xlink:href="#DejaVuSans-6e" x="378.320312"/>
     <use xlink:href="#DejaVuSans-20" x="441.699219"/>
     <use xlink:href="#DejaVuSans-4f" x="473.486328"/>
     <use xlink:href="#DejaVuSans-70" x="552.197266"/>
     <use xlink:href="#DejaVuSans-65" x="615.673828"/>
     <use xlink:href="#DejaVuSans-72" x="677.197266"/>
     <use xlink:href="#DejaVuSans-61" x="718.310547"/>
     <use xlink:href="#DejaVuSans-74" x="779.589844"/>
     <use xlink:href="#DejaVuSans-6f" x="818.798828"/>
     <use xlink:href="#DejaVuSans-72" x="879.980469"/>
    </g>
   </g>
   <g id="legend_5">
    <g id="patch_36">
     <path d="M 1180.39625 603.387375 
L 1412.27625 603.387375 
Q 1416.67625 603.387375 1416.67625 598.987375 
L 1416.67625 472.019875 
Q 1416.67625 467.619875 1412.27625 467.619875 
L 1180.39625 467.619875 
Q 1175.99625 467.619875 1175.99625 472.019875 
L 1175.99625 598.987375 
Q 1175.99625 603.387375 1180.39625 603.387375 
z
" style="fill: #ffffff; opacity: 0.8; stroke: #cccccc; stroke-linejoin: miter"/>
    </g>
    <g id="line2d_68">
     <path d="M 1184.79625 485.436437 
L 1206.79625 485.436437 
L 1228.79625 485.436437 
" style="fill: none; stroke-dasharray: ; stroke-dashoffset: 0; stroke: #000000; stroke-width: 1.5"/>
    </g>
    <g id="text_53">
     <!-- 1(R+I) -->
     <g transform="translate(1246.39625 493.136437) scale(0.22 -0.22)">
      <defs>
       <path id="DejaVuSans-28" d="M 1984 4856 
Q 1566 4138 1362 3434 
Q 1159 2731 1159 2009 
Q 1159 1288 1364 580 
Q 1569 -128 1984 -844 
L 1484 -844 
Q 1016 -109 783 600 
Q 550 1309 550 2009 
Q 550 2706 781 3412 
Q 1013 4119 1484 4856 
L 1984 4856 
z
" transform="scale(0.015625)"/>
       <path id="DejaVuSans-52" d="M 2841 2188 
Q 3044 2119 3236 1894 
Q 3428 1669 3622 1275 
L 4263 0 
L 3584 0 
L 2988 1197 
Q 2756 1666 2539 1819 
Q 2322 1972 1947 1972 
L 1259 1972 
L 1259 0 
L 628 0 
L 628 4666 
L 2053 4666 
Q 2853 4666 3247 4331 
Q 3641 3997 3641 3322 
Q 3641 2881 3436 2590 
Q 3231 2300 2841 2188 
z
M 1259 4147 
L 1259 2491 
L 2053 2491 
Q 2509 2491 2742 2702 
Q 2975 2913 2975 3322 
Q 2975 3731 2742 3939 
Q 2509 4147 2053 4147 
L 1259 4147 
z
" transform="scale(0.015625)"/>
       <path id="DejaVuSans-2b" d="M 2944 4013 
L 2944 2272 
L 4684 2272 
L 4684 1741 
L 2944 1741 
L 2944 0 
L 2419 0 
L 2419 1741 
L 678 1741 
L 678 2272 
L 2419 2272 
L 2419 4013 
L 2944 4013 
z
" transform="scale(0.015625)"/>
       <path id="DejaVuSans-49" d="M 628 4666 
L 1259 4666 
L 1259 0 
L 628 0 
L 628 4666 
z
" transform="scale(0.015625)"/>
       <path id="DejaVuSans-29" d="M 513 4856 
L 1013 4856 
Q 1481 4119 1714 3412 
Q 1947 2706 1947 2009 
Q 1947 1309 1714 600 
Q 1481 -109 1013 -844 
L 513 -844 
Q 928 -128 1133 580 
Q 1338 1288 1338 2009 
Q 1338 2731 1133 3434 
Q 928 4138 513 4856 
z
" transform="scale(0.015625)"/>
      </defs>
      <use xlink:href="#DejaVuSans-31"/>
      <use xlink:href="#DejaVuSans-28" x="63.623047"/>
      <use xlink:href="#DejaVuSans-52" x="102.636719"/>
      <use xlink:href="#DejaVuSans-2b" x="172.119141"/>
      <use xlink:href="#DejaVuSans-49" x="255.908203"/>
      <use xlink:href="#DejaVuSans-29" x="285.400391"/>
     </g>
    </g>
    <g id="line2d_69">
     <path d="M 1184.79625 517.728312 
L 1206.79625 517.728312 
L 1228.79625 517.728312 
" style="fill: none; stroke-dasharray: 1.5,7.5; stroke-dashoffset: 0; stroke: #000000; stroke-width: 1.5"/>
    </g>
    <g id="text_54">
     <!-- X(R+I), $\lambda=0.1$ -->
     <g transform="translate(1246.39625 525.428312) scale(0.22 -0.22)">
      <defs>
       <path id="DejaVuSans-58" d="M 403 4666 
L 1081 4666 
L 2241 2931 
L 3406 4666 
L 4084 4666 
L 2584 2425 
L 4184 0 
L 3506 0 
L 2194 1984 
L 872 0 
L 191 0 
L 1856 2491 
L 403 4666 
z
" transform="scale(0.015625)"/>
       <path id="DejaVuSans-2c" d="M 750 794 
L 1409 794 
L 1409 256 
L 897 -744 
L 494 -744 
L 750 256 
L 750 794 
z
" transform="scale(0.015625)"/>
       <path id="DejaVuSans-Oblique-3bb" d="M 2350 4316 
L 3125 0 
L 2516 0 
L 2038 2588 
L 328 0 
L -281 0 
L 1903 3356 
L 1794 3975 
Q 1725 4369 1391 4369 
L 1091 4369 
L 1184 4863 
L 1550 4856 
Q 2253 4847 2350 4316 
z
" transform="scale(0.015625)"/>
       <path id="DejaVuSans-3d" d="M 678 2906 
L 4684 2906 
L 4684 2381 
L 678 2381 
L 678 2906 
z
M 678 1631 
L 4684 1631 
L 4684 1100 
L 678 1100 
L 678 1631 
z
" transform="scale(0.015625)"/>
      </defs>
      <use xlink:href="#DejaVuSans-58" transform="translate(0 0.015625)"/>
      <use xlink:href="#DejaVuSans-28" transform="translate(68.505859 0.015625)"/>
      <use xlink:href="#DejaVuSans-52" transform="translate(107.519531 0.015625)"/>
      <use xlink:href="#DejaVuSans-2b" transform="translate(177.001953 0.015625)"/>
      <use xlink:href="#DejaVuSans-49" transform="translate(260.791016 0.015625)"/>
      <use xlink:href="#DejaVuSans-29" transform="translate(290.283203 0.015625)"/>
      <use xlink:href="#DejaVuSans-2c" transform="translate(329.296875 0.015625)"/>
      <use xlink:href="#DejaVuSans-20" transform="translate(361.083984 0.015625)"/>
      <use xlink:href="#DejaVuSans-Oblique-3bb" transform="translate(392.871094 0.015625)"/>
      <use xlink:href="#DejaVuSans-3d" transform="translate(471.533203 0.015625)"/>
      <use xlink:href="#DejaVuSans-30" transform="translate(574.804688 0.015625)"/>
      <use xlink:href="#DejaVuSans-2e" transform="translate(638.427734 0.015625)"/>
      <use xlink:href="#DejaVuSans-31" transform="translate(670.214844 0.015625)"/>
     </g>
    </g>
    <g id="line2d_70">
     <path d="M 1184.79625 550.020187 
L 1206.79625 550.020187 
L 1228.79625 550.020187 
" style="fill: none; stroke-dasharray: 1.5,1.5; stroke-dashoffset: 0; stroke: #000000; stroke-width: 1.5"/>
    </g>
    <g id="text_55">
     <!-- X(R+I), $\lambda=1$ -->
     <g transform="translate(1246.39625 557.720187) scale(0.22 -0.22)">
      <use xlink:href="#DejaVuSans-58" transform="translate(0 0.015625)"/>
      <use xlink:href="#DejaVuSans-28" transform="translate(68.505859 0.015625)"/>
      <use xlink:href="#DejaVuSans-52" transform="translate(107.519531 0.015625)"/>
      <use xlink:href="#DejaVuSans-2b" transform="translate(177.001953 0.015625)"/>
      <use xlink:href="#DejaVuSans-49" transform="translate(260.791016 0.015625)"/>
      <use xlink:href="#DejaVuSans-29" transform="translate(290.283203 0.015625)"/>
      <use xlink:href="#DejaVuSans-2c" transform="translate(329.296875 0.015625)"/>
      <use xlink:href="#DejaVuSans-20" transform="translate(361.083984 0.015625)"/>
      <use xlink:href="#DejaVuSans-Oblique-3bb" transform="translate(392.871094 0.015625)"/>
      <use xlink:href="#DejaVuSans-3d" transform="translate(471.533203 0.015625)"/>
      <use xlink:href="#DejaVuSans-31" transform="translate(574.804688 0.015625)"/>
     </g>
    </g>
    <g id="line2d_71">
     <path d="M 1184.79625 582.312062 
L 1206.79625 582.312062 
L 1228.79625 582.312062 
" style="fill: none; stroke-dasharray: 7.5,7.5; stroke-dashoffset: 0; stroke: #000000; stroke-width: 1.5"/>
    </g>
    <g id="text_56">
     <!-- X(R+I), $\lambda=1.5$ -->
     <g transform="translate(1246.39625 590.012062) scale(0.22 -0.22)">
      <use xlink:href="#DejaVuSans-58" transform="translate(0 0.015625)"/>
      <use xlink:href="#DejaVuSans-28" transform="translate(68.505859 0.015625)"/>
      <use xlink:href="#DejaVuSans-52" transform="translate(107.519531 0.015625)"/>
      <use xlink:href="#DejaVuSans-2b" transform="translate(177.001953 0.015625)"/>
      <use xlink:href="#DejaVuSans-49" transform="translate(260.791016 0.015625)"/>
      <use xlink:href="#DejaVuSans-29" transform="translate(290.283203 0.015625)"/>
      <use xlink:href="#DejaVuSans-2c" transform="translate(329.296875 0.015625)"/>
      <use xlink:href="#DejaVuSans-20" transform="translate(361.083984 0.015625)"/>
      <use xlink:href="#DejaVuSans-Oblique-3bb" transform="translate(392.871094 0.015625)"/>
      <use xlink:href="#DejaVuSans-3d" transform="translate(471.533203 0.015625)"/>
      <use xlink:href="#DejaVuSans-31" transform="translate(574.804688 0.015625)"/>
      <use xlink:href="#DejaVuSans-2e" transform="translate(638.427734 0.015625)"/>
      <use xlink:href="#DejaVuSans-35" transform="translate(670.214844 0.015625)"/>
     </g>
    </g>
   </g>
  </g>
 </g>
 <defs>
  <clipPath id="p779f8b893a">
   <rect x="88.47625" y="33.259875" width="393.882353" height="352.8"/>
  </clipPath>
  <clipPath id="p15eb78744e">
   <rect x="561.135074" y="33.259875" width="393.882353" height="352.8"/>
  </clipPath>
  <clipPath id="p857a4965a0">
   <rect x="1033.793897" y="33.259875" width="393.882353" height="352.8"/>
  </clipPath>
  <clipPath id="pd1b6f7a672">
   <rect x="88.47625" y="456.619875" width="393.882353" height="352.8"/>
  </clipPath>
  <clipPath id="pd9d6d0fb97">
   <rect x="561.135074" y="456.619875" width="393.882353" height="352.8"/>
  </clipPath>
  <clipPath id="p66b07152c8">
   <rect x="1033.793897" y="456.619875" width="393.882353" height="352.8"/>
  </clipPath>
 </defs>
</svg>
