<?xml version="1.0" encoding="utf-8" standalone="no"?>
<!DOCTYPE svg PUBLIC "-//W3C//DTD SVG 1.1//EN"
  "http://www.w3.org/Graphics/SVG/1.1/DTD/svg11.dtd">
<svg xmlns:xlink="http://www.w3.org/1999/xlink" width="1769.67625pt" height="759.323625pt" viewBox="0 0 1769.67625 759.323625" xmlns="http://www.w3.org/2000/svg" version="1.1">
 <metadata>
  <rdf:RDF xmlns:dc="http://purl.org/dc/elements/1.1/" xmlns:cc="http://creativecommons.org/ns#" xmlns:rdf="http://www.w3.org/1999/02/22-rdf-syntax-ns#">
   <cc:Work>
    <dc:type rdf:resource="http://purl.org/dc/dcmitype/StillImage"/>
    <dc:date>2025-01-16T16:26:53.880890</dc:date>
    <dc:format>image/svg+xml</dc:format>
    <dc:creator>
     <cc:Agent>
      <dc:title>Matplotlib v3.6.3, https://matplotlib.org/</dc:title>
     </cc:Agent>
    </dc:creator>
   </cc:Work>
  </rdf:RDF>
 </metadata>
 <defs>
  <style type="text/css">*{stroke-linejoin: round; stroke-linecap: butt}</style>
 </defs>
 <g id="figure_1">
  <g id="patch_1">
   <path d="M 0 759.323625 
L 1769.67625 759.323625 
L 1769.67625 0 
L 0 0 
z
" style="fill: #ffffff"/>
  </g>
  <g id="axes_1">
   <g id="patch_2">
    <path d="M 88.47625 335.659875 
L 580.829191 335.659875 
L 580.829191 33.259875 
L 88.47625 33.259875 
z
" style="fill: #ffffff"/>
   </g>
   <g id="matplotlib.axis_1"/>
   <g id="matplotlib.axis_2">
    <g id="ytick_1">
     <g id="line2d_1">
      <defs>
       <path id="md97bcb5eb2" d="M 0 0 
L -3.5 0 
" style="stroke: #000000; stroke-width: 0.8"/>
      </defs>
      <g>
       <use xlink:href="#md97bcb5eb2" x="88.47625" y="293.838598" style="stroke: #000000; stroke-width: 0.8"/>
      </g>
     </g>
     <g id="text_1">
      <!-- 0.00 -->
      <g transform="translate(32.491875 302.19688) scale(0.22 -0.22)">
       <defs>
        <path id="DejaVuSans-30" d="M 2034 4250 
Q 1547 4250 1301 3770 
Q 1056 3291 1056 2328 
Q 1056 1369 1301 889 
Q 1547 409 2034 409 
Q 2525 409 2770 889 
Q 3016 1369 3016 2328 
Q 3016 3291 2770 3770 
Q 2525 4250 2034 4250 
z
M 2034 4750 
Q 2819 4750 3233 4129 
Q 3647 3509 3647 2328 
Q 3647 1150 3233 529 
Q 2819 -91 2034 -91 
Q 1250 -91 836 529 
Q 422 1150 422 2328 
Q 422 3509 836 4129 
Q 1250 4750 2034 4750 
z
" transform="scale(0.015625)"/>
        <path id="DejaVuSans-2e" d="M 684 794 
L 1344 794 
L 1344 0 
L 684 0 
L 684 794 
z
" transform="scale(0.015625)"/>
       </defs>
       <use xlink:href="#DejaVuSans-30"/>
       <use xlink:href="#DejaVuSans-2e" x="63.623047"/>
       <use xlink:href="#DejaVuSans-30" x="95.410156"/>
       <use xlink:href="#DejaVuSans-30" x="159.033203"/>
      </g>
     </g>
    </g>
    <g id="ytick_2">
     <g id="line2d_2">
      <g>
       <use xlink:href="#md97bcb5eb2" x="88.47625" y="223.649043" style="stroke: #000000; stroke-width: 0.8"/>
      </g>
     </g>
     <g id="text_2">
      <!-- 0.02 -->
      <g transform="translate(32.491875 232.007325) scale(0.22 -0.22)">
       <defs>
        <path id="DejaVuSans-32" d="M 1228 531 
L 3431 531 
L 3431 0 
L 469 0 
L 469 531 
Q 828 903 1448 1529 
Q 2069 2156 2228 2338 
Q 2531 2678 2651 2914 
Q 2772 3150 2772 3378 
Q 2772 3750 2511 3984 
Q 2250 4219 1831 4219 
Q 1534 4219 1204 4116 
Q 875 4013 500 3803 
L 500 4441 
Q 881 4594 1212 4672 
Q 1544 4750 1819 4750 
Q 2544 4750 2975 4387 
Q 3406 4025 3406 3419 
Q 3406 3131 3298 2873 
Q 3191 2616 2906 2266 
Q 2828 2175 2409 1742 
Q 1991 1309 1228 531 
z
" transform="scale(0.015625)"/>
       </defs>
       <use xlink:href="#DejaVuSans-30"/>
       <use xlink:href="#DejaVuSans-2e" x="63.623047"/>
       <use xlink:href="#DejaVuSans-30" x="95.410156"/>
       <use xlink:href="#DejaVuSans-32" x="159.033203"/>
      </g>
     </g>
    </g>
    <g id="ytick_3">
     <g id="line2d_3">
      <g>
       <use xlink:href="#md97bcb5eb2" x="88.47625" y="153.459488" style="stroke: #000000; stroke-width: 0.8"/>
      </g>
     </g>
     <g id="text_3">
      <!-- 0.04 -->
      <g transform="translate(32.491875 161.817769) scale(0.22 -0.22)">
       <defs>
        <path id="DejaVuSans-34" d="M 2419 4116 
L 825 1625 
L 2419 1625 
L 2419 4116 
z
M 2253 4666 
L 3047 4666 
L 3047 1625 
L 3713 1625 
L 3713 1100 
L 3047 1100 
L 3047 0 
L 2419 0 
L 2419 1100 
L 313 1100 
L 313 1709 
L 2253 4666 
z
" transform="scale(0.015625)"/>
       </defs>
       <use xlink:href="#DejaVuSans-30"/>
       <use xlink:href="#DejaVuSans-2e" x="63.623047"/>
       <use xlink:href="#DejaVuSans-30" x="95.410156"/>
       <use xlink:href="#DejaVuSans-34" x="159.033203"/>
      </g>
     </g>
    </g>
    <g id="ytick_4">
     <g id="line2d_4">
      <g>
       <use xlink:href="#md97bcb5eb2" x="88.47625" y="83.269933" style="stroke: #000000; stroke-width: 0.8"/>
      </g>
     </g>
     <g id="text_4">
      <!-- 0.06 -->
      <g transform="translate(32.491875 91.628214) scale(0.22 -0.22)">
       <defs>
        <path id="DejaVuSans-36" d="M 2113 2584 
Q 1688 2584 1439 2293 
Q 1191 2003 1191 1497 
Q 1191 994 1439 701 
Q 1688 409 2113 409 
Q 2538 409 2786 701 
Q 3034 994 3034 1497 
Q 3034 2003 2786 2293 
Q 2538 2584 2113 2584 
z
M 3366 4563 
L 3366 3988 
Q 3128 4100 2886 4159 
Q 2644 4219 2406 4219 
Q 1781 4219 1451 3797 
Q 1122 3375 1075 2522 
Q 1259 2794 1537 2939 
Q 1816 3084 2150 3084 
Q 2853 3084 3261 2657 
Q 3669 2231 3669 1497 
Q 3669 778 3244 343 
Q 2819 -91 2113 -91 
Q 1303 -91 875 529 
Q 447 1150 447 2328 
Q 447 3434 972 4092 
Q 1497 4750 2381 4750 
Q 2619 4750 2861 4703 
Q 3103 4656 3366 4563 
z
" transform="scale(0.015625)"/>
       </defs>
       <use xlink:href="#DejaVuSans-30"/>
       <use xlink:href="#DejaVuSans-2e" x="63.623047"/>
       <use xlink:href="#DejaVuSans-30" x="95.410156"/>
       <use xlink:href="#DejaVuSans-36" x="159.033203"/>
      </g>
     </g>
    </g>
    <g id="text_5">
     <!-- Count -->
     <g transform="translate(23.916563 217.126438) rotate(-90) scale(0.22 -0.22)">
      <defs>
       <path id="DejaVuSans-43" d="M 4122 4306 
L 4122 3641 
Q 3803 3938 3442 4084 
Q 3081 4231 2675 4231 
Q 1875 4231 1450 3742 
Q 1025 3253 1025 2328 
Q 1025 1406 1450 917 
Q 1875 428 2675 428 
Q 3081 428 3442 575 
Q 3803 722 4122 1019 
L 4122 359 
Q 3791 134 3420 21 
Q 3050 -91 2638 -91 
Q 1578 -91 968 557 
Q 359 1206 359 2328 
Q 359 3453 968 4101 
Q 1578 4750 2638 4750 
Q 3056 4750 3426 4639 
Q 3797 4528 4122 4306 
z
" transform="scale(0.015625)"/>
       <path id="DejaVuSans-6f" d="M 1959 3097 
Q 1497 3097 1228 2736 
Q 959 2375 959 1747 
Q 959 1119 1226 758 
Q 1494 397 1959 397 
Q 2419 397 2687 759 
Q 2956 1122 2956 1747 
Q 2956 2369 2687 2733 
Q 2419 3097 1959 3097 
z
M 1959 3584 
Q 2709 3584 3137 3096 
Q 3566 2609 3566 1747 
Q 3566 888 3137 398 
Q 2709 -91 1959 -91 
Q 1206 -91 779 398 
Q 353 888 353 1747 
Q 353 2609 779 3096 
Q 1206 3584 1959 3584 
z
" transform="scale(0.015625)"/>
       <path id="DejaVuSans-75" d="M 544 1381 
L 544 3500 
L 1119 3500 
L 1119 1403 
Q 1119 906 1312 657 
Q 1506 409 1894 409 
Q 2359 409 2629 706 
Q 2900 1003 2900 1516 
L 2900 3500 
L 3475 3500 
L 3475 0 
L 2900 0 
L 2900 538 
Q 2691 219 2414 64 
Q 2138 -91 1772 -91 
Q 1169 -91 856 284 
Q 544 659 544 1381 
z
M 1991 3584 
L 1991 3584 
z
" transform="scale(0.015625)"/>
       <path id="DejaVuSans-6e" d="M 3513 2113 
L 3513 0 
L 2938 0 
L 2938 2094 
Q 2938 2591 2744 2837 
Q 2550 3084 2163 3084 
Q 1697 3084 1428 2787 
Q 1159 2491 1159 1978 
L 1159 0 
L 581 0 
L 581 3500 
L 1159 3500 
L 1159 2956 
Q 1366 3272 1645 3428 
Q 1925 3584 2291 3584 
Q 2894 3584 3203 3211 
Q 3513 2838 3513 2113 
z
" transform="scale(0.015625)"/>
       <path id="DejaVuSans-74" d="M 1172 4494 
L 1172 3500 
L 2356 3500 
L 2356 3053 
L 1172 3053 
L 1172 1153 
Q 1172 725 1289 603 
Q 1406 481 1766 481 
L 2356 481 
L 2356 0 
L 1766 0 
Q 1100 0 847 248 
Q 594 497 594 1153 
L 594 3053 
L 172 3053 
L 172 3500 
L 594 3500 
L 594 4494 
L 1172 4494 
z
" transform="scale(0.015625)"/>
      </defs>
      <use xlink:href="#DejaVuSans-43"/>
      <use xlink:href="#DejaVuSans-6f" x="69.824219"/>
      <use xlink:href="#DejaVuSans-75" x="131.005859"/>
      <use xlink:href="#DejaVuSans-6e" x="194.384766"/>
      <use xlink:href="#DejaVuSans-74" x="257.763672"/>
     </g>
    </g>
   </g>
   <g id="line2d_5">
    <path d="M 110.855929 293.838598 
L 133.235608 292.706509 
L 155.615287 292.706509 
L 177.994967 284.781882 
L 200.374646 287.800787 
L 222.754325 285.913971 
L 245.134004 282.329021 
L 267.513683 284.970563 
L 289.893362 277.989344 
L 312.273041 279.121434 
L 334.652721 274.404394 
L 357.0324 271.196806 
L 379.412079 262.894816 
L 401.791758 259.687229 
L 424.171437 259.687229 
L 446.551116 253.272054 
L 468.930795 248.177651 
L 491.310475 252.328646 
L 513.690154 237.234118 
L 536.069833 258.177776 
L 558.449512 301.763226 
" clip-path="url(#p0773be1ece)" style="fill: none; stroke-dasharray: ; stroke-dashoffset: 0; stroke: #000000; stroke-width: 1.5"/>
   </g>
   <g id="line2d_6">
    <path d="M 88.47625 293.838598 
L 580.829191 293.838598 
" clip-path="url(#p0773be1ece)" style="fill: none; stroke: #000000; stroke-width: 1.5; stroke-linecap: square"/>
   </g>
   <g id="patch_3">
    <path d="M 88.47625 335.659875 
L 88.47625 33.259875 
" style="fill: none; stroke: #000000; stroke-width: 0.8; stroke-linejoin: miter; stroke-linecap: square"/>
   </g>
   <g id="patch_4">
    <path d="M 580.829191 335.659875 
L 580.829191 33.259875 
" style="fill: none; stroke: #000000; stroke-width: 0.8; stroke-linejoin: miter; stroke-linecap: square"/>
   </g>
   <g id="patch_5">
    <path d="M 88.47625 335.659875 
L 580.829191 335.659875 
" style="fill: none; stroke: #000000; stroke-width: 0.8; stroke-linejoin: miter; stroke-linecap: square"/>
   </g>
   <g id="patch_6">
    <path d="M 88.47625 33.259875 
L 580.829191 33.259875 
" style="fill: none; stroke: #000000; stroke-width: 0.8; stroke-linejoin: miter; stroke-linecap: square"/>
   </g>
   <g id="text_6">
    <!-- Overall -->
    <g transform="translate(287.477158 27.259875) scale(0.264 -0.264)">
     <defs>
      <path id="DejaVuSans-4f" d="M 2522 4238 
Q 1834 4238 1429 3725 
Q 1025 3213 1025 2328 
Q 1025 1447 1429 934 
Q 1834 422 2522 422 
Q 3209 422 3611 934 
Q 4013 1447 4013 2328 
Q 4013 3213 3611 3725 
Q 3209 4238 2522 4238 
z
M 2522 4750 
Q 3503 4750 4090 4092 
Q 4678 3434 4678 2328 
Q 4678 1225 4090 567 
Q 3503 -91 2522 -91 
Q 1538 -91 948 565 
Q 359 1222 359 2328 
Q 359 3434 948 4092 
Q 1538 4750 2522 4750 
z
" transform="scale(0.015625)"/>
      <path id="DejaVuSans-76" d="M 191 3500 
L 800 3500 
L 1894 563 
L 2988 3500 
L 3597 3500 
L 2284 0 
L 1503 0 
L 191 3500 
z
" transform="scale(0.015625)"/>
      <path id="DejaVuSans-65" d="M 3597 1894 
L 3597 1613 
L 953 1613 
Q 991 1019 1311 708 
Q 1631 397 2203 397 
Q 2534 397 2845 478 
Q 3156 559 3463 722 
L 3463 178 
Q 3153 47 2828 -22 
Q 2503 -91 2169 -91 
Q 1331 -91 842 396 
Q 353 884 353 1716 
Q 353 2575 817 3079 
Q 1281 3584 2069 3584 
Q 2775 3584 3186 3129 
Q 3597 2675 3597 1894 
z
M 3022 2063 
Q 3016 2534 2758 2815 
Q 2500 3097 2075 3097 
Q 1594 3097 1305 2825 
Q 1016 2553 972 2059 
L 3022 2063 
z
" transform="scale(0.015625)"/>
      <path id="DejaVuSans-72" d="M 2631 2963 
Q 2534 3019 2420 3045 
Q 2306 3072 2169 3072 
Q 1681 3072 1420 2755 
Q 1159 2438 1159 1844 
L 1159 0 
L 581 0 
L 581 3500 
L 1159 3500 
L 1159 2956 
Q 1341 3275 1631 3429 
Q 1922 3584 2338 3584 
Q 2397 3584 2469 3576 
Q 2541 3569 2628 3553 
L 2631 2963 
z
" transform="scale(0.015625)"/>
      <path id="DejaVuSans-61" d="M 2194 1759 
Q 1497 1759 1228 1600 
Q 959 1441 959 1056 
Q 959 750 1161 570 
Q 1363 391 1709 391 
Q 2188 391 2477 730 
Q 2766 1069 2766 1631 
L 2766 1759 
L 2194 1759 
z
M 3341 1997 
L 3341 0 
L 2766 0 
L 2766 531 
Q 2569 213 2275 61 
Q 1981 -91 1556 -91 
Q 1019 -91 701 211 
Q 384 513 384 1019 
Q 384 1609 779 1909 
Q 1175 2209 1959 2209 
L 2766 2209 
L 2766 2266 
Q 2766 2663 2505 2880 
Q 2244 3097 1772 3097 
Q 1472 3097 1187 3025 
Q 903 2953 641 2809 
L 641 3341 
Q 956 3463 1253 3523 
Q 1550 3584 1831 3584 
Q 2591 3584 2966 3190 
Q 3341 2797 3341 1997 
z
" transform="scale(0.015625)"/>
      <path id="DejaVuSans-6c" d="M 603 4863 
L 1178 4863 
L 1178 0 
L 603 0 
L 603 4863 
z
" transform="scale(0.015625)"/>
     </defs>
     <use xlink:href="#DejaVuSans-4f"/>
     <use xlink:href="#DejaVuSans-76" x="78.710938"/>
     <use xlink:href="#DejaVuSans-65" x="137.890625"/>
     <use xlink:href="#DejaVuSans-72" x="199.414062"/>
     <use xlink:href="#DejaVuSans-61" x="240.527344"/>
     <use xlink:href="#DejaVuSans-6c" x="301.806641"/>
     <use xlink:href="#DejaVuSans-6c" x="329.589844"/>
    </g>
   </g>
  </g>
  <g id="axes_2">
   <g id="patch_7">
    <path d="M 679.299779 335.659875 
L 1171.652721 335.659875 
L 1171.652721 33.259875 
L 679.299779 33.259875 
z
" style="fill: #ffffff"/>
   </g>
   <g id="matplotlib.axis_3"/>
   <g id="matplotlib.axis_4"/>
   <g id="line2d_7">
    <path d="M 701.679459 293.838598 
L 724.059138 293.838598 
L 746.438817 293.838598 
L 768.818496 293.838598 
L 791.198175 293.838598 
L 813.577854 293.838598 
L 835.957533 293.838598 
L 858.337213 293.838598 
L 880.716892 293.838598 
L 903.096571 293.838598 
L 925.47625 293.838598 
L 947.855929 293.838598 
L 970.235608 293.838598 
L 992.615287 293.838598 
L 1014.994967 293.838598 
L 1037.374646 293.838598 
L 1059.754325 293.838598 
L 1082.134004 293.838598 
L 1104.513683 293.838598 
L 1126.893362 293.838598 
L 1149.273041 293.838598 
" clip-path="url(#p128bcadb7a)" style="fill: none; stroke-dasharray: ; stroke-dashoffset: 0; stroke: #000000; stroke-width: 1.5"/>
   </g>
   <g id="line2d_8">
    <path d="M 701.679459 293.838598 
L 724.059138 293.838598 
L 746.438817 293.838598 
L 768.818496 275.706297 
L 791.198175 283.310165 
L 813.577854 280.3856 
L 835.957533 271.026993 
L 858.337213 271.026993 
L 880.716892 249.385213 
L 903.096571 266.932602 
L 925.47625 259.913647 
L 947.855929 254.64943 
L 970.235608 244.70591 
L 992.615287 237.686954 
L 1014.994967 255.234343 
L 1037.374646 249.385213 
L 1059.754325 262.838212 
L 1082.134004 247.630475 
L 1104.513683 225.403782 
L 1126.893362 254.64943 
L 1149.273041 300.857554 
" clip-path="url(#p128bcadb7a)" style="fill: none; stroke-dasharray: 1.5,7.5; stroke-dashoffset: 0; stroke: #000000; stroke-width: 1.5"/>
   </g>
   <g id="line2d_9">
    <path d="M 701.679459 293.838598 
L 724.059138 290.914034 
L 746.438817 288.964324 
L 768.818496 281.165484 
L 791.198175 287.989469 
L 813.577854 278.240919 
L 835.957533 274.3415 
L 858.337213 286.039759 
L 880.716892 284.090049 
L 903.096571 263.618096 
L 925.47625 259.718676 
L 947.855929 256.794111 
L 970.235608 225.598753 
L 992.615287 231.447883 
L 1014.994967 208.051364 
L 1037.374646 197.32796 
L 1059.754325 182.705136 
L 1082.134004 210.001074 
L 1104.513683 194.403395 
L 1126.893362 200.252525 
L 1149.273041 329.908231 
" clip-path="url(#p128bcadb7a)" style="fill: none; stroke-dasharray: 1.5,1.5; stroke-dashoffset: 0; stroke: #000000; stroke-width: 1.5"/>
   </g>
   <g id="line2d_10">
    <path d="M 701.679459 293.838598 
L 724.059138 285.064904 
L 746.438817 290.914034 
L 768.818496 282.140339 
L 791.198175 270.44208 
L 813.577854 285.064904 
L 835.957533 287.989469 
L 858.337213 293.838598 
L 880.716892 299.687728 
L 903.096571 290.914034 
L 925.47625 264.59295 
L 947.855929 249.970126 
L 970.235608 264.59295 
L 992.615287 232.422738 
L 1014.994967 214.875349 
L 1037.374646 176.856007 
L 1059.754325 74.496239 
L 1082.134004 132.987535 
L 1104.513683 56.94885 
L 1126.893362 217.799914 
L 1149.273041 273.366645 
" clip-path="url(#p128bcadb7a)" style="fill: none; stroke-dasharray: 7.5,7.5; stroke-dashoffset: 0; stroke: #000000; stroke-width: 1.5"/>
   </g>
   <g id="line2d_11">
    <path d="M 679.299779 293.838598 
L 1171.652721 293.838598 
" clip-path="url(#p128bcadb7a)" style="fill: none; stroke: #000000; stroke-width: 1.5; stroke-linecap: square"/>
   </g>
   <g id="patch_8">
    <path d="M 679.299779 335.659875 
L 679.299779 33.259875 
" style="fill: none; stroke: #000000; stroke-width: 0.8; stroke-linejoin: miter; stroke-linecap: square"/>
   </g>
   <g id="patch_9">
    <path d="M 1171.652721 335.659875 
L 1171.652721 33.259875 
" style="fill: none; stroke: #000000; stroke-width: 0.8; stroke-linejoin: miter; stroke-linecap: square"/>
   </g>
   <g id="patch_10">
    <path d="M 679.299779 335.659875 
L 1171.652721 335.659875 
" style="fill: none; stroke: #000000; stroke-width: 0.8; stroke-linejoin: miter; stroke-linecap: square"/>
   </g>
   <g id="patch_11">
    <path d="M 679.299779 33.259875 
L 1171.652721 33.259875 
" style="fill: none; stroke: #000000; stroke-width: 0.8; stroke-linejoin: miter; stroke-linecap: square"/>
   </g>
   <g id="text_7">
    <!-- Population Size -->
    <g transform="translate(824.840688 27.259875) scale(0.264 -0.264)">
     <defs>
      <path id="DejaVuSans-50" d="M 1259 4147 
L 1259 2394 
L 2053 2394 
Q 2494 2394 2734 2622 
Q 2975 2850 2975 3272 
Q 2975 3691 2734 3919 
Q 2494 4147 2053 4147 
L 1259 4147 
z
M 628 4666 
L 2053 4666 
Q 2838 4666 3239 4311 
Q 3641 3956 3641 3272 
Q 3641 2581 3239 2228 
Q 2838 1875 2053 1875 
L 1259 1875 
L 1259 0 
L 628 0 
L 628 4666 
z
" transform="scale(0.015625)"/>
      <path id="DejaVuSans-70" d="M 1159 525 
L 1159 -1331 
L 581 -1331 
L 581 3500 
L 1159 3500 
L 1159 2969 
Q 1341 3281 1617 3432 
Q 1894 3584 2278 3584 
Q 2916 3584 3314 3078 
Q 3713 2572 3713 1747 
Q 3713 922 3314 415 
Q 2916 -91 2278 -91 
Q 1894 -91 1617 61 
Q 1341 213 1159 525 
z
M 3116 1747 
Q 3116 2381 2855 2742 
Q 2594 3103 2138 3103 
Q 1681 3103 1420 2742 
Q 1159 2381 1159 1747 
Q 1159 1113 1420 752 
Q 1681 391 2138 391 
Q 2594 391 2855 752 
Q 3116 1113 3116 1747 
z
" transform="scale(0.015625)"/>
      <path id="DejaVuSans-69" d="M 603 3500 
L 1178 3500 
L 1178 0 
L 603 0 
L 603 3500 
z
M 603 4863 
L 1178 4863 
L 1178 4134 
L 603 4134 
L 603 4863 
z
" transform="scale(0.015625)"/>
      <path id="DejaVuSans-20" transform="scale(0.015625)"/>
      <path id="DejaVuSans-53" d="M 3425 4513 
L 3425 3897 
Q 3066 4069 2747 4153 
Q 2428 4238 2131 4238 
Q 1616 4238 1336 4038 
Q 1056 3838 1056 3469 
Q 1056 3159 1242 3001 
Q 1428 2844 1947 2747 
L 2328 2669 
Q 3034 2534 3370 2195 
Q 3706 1856 3706 1288 
Q 3706 609 3251 259 
Q 2797 -91 1919 -91 
Q 1588 -91 1214 -16 
Q 841 59 441 206 
L 441 856 
Q 825 641 1194 531 
Q 1563 422 1919 422 
Q 2459 422 2753 634 
Q 3047 847 3047 1241 
Q 3047 1584 2836 1778 
Q 2625 1972 2144 2069 
L 1759 2144 
Q 1053 2284 737 2584 
Q 422 2884 422 3419 
Q 422 4038 858 4394 
Q 1294 4750 2059 4750 
Q 2388 4750 2728 4690 
Q 3069 4631 3425 4513 
z
" transform="scale(0.015625)"/>
      <path id="DejaVuSans-7a" d="M 353 3500 
L 3084 3500 
L 3084 2975 
L 922 459 
L 3084 459 
L 3084 0 
L 275 0 
L 275 525 
L 2438 3041 
L 353 3041 
L 353 3500 
z
" transform="scale(0.015625)"/>
     </defs>
     <use xlink:href="#DejaVuSans-50"/>
     <use xlink:href="#DejaVuSans-6f" x="56.677734"/>
     <use xlink:href="#DejaVuSans-70" x="117.859375"/>
     <use xlink:href="#DejaVuSans-75" x="181.335938"/>
     <use xlink:href="#DejaVuSans-6c" x="244.714844"/>
     <use xlink:href="#DejaVuSans-61" x="272.498047"/>
     <use xlink:href="#DejaVuSans-74" x="333.777344"/>
     <use xlink:href="#DejaVuSans-69" x="372.986328"/>
     <use xlink:href="#DejaVuSans-6f" x="400.769531"/>
     <use xlink:href="#DejaVuSans-6e" x="461.951172"/>
     <use xlink:href="#DejaVuSans-20" x="525.330078"/>
     <use xlink:href="#DejaVuSans-53" x="557.117188"/>
     <use xlink:href="#DejaVuSans-69" x="620.59375"/>
     <use xlink:href="#DejaVuSans-7a" x="648.376953"/>
     <use xlink:href="#DejaVuSans-65" x="700.867188"/>
    </g>
   </g>
   <g id="legend_1">
    <g id="patch_12">
     <path d="M 694.699779 180.027375 
L 793.094779 180.027375 
Q 797.494779 180.027375 797.494779 175.627375 
L 797.494779 48.659875 
Q 797.494779 44.259875 793.094779 44.259875 
L 694.699779 44.259875 
Q 690.299779 44.259875 690.299779 48.659875 
L 690.299779 175.627375 
Q 690.299779 180.027375 694.699779 180.027375 
z
" style="fill: #ffffff; opacity: 0.8; stroke: #cccccc; stroke-linejoin: miter"/>
    </g>
    <g id="line2d_12">
     <path d="M 699.099779 62.076438 
L 721.099779 62.076438 
L 743.099779 62.076438 
" style="fill: none; stroke-dasharray: ; stroke-dashoffset: 0; stroke: #000000; stroke-width: 1.5"/>
    </g>
    <g id="text_8">
     <!-- 2 -->
     <g transform="translate(760.699779 69.776438) scale(0.22 -0.22)">
      <use xlink:href="#DejaVuSans-32"/>
     </g>
    </g>
    <g id="line2d_13">
     <path d="M 699.099779 94.368313 
L 721.099779 94.368313 
L 743.099779 94.368313 
" style="fill: none; stroke-dasharray: 1.5,7.5; stroke-dashoffset: 0; stroke: #000000; stroke-width: 1.5"/>
    </g>
    <g id="text_9">
     <!-- 5 -->
     <g transform="translate(760.699779 102.068313) scale(0.22 -0.22)">
      <defs>
       <path id="DejaVuSans-35" d="M 691 4666 
L 3169 4666 
L 3169 4134 
L 1269 4134 
L 1269 2991 
Q 1406 3038 1543 3061 
Q 1681 3084 1819 3084 
Q 2600 3084 3056 2656 
Q 3513 2228 3513 1497 
Q 3513 744 3044 326 
Q 2575 -91 1722 -91 
Q 1428 -91 1123 -41 
Q 819 9 494 109 
L 494 744 
Q 775 591 1075 516 
Q 1375 441 1709 441 
Q 2250 441 2565 725 
Q 2881 1009 2881 1497 
Q 2881 1984 2565 2268 
Q 2250 2553 1709 2553 
Q 1456 2553 1204 2497 
Q 953 2441 691 2322 
L 691 4666 
z
" transform="scale(0.015625)"/>
      </defs>
      <use xlink:href="#DejaVuSans-35"/>
     </g>
    </g>
    <g id="line2d_14">
     <path d="M 699.099779 126.660188 
L 721.099779 126.660188 
L 743.099779 126.660188 
" style="fill: none; stroke-dasharray: 1.5,1.5; stroke-dashoffset: 0; stroke: #000000; stroke-width: 1.5"/>
    </g>
    <g id="text_10">
     <!-- 10 -->
     <g transform="translate(760.699779 134.360188) scale(0.22 -0.22)">
      <defs>
       <path id="DejaVuSans-31" d="M 794 531 
L 1825 531 
L 1825 4091 
L 703 3866 
L 703 4441 
L 1819 4666 
L 2450 4666 
L 2450 531 
L 3481 531 
L 3481 0 
L 794 0 
L 794 531 
z
" transform="scale(0.015625)"/>
      </defs>
      <use xlink:href="#DejaVuSans-31"/>
      <use xlink:href="#DejaVuSans-30" x="63.623047"/>
     </g>
    </g>
    <g id="line2d_15">
     <path d="M 699.099779 158.952063 
L 721.099779 158.952063 
L 743.099779 158.952063 
" style="fill: none; stroke-dasharray: 7.5,7.5; stroke-dashoffset: 0; stroke: #000000; stroke-width: 1.5"/>
    </g>
    <g id="text_11">
     <!-- 25 -->
     <g transform="translate(760.699779 166.652063) scale(0.22 -0.22)">
      <use xlink:href="#DejaVuSans-32"/>
      <use xlink:href="#DejaVuSans-35" x="63.623047"/>
     </g>
    </g>
   </g>
  </g>
  <g id="axes_3">
   <g id="patch_13">
    <path d="M 1270.123309 335.659875 
L 1762.47625 335.659875 
L 1762.47625 33.259875 
L 1270.123309 33.259875 
z
" style="fill: #ffffff"/>
   </g>
   <g id="matplotlib.axis_5"/>
   <g id="matplotlib.axis_6"/>
   <g id="line2d_16">
    <path d="M 1292.502988 293.838598 
L 1314.882667 293.838598 
L 1337.262346 293.838598 
L 1359.642025 223.649043 
L 1382.021705 252.894691 
L 1404.401384 252.894691 
L 1426.781063 232.422738 
L 1449.160742 220.724478 
L 1471.540421 138.836664 
L 1493.9201 203.17709 
L 1516.299779 214.875349 
L 1538.679459 188.554266 
L 1561.059138 185.629701 
L 1583.438817 191.478831 
L 1605.818496 220.724478 
L 1628.198175 217.799914 
L 1650.577854 206.101654 
L 1672.957533 226.573608 
L 1695.337213 159.308618 
L 1717.716892 171.006877 
L 1740.096571 285.064904 
" clip-path="url(#p39e1fc5308)" style="fill: none; stroke-dasharray: ; stroke-dashoffset: 0; stroke: #000000; stroke-width: 1.5"/>
   </g>
   <g id="line2d_17">
    <path d="M 1292.502988 293.838598 
L 1314.882667 293.838598 
L 1337.262346 293.838598 
L 1359.642025 279.800687 
L 1382.021705 290.329121 
L 1404.401384 282.140339 
L 1426.781063 271.611906 
L 1449.160742 284.479991 
L 1471.540421 273.951558 
L 1493.9201 280.970513 
L 1516.299779 269.272254 
L 1538.679459 272.781732 
L 1561.059138 240.026606 
L 1583.438817 242.366258 
L 1605.818496 244.70591 
L 1628.198175 237.686954 
L 1650.577854 228.328347 
L 1672.957533 227.158521 
L 1695.337213 237.686954 
L 1717.716892 216.630088 
L 1740.096571 309.046335 
" clip-path="url(#p39e1fc5308)" style="fill: none; stroke-dasharray: 1.5,7.5; stroke-dashoffset: 0; stroke: #000000; stroke-width: 1.5"/>
   </g>
   <g id="line2d_18">
    <path d="M 1292.502988 293.838598 
L 1314.882667 290.914034 
L 1337.262346 289.939179 
L 1359.642025 286.039759 
L 1382.021705 287.014614 
L 1404.401384 286.039759 
L 1426.781063 280.190629 
L 1449.160742 287.014614 
L 1471.540421 286.039759 
L 1493.9201 286.039759 
L 1516.299779 272.39179 
L 1538.679459 272.39179 
L 1561.059138 270.44208 
L 1583.438817 265.567805 
L 1605.818496 267.517515 
L 1628.198175 259.718676 
L 1650.577854 263.618096 
L 1672.957533 242.171287 
L 1695.337213 245.095852 
L 1717.716892 268.49237 
L 1740.096571 265.567805 
" clip-path="url(#p39e1fc5308)" style="fill: none; stroke-dasharray: 1.5,1.5; stroke-dashoffset: 0; stroke: #000000; stroke-width: 1.5"/>
   </g>
   <g id="line2d_19">
    <path d="M 1292.502988 293.838598 
L 1314.882667 293.107457 
L 1337.262346 293.107457 
L 1359.642025 290.914034 
L 1382.021705 287.989469 
L 1404.401384 287.258328 
L 1426.781063 290.182892 
L 1449.160742 288.72061 
L 1471.540421 288.72061 
L 1493.9201 287.258328 
L 1516.299779 281.409198 
L 1538.679459 270.44208 
L 1561.059138 275.560068 
L 1583.438817 264.59295 
L 1605.818496 263.130668 
L 1628.198175 249.238985 
L 1650.577854 214.875349 
L 1672.957533 236.078444 
L 1695.337213 220.724478 
L 1717.716892 294.56974 
L 1740.096571 331.857941 
" clip-path="url(#p39e1fc5308)" style="fill: none; stroke-dasharray: 7.5,7.5; stroke-dashoffset: 0; stroke: #000000; stroke-width: 1.5"/>
   </g>
   <g id="line2d_20">
    <path d="M 1292.502988 293.838598 
L 1314.882667 292.668772 
L 1337.262346 293.253685 
L 1359.642025 293.838598 
L 1382.021705 293.838598 
L 1404.401384 293.253685 
L 1426.781063 292.668772 
L 1449.160742 293.838598 
L 1471.540421 294.423511 
L 1493.9201 282.725252 
L 1516.299779 284.479991 
L 1538.679459 286.819643 
L 1561.059138 275.121384 
L 1583.438817 274.536471 
L 1605.818496 267.517515 
L 1628.198175 267.517515 
L 1650.577854 283.895078 
L 1672.957533 289.159295 
L 1695.337213 261.083473 
L 1717.716892 261.083473 
L 1740.096571 299.102815 
" clip-path="url(#p39e1fc5308)" style="fill: none; stroke-dasharray: 4.5,7.5,1.5,7.5; stroke-dashoffset: 0; stroke: #000000; stroke-width: 1.5"/>
   </g>
   <g id="line2d_21">
    <path d="M 1270.123309 293.838598 
L 1762.47625 293.838598 
" clip-path="url(#p39e1fc5308)" style="fill: none; stroke: #000000; stroke-width: 1.5; stroke-linecap: square"/>
   </g>
   <g id="patch_14">
    <path d="M 1270.123309 335.659875 
L 1270.123309 33.259875 
" style="fill: none; stroke: #000000; stroke-width: 0.8; stroke-linejoin: miter; stroke-linecap: square"/>
   </g>
   <g id="patch_15">
    <path d="M 1762.47625 335.659875 
L 1762.47625 33.259875 
" style="fill: none; stroke: #000000; stroke-width: 0.8; stroke-linejoin: miter; stroke-linecap: square"/>
   </g>
   <g id="patch_16">
    <path d="M 1270.123309 335.659875 
L 1762.47625 335.659875 
" style="fill: none; stroke: #000000; stroke-width: 0.8; stroke-linejoin: miter; stroke-linecap: square"/>
   </g>
   <g id="patch_17">
    <path d="M 1270.123309 33.259875 
L 1762.47625 33.259875 
" style="fill: none; stroke: #000000; stroke-width: 0.8; stroke-linejoin: miter; stroke-linecap: square"/>
   </g>
   <g id="text_12">
    <!-- Number of Jobs -->
    <g transform="translate(1414.932029 27.259875) scale(0.264 -0.264)">
     <defs>
      <path id="DejaVuSans-4e" d="M 628 4666 
L 1478 4666 
L 3547 763 
L 3547 4666 
L 4159 4666 
L 4159 0 
L 3309 0 
L 1241 3903 
L 1241 0 
L 628 0 
L 628 4666 
z
" transform="scale(0.015625)"/>
      <path id="DejaVuSans-6d" d="M 3328 2828 
Q 3544 3216 3844 3400 
Q 4144 3584 4550 3584 
Q 5097 3584 5394 3201 
Q 5691 2819 5691 2113 
L 5691 0 
L 5113 0 
L 5113 2094 
Q 5113 2597 4934 2840 
Q 4756 3084 4391 3084 
Q 3944 3084 3684 2787 
Q 3425 2491 3425 1978 
L 3425 0 
L 2847 0 
L 2847 2094 
Q 2847 2600 2669 2842 
Q 2491 3084 2119 3084 
Q 1678 3084 1418 2786 
Q 1159 2488 1159 1978 
L 1159 0 
L 581 0 
L 581 3500 
L 1159 3500 
L 1159 2956 
Q 1356 3278 1631 3431 
Q 1906 3584 2284 3584 
Q 2666 3584 2933 3390 
Q 3200 3197 3328 2828 
z
" transform="scale(0.015625)"/>
      <path id="DejaVuSans-62" d="M 3116 1747 
Q 3116 2381 2855 2742 
Q 2594 3103 2138 3103 
Q 1681 3103 1420 2742 
Q 1159 2381 1159 1747 
Q 1159 1113 1420 752 
Q 1681 391 2138 391 
Q 2594 391 2855 752 
Q 3116 1113 3116 1747 
z
M 1159 2969 
Q 1341 3281 1617 3432 
Q 1894 3584 2278 3584 
Q 2916 3584 3314 3078 
Q 3713 2572 3713 1747 
Q 3713 922 3314 415 
Q 2916 -91 2278 -91 
Q 1894 -91 1617 61 
Q 1341 213 1159 525 
L 1159 0 
L 581 0 
L 581 4863 
L 1159 4863 
L 1159 2969 
z
" transform="scale(0.015625)"/>
      <path id="DejaVuSans-66" d="M 2375 4863 
L 2375 4384 
L 1825 4384 
Q 1516 4384 1395 4259 
Q 1275 4134 1275 3809 
L 1275 3500 
L 2222 3500 
L 2222 3053 
L 1275 3053 
L 1275 0 
L 697 0 
L 697 3053 
L 147 3053 
L 147 3500 
L 697 3500 
L 697 3744 
Q 697 4328 969 4595 
Q 1241 4863 1831 4863 
L 2375 4863 
z
" transform="scale(0.015625)"/>
      <path id="DejaVuSans-4a" d="M 628 4666 
L 1259 4666 
L 1259 325 
Q 1259 -519 939 -900 
Q 619 -1281 -91 -1281 
L -331 -1281 
L -331 -750 
L -134 -750 
Q 284 -750 456 -515 
Q 628 -281 628 325 
L 628 4666 
z
" transform="scale(0.015625)"/>
      <path id="DejaVuSans-73" d="M 2834 3397 
L 2834 2853 
Q 2591 2978 2328 3040 
Q 2066 3103 1784 3103 
Q 1356 3103 1142 2972 
Q 928 2841 928 2578 
Q 928 2378 1081 2264 
Q 1234 2150 1697 2047 
L 1894 2003 
Q 2506 1872 2764 1633 
Q 3022 1394 3022 966 
Q 3022 478 2636 193 
Q 2250 -91 1575 -91 
Q 1294 -91 989 -36 
Q 684 19 347 128 
L 347 722 
Q 666 556 975 473 
Q 1284 391 1588 391 
Q 1994 391 2212 530 
Q 2431 669 2431 922 
Q 2431 1156 2273 1281 
Q 2116 1406 1581 1522 
L 1381 1569 
Q 847 1681 609 1914 
Q 372 2147 372 2553 
Q 372 3047 722 3315 
Q 1072 3584 1716 3584 
Q 2034 3584 2315 3537 
Q 2597 3491 2834 3397 
z
" transform="scale(0.015625)"/>
     </defs>
     <use xlink:href="#DejaVuSans-4e"/>
     <use xlink:href="#DejaVuSans-75" x="74.804688"/>
     <use xlink:href="#DejaVuSans-6d" x="138.183594"/>
     <use xlink:href="#DejaVuSans-62" x="235.595703"/>
     <use xlink:href="#DejaVuSans-65" x="299.072266"/>
     <use xlink:href="#DejaVuSans-72" x="360.595703"/>
     <use xlink:href="#DejaVuSans-20" x="401.708984"/>
     <use xlink:href="#DejaVuSans-6f" x="433.496094"/>
     <use xlink:href="#DejaVuSans-66" x="494.677734"/>
     <use xlink:href="#DejaVuSans-20" x="529.882812"/>
     <use xlink:href="#DejaVuSans-4a" x="561.669922"/>
     <use xlink:href="#DejaVuSans-6f" x="591.162109"/>
     <use xlink:href="#DejaVuSans-62" x="652.34375"/>
     <use xlink:href="#DejaVuSans-73" x="715.820312"/>
    </g>
   </g>
   <g id="legend_2">
    <g id="patch_18">
     <path d="M 1285.523309 212.31925 
L 1383.918309 212.31925 
Q 1388.318309 212.31925 1388.318309 207.91925 
L 1388.318309 48.659875 
Q 1388.318309 44.259875 1383.918309 44.259875 
L 1285.523309 44.259875 
Q 1281.123309 44.259875 1281.123309 48.659875 
L 1281.123309 207.91925 
Q 1281.123309 212.31925 1285.523309 212.31925 
z
" style="fill: #ffffff; opacity: 0.8; stroke: #cccccc; stroke-linejoin: miter"/>
    </g>
    <g id="line2d_22">
     <path d="M 1289.923309 62.076438 
L 1311.923309 62.076438 
L 1333.923309 62.076438 
" style="fill: none; stroke-dasharray: ; stroke-dashoffset: 0; stroke: #000000; stroke-width: 1.5"/>
    </g>
    <g id="text_13">
     <!-- 5 -->
     <g transform="translate(1351.523309 69.776438) scale(0.22 -0.22)">
      <use xlink:href="#DejaVuSans-35"/>
     </g>
    </g>
    <g id="line2d_23">
     <path d="M 1289.923309 94.368313 
L 1311.923309 94.368313 
L 1333.923309 94.368313 
" style="fill: none; stroke-dasharray: 1.5,7.5; stroke-dashoffset: 0; stroke: #000000; stroke-width: 1.5"/>
    </g>
    <g id="text_14">
     <!-- 10 -->
     <g transform="translate(1351.523309 102.068313) scale(0.22 -0.22)">
      <use xlink:href="#DejaVuSans-31"/>
      <use xlink:href="#DejaVuSans-30" x="63.623047"/>
     </g>
    </g>
    <g id="line2d_24">
     <path d="M 1289.923309 126.660188 
L 1311.923309 126.660188 
L 1333.923309 126.660188 
" style="fill: none; stroke-dasharray: 1.5,1.5; stroke-dashoffset: 0; stroke: #000000; stroke-width: 1.5"/>
    </g>
    <g id="text_15">
     <!-- 15 -->
     <g transform="translate(1351.523309 134.360188) scale(0.22 -0.22)">
      <use xlink:href="#DejaVuSans-31"/>
      <use xlink:href="#DejaVuSans-35" x="63.623047"/>
     </g>
    </g>
    <g id="line2d_25">
     <path d="M 1289.923309 158.952063 
L 1311.923309 158.952063 
L 1333.923309 158.952063 
" style="fill: none; stroke-dasharray: 7.5,7.5; stroke-dashoffset: 0; stroke: #000000; stroke-width: 1.5"/>
    </g>
    <g id="text_16">
     <!-- 25 -->
     <g transform="translate(1351.523309 166.652063) scale(0.22 -0.22)">
      <use xlink:href="#DejaVuSans-32"/>
      <use xlink:href="#DejaVuSans-35" x="63.623047"/>
     </g>
    </g>
    <g id="line2d_26">
     <path d="M 1289.923309 191.243938 
L 1311.923309 191.243938 
L 1333.923309 191.243938 
" style="fill: none; stroke-dasharray: 4.5,7.5,1.5,7.5; stroke-dashoffset: 0; stroke: #000000; stroke-width: 1.5"/>
    </g>
    <g id="text_17">
     <!-- 50 -->
     <g transform="translate(1351.523309 198.943938) scale(0.22 -0.22)">
      <use xlink:href="#DejaVuSans-35"/>
      <use xlink:href="#DejaVuSans-30" x="63.623047"/>
     </g>
    </g>
   </g>
  </g>
  <g id="axes_4">
   <g id="patch_19">
    <path d="M 88.47625 698.539875 
L 580.829191 698.539875 
L 580.829191 396.139875 
L 88.47625 396.139875 
z
" style="fill: #ffffff"/>
   </g>
   <g id="matplotlib.axis_7">
    <g id="xtick_1">
     <g id="line2d_27">
      <defs>
       <path id="m91aa9cc4b9" d="M 0 0 
L 0 3.5 
" style="stroke: #000000; stroke-width: 0.8"/>
      </defs>
      <g>
       <use xlink:href="#m91aa9cc4b9" x="110.855929" y="698.539875" style="stroke: #000000; stroke-width: 0.8"/>
      </g>
     </g>
     <g id="text_18">
      <!-- 0.0 -->
      <g transform="translate(93.362492 722.256438) scale(0.22 -0.22)">
       <use xlink:href="#DejaVuSans-30"/>
       <use xlink:href="#DejaVuSans-2e" x="63.623047"/>
       <use xlink:href="#DejaVuSans-30" x="95.410156"/>
      </g>
     </g>
    </g>
    <g id="xtick_2">
     <g id="line2d_28">
      <g>
       <use xlink:href="#m91aa9cc4b9" x="200.374646" y="698.539875" style="stroke: #000000; stroke-width: 0.8"/>
      </g>
     </g>
     <g id="text_19">
      <!-- 0.2 -->
      <g transform="translate(182.881208 722.256438) scale(0.22 -0.22)">
       <use xlink:href="#DejaVuSans-30"/>
       <use xlink:href="#DejaVuSans-2e" x="63.623047"/>
       <use xlink:href="#DejaVuSans-32" x="95.410156"/>
      </g>
     </g>
    </g>
    <g id="xtick_3">
     <g id="line2d_29">
      <g>
       <use xlink:href="#m91aa9cc4b9" x="289.893362" y="698.539875" style="stroke: #000000; stroke-width: 0.8"/>
      </g>
     </g>
     <g id="text_20">
      <!-- 0.4 -->
      <g transform="translate(272.399925 722.256438) scale(0.22 -0.22)">
       <use xlink:href="#DejaVuSans-30"/>
       <use xlink:href="#DejaVuSans-2e" x="63.623047"/>
       <use xlink:href="#DejaVuSans-34" x="95.410156"/>
      </g>
     </g>
    </g>
    <g id="xtick_4">
     <g id="line2d_30">
      <g>
       <use xlink:href="#m91aa9cc4b9" x="379.412079" y="698.539875" style="stroke: #000000; stroke-width: 0.8"/>
      </g>
     </g>
     <g id="text_21">
      <!-- 0.6 -->
      <g transform="translate(361.918641 722.256438) scale(0.22 -0.22)">
       <use xlink:href="#DejaVuSans-30"/>
       <use xlink:href="#DejaVuSans-2e" x="63.623047"/>
       <use xlink:href="#DejaVuSans-36" x="95.410156"/>
      </g>
     </g>
    </g>
    <g id="xtick_5">
     <g id="line2d_31">
      <g>
       <use xlink:href="#m91aa9cc4b9" x="468.930795" y="698.539875" style="stroke: #000000; stroke-width: 0.8"/>
      </g>
     </g>
     <g id="text_22">
      <!-- 0.8 -->
      <g transform="translate(451.437358 722.256438) scale(0.22 -0.22)">
       <defs>
        <path id="DejaVuSans-38" d="M 2034 2216 
Q 1584 2216 1326 1975 
Q 1069 1734 1069 1313 
Q 1069 891 1326 650 
Q 1584 409 2034 409 
Q 2484 409 2743 651 
Q 3003 894 3003 1313 
Q 3003 1734 2745 1975 
Q 2488 2216 2034 2216 
z
M 1403 2484 
Q 997 2584 770 2862 
Q 544 3141 544 3541 
Q 544 4100 942 4425 
Q 1341 4750 2034 4750 
Q 2731 4750 3128 4425 
Q 3525 4100 3525 3541 
Q 3525 3141 3298 2862 
Q 3072 2584 2669 2484 
Q 3125 2378 3379 2068 
Q 3634 1759 3634 1313 
Q 3634 634 3220 271 
Q 2806 -91 2034 -91 
Q 1263 -91 848 271 
Q 434 634 434 1313 
Q 434 1759 690 2068 
Q 947 2378 1403 2484 
z
M 1172 3481 
Q 1172 3119 1398 2916 
Q 1625 2713 2034 2713 
Q 2441 2713 2670 2916 
Q 2900 3119 2900 3481 
Q 2900 3844 2670 4047 
Q 2441 4250 2034 4250 
Q 1625 4250 1398 4047 
Q 1172 3844 1172 3481 
z
" transform="scale(0.015625)"/>
       </defs>
       <use xlink:href="#DejaVuSans-30"/>
       <use xlink:href="#DejaVuSans-2e" x="63.623047"/>
       <use xlink:href="#DejaVuSans-38" x="95.410156"/>
      </g>
     </g>
    </g>
    <g id="xtick_6">
     <g id="line2d_32">
      <g>
       <use xlink:href="#m91aa9cc4b9" x="558.449512" y="698.539875" style="stroke: #000000; stroke-width: 0.8"/>
      </g>
     </g>
     <g id="text_23">
      <!-- 1.0 -->
      <g transform="translate(540.956075 722.256438) scale(0.22 -0.22)">
       <use xlink:href="#DejaVuSans-31"/>
       <use xlink:href="#DejaVuSans-2e" x="63.623047"/>
       <use xlink:href="#DejaVuSans-30" x="95.410156"/>
      </g>
     </g>
    </g>
    <g id="text_24">
     <!-- Diversity -->
     <g transform="translate(285.716471 747.548313) scale(0.22 -0.22)">
      <defs>
       <path id="DejaVuSans-44" d="M 1259 4147 
L 1259 519 
L 2022 519 
Q 2988 519 3436 956 
Q 3884 1394 3884 2338 
Q 3884 3275 3436 3711 
Q 2988 4147 2022 4147 
L 1259 4147 
z
M 628 4666 
L 1925 4666 
Q 3281 4666 3915 4102 
Q 4550 3538 4550 2338 
Q 4550 1131 3912 565 
Q 3275 0 1925 0 
L 628 0 
L 628 4666 
z
" transform="scale(0.015625)"/>
       <path id="DejaVuSans-79" d="M 2059 -325 
Q 1816 -950 1584 -1140 
Q 1353 -1331 966 -1331 
L 506 -1331 
L 506 -850 
L 844 -850 
Q 1081 -850 1212 -737 
Q 1344 -625 1503 -206 
L 1606 56 
L 191 3500 
L 800 3500 
L 1894 763 
L 2988 3500 
L 3597 3500 
L 2059 -325 
z
" transform="scale(0.015625)"/>
      </defs>
      <use xlink:href="#DejaVuSans-44"/>
      <use xlink:href="#DejaVuSans-69" x="77.001953"/>
      <use xlink:href="#DejaVuSans-76" x="104.785156"/>
      <use xlink:href="#DejaVuSans-65" x="163.964844"/>
      <use xlink:href="#DejaVuSans-72" x="225.488281"/>
      <use xlink:href="#DejaVuSans-73" x="266.601562"/>
      <use xlink:href="#DejaVuSans-69" x="318.701172"/>
      <use xlink:href="#DejaVuSans-74" x="346.484375"/>
      <use xlink:href="#DejaVuSans-79" x="385.693359"/>
     </g>
    </g>
   </g>
   <g id="matplotlib.axis_8">
    <g id="ytick_5">
     <g id="line2d_33">
      <g>
       <use xlink:href="#md97bcb5eb2" x="88.47625" y="656.718598" style="stroke: #000000; stroke-width: 0.8"/>
      </g>
     </g>
     <g id="text_25">
      <!-- 0.00 -->
      <g transform="translate(32.491875 665.07688) scale(0.22 -0.22)">
       <use xlink:href="#DejaVuSans-30"/>
       <use xlink:href="#DejaVuSans-2e" x="63.623047"/>
       <use xlink:href="#DejaVuSans-30" x="95.410156"/>
       <use xlink:href="#DejaVuSans-30" x="159.033203"/>
      </g>
     </g>
    </g>
    <g id="ytick_6">
     <g id="line2d_34">
      <g>
       <use xlink:href="#md97bcb5eb2" x="88.47625" y="586.529043" style="stroke: #000000; stroke-width: 0.8"/>
      </g>
     </g>
     <g id="text_26">
      <!-- 0.02 -->
      <g transform="translate(32.491875 594.887325) scale(0.22 -0.22)">
       <use xlink:href="#DejaVuSans-30"/>
       <use xlink:href="#DejaVuSans-2e" x="63.623047"/>
       <use xlink:href="#DejaVuSans-30" x="95.410156"/>
       <use xlink:href="#DejaVuSans-32" x="159.033203"/>
      </g>
     </g>
    </g>
    <g id="ytick_7">
     <g id="line2d_35">
      <g>
       <use xlink:href="#md97bcb5eb2" x="88.47625" y="516.339488" style="stroke: #000000; stroke-width: 0.8"/>
      </g>
     </g>
     <g id="text_27">
      <!-- 0.04 -->
      <g transform="translate(32.491875 524.697769) scale(0.22 -0.22)">
       <use xlink:href="#DejaVuSans-30"/>
       <use xlink:href="#DejaVuSans-2e" x="63.623047"/>
       <use xlink:href="#DejaVuSans-30" x="95.410156"/>
       <use xlink:href="#DejaVuSans-34" x="159.033203"/>
      </g>
     </g>
    </g>
    <g id="ytick_8">
     <g id="line2d_36">
      <g>
       <use xlink:href="#md97bcb5eb2" x="88.47625" y="446.149933" style="stroke: #000000; stroke-width: 0.8"/>
      </g>
     </g>
     <g id="text_28">
      <!-- 0.06 -->
      <g transform="translate(32.491875 454.508214) scale(0.22 -0.22)">
       <use xlink:href="#DejaVuSans-30"/>
       <use xlink:href="#DejaVuSans-2e" x="63.623047"/>
       <use xlink:href="#DejaVuSans-30" x="95.410156"/>
       <use xlink:href="#DejaVuSans-36" x="159.033203"/>
      </g>
     </g>
    </g>
    <g id="text_29">
     <!-- Count -->
     <g transform="translate(23.916563 580.006438) rotate(-90) scale(0.22 -0.22)">
      <use xlink:href="#DejaVuSans-43"/>
      <use xlink:href="#DejaVuSans-6f" x="69.824219"/>
      <use xlink:href="#DejaVuSans-75" x="131.005859"/>
      <use xlink:href="#DejaVuSans-6e" x="194.384766"/>
      <use xlink:href="#DejaVuSans-74" x="257.763672"/>
     </g>
    </g>
   </g>
   <g id="line2d_37">
    <path d="M 110.855929 656.718598 
L 133.235608 654.525175 
L 155.615287 654.525175 
L 177.994967 639.17121 
L 200.374646 646.117051 
L 222.754325 643.558057 
L 245.134004 635.881074 
L 267.513683 639.53678 
L 289.893362 628.204092 
L 312.273041 636.246645 
L 334.652721 629.666374 
L 357.0324 621.623821 
L 379.412079 611.022273 
L 401.791758 607.000997 
L 424.171437 608.82885 
L 446.551116 597.496161 
L 468.930795 581.411055 
L 491.310475 594.206026 
L 513.690154 572.63736 
L 536.069833 601.151867 
L 558.449512 664.03001 
" clip-path="url(#p194520273a)" style="fill: none; stroke-dasharray: ; stroke-dashoffset: 0; stroke: #000000; stroke-width: 1.5"/>
   </g>
   <g id="line2d_38">
    <path d="M 110.855929 656.718598 
L 133.235608 656.718598 
L 155.615287 656.718598 
L 177.994967 656.718598 
L 200.374646 654.525175 
L 222.754325 652.331751 
L 245.134004 654.525175 
L 267.513683 655.987457 
L 289.893362 650.869469 
L 312.273041 645.75148 
L 334.652721 638.440068 
L 357.0324 647.944904 
L 379.412079 645.020339 
L 401.791758 644.289198 
L 424.171437 646.482622 
L 446.551116 640.633492 
L 468.930795 647.944904 
L 491.310475 639.17121 
L 513.690154 633.32208 
L 536.069833 652.331751 
L 558.449512 669.147999 
" clip-path="url(#p194520273a)" style="fill: none; stroke-dasharray: 1.5,7.5; stroke-dashoffset: 0; stroke: #000000; stroke-width: 1.5"/>
   </g>
   <g id="line2d_39">
    <path d="M 110.855929 656.718598 
L 133.235608 656.718598 
L 155.615287 656.718598 
L 177.994967 656.718598 
L 200.374646 656.718598 
L 222.754325 656.718598 
L 245.134004 655.883008 
L 267.513683 657.554188 
L 289.893362 658.389778 
L 312.273041 650.869469 
L 334.652721 653.376239 
L 357.0324 646.691519 
L 379.412079 637.50003 
L 401.791758 633.32208 
L 424.171437 626.63736 
L 446.551116 630.81531 
L 468.930795 636.66444 
L 491.310475 635.82885 
L 513.690154 624.966181 
L 536.069833 630.81531 
L 558.449512 660.896548 
" clip-path="url(#p194520273a)" style="fill: none; stroke-dasharray: 1.5,1.5; stroke-dashoffset: 0; stroke: #000000; stroke-width: 1.5"/>
   </g>
   <g id="line2d_40">
    <path d="M 88.47625 656.718598 
L 580.829191 656.718598 
" clip-path="url(#p194520273a)" style="fill: none; stroke: #000000; stroke-width: 1.5; stroke-linecap: square"/>
   </g>
   <g id="patch_20">
    <path d="M 88.47625 698.539875 
L 88.47625 396.139875 
" style="fill: none; stroke: #000000; stroke-width: 0.8; stroke-linejoin: miter; stroke-linecap: square"/>
   </g>
   <g id="patch_21">
    <path d="M 580.829191 698.539875 
L 580.829191 396.139875 
" style="fill: none; stroke: #000000; stroke-width: 0.8; stroke-linejoin: miter; stroke-linecap: square"/>
   </g>
   <g id="patch_22">
    <path d="M 88.47625 698.539875 
L 580.829191 698.539875 
" style="fill: none; stroke: #000000; stroke-width: 0.8; stroke-linejoin: miter; stroke-linecap: square"/>
   </g>
   <g id="patch_23">
    <path d="M 88.47625 396.139875 
L 580.829191 396.139875 
" style="fill: none; stroke: #000000; stroke-width: 0.8; stroke-linejoin: miter; stroke-linecap: square"/>
   </g>
   <g id="text_30">
    <!-- Number of Machines -->
    <g transform="translate(198.379221 390.139875) scale(0.264 -0.264)">
     <defs>
      <path id="DejaVuSans-4d" d="M 628 4666 
L 1569 4666 
L 2759 1491 
L 3956 4666 
L 4897 4666 
L 4897 0 
L 4281 0 
L 4281 4097 
L 3078 897 
L 2444 897 
L 1241 4097 
L 1241 0 
L 628 0 
L 628 4666 
z
" transform="scale(0.015625)"/>
      <path id="DejaVuSans-63" d="M 3122 3366 
L 3122 2828 
Q 2878 2963 2633 3030 
Q 2388 3097 2138 3097 
Q 1578 3097 1268 2742 
Q 959 2388 959 1747 
Q 959 1106 1268 751 
Q 1578 397 2138 397 
Q 2388 397 2633 464 
Q 2878 531 3122 666 
L 3122 134 
Q 2881 22 2623 -34 
Q 2366 -91 2075 -91 
Q 1284 -91 818 406 
Q 353 903 353 1747 
Q 353 2603 823 3093 
Q 1294 3584 2113 3584 
Q 2378 3584 2631 3529 
Q 2884 3475 3122 3366 
z
" transform="scale(0.015625)"/>
      <path id="DejaVuSans-68" d="M 3513 2113 
L 3513 0 
L 2938 0 
L 2938 2094 
Q 2938 2591 2744 2837 
Q 2550 3084 2163 3084 
Q 1697 3084 1428 2787 
Q 1159 2491 1159 1978 
L 1159 0 
L 581 0 
L 581 4863 
L 1159 4863 
L 1159 2956 
Q 1366 3272 1645 3428 
Q 1925 3584 2291 3584 
Q 2894 3584 3203 3211 
Q 3513 2838 3513 2113 
z
" transform="scale(0.015625)"/>
     </defs>
     <use xlink:href="#DejaVuSans-4e"/>
     <use xlink:href="#DejaVuSans-75" x="74.804688"/>
     <use xlink:href="#DejaVuSans-6d" x="138.183594"/>
     <use xlink:href="#DejaVuSans-62" x="235.595703"/>
     <use xlink:href="#DejaVuSans-65" x="299.072266"/>
     <use xlink:href="#DejaVuSans-72" x="360.595703"/>
     <use xlink:href="#DejaVuSans-20" x="401.708984"/>
     <use xlink:href="#DejaVuSans-6f" x="433.496094"/>
     <use xlink:href="#DejaVuSans-66" x="494.677734"/>
     <use xlink:href="#DejaVuSans-20" x="529.882812"/>
     <use xlink:href="#DejaVuSans-4d" x="561.669922"/>
     <use xlink:href="#DejaVuSans-61" x="647.949219"/>
     <use xlink:href="#DejaVuSans-63" x="709.228516"/>
     <use xlink:href="#DejaVuSans-68" x="764.208984"/>
     <use xlink:href="#DejaVuSans-69" x="827.587891"/>
     <use xlink:href="#DejaVuSans-6e" x="855.371094"/>
     <use xlink:href="#DejaVuSans-65" x="918.75"/>
     <use xlink:href="#DejaVuSans-73" x="980.273438"/>
    </g>
   </g>
   <g id="legend_3">
    <g id="patch_24">
     <path d="M 481.031691 510.6155 
L 565.429191 510.6155 
Q 569.829191 510.6155 569.829191 506.2155 
L 569.829191 411.539875 
Q 569.829191 407.139875 565.429191 407.139875 
L 481.031691 407.139875 
Q 476.631691 407.139875 476.631691 411.539875 
L 476.631691 506.2155 
Q 476.631691 510.6155 481.031691 510.6155 
z
" style="fill: #ffffff; opacity: 0.8; stroke: #cccccc; stroke-linejoin: miter"/>
    </g>
    <g id="line2d_41">
     <path d="M 485.431691 424.956438 
L 507.431691 424.956438 
L 529.431691 424.956438 
" style="fill: none; stroke-dasharray: ; stroke-dashoffset: 0; stroke: #000000; stroke-width: 1.5"/>
    </g>
    <g id="text_31">
     <!-- 1 -->
     <g transform="translate(547.031691 432.656438) scale(0.22 -0.22)">
      <use xlink:href="#DejaVuSans-31"/>
     </g>
    </g>
    <g id="line2d_42">
     <path d="M 485.431691 457.248313 
L 507.431691 457.248313 
L 529.431691 457.248313 
" style="fill: none; stroke-dasharray: 1.5,7.5; stroke-dashoffset: 0; stroke: #000000; stroke-width: 1.5"/>
    </g>
    <g id="text_32">
     <!-- 3 -->
     <g transform="translate(547.031691 464.948313) scale(0.22 -0.22)">
      <defs>
       <path id="DejaVuSans-33" d="M 2597 2516 
Q 3050 2419 3304 2112 
Q 3559 1806 3559 1356 
Q 3559 666 3084 287 
Q 2609 -91 1734 -91 
Q 1441 -91 1130 -33 
Q 819 25 488 141 
L 488 750 
Q 750 597 1062 519 
Q 1375 441 1716 441 
Q 2309 441 2620 675 
Q 2931 909 2931 1356 
Q 2931 1769 2642 2001 
Q 2353 2234 1838 2234 
L 1294 2234 
L 1294 2753 
L 1863 2753 
Q 2328 2753 2575 2939 
Q 2822 3125 2822 3475 
Q 2822 3834 2567 4026 
Q 2313 4219 1838 4219 
Q 1578 4219 1281 4162 
Q 984 4106 628 3988 
L 628 4550 
Q 988 4650 1302 4700 
Q 1616 4750 1894 4750 
Q 2613 4750 3031 4423 
Q 3450 4097 3450 3541 
Q 3450 3153 3228 2886 
Q 3006 2619 2597 2516 
z
" transform="scale(0.015625)"/>
      </defs>
      <use xlink:href="#DejaVuSans-33"/>
     </g>
    </g>
    <g id="line2d_43">
     <path d="M 485.431691 489.540188 
L 507.431691 489.540188 
L 529.431691 489.540188 
" style="fill: none; stroke-dasharray: 1.5,1.5; stroke-dashoffset: 0; stroke: #000000; stroke-width: 1.5"/>
    </g>
    <g id="text_33">
     <!-- 5 -->
     <g transform="translate(547.031691 497.240188) scale(0.22 -0.22)">
      <use xlink:href="#DejaVuSans-35"/>
     </g>
    </g>
   </g>
  </g>
  <g id="axes_5">
   <g id="patch_25">
    <path d="M 679.299779 698.539875 
L 1171.652721 698.539875 
L 1171.652721 396.139875 
L 679.299779 396.139875 
z
" style="fill: #ffffff"/>
   </g>
   <g id="matplotlib.axis_9">
    <g id="xtick_7">
     <g id="line2d_44">
      <g>
       <use xlink:href="#m91aa9cc4b9" x="701.679459" y="698.539875" style="stroke: #000000; stroke-width: 0.8"/>
      </g>
     </g>
     <g id="text_34">
      <!-- 0.0 -->
      <g transform="translate(684.186021 722.256438) scale(0.22 -0.22)">
       <use xlink:href="#DejaVuSans-30"/>
       <use xlink:href="#DejaVuSans-2e" x="63.623047"/>
       <use xlink:href="#DejaVuSans-30" x="95.410156"/>
      </g>
     </g>
    </g>
    <g id="xtick_8">
     <g id="line2d_45">
      <g>
       <use xlink:href="#m91aa9cc4b9" x="791.198175" y="698.539875" style="stroke: #000000; stroke-width: 0.8"/>
      </g>
     </g>
     <g id="text_35">
      <!-- 0.2 -->
      <g transform="translate(773.704738 722.256438) scale(0.22 -0.22)">
       <use xlink:href="#DejaVuSans-30"/>
       <use xlink:href="#DejaVuSans-2e" x="63.623047"/>
       <use xlink:href="#DejaVuSans-32" x="95.410156"/>
      </g>
     </g>
    </g>
    <g id="xtick_9">
     <g id="line2d_46">
      <g>
       <use xlink:href="#m91aa9cc4b9" x="880.716892" y="698.539875" style="stroke: #000000; stroke-width: 0.8"/>
      </g>
     </g>
     <g id="text_36">
      <!-- 0.4 -->
      <g transform="translate(863.223454 722.256438) scale(0.22 -0.22)">
       <use xlink:href="#DejaVuSans-30"/>
       <use xlink:href="#DejaVuSans-2e" x="63.623047"/>
       <use xlink:href="#DejaVuSans-34" x="95.410156"/>
      </g>
     </g>
    </g>
    <g id="xtick_10">
     <g id="line2d_47">
      <g>
       <use xlink:href="#m91aa9cc4b9" x="970.235608" y="698.539875" style="stroke: #000000; stroke-width: 0.8"/>
      </g>
     </g>
     <g id="text_37">
      <!-- 0.6 -->
      <g transform="translate(952.742171 722.256438) scale(0.22 -0.22)">
       <use xlink:href="#DejaVuSans-30"/>
       <use xlink:href="#DejaVuSans-2e" x="63.623047"/>
       <use xlink:href="#DejaVuSans-36" x="95.410156"/>
      </g>
     </g>
    </g>
    <g id="xtick_11">
     <g id="line2d_48">
      <g>
       <use xlink:href="#m91aa9cc4b9" x="1059.754325" y="698.539875" style="stroke: #000000; stroke-width: 0.8"/>
      </g>
     </g>
     <g id="text_38">
      <!-- 0.8 -->
      <g transform="translate(1042.260887 722.256438) scale(0.22 -0.22)">
       <use xlink:href="#DejaVuSans-30"/>
       <use xlink:href="#DejaVuSans-2e" x="63.623047"/>
       <use xlink:href="#DejaVuSans-38" x="95.410156"/>
      </g>
     </g>
    </g>
    <g id="xtick_12">
     <g id="line2d_49">
      <g>
       <use xlink:href="#m91aa9cc4b9" x="1149.273041" y="698.539875" style="stroke: #000000; stroke-width: 0.8"/>
      </g>
     </g>
     <g id="text_39">
      <!-- 1.0 -->
      <g transform="translate(1131.779604 722.256438) scale(0.22 -0.22)">
       <use xlink:href="#DejaVuSans-31"/>
       <use xlink:href="#DejaVuSans-2e" x="63.623047"/>
       <use xlink:href="#DejaVuSans-30" x="95.410156"/>
      </g>
     </g>
    </g>
    <g id="text_40">
     <!-- Diversity -->
     <g transform="translate(876.54 747.548313) scale(0.22 -0.22)">
      <use xlink:href="#DejaVuSans-44"/>
      <use xlink:href="#DejaVuSans-69" x="77.001953"/>
      <use xlink:href="#DejaVuSans-76" x="104.785156"/>
      <use xlink:href="#DejaVuSans-65" x="163.964844"/>
      <use xlink:href="#DejaVuSans-72" x="225.488281"/>
      <use xlink:href="#DejaVuSans-73" x="266.601562"/>
      <use xlink:href="#DejaVuSans-69" x="318.701172"/>
      <use xlink:href="#DejaVuSans-74" x="346.484375"/>
      <use xlink:href="#DejaVuSans-79" x="385.693359"/>
     </g>
    </g>
   </g>
   <g id="matplotlib.axis_10"/>
   <g id="line2d_50">
    <path d="M 701.679459 656.718598 
L 724.059138 656.152554 
L 746.438817 655.586509 
L 768.818496 648.227926 
L 791.198175 648.793971 
L 813.577854 649.926061 
L 835.957533 646.529792 
L 858.337213 648.793971 
L 880.716892 642.001434 
L 903.096571 644.265613 
L 925.47625 638.03912 
L 947.855929 635.774941 
L 970.235608 627.850314 
L 992.615287 636.90703 
L 1014.994967 634.076806 
L 1037.374646 623.888 
L 1059.754325 607.472701 
L 1082.134004 612.001059 
L 1104.513683 619.925686 
L 1126.893362 608.60479 
L 1149.273041 652.19024 
" clip-path="url(#p564ede941e)" style="fill: none; stroke-dasharray: ; stroke-dashoffset: 0; stroke: #000000; stroke-width: 1.5"/>
   </g>
   <g id="line2d_51">
    <path d="M 701.679459 656.718598 
L 724.059138 655.586509 
L 746.438817 655.586509 
L 768.818496 647.095837 
L 791.198175 651.624195 
L 813.577854 648.793971 
L 835.957533 643.699568 
L 858.337213 647.661882 
L 880.716892 639.17121 
L 903.096571 640.869344 
L 925.47625 636.340986 
L 947.855929 634.642851 
L 970.235608 629.548448 
L 992.615287 618.793597 
L 1014.994967 620.491731 
L 1037.374646 618.793597 
L 1059.754325 617.095462 
L 1082.134004 615.397328 
L 1104.513683 585.962998 
L 1126.893362 641.435389 
L 1149.273041 682.190614 
" clip-path="url(#p564ede941e)" style="fill: none; stroke-dasharray: 1.5,7.5; stroke-dashoffset: 0; stroke: #000000; stroke-width: 1.5"/>
   </g>
   <g id="line2d_52">
    <path d="M 701.679459 656.718598 
L 724.059138 655.020464 
L 746.438817 655.586509 
L 768.818496 647.661882 
L 791.198175 651.624195 
L 813.577854 647.661882 
L 835.957533 645.397702 
L 858.337213 647.095837 
L 880.716892 641.435389 
L 903.096571 640.869344 
L 925.47625 637.473075 
L 947.855929 631.812627 
L 970.235608 619.925686 
L 992.615287 612.001059 
L 1014.994967 613.133149 
L 1037.374646 605.774566 
L 1059.754325 608.60479 
L 1082.134004 618.227552 
L 1104.513683 594.45367 
L 1126.893362 613.133149 
L 1149.273041 659.548822 
" clip-path="url(#p564ede941e)" style="fill: none; stroke-dasharray: 1.5,1.5; stroke-dashoffset: 0; stroke: #000000; stroke-width: 1.5"/>
   </g>
   <g id="line2d_53">
    <path d="M 679.299779 656.718598 
L 1171.652721 656.718598 
" clip-path="url(#p564ede941e)" style="fill: none; stroke: #000000; stroke-width: 1.5; stroke-linecap: square"/>
   </g>
   <g id="patch_26">
    <path d="M 679.299779 698.539875 
L 679.299779 396.139875 
" style="fill: none; stroke: #000000; stroke-width: 0.8; stroke-linejoin: miter; stroke-linecap: square"/>
   </g>
   <g id="patch_27">
    <path d="M 1171.652721 698.539875 
L 1171.652721 396.139875 
" style="fill: none; stroke: #000000; stroke-width: 0.8; stroke-linejoin: miter; stroke-linecap: square"/>
   </g>
   <g id="patch_28">
    <path d="M 679.299779 698.539875 
L 1171.652721 698.539875 
" style="fill: none; stroke: #000000; stroke-width: 0.8; stroke-linejoin: miter; stroke-linecap: square"/>
   </g>
   <g id="patch_29">
    <path d="M 679.299779 396.139875 
L 1171.652721 396.139875 
" style="fill: none; stroke: #000000; stroke-width: 0.8; stroke-linejoin: miter; stroke-linecap: square"/>
   </g>
   <g id="text_41">
    <!-- Quality Parameter -->
    <g transform="translate(805.440812 390.139875) scale(0.264 -0.264)">
     <defs>
      <path id="DejaVuSans-51" d="M 2522 4238 
Q 1834 4238 1429 3725 
Q 1025 3213 1025 2328 
Q 1025 1447 1429 934 
Q 1834 422 2522 422 
Q 3209 422 3611 934 
Q 4013 1447 4013 2328 
Q 4013 3213 3611 3725 
Q 3209 4238 2522 4238 
z
M 3406 84 
L 4238 -825 
L 3475 -825 
L 2784 -78 
Q 2681 -84 2626 -87 
Q 2572 -91 2522 -91 
Q 1538 -91 948 567 
Q 359 1225 359 2328 
Q 359 3434 948 4092 
Q 1538 4750 2522 4750 
Q 3503 4750 4090 4092 
Q 4678 3434 4678 2328 
Q 4678 1516 4351 937 
Q 4025 359 3406 84 
z
" transform="scale(0.015625)"/>
     </defs>
     <use xlink:href="#DejaVuSans-51"/>
     <use xlink:href="#DejaVuSans-75" x="78.710938"/>
     <use xlink:href="#DejaVuSans-61" x="142.089844"/>
     <use xlink:href="#DejaVuSans-6c" x="203.369141"/>
     <use xlink:href="#DejaVuSans-69" x="231.152344"/>
     <use xlink:href="#DejaVuSans-74" x="258.935547"/>
     <use xlink:href="#DejaVuSans-79" x="298.144531"/>
     <use xlink:href="#DejaVuSans-20" x="357.324219"/>
     <use xlink:href="#DejaVuSans-50" x="389.111328"/>
     <use xlink:href="#DejaVuSans-61" x="444.914062"/>
     <use xlink:href="#DejaVuSans-72" x="506.193359"/>
     <use xlink:href="#DejaVuSans-61" x="547.306641"/>
     <use xlink:href="#DejaVuSans-6d" x="608.585938"/>
     <use xlink:href="#DejaVuSans-65" x="705.998047"/>
     <use xlink:href="#DejaVuSans-74" x="767.521484"/>
     <use xlink:href="#DejaVuSans-65" x="806.730469"/>
     <use xlink:href="#DejaVuSans-72" x="868.253906"/>
    </g>
   </g>
   <g id="legend_4">
    <g id="patch_30">
     <path d="M 1050.865846 510.6155 
L 1156.252721 510.6155 
Q 1160.652721 510.6155 1160.652721 506.2155 
L 1160.652721 411.539875 
Q 1160.652721 407.139875 1156.252721 407.139875 
L 1050.865846 407.139875 
Q 1046.465846 407.139875 1046.465846 411.539875 
L 1046.465846 506.2155 
Q 1046.465846 510.6155 1050.865846 510.6155 
z
" style="fill: #ffffff; opacity: 0.8; stroke: #cccccc; stroke-linejoin: miter"/>
    </g>
    <g id="line2d_54">
     <path d="M 1055.265846 424.956438 
L 1077.265846 424.956438 
L 1099.265846 424.956438 
" style="fill: none; stroke-dasharray: ; stroke-dashoffset: 0; stroke: #000000; stroke-width: 1.5"/>
    </g>
    <g id="text_42">
     <!-- 0.3 -->
     <g transform="translate(1116.865846 432.656438) scale(0.22 -0.22)">
      <use xlink:href="#DejaVuSans-30"/>
      <use xlink:href="#DejaVuSans-2e" x="63.623047"/>
      <use xlink:href="#DejaVuSans-33" x="95.410156"/>
     </g>
    </g>
    <g id="line2d_55">
     <path d="M 1055.265846 457.248313 
L 1077.265846 457.248313 
L 1099.265846 457.248313 
" style="fill: none; stroke-dasharray: 1.5,7.5; stroke-dashoffset: 0; stroke: #000000; stroke-width: 1.5"/>
    </g>
    <g id="text_43">
     <!-- 0.6 -->
     <g transform="translate(1116.865846 464.948313) scale(0.22 -0.22)">
      <use xlink:href="#DejaVuSans-30"/>
      <use xlink:href="#DejaVuSans-2e" x="63.623047"/>
      <use xlink:href="#DejaVuSans-36" x="95.410156"/>
     </g>
    </g>
    <g id="line2d_56">
     <path d="M 1055.265846 489.540188 
L 1077.265846 489.540188 
L 1099.265846 489.540188 
" style="fill: none; stroke-dasharray: 1.5,1.5; stroke-dashoffset: 0; stroke: #000000; stroke-width: 1.5"/>
    </g>
    <g id="text_44">
     <!-- 1. -->
     <g transform="translate(1116.865846 497.240188) scale(0.22 -0.22)">
      <use xlink:href="#DejaVuSans-31"/>
      <use xlink:href="#DejaVuSans-2e" x="63.623047"/>
     </g>
    </g>
   </g>
  </g>
  <g id="axes_6">
   <g id="patch_31">
    <path d="M 1270.123309 698.539875 
L 1762.47625 698.539875 
L 1762.47625 396.139875 
L 1270.123309 396.139875 
z
" style="fill: #ffffff"/>
   </g>
   <g id="matplotlib.axis_11">
    <g id="xtick_13">
     <g id="line2d_57">
      <g>
       <use xlink:href="#m91aa9cc4b9" x="1292.502988" y="698.539875" style="stroke: #000000; stroke-width: 0.8"/>
      </g>
     </g>
     <g id="text_45">
      <!-- 0.0 -->
      <g transform="translate(1275.00955 722.256438) scale(0.22 -0.22)">
       <use xlink:href="#DejaVuSans-30"/>
       <use xlink:href="#DejaVuSans-2e" x="63.623047"/>
       <use xlink:href="#DejaVuSans-30" x="95.410156"/>
      </g>
     </g>
    </g>
    <g id="xtick_14">
     <g id="line2d_58">
      <g>
       <use xlink:href="#m91aa9cc4b9" x="1382.021705" y="698.539875" style="stroke: #000000; stroke-width: 0.8"/>
      </g>
     </g>
     <g id="text_46">
      <!-- 0.2 -->
      <g transform="translate(1364.528267 722.256438) scale(0.22 -0.22)">
       <use xlink:href="#DejaVuSans-30"/>
       <use xlink:href="#DejaVuSans-2e" x="63.623047"/>
       <use xlink:href="#DejaVuSans-32" x="95.410156"/>
      </g>
     </g>
    </g>
    <g id="xtick_15">
     <g id="line2d_59">
      <g>
       <use xlink:href="#m91aa9cc4b9" x="1471.540421" y="698.539875" style="stroke: #000000; stroke-width: 0.8"/>
      </g>
     </g>
     <g id="text_47">
      <!-- 0.4 -->
      <g transform="translate(1454.046984 722.256438) scale(0.22 -0.22)">
       <use xlink:href="#DejaVuSans-30"/>
       <use xlink:href="#DejaVuSans-2e" x="63.623047"/>
       <use xlink:href="#DejaVuSans-34" x="95.410156"/>
      </g>
     </g>
    </g>
    <g id="xtick_16">
     <g id="line2d_60">
      <g>
       <use xlink:href="#m91aa9cc4b9" x="1561.059138" y="698.539875" style="stroke: #000000; stroke-width: 0.8"/>
      </g>
     </g>
     <g id="text_48">
      <!-- 0.6 -->
      <g transform="translate(1543.5657 722.256438) scale(0.22 -0.22)">
       <use xlink:href="#DejaVuSans-30"/>
       <use xlink:href="#DejaVuSans-2e" x="63.623047"/>
       <use xlink:href="#DejaVuSans-36" x="95.410156"/>
      </g>
     </g>
    </g>
    <g id="xtick_17">
     <g id="line2d_61">
      <g>
       <use xlink:href="#m91aa9cc4b9" x="1650.577854" y="698.539875" style="stroke: #000000; stroke-width: 0.8"/>
      </g>
     </g>
     <g id="text_49">
      <!-- 0.8 -->
      <g transform="translate(1633.084417 722.256438) scale(0.22 -0.22)">
       <use xlink:href="#DejaVuSans-30"/>
       <use xlink:href="#DejaVuSans-2e" x="63.623047"/>
       <use xlink:href="#DejaVuSans-38" x="95.410156"/>
      </g>
     </g>
    </g>
    <g id="xtick_18">
     <g id="line2d_62">
      <g>
       <use xlink:href="#m91aa9cc4b9" x="1740.096571" y="698.539875" style="stroke: #000000; stroke-width: 0.8"/>
      </g>
     </g>
     <g id="text_50">
      <!-- 1.0 -->
      <g transform="translate(1722.603133 722.256438) scale(0.22 -0.22)">
       <use xlink:href="#DejaVuSans-31"/>
       <use xlink:href="#DejaVuSans-2e" x="63.623047"/>
       <use xlink:href="#DejaVuSans-30" x="95.410156"/>
      </g>
     </g>
    </g>
    <g id="text_51">
     <!-- Diversity -->
     <g transform="translate(1467.363529 747.548313) scale(0.22 -0.22)">
      <use xlink:href="#DejaVuSans-44"/>
      <use xlink:href="#DejaVuSans-69" x="77.001953"/>
      <use xlink:href="#DejaVuSans-76" x="104.785156"/>
      <use xlink:href="#DejaVuSans-65" x="163.964844"/>
      <use xlink:href="#DejaVuSans-72" x="225.488281"/>
      <use xlink:href="#DejaVuSans-73" x="266.601562"/>
      <use xlink:href="#DejaVuSans-69" x="318.701172"/>
      <use xlink:href="#DejaVuSans-74" x="346.484375"/>
      <use xlink:href="#DejaVuSans-79" x="385.693359"/>
     </g>
    </g>
   </g>
   <g id="matplotlib.axis_12"/>
   <g id="line2d_63">
    <path d="M 1292.502988 656.718598 
L 1314.882667 656.718598 
L 1337.262346 656.718598 
L 1359.642025 646.152429 
L 1382.021705 650.680787 
L 1404.401384 651.435514 
L 1426.781063 649.171334 
L 1449.160742 649.171334 
L 1471.540421 644.642976 
L 1493.9201 646.907155 
L 1516.299779 632.567354 
L 1538.679459 627.284269 
L 1561.059138 608.416109 
L 1583.438817 600.868845 
L 1605.818496 603.133024 
L 1628.198175 595.58576 
L 1650.577854 585.774317 
L 1672.957533 615.208646 
L 1695.337213 594.076307 
L 1717.716892 598.604666 
L 1740.096571 635.586259 
" clip-path="url(#pcec8851334)" style="fill: none; stroke-dasharray: ; stroke-dashoffset: 0; stroke: #000000; stroke-width: 1.5"/>
   </g>
   <g id="line2d_64">
    <path d="M 1292.502988 656.718598 
L 1314.882667 656.718598 
L 1337.262346 655.963872 
L 1359.642025 649.926061 
L 1382.021705 654.454419 
L 1404.401384 653.699693 
L 1426.781063 648.416608 
L 1449.160742 651.435514 
L 1471.540421 640.869344 
L 1493.9201 640.114618 
L 1516.299779 644.642976 
L 1538.679459 637.850438 
L 1561.059138 628.793722 
L 1583.438817 621.246458 
L 1605.818496 616.718099 
L 1628.198175 609.170835 
L 1650.577854 588.793222 
L 1672.957533 609.925562 
L 1695.337213 606.15193 
L 1717.716892 628.793722 
L 1740.096571 670.303674 
" clip-path="url(#pcec8851334)" style="fill: none; stroke-dasharray: 1.5,7.5; stroke-dashoffset: 0; stroke: #000000; stroke-width: 1.5"/>
   </g>
   <g id="line2d_65">
    <path d="M 1292.502988 656.718598 
L 1314.882667 654.454419 
L 1337.262346 655.963872 
L 1359.642025 647.661882 
L 1382.021705 649.171334 
L 1404.401384 649.171334 
L 1426.781063 646.152429 
L 1449.160742 646.152429 
L 1471.540421 642.378797 
L 1493.9201 640.114618 
L 1516.299779 638.605165 
L 1538.679459 640.114618 
L 1561.059138 634.831533 
L 1583.438817 637.095712 
L 1605.818496 628.038995 
L 1628.198175 629.548448 
L 1650.577854 640.869344 
L 1672.957533 618.982278 
L 1695.337213 601.623571 
L 1717.716892 613.699194 
L 1740.096571 665.775315 
" clip-path="url(#pcec8851334)" style="fill: none; stroke-dasharray: 1.5,1.5; stroke-dashoffset: 0; stroke: #000000; stroke-width: 1.5"/>
   </g>
   <g id="line2d_66">
    <path d="M 1292.502988 656.718598 
L 1314.882667 654.454419 
L 1337.262346 653.699693 
L 1359.642025 646.907155 
L 1382.021705 648.416608 
L 1404.401384 640.869344 
L 1426.781063 637.095712 
L 1449.160742 644.642976 
L 1471.540421 635.586259 
L 1493.9201 640.869344 
L 1516.299779 633.32208 
L 1538.679459 631.057901 
L 1561.059138 631.057901 
L 1583.438817 631.057901 
L 1605.818496 642.378797 
L 1628.198175 630.303174 
L 1650.577854 628.793722 
L 1672.957533 616.718099 
L 1695.337213 598.604666 
L 1717.716892 643.133523 
L 1740.096571 686.907654 
" clip-path="url(#pcec8851334)" style="fill: none; stroke-dasharray: 7.5,7.5; stroke-dashoffset: 0; stroke: #000000; stroke-width: 1.5"/>
   </g>
   <g id="line2d_67">
    <path d="M 1270.123309 656.718598 
L 1762.47625 656.718598 
" clip-path="url(#pcec8851334)" style="fill: none; stroke: #000000; stroke-width: 1.5; stroke-linecap: square"/>
   </g>
   <g id="patch_32">
    <path d="M 1270.123309 698.539875 
L 1270.123309 396.139875 
" style="fill: none; stroke: #000000; stroke-width: 0.8; stroke-linejoin: miter; stroke-linecap: square"/>
   </g>
   <g id="patch_33">
    <path d="M 1762.47625 698.539875 
L 1762.47625 396.139875 
" style="fill: none; stroke: #000000; stroke-width: 0.8; stroke-linejoin: miter; stroke-linecap: square"/>
   </g>
   <g id="patch_34">
    <path d="M 1270.123309 698.539875 
L 1762.47625 698.539875 
" style="fill: none; stroke: #000000; stroke-width: 0.8; stroke-linejoin: miter; stroke-linecap: square"/>
   </g>
   <g id="patch_35">
    <path d="M 1270.123309 396.139875 
L 1762.47625 396.139875 
" style="fill: none; stroke: #000000; stroke-width: 0.8; stroke-linejoin: miter; stroke-linecap: square"/>
   </g>
   <g id="text_52">
    <!-- Mutation Operator -->
    <g transform="translate(1394.715404 390.139875) scale(0.264 -0.264)">
     <use xlink:href="#DejaVuSans-4d"/>
     <use xlink:href="#DejaVuSans-75" x="86.279297"/>
     <use xlink:href="#DejaVuSans-74" x="149.658203"/>
     <use xlink:href="#DejaVuSans-61" x="188.867188"/>
     <use xlink:href="#DejaVuSans-74" x="250.146484"/>
     <use xlink:href="#DejaVuSans-69" x="289.355469"/>
     <use xlink:href="#DejaVuSans-6f" x="317.138672"/>
     <use xlink:href="#DejaVuSans-6e" x="378.320312"/>
     <use xlink:href="#DejaVuSans-20" x="441.699219"/>
     <use xlink:href="#DejaVuSans-4f" x="473.486328"/>
     <use xlink:href="#DejaVuSans-70" x="552.197266"/>
     <use xlink:href="#DejaVuSans-65" x="615.673828"/>
     <use xlink:href="#DejaVuSans-72" x="677.197266"/>
     <use xlink:href="#DejaVuSans-61" x="718.310547"/>
     <use xlink:href="#DejaVuSans-74" x="779.589844"/>
     <use xlink:href="#DejaVuSans-6f" x="818.798828"/>
     <use xlink:href="#DejaVuSans-72" x="879.980469"/>
    </g>
   </g>
   <g id="legend_5">
    <g id="patch_36">
     <path d="M 1515.19625 542.907375 
L 1747.07625 542.907375 
Q 1751.47625 542.907375 1751.47625 538.507375 
L 1751.47625 411.539875 
Q 1751.47625 407.139875 1747.07625 407.139875 
L 1515.19625 407.139875 
Q 1510.79625 407.139875 1510.79625 411.539875 
L 1510.79625 538.507375 
Q 1510.79625 542.907375 1515.19625 542.907375 
z
" style="fill: #ffffff; opacity: 0.8; stroke: #cccccc; stroke-linejoin: miter"/>
    </g>
    <g id="line2d_68">
     <path d="M 1519.59625 424.956438 
L 1541.59625 424.956438 
L 1563.59625 424.956438 
" style="fill: none; stroke-dasharray: ; stroke-dashoffset: 0; stroke: #000000; stroke-width: 1.5"/>
    </g>
    <g id="text_53">
     <!-- 1(R+I) -->
     <g transform="translate(1581.19625 432.656438) scale(0.22 -0.22)">
      <defs>
       <path id="DejaVuSans-28" d="M 1984 4856 
Q 1566 4138 1362 3434 
Q 1159 2731 1159 2009 
Q 1159 1288 1364 580 
Q 1569 -128 1984 -844 
L 1484 -844 
Q 1016 -109 783 600 
Q 550 1309 550 2009 
Q 550 2706 781 3412 
Q 1013 4119 1484 4856 
L 1984 4856 
z
" transform="scale(0.015625)"/>
       <path id="DejaVuSans-52" d="M 2841 2188 
Q 3044 2119 3236 1894 
Q 3428 1669 3622 1275 
L 4263 0 
L 3584 0 
L 2988 1197 
Q 2756 1666 2539 1819 
Q 2322 1972 1947 1972 
L 1259 1972 
L 1259 0 
L 628 0 
L 628 4666 
L 2053 4666 
Q 2853 4666 3247 4331 
Q 3641 3997 3641 3322 
Q 3641 2881 3436 2590 
Q 3231 2300 2841 2188 
z
M 1259 4147 
L 1259 2491 
L 2053 2491 
Q 2509 2491 2742 2702 
Q 2975 2913 2975 3322 
Q 2975 3731 2742 3939 
Q 2509 4147 2053 4147 
L 1259 4147 
z
" transform="scale(0.015625)"/>
       <path id="DejaVuSans-2b" d="M 2944 4013 
L 2944 2272 
L 4684 2272 
L 4684 1741 
L 2944 1741 
L 2944 0 
L 2419 0 
L 2419 1741 
L 678 1741 
L 678 2272 
L 2419 2272 
L 2419 4013 
L 2944 4013 
z
" transform="scale(0.015625)"/>
       <path id="DejaVuSans-49" d="M 628 4666 
L 1259 4666 
L 1259 0 
L 628 0 
L 628 4666 
z
" transform="scale(0.015625)"/>
       <path id="DejaVuSans-29" d="M 513 4856 
L 1013 4856 
Q 1481 4119 1714 3412 
Q 1947 2706 1947 2009 
Q 1947 1309 1714 600 
Q 1481 -109 1013 -844 
L 513 -844 
Q 928 -128 1133 580 
Q 1338 1288 1338 2009 
Q 1338 2731 1133 3434 
Q 928 4138 513 4856 
z
" transform="scale(0.015625)"/>
      </defs>
      <use xlink:href="#DejaVuSans-31"/>
      <use xlink:href="#DejaVuSans-28" x="63.623047"/>
      <use xlink:href="#DejaVuSans-52" x="102.636719"/>
      <use xlink:href="#DejaVuSans-2b" x="172.119141"/>
      <use xlink:href="#DejaVuSans-49" x="255.908203"/>
      <use xlink:href="#DejaVuSans-29" x="285.400391"/>
     </g>
    </g>
    <g id="line2d_69">
     <path d="M 1519.59625 457.248313 
L 1541.59625 457.248313 
L 1563.59625 457.248313 
" style="fill: none; stroke-dasharray: 1.5,7.5; stroke-dashoffset: 0; stroke: #000000; stroke-width: 1.5"/>
    </g>
    <g id="text_54">
     <!-- X(R+I), $\lambda=0.1$ -->
     <g transform="translate(1581.19625 464.948313) scale(0.22 -0.22)">
      <defs>
       <path id="DejaVuSans-58" d="M 403 4666 
L 1081 4666 
L 2241 2931 
L 3406 4666 
L 4084 4666 
L 2584 2425 
L 4184 0 
L 3506 0 
L 2194 1984 
L 872 0 
L 191 0 
L 1856 2491 
L 403 4666 
z
" transform="scale(0.015625)"/>
       <path id="DejaVuSans-2c" d="M 750 794 
L 1409 794 
L 1409 256 
L 897 -744 
L 494 -744 
L 750 256 
L 750 794 
z
" transform="scale(0.015625)"/>
       <path id="DejaVuSans-Oblique-3bb" d="M 2350 4316 
L 3125 0 
L 2516 0 
L 2038 2588 
L 328 0 
L -281 0 
L 1903 3356 
L 1794 3975 
Q 1725 4369 1391 4369 
L 1091 4369 
L 1184 4863 
L 1550 4856 
Q 2253 4847 2350 4316 
z
" transform="scale(0.015625)"/>
       <path id="DejaVuSans-3d" d="M 678 2906 
L 4684 2906 
L 4684 2381 
L 678 2381 
L 678 2906 
z
M 678 1631 
L 4684 1631 
L 4684 1100 
L 678 1100 
L 678 1631 
z
" transform="scale(0.015625)"/>
      </defs>
      <use xlink:href="#DejaVuSans-58" transform="translate(0 0.015625)"/>
      <use xlink:href="#DejaVuSans-28" transform="translate(68.505859 0.015625)"/>
      <use xlink:href="#DejaVuSans-52" transform="translate(107.519531 0.015625)"/>
      <use xlink:href="#DejaVuSans-2b" transform="translate(177.001953 0.015625)"/>
      <use xlink:href="#DejaVuSans-49" transform="translate(260.791016 0.015625)"/>
      <use xlink:href="#DejaVuSans-29" transform="translate(290.283203 0.015625)"/>
      <use xlink:href="#DejaVuSans-2c" transform="translate(329.296875 0.015625)"/>
      <use xlink:href="#DejaVuSans-20" transform="translate(361.083984 0.015625)"/>
      <use xlink:href="#DejaVuSans-Oblique-3bb" transform="translate(392.871094 0.015625)"/>
      <use xlink:href="#DejaVuSans-3d" transform="translate(471.533203 0.015625)"/>
      <use xlink:href="#DejaVuSans-30" transform="translate(574.804688 0.015625)"/>
      <use xlink:href="#DejaVuSans-2e" transform="translate(638.427734 0.015625)"/>
      <use xlink:href="#DejaVuSans-31" transform="translate(670.214844 0.015625)"/>
     </g>
    </g>
    <g id="line2d_70">
     <path d="M 1519.59625 489.540188 
L 1541.59625 489.540188 
L 1563.59625 489.540188 
" style="fill: none; stroke-dasharray: 1.5,1.5; stroke-dashoffset: 0; stroke: #000000; stroke-width: 1.5"/>
    </g>
    <g id="text_55">
     <!-- X(R+I), $\lambda=1$ -->
     <g transform="translate(1581.19625 497.240188) scale(0.22 -0.22)">
      <use xlink:href="#DejaVuSans-58" transform="translate(0 0.015625)"/>
      <use xlink:href="#DejaVuSans-28" transform="translate(68.505859 0.015625)"/>
      <use xlink:href="#DejaVuSans-52" transform="translate(107.519531 0.015625)"/>
      <use xlink:href="#DejaVuSans-2b" transform="translate(177.001953 0.015625)"/>
      <use xlink:href="#DejaVuSans-49" transform="translate(260.791016 0.015625)"/>
      <use xlink:href="#DejaVuSans-29" transform="translate(290.283203 0.015625)"/>
      <use xlink:href="#DejaVuSans-2c" transform="translate(329.296875 0.015625)"/>
      <use xlink:href="#DejaVuSans-20" transform="translate(361.083984 0.015625)"/>
      <use xlink:href="#DejaVuSans-Oblique-3bb" transform="translate(392.871094 0.015625)"/>
      <use xlink:href="#DejaVuSans-3d" transform="translate(471.533203 0.015625)"/>
      <use xlink:href="#DejaVuSans-31" transform="translate(574.804688 0.015625)"/>
     </g>
    </g>
    <g id="line2d_71">
     <path d="M 1519.59625 521.832063 
L 1541.59625 521.832063 
L 1563.59625 521.832063 
" style="fill: none; stroke-dasharray: 7.5,7.5; stroke-dashoffset: 0; stroke: #000000; stroke-width: 1.5"/>
    </g>
    <g id="text_56">
     <!-- X(R+I), $\lambda=1.5$ -->
     <g transform="translate(1581.19625 529.532063) scale(0.22 -0.22)">
      <use xlink:href="#DejaVuSans-58" transform="translate(0 0.015625)"/>
      <use xlink:href="#DejaVuSans-28" transform="translate(68.505859 0.015625)"/>
      <use xlink:href="#DejaVuSans-52" transform="translate(107.519531 0.015625)"/>
      <use xlink:href="#DejaVuSans-2b" transform="translate(177.001953 0.015625)"/>
      <use xlink:href="#DejaVuSans-49" transform="translate(260.791016 0.015625)"/>
      <use xlink:href="#DejaVuSans-29" transform="translate(290.283203 0.015625)"/>
      <use xlink:href="#DejaVuSans-2c" transform="translate(329.296875 0.015625)"/>
      <use xlink:href="#DejaVuSans-20" transform="translate(361.083984 0.015625)"/>
      <use xlink:href="#DejaVuSans-Oblique-3bb" transform="translate(392.871094 0.015625)"/>
      <use xlink:href="#DejaVuSans-3d" transform="translate(471.533203 0.015625)"/>
      <use xlink:href="#DejaVuSans-31" transform="translate(574.804688 0.015625)"/>
      <use xlink:href="#DejaVuSans-2e" transform="translate(638.427734 0.015625)"/>
      <use xlink:href="#DejaVuSans-35" transform="translate(670.214844 0.015625)"/>
     </g>
    </g>
   </g>
  </g>
 </g>
 <defs>
  <clipPath id="p0773be1ece">
   <rect x="88.47625" y="33.259875" width="492.352941" height="302.4"/>
  </clipPath>
  <clipPath id="p128bcadb7a">
   <rect x="679.299779" y="33.259875" width="492.352941" height="302.4"/>
  </clipPath>
  <clipPath id="p39e1fc5308">
   <rect x="1270.123309" y="33.259875" width="492.352941" height="302.4"/>
  </clipPath>
  <clipPath id="p194520273a">
   <rect x="88.47625" y="396.139875" width="492.352941" height="302.4"/>
  </clipPath>
  <clipPath id="p564ede941e">
   <rect x="679.299779" y="396.139875" width="492.352941" height="302.4"/>
  </clipPath>
  <clipPath id="pcec8851334">
   <rect x="1270.123309" y="396.139875" width="492.352941" height="302.4"/>
  </clipPath>
 </defs>
</svg>
