<?xml version="1.0" encoding="utf-8" standalone="no"?>
<!DOCTYPE svg PUBLIC "-//W3C//DTD SVG 1.1//EN"
  "http://www.w3.org/Graphics/SVG/1.1/DTD/svg11.dtd">
<svg xmlns:xlink="http://www.w3.org/1999/xlink" width="1748.686875pt" height="759.323625pt" viewBox="0 0 1748.686875 759.323625" xmlns="http://www.w3.org/2000/svg" version="1.1">
 <metadata>
  <rdf:RDF xmlns:dc="http://purl.org/dc/elements/1.1/" xmlns:cc="http://creativecommons.org/ns#" xmlns:rdf="http://www.w3.org/1999/02/22-rdf-syntax-ns#">
   <cc:Work>
    <dc:type rdf:resource="http://purl.org/dc/dcmitype/StillImage"/>
    <dc:date>2025-01-16T16:27:02.946859</dc:date>
    <dc:format>image/svg+xml</dc:format>
    <dc:creator>
     <cc:Agent>
      <dc:title>Matplotlib v3.6.3, https://matplotlib.org/</dc:title>
     </cc:Agent>
    </dc:creator>
   </cc:Work>
  </rdf:RDF>
 </metadata>
 <defs>
  <style type="text/css">*{stroke-linejoin: round; stroke-linecap: butt}</style>
 </defs>
 <g id="figure_1">
  <g id="patch_1">
   <path d="M 0 759.323625 
L 1748.686875 759.323625 
L 1748.686875 0 
L 0 0 
z
" style="fill: #ffffff"/>
  </g>
  <g id="axes_1">
   <g id="patch_2">
    <path d="M 67.486875 335.659875 
L 559.839816 335.659875 
L 559.839816 33.259875 
L 67.486875 33.259875 
z
" style="fill: #ffffff"/>
   </g>
   <g id="matplotlib.axis_1"/>
   <g id="matplotlib.axis_2">
    <g id="ytick_1">
     <g id="line2d_1">
      <defs>
       <path id="m1f9381a783" d="M 0 0 
L -3.5 0 
" style="stroke: #000000; stroke-width: 0.8"/>
      </defs>
      <g>
       <use xlink:href="#m1f9381a783" x="67.486875" y="335.659875" style="stroke: #000000; stroke-width: 0.8"/>
      </g>
     </g>
     <g id="text_1">
      <!-- 0 -->
      <g transform="translate(46.489375 344.018156) scale(0.22 -0.22)">
       <defs>
        <path id="DejaVuSans-30" d="M 2034 4250 
Q 1547 4250 1301 3770 
Q 1056 3291 1056 2328 
Q 1056 1369 1301 889 
Q 1547 409 2034 409 
Q 2525 409 2770 889 
Q 3016 1369 3016 2328 
Q 3016 3291 2770 3770 
Q 2525 4250 2034 4250 
z
M 2034 4750 
Q 2819 4750 3233 4129 
Q 3647 3509 3647 2328 
Q 3647 1150 3233 529 
Q 2819 -91 2034 -91 
Q 1250 -91 836 529 
Q 422 1150 422 2328 
Q 422 3509 836 4129 
Q 1250 4750 2034 4750 
z
" transform="scale(0.015625)"/>
       </defs>
       <use xlink:href="#DejaVuSans-30"/>
      </g>
     </g>
    </g>
    <g id="ytick_2">
     <g id="line2d_2">
      <g>
       <use xlink:href="#m1f9381a783" x="67.486875" y="252.143189" style="stroke: #000000; stroke-width: 0.8"/>
      </g>
     </g>
     <g id="text_2">
      <!-- 20 -->
      <g transform="translate(32.491875 260.50147) scale(0.22 -0.22)">
       <defs>
        <path id="DejaVuSans-32" d="M 1228 531 
L 3431 531 
L 3431 0 
L 469 0 
L 469 531 
Q 828 903 1448 1529 
Q 2069 2156 2228 2338 
Q 2531 2678 2651 2914 
Q 2772 3150 2772 3378 
Q 2772 3750 2511 3984 
Q 2250 4219 1831 4219 
Q 1534 4219 1204 4116 
Q 875 4013 500 3803 
L 500 4441 
Q 881 4594 1212 4672 
Q 1544 4750 1819 4750 
Q 2544 4750 2975 4387 
Q 3406 4025 3406 3419 
Q 3406 3131 3298 2873 
Q 3191 2616 2906 2266 
Q 2828 2175 2409 1742 
Q 1991 1309 1228 531 
z
" transform="scale(0.015625)"/>
       </defs>
       <use xlink:href="#DejaVuSans-32"/>
       <use xlink:href="#DejaVuSans-30" x="63.623047"/>
      </g>
     </g>
    </g>
    <g id="ytick_3">
     <g id="line2d_3">
      <g>
       <use xlink:href="#m1f9381a783" x="67.486875" y="168.626503" style="stroke: #000000; stroke-width: 0.8"/>
      </g>
     </g>
     <g id="text_3">
      <!-- 40 -->
      <g transform="translate(32.491875 176.984785) scale(0.22 -0.22)">
       <defs>
        <path id="DejaVuSans-34" d="M 2419 4116 
L 825 1625 
L 2419 1625 
L 2419 4116 
z
M 2253 4666 
L 3047 4666 
L 3047 1625 
L 3713 1625 
L 3713 1100 
L 3047 1100 
L 3047 0 
L 2419 0 
L 2419 1100 
L 313 1100 
L 313 1709 
L 2253 4666 
z
" transform="scale(0.015625)"/>
       </defs>
       <use xlink:href="#DejaVuSans-34"/>
       <use xlink:href="#DejaVuSans-30" x="63.623047"/>
      </g>
     </g>
    </g>
    <g id="ytick_4">
     <g id="line2d_4">
      <g>
       <use xlink:href="#m1f9381a783" x="67.486875" y="85.109817" style="stroke: #000000; stroke-width: 0.8"/>
      </g>
     </g>
     <g id="text_4">
      <!-- 60 -->
      <g transform="translate(32.491875 93.468099) scale(0.22 -0.22)">
       <defs>
        <path id="DejaVuSans-36" d="M 2113 2584 
Q 1688 2584 1439 2293 
Q 1191 2003 1191 1497 
Q 1191 994 1439 701 
Q 1688 409 2113 409 
Q 2538 409 2786 701 
Q 3034 994 3034 1497 
Q 3034 2003 2786 2293 
Q 2538 2584 2113 2584 
z
M 3366 4563 
L 3366 3988 
Q 3128 4100 2886 4159 
Q 2644 4219 2406 4219 
Q 1781 4219 1451 3797 
Q 1122 3375 1075 2522 
Q 1259 2794 1537 2939 
Q 1816 3084 2150 3084 
Q 2853 3084 3261 2657 
Q 3669 2231 3669 1497 
Q 3669 778 3244 343 
Q 2819 -91 2113 -91 
Q 1303 -91 875 529 
Q 447 1150 447 2328 
Q 447 3434 972 4092 
Q 1497 4750 2381 4750 
Q 2619 4750 2861 4703 
Q 3103 4656 3366 4563 
z
" transform="scale(0.015625)"/>
       </defs>
       <use xlink:href="#DejaVuSans-36"/>
       <use xlink:href="#DejaVuSans-30" x="63.623047"/>
      </g>
     </g>
    </g>
    <g id="text_5">
     <!-- Improvement (%) -->
     <g transform="translate(23.916562 280.984875) rotate(-90) scale(0.22 -0.22)">
      <defs>
       <path id="DejaVuSans-49" d="M 628 4666 
L 1259 4666 
L 1259 0 
L 628 0 
L 628 4666 
z
" transform="scale(0.015625)"/>
       <path id="DejaVuSans-6d" d="M 3328 2828 
Q 3544 3216 3844 3400 
Q 4144 3584 4550 3584 
Q 5097 3584 5394 3201 
Q 5691 2819 5691 2113 
L 5691 0 
L 5113 0 
L 5113 2094 
Q 5113 2597 4934 2840 
Q 4756 3084 4391 3084 
Q 3944 3084 3684 2787 
Q 3425 2491 3425 1978 
L 3425 0 
L 2847 0 
L 2847 2094 
Q 2847 2600 2669 2842 
Q 2491 3084 2119 3084 
Q 1678 3084 1418 2786 
Q 1159 2488 1159 1978 
L 1159 0 
L 581 0 
L 581 3500 
L 1159 3500 
L 1159 2956 
Q 1356 3278 1631 3431 
Q 1906 3584 2284 3584 
Q 2666 3584 2933 3390 
Q 3200 3197 3328 2828 
z
" transform="scale(0.015625)"/>
       <path id="DejaVuSans-70" d="M 1159 525 
L 1159 -1331 
L 581 -1331 
L 581 3500 
L 1159 3500 
L 1159 2969 
Q 1341 3281 1617 3432 
Q 1894 3584 2278 3584 
Q 2916 3584 3314 3078 
Q 3713 2572 3713 1747 
Q 3713 922 3314 415 
Q 2916 -91 2278 -91 
Q 1894 -91 1617 61 
Q 1341 213 1159 525 
z
M 3116 1747 
Q 3116 2381 2855 2742 
Q 2594 3103 2138 3103 
Q 1681 3103 1420 2742 
Q 1159 2381 1159 1747 
Q 1159 1113 1420 752 
Q 1681 391 2138 391 
Q 2594 391 2855 752 
Q 3116 1113 3116 1747 
z
" transform="scale(0.015625)"/>
       <path id="DejaVuSans-72" d="M 2631 2963 
Q 2534 3019 2420 3045 
Q 2306 3072 2169 3072 
Q 1681 3072 1420 2755 
Q 1159 2438 1159 1844 
L 1159 0 
L 581 0 
L 581 3500 
L 1159 3500 
L 1159 2956 
Q 1341 3275 1631 3429 
Q 1922 3584 2338 3584 
Q 2397 3584 2469 3576 
Q 2541 3569 2628 3553 
L 2631 2963 
z
" transform="scale(0.015625)"/>
       <path id="DejaVuSans-6f" d="M 1959 3097 
Q 1497 3097 1228 2736 
Q 959 2375 959 1747 
Q 959 1119 1226 758 
Q 1494 397 1959 397 
Q 2419 397 2687 759 
Q 2956 1122 2956 1747 
Q 2956 2369 2687 2733 
Q 2419 3097 1959 3097 
z
M 1959 3584 
Q 2709 3584 3137 3096 
Q 3566 2609 3566 1747 
Q 3566 888 3137 398 
Q 2709 -91 1959 -91 
Q 1206 -91 779 398 
Q 353 888 353 1747 
Q 353 2609 779 3096 
Q 1206 3584 1959 3584 
z
" transform="scale(0.015625)"/>
       <path id="DejaVuSans-76" d="M 191 3500 
L 800 3500 
L 1894 563 
L 2988 3500 
L 3597 3500 
L 2284 0 
L 1503 0 
L 191 3500 
z
" transform="scale(0.015625)"/>
       <path id="DejaVuSans-65" d="M 3597 1894 
L 3597 1613 
L 953 1613 
Q 991 1019 1311 708 
Q 1631 397 2203 397 
Q 2534 397 2845 478 
Q 3156 559 3463 722 
L 3463 178 
Q 3153 47 2828 -22 
Q 2503 -91 2169 -91 
Q 1331 -91 842 396 
Q 353 884 353 1716 
Q 353 2575 817 3079 
Q 1281 3584 2069 3584 
Q 2775 3584 3186 3129 
Q 3597 2675 3597 1894 
z
M 3022 2063 
Q 3016 2534 2758 2815 
Q 2500 3097 2075 3097 
Q 1594 3097 1305 2825 
Q 1016 2553 972 2059 
L 3022 2063 
z
" transform="scale(0.015625)"/>
       <path id="DejaVuSans-6e" d="M 3513 2113 
L 3513 0 
L 2938 0 
L 2938 2094 
Q 2938 2591 2744 2837 
Q 2550 3084 2163 3084 
Q 1697 3084 1428 2787 
Q 1159 2491 1159 1978 
L 1159 0 
L 581 0 
L 581 3500 
L 1159 3500 
L 1159 2956 
Q 1366 3272 1645 3428 
Q 1925 3584 2291 3584 
Q 2894 3584 3203 3211 
Q 3513 2838 3513 2113 
z
" transform="scale(0.015625)"/>
       <path id="DejaVuSans-74" d="M 1172 4494 
L 1172 3500 
L 2356 3500 
L 2356 3053 
L 1172 3053 
L 1172 1153 
Q 1172 725 1289 603 
Q 1406 481 1766 481 
L 2356 481 
L 2356 0 
L 1766 0 
Q 1100 0 847 248 
Q 594 497 594 1153 
L 594 3053 
L 172 3053 
L 172 3500 
L 594 3500 
L 594 4494 
L 1172 4494 
z
" transform="scale(0.015625)"/>
       <path id="DejaVuSans-20" transform="scale(0.015625)"/>
       <path id="DejaVuSans-28" d="M 1984 4856 
Q 1566 4138 1362 3434 
Q 1159 2731 1159 2009 
Q 1159 1288 1364 580 
Q 1569 -128 1984 -844 
L 1484 -844 
Q 1016 -109 783 600 
Q 550 1309 550 2009 
Q 550 2706 781 3412 
Q 1013 4119 1484 4856 
L 1984 4856 
z
" transform="scale(0.015625)"/>
       <path id="DejaVuSans-25" d="M 4653 2053 
Q 4381 2053 4226 1822 
Q 4072 1591 4072 1178 
Q 4072 772 4226 539 
Q 4381 306 4653 306 
Q 4919 306 5073 539 
Q 5228 772 5228 1178 
Q 5228 1588 5073 1820 
Q 4919 2053 4653 2053 
z
M 4653 2450 
Q 5147 2450 5437 2106 
Q 5728 1763 5728 1178 
Q 5728 594 5436 251 
Q 5144 -91 4653 -91 
Q 4153 -91 3862 251 
Q 3572 594 3572 1178 
Q 3572 1766 3864 2108 
Q 4156 2450 4653 2450 
z
M 1428 4353 
Q 1159 4353 1004 4120 
Q 850 3888 850 3481 
Q 850 3069 1003 2837 
Q 1156 2606 1428 2606 
Q 1700 2606 1854 2837 
Q 2009 3069 2009 3481 
Q 2009 3884 1853 4118 
Q 1697 4353 1428 4353 
z
M 4250 4750 
L 4750 4750 
L 1831 -91 
L 1331 -91 
L 4250 4750 
z
M 1428 4750 
Q 1922 4750 2215 4408 
Q 2509 4066 2509 3481 
Q 2509 2891 2217 2550 
Q 1925 2209 1428 2209 
Q 931 2209 642 2551 
Q 353 2894 353 3481 
Q 353 4063 643 4406 
Q 934 4750 1428 4750 
z
" transform="scale(0.015625)"/>
       <path id="DejaVuSans-29" d="M 513 4856 
L 1013 4856 
Q 1481 4119 1714 3412 
Q 1947 2706 1947 2009 
Q 1947 1309 1714 600 
Q 1481 -109 1013 -844 
L 513 -844 
Q 928 -128 1133 580 
Q 1338 1288 1338 2009 
Q 1338 2731 1133 3434 
Q 928 4138 513 4856 
z
" transform="scale(0.015625)"/>
      </defs>
      <use xlink:href="#DejaVuSans-49"/>
      <use xlink:href="#DejaVuSans-6d" x="29.492188"/>
      <use xlink:href="#DejaVuSans-70" x="126.904297"/>
      <use xlink:href="#DejaVuSans-72" x="190.380859"/>
      <use xlink:href="#DejaVuSans-6f" x="229.244141"/>
      <use xlink:href="#DejaVuSans-76" x="290.425781"/>
      <use xlink:href="#DejaVuSans-65" x="349.605469"/>
      <use xlink:href="#DejaVuSans-6d" x="411.128906"/>
      <use xlink:href="#DejaVuSans-65" x="508.541016"/>
      <use xlink:href="#DejaVuSans-6e" x="570.064453"/>
      <use xlink:href="#DejaVuSans-74" x="633.443359"/>
      <use xlink:href="#DejaVuSans-20" x="672.652344"/>
      <use xlink:href="#DejaVuSans-28" x="704.439453"/>
      <use xlink:href="#DejaVuSans-25" x="743.453125"/>
      <use xlink:href="#DejaVuSans-29" x="838.472656"/>
     </g>
    </g>
   </g>
   <g id="line2d_5">
    <path d="M 89.866554 335.659875 
L 112.246233 326.230572 
L 134.625912 323.716091 
L 157.005592 321.111807 
L 179.385271 318.283016 
L 201.76495 315.993043 
L 224.144629 313.950027 
L 246.524308 311.121236 
L 268.903987 308.561854 
L 291.283666 305.598358 
L 313.663346 303.241032 
L 336.043025 299.873424 
L 358.422704 296.707872 
L 380.802383 292.576939 
L 403.182062 288.917472 
L 425.561741 283.439496 
L 447.94142 278.253379 
L 470.3211 273.044811 
L 492.700779 265.276862 
L 515.080458 256.857841 
L 537.460137 246.238649 
" clip-path="url(#p7b719c5e94)" style="fill: none; stroke-dasharray: ; stroke-dashoffset: 0; stroke: #000000; stroke-width: 1.5"/>
   </g>
   <g id="line2d_6">
    <path d="M 67.486875 335.659875 
L 559.839816 335.659875 
" clip-path="url(#p7b719c5e94)" style="fill: none; stroke: #000000; stroke-width: 1.5; stroke-linecap: square"/>
   </g>
   <g id="patch_3">
    <path d="M 67.486875 335.659875 
L 67.486875 33.259875 
" style="fill: none; stroke: #000000; stroke-width: 0.8; stroke-linejoin: miter; stroke-linecap: square"/>
   </g>
   <g id="patch_4">
    <path d="M 559.839816 335.659875 
L 559.839816 33.259875 
" style="fill: none; stroke: #000000; stroke-width: 0.8; stroke-linejoin: miter; stroke-linecap: square"/>
   </g>
   <g id="patch_5">
    <path d="M 67.486875 335.659875 
L 559.839816 335.659875 
" style="fill: none; stroke: #000000; stroke-width: 0.8; stroke-linejoin: miter; stroke-linecap: square"/>
   </g>
   <g id="patch_6">
    <path d="M 67.486875 33.259875 
L 559.839816 33.259875 
" style="fill: none; stroke: #000000; stroke-width: 0.8; stroke-linejoin: miter; stroke-linecap: square"/>
   </g>
   <g id="text_6">
    <!-- Overall -->
    <g transform="translate(266.487783 27.259875) scale(0.264 -0.264)">
     <defs>
      <path id="DejaVuSans-4f" d="M 2522 4238 
Q 1834 4238 1429 3725 
Q 1025 3213 1025 2328 
Q 1025 1447 1429 934 
Q 1834 422 2522 422 
Q 3209 422 3611 934 
Q 4013 1447 4013 2328 
Q 4013 3213 3611 3725 
Q 3209 4238 2522 4238 
z
M 2522 4750 
Q 3503 4750 4090 4092 
Q 4678 3434 4678 2328 
Q 4678 1225 4090 567 
Q 3503 -91 2522 -91 
Q 1538 -91 948 565 
Q 359 1222 359 2328 
Q 359 3434 948 4092 
Q 1538 4750 2522 4750 
z
" transform="scale(0.015625)"/>
      <path id="DejaVuSans-61" d="M 2194 1759 
Q 1497 1759 1228 1600 
Q 959 1441 959 1056 
Q 959 750 1161 570 
Q 1363 391 1709 391 
Q 2188 391 2477 730 
Q 2766 1069 2766 1631 
L 2766 1759 
L 2194 1759 
z
M 3341 1997 
L 3341 0 
L 2766 0 
L 2766 531 
Q 2569 213 2275 61 
Q 1981 -91 1556 -91 
Q 1019 -91 701 211 
Q 384 513 384 1019 
Q 384 1609 779 1909 
Q 1175 2209 1959 2209 
L 2766 2209 
L 2766 2266 
Q 2766 2663 2505 2880 
Q 2244 3097 1772 3097 
Q 1472 3097 1187 3025 
Q 903 2953 641 2809 
L 641 3341 
Q 956 3463 1253 3523 
Q 1550 3584 1831 3584 
Q 2591 3584 2966 3190 
Q 3341 2797 3341 1997 
z
" transform="scale(0.015625)"/>
      <path id="DejaVuSans-6c" d="M 603 4863 
L 1178 4863 
L 1178 0 
L 603 0 
L 603 4863 
z
" transform="scale(0.015625)"/>
     </defs>
     <use xlink:href="#DejaVuSans-4f"/>
     <use xlink:href="#DejaVuSans-76" x="78.710938"/>
     <use xlink:href="#DejaVuSans-65" x="137.890625"/>
     <use xlink:href="#DejaVuSans-72" x="199.414062"/>
     <use xlink:href="#DejaVuSans-61" x="240.527344"/>
     <use xlink:href="#DejaVuSans-6c" x="301.806641"/>
     <use xlink:href="#DejaVuSans-6c" x="329.589844"/>
    </g>
   </g>
  </g>
  <g id="axes_2">
   <g id="patch_7">
    <path d="M 658.310404 335.659875 
L 1150.663346 335.659875 
L 1150.663346 33.259875 
L 658.310404 33.259875 
z
" style="fill: #ffffff"/>
   </g>
   <g id="matplotlib.axis_3"/>
   <g id="matplotlib.axis_4"/>
   <g id="line2d_7">
    <path d="M 680.690084 335.659875 
L 703.069763 327.147597 
L 725.449442 327.094061 
L 747.829121 326.076871 
L 770.2088 325.006144 
L 792.588479 324.577853 
L 814.968158 323.935417 
L 837.347838 321.579818 
L 859.727517 321.472746 
L 882.107196 320.24141 
L 904.486875 320.027265 
L 926.866554 318.63532 
L 949.246233 318.63532 
L 971.625912 317.618129 
L 994.005592 316.547403 
L 1016.385271 314.24534 
L 1038.76495 313.549368 
L 1061.144629 313.65644 
L 1083.524308 313.549368 
L 1105.903987 312.799859 
L 1128.283666 313.763513 
" clip-path="url(#p38042fb186)" style="fill: none; stroke-dasharray: ; stroke-dashoffset: 0; stroke: #000000; stroke-width: 1.5"/>
   </g>
   <g id="line2d_8">
    <path d="M 680.690084 335.659875 
L 703.069763 326.194651 
L 725.449442 324.245928 
L 747.829121 320.000496 
L 770.2088 317.425399 
L 792.588479 314.084731 
L 814.968158 311.85762 
L 837.347838 307.890577 
L 859.727517 302.392395 
L 882.107196 298.634144 
L 904.486875 294.945491 
L 926.866554 290.700059 
L 949.246233 286.733017 
L 971.625912 280.678057 
L 994.005592 277.546181 
L 1016.385271 271.76961 
L 1038.76495 267.176193 
L 1061.144629 258.128552 
L 1083.524308 248.663327 
L 1105.903987 244.974674 
L 1128.283666 239.406895 
" clip-path="url(#p38042fb186)" style="fill: none; stroke-dasharray: 1.5,7.5; stroke-dashoffset: 0; stroke: #000000; stroke-width: 1.5"/>
   </g>
   <g id="line2d_9">
    <path d="M 680.690084 335.659875 
L 703.069763 327.540197 
L 725.449442 318.608552 
L 747.829121 315.824662 
L 770.2088 311.648828 
L 792.588479 307.241003 
L 814.968158 303.181164 
L 837.347838 300.745261 
L 859.727517 297.72938 
L 882.107196 292.045606 
L 904.486875 288.333753 
L 926.866554 283.577942 
L 949.246233 275.574259 
L 971.625912 270.00648 
L 994.005592 261.654812 
L 1016.385271 252.027194 
L 1038.76495 240.659645 
L 1061.144629 231.727999 
L 1083.524308 216.764593 
L 1105.903987 190.89762 
L 1128.283666 173.150324 
" clip-path="url(#p38042fb186)" style="fill: none; stroke-dasharray: 1.5,1.5; stroke-dashoffset: 0; stroke: #000000; stroke-width: 1.5"/>
   </g>
   <g id="line2d_10">
    <path d="M 680.690084 335.659875 
L 703.069763 316.520634 
L 725.449442 314.432717 
L 747.829121 310.256883 
L 770.2088 298.773339 
L 792.588479 295.989449 
L 814.968158 291.813615 
L 837.347838 290.42167 
L 859.727517 287.985767 
L 882.107196 285.89785 
L 904.486875 280.330071 
L 926.866554 272.674374 
L 949.246233 267.454582 
L 971.625912 257.014996 
L 994.005592 247.967355 
L 1016.385271 235.787838 
L 1038.76495 216.996584 
L 1061.144629 207.600957 
L 1083.524308 180.110048 
L 1105.903987 150.531221 
L 1128.283666 60.750784 
" clip-path="url(#p38042fb186)" style="fill: none; stroke-dasharray: 7.5,7.5; stroke-dashoffset: 0; stroke: #000000; stroke-width: 1.5"/>
   </g>
   <g id="line2d_11">
    <path d="M 658.310404 335.659875 
L 1150.663346 335.659875 
" clip-path="url(#p38042fb186)" style="fill: none; stroke: #000000; stroke-width: 1.5; stroke-linecap: square"/>
   </g>
   <g id="patch_8">
    <path d="M 658.310404 335.659875 
L 658.310404 33.259875 
" style="fill: none; stroke: #000000; stroke-width: 0.8; stroke-linejoin: miter; stroke-linecap: square"/>
   </g>
   <g id="patch_9">
    <path d="M 1150.663346 335.659875 
L 1150.663346 33.259875 
" style="fill: none; stroke: #000000; stroke-width: 0.8; stroke-linejoin: miter; stroke-linecap: square"/>
   </g>
   <g id="patch_10">
    <path d="M 658.310404 335.659875 
L 1150.663346 335.659875 
" style="fill: none; stroke: #000000; stroke-width: 0.8; stroke-linejoin: miter; stroke-linecap: square"/>
   </g>
   <g id="patch_11">
    <path d="M 658.310404 33.259875 
L 1150.663346 33.259875 
" style="fill: none; stroke: #000000; stroke-width: 0.8; stroke-linejoin: miter; stroke-linecap: square"/>
   </g>
   <g id="text_7">
    <!-- Population Size -->
    <g transform="translate(803.851313 27.259875) scale(0.264 -0.264)">
     <defs>
      <path id="DejaVuSans-50" d="M 1259 4147 
L 1259 2394 
L 2053 2394 
Q 2494 2394 2734 2622 
Q 2975 2850 2975 3272 
Q 2975 3691 2734 3919 
Q 2494 4147 2053 4147 
L 1259 4147 
z
M 628 4666 
L 2053 4666 
Q 2838 4666 3239 4311 
Q 3641 3956 3641 3272 
Q 3641 2581 3239 2228 
Q 2838 1875 2053 1875 
L 1259 1875 
L 1259 0 
L 628 0 
L 628 4666 
z
" transform="scale(0.015625)"/>
      <path id="DejaVuSans-75" d="M 544 1381 
L 544 3500 
L 1119 3500 
L 1119 1403 
Q 1119 906 1312 657 
Q 1506 409 1894 409 
Q 2359 409 2629 706 
Q 2900 1003 2900 1516 
L 2900 3500 
L 3475 3500 
L 3475 0 
L 2900 0 
L 2900 538 
Q 2691 219 2414 64 
Q 2138 -91 1772 -91 
Q 1169 -91 856 284 
Q 544 659 544 1381 
z
M 1991 3584 
L 1991 3584 
z
" transform="scale(0.015625)"/>
      <path id="DejaVuSans-69" d="M 603 3500 
L 1178 3500 
L 1178 0 
L 603 0 
L 603 3500 
z
M 603 4863 
L 1178 4863 
L 1178 4134 
L 603 4134 
L 603 4863 
z
" transform="scale(0.015625)"/>
      <path id="DejaVuSans-53" d="M 3425 4513 
L 3425 3897 
Q 3066 4069 2747 4153 
Q 2428 4238 2131 4238 
Q 1616 4238 1336 4038 
Q 1056 3838 1056 3469 
Q 1056 3159 1242 3001 
Q 1428 2844 1947 2747 
L 2328 2669 
Q 3034 2534 3370 2195 
Q 3706 1856 3706 1288 
Q 3706 609 3251 259 
Q 2797 -91 1919 -91 
Q 1588 -91 1214 -16 
Q 841 59 441 206 
L 441 856 
Q 825 641 1194 531 
Q 1563 422 1919 422 
Q 2459 422 2753 634 
Q 3047 847 3047 1241 
Q 3047 1584 2836 1778 
Q 2625 1972 2144 2069 
L 1759 2144 
Q 1053 2284 737 2584 
Q 422 2884 422 3419 
Q 422 4038 858 4394 
Q 1294 4750 2059 4750 
Q 2388 4750 2728 4690 
Q 3069 4631 3425 4513 
z
" transform="scale(0.015625)"/>
      <path id="DejaVuSans-7a" d="M 353 3500 
L 3084 3500 
L 3084 2975 
L 922 459 
L 3084 459 
L 3084 0 
L 275 0 
L 275 525 
L 2438 3041 
L 353 3041 
L 353 3500 
z
" transform="scale(0.015625)"/>
     </defs>
     <use xlink:href="#DejaVuSans-50"/>
     <use xlink:href="#DejaVuSans-6f" x="56.677734"/>
     <use xlink:href="#DejaVuSans-70" x="117.859375"/>
     <use xlink:href="#DejaVuSans-75" x="181.335938"/>
     <use xlink:href="#DejaVuSans-6c" x="244.714844"/>
     <use xlink:href="#DejaVuSans-61" x="272.498047"/>
     <use xlink:href="#DejaVuSans-74" x="333.777344"/>
     <use xlink:href="#DejaVuSans-69" x="372.986328"/>
     <use xlink:href="#DejaVuSans-6f" x="400.769531"/>
     <use xlink:href="#DejaVuSans-6e" x="461.951172"/>
     <use xlink:href="#DejaVuSans-20" x="525.330078"/>
     <use xlink:href="#DejaVuSans-53" x="557.117188"/>
     <use xlink:href="#DejaVuSans-69" x="620.59375"/>
     <use xlink:href="#DejaVuSans-7a" x="648.376953"/>
     <use xlink:href="#DejaVuSans-65" x="700.867188"/>
    </g>
   </g>
   <g id="legend_1">
    <g id="patch_12">
     <path d="M 673.710404 180.027375 
L 772.105404 180.027375 
Q 776.505404 180.027375 776.505404 175.627375 
L 776.505404 48.659875 
Q 776.505404 44.259875 772.105404 44.259875 
L 673.710404 44.259875 
Q 669.310404 44.259875 669.310404 48.659875 
L 669.310404 175.627375 
Q 669.310404 180.027375 673.710404 180.027375 
z
" style="fill: #ffffff; opacity: 0.8; stroke: #cccccc; stroke-linejoin: miter"/>
    </g>
    <g id="line2d_12">
     <path d="M 678.110404 62.076438 
L 700.110404 62.076438 
L 722.110404 62.076438 
" style="fill: none; stroke-dasharray: ; stroke-dashoffset: 0; stroke: #000000; stroke-width: 1.5"/>
    </g>
    <g id="text_8">
     <!-- 2 -->
     <g transform="translate(739.710404 69.776438) scale(0.22 -0.22)">
      <use xlink:href="#DejaVuSans-32"/>
     </g>
    </g>
    <g id="line2d_13">
     <path d="M 678.110404 94.368313 
L 700.110404 94.368313 
L 722.110404 94.368313 
" style="fill: none; stroke-dasharray: 1.5,7.5; stroke-dashoffset: 0; stroke: #000000; stroke-width: 1.5"/>
    </g>
    <g id="text_9">
     <!-- 5 -->
     <g transform="translate(739.710404 102.068313) scale(0.22 -0.22)">
      <defs>
       <path id="DejaVuSans-35" d="M 691 4666 
L 3169 4666 
L 3169 4134 
L 1269 4134 
L 1269 2991 
Q 1406 3038 1543 3061 
Q 1681 3084 1819 3084 
Q 2600 3084 3056 2656 
Q 3513 2228 3513 1497 
Q 3513 744 3044 326 
Q 2575 -91 1722 -91 
Q 1428 -91 1123 -41 
Q 819 9 494 109 
L 494 744 
Q 775 591 1075 516 
Q 1375 441 1709 441 
Q 2250 441 2565 725 
Q 2881 1009 2881 1497 
Q 2881 1984 2565 2268 
Q 2250 2553 1709 2553 
Q 1456 2553 1204 2497 
Q 953 2441 691 2322 
L 691 4666 
z
" transform="scale(0.015625)"/>
      </defs>
      <use xlink:href="#DejaVuSans-35"/>
     </g>
    </g>
    <g id="line2d_14">
     <path d="M 678.110404 126.660188 
L 700.110404 126.660188 
L 722.110404 126.660188 
" style="fill: none; stroke-dasharray: 1.5,1.5; stroke-dashoffset: 0; stroke: #000000; stroke-width: 1.5"/>
    </g>
    <g id="text_10">
     <!-- 10 -->
     <g transform="translate(739.710404 134.360188) scale(0.22 -0.22)">
      <defs>
       <path id="DejaVuSans-31" d="M 794 531 
L 1825 531 
L 1825 4091 
L 703 3866 
L 703 4441 
L 1819 4666 
L 2450 4666 
L 2450 531 
L 3481 531 
L 3481 0 
L 794 0 
L 794 531 
z
" transform="scale(0.015625)"/>
      </defs>
      <use xlink:href="#DejaVuSans-31"/>
      <use xlink:href="#DejaVuSans-30" x="63.623047"/>
     </g>
    </g>
    <g id="line2d_15">
     <path d="M 678.110404 158.952063 
L 700.110404 158.952063 
L 722.110404 158.952063 
" style="fill: none; stroke-dasharray: 7.5,7.5; stroke-dashoffset: 0; stroke: #000000; stroke-width: 1.5"/>
    </g>
    <g id="text_11">
     <!-- 25 -->
     <g transform="translate(739.710404 166.652063) scale(0.22 -0.22)">
      <use xlink:href="#DejaVuSans-32"/>
      <use xlink:href="#DejaVuSans-35" x="63.623047"/>
     </g>
    </g>
   </g>
  </g>
  <g id="axes_3">
   <g id="patch_13">
    <path d="M 1249.133934 335.659875 
L 1741.486875 335.659875 
L 1741.486875 33.259875 
L 1249.133934 33.259875 
z
" style="fill: #ffffff"/>
   </g>
   <g id="matplotlib.axis_5"/>
   <g id="matplotlib.axis_6"/>
   <g id="line2d_16">
    <path d="M 1271.513613 335.659875 
L 1293.893292 284.505905 
L 1316.272971 284.505905 
L 1338.65265 276.154236 
L 1361.03233 271.28243 
L 1383.412009 266.410623 
L 1405.791688 263.97472 
L 1428.171367 256.319023 
L 1450.551046 243.095548 
L 1472.930725 236.135824 
L 1495.310404 231.612004 
L 1517.690084 224.304294 
L 1540.069763 220.12846 
L 1562.449442 208.296929 
L 1584.829121 206.209012 
L 1607.2088 198.553316 
L 1629.588479 190.89762 
L 1651.968158 175.934213 
L 1674.347838 155.751014 
L 1696.727517 148.443304 
L 1719.107196 148.443304 
" clip-path="url(#p791ac835c7)" style="fill: none; stroke-dasharray: ; stroke-dashoffset: 0; stroke: #000000; stroke-width: 1.5"/>
   </g>
   <g id="line2d_17">
    <path d="M 1271.513613 335.659875 
L 1293.893292 321.601233 
L 1316.272971 317.14701 
L 1338.65265 313.806342 
L 1361.03233 310.465675 
L 1383.412009 307.681785 
L 1405.791688 305.03709 
L 1428.171367 300.304478 
L 1450.551046 296.685422 
L 1472.930725 290.978448 
L 1495.310404 288.612142 
L 1517.690084 282.487585 
L 1540.069763 276.780611 
L 1562.449442 273.022361 
L 1584.829121 267.593776 
L 1607.2088 261.469219 
L 1629.588479 254.370301 
L 1651.968158 249.498494 
L 1674.347838 241.564409 
L 1696.727517 229.315295 
L 1719.107196 221.937988 
" clip-path="url(#p791ac835c7)" style="fill: none; stroke-dasharray: 1.5,7.5; stroke-dashoffset: 0; stroke: #000000; stroke-width: 1.5"/>
   </g>
   <g id="line2d_18">
    <path d="M 1271.513613 335.659875 
L 1293.893292 327.772188 
L 1316.272971 322.4364 
L 1338.65265 319.420519 
L 1361.03233 317.332602 
L 1383.412009 313.62075 
L 1405.791688 310.604869 
L 1428.171367 306.31304 
L 1450.551046 305.03709 
L 1472.930725 302.601187 
L 1495.310404 299.00533 
L 1517.690084 297.497389 
L 1540.069763 293.785537 
L 1562.449442 289.261716 
L 1584.829121 286.245836 
L 1607.2088 276.966204 
L 1629.588479 272.210393 
L 1651.968158 265.946641 
L 1674.347838 258.986918 
L 1696.727517 247.967355 
L 1719.107196 236.483811 
" clip-path="url(#p791ac835c7)" style="fill: none; stroke-dasharray: 1.5,1.5; stroke-dashoffset: 0; stroke: #000000; stroke-width: 1.5"/>
   </g>
   <g id="line2d_19">
    <path d="M 1271.513613 335.659875 
L 1293.893292 330.875065 
L 1316.272971 329.570117 
L 1338.65265 327.395203 
L 1361.03233 323.654351 
L 1383.412009 321.653431 
L 1405.791688 319.739507 
L 1428.171367 317.3906 
L 1450.551046 315.12869 
L 1472.930725 313.301762 
L 1495.310404 311.126849 
L 1517.690084 307.385997 
L 1540.069763 305.385076 
L 1562.449442 300.426273 
L 1584.829121 296.250439 
L 1607.2088 291.378632 
L 1629.588479 284.505905 
L 1651.968158 280.417067 
L 1674.347838 272.239392 
L 1696.727517 265.279668 
L 1719.107196 248.83732 
" clip-path="url(#p791ac835c7)" style="fill: none; stroke-dasharray: 7.5,7.5; stroke-dashoffset: 0; stroke: #000000; stroke-width: 1.5"/>
   </g>
   <g id="line2d_20">
    <path d="M 1271.513613 335.659875 
L 1293.893292 332.24961 
L 1316.272971 330.927263 
L 1338.65265 329.74411 
L 1361.03233 327.864984 
L 1383.412009 326.96022 
L 1405.791688 325.777067 
L 1428.171367 325.359484 
L 1450.551046 324.45472 
L 1472.930725 322.4364 
L 1495.310404 321.114052 
L 1517.690084 319.095732 
L 1540.069763 316.799023 
L 1562.449442 314.919898 
L 1584.829121 311.85762 
L 1607.2088 308.934536 
L 1629.588479 306.28984 
L 1651.968158 302.601187 
L 1674.347838 297.2422 
L 1696.727517 290.908851 
L 1719.107196 281.722015 
" clip-path="url(#p791ac835c7)" style="fill: none; stroke-dasharray: 4.5,7.5,1.5,7.5; stroke-dashoffset: 0; stroke: #000000; stroke-width: 1.5"/>
   </g>
   <g id="line2d_21">
    <path d="M 1249.133934 335.659875 
L 1741.486875 335.659875 
" clip-path="url(#p791ac835c7)" style="fill: none; stroke: #000000; stroke-width: 1.5; stroke-linecap: square"/>
   </g>
   <g id="patch_14">
    <path d="M 1249.133934 335.659875 
L 1249.133934 33.259875 
" style="fill: none; stroke: #000000; stroke-width: 0.8; stroke-linejoin: miter; stroke-linecap: square"/>
   </g>
   <g id="patch_15">
    <path d="M 1741.486875 335.659875 
L 1741.486875 33.259875 
" style="fill: none; stroke: #000000; stroke-width: 0.8; stroke-linejoin: miter; stroke-linecap: square"/>
   </g>
   <g id="patch_16">
    <path d="M 1249.133934 335.659875 
L 1741.486875 335.659875 
" style="fill: none; stroke: #000000; stroke-width: 0.8; stroke-linejoin: miter; stroke-linecap: square"/>
   </g>
   <g id="patch_17">
    <path d="M 1249.133934 33.259875 
L 1741.486875 33.259875 
" style="fill: none; stroke: #000000; stroke-width: 0.8; stroke-linejoin: miter; stroke-linecap: square"/>
   </g>
   <g id="text_12">
    <!-- Number of Jobs -->
    <g transform="translate(1393.942654 27.259875) scale(0.264 -0.264)">
     <defs>
      <path id="DejaVuSans-4e" d="M 628 4666 
L 1478 4666 
L 3547 763 
L 3547 4666 
L 4159 4666 
L 4159 0 
L 3309 0 
L 1241 3903 
L 1241 0 
L 628 0 
L 628 4666 
z
" transform="scale(0.015625)"/>
      <path id="DejaVuSans-62" d="M 3116 1747 
Q 3116 2381 2855 2742 
Q 2594 3103 2138 3103 
Q 1681 3103 1420 2742 
Q 1159 2381 1159 1747 
Q 1159 1113 1420 752 
Q 1681 391 2138 391 
Q 2594 391 2855 752 
Q 3116 1113 3116 1747 
z
M 1159 2969 
Q 1341 3281 1617 3432 
Q 1894 3584 2278 3584 
Q 2916 3584 3314 3078 
Q 3713 2572 3713 1747 
Q 3713 922 3314 415 
Q 2916 -91 2278 -91 
Q 1894 -91 1617 61 
Q 1341 213 1159 525 
L 1159 0 
L 581 0 
L 581 4863 
L 1159 4863 
L 1159 2969 
z
" transform="scale(0.015625)"/>
      <path id="DejaVuSans-66" d="M 2375 4863 
L 2375 4384 
L 1825 4384 
Q 1516 4384 1395 4259 
Q 1275 4134 1275 3809 
L 1275 3500 
L 2222 3500 
L 2222 3053 
L 1275 3053 
L 1275 0 
L 697 0 
L 697 3053 
L 147 3053 
L 147 3500 
L 697 3500 
L 697 3744 
Q 697 4328 969 4595 
Q 1241 4863 1831 4863 
L 2375 4863 
z
" transform="scale(0.015625)"/>
      <path id="DejaVuSans-4a" d="M 628 4666 
L 1259 4666 
L 1259 325 
Q 1259 -519 939 -900 
Q 619 -1281 -91 -1281 
L -331 -1281 
L -331 -750 
L -134 -750 
Q 284 -750 456 -515 
Q 628 -281 628 325 
L 628 4666 
z
" transform="scale(0.015625)"/>
      <path id="DejaVuSans-73" d="M 2834 3397 
L 2834 2853 
Q 2591 2978 2328 3040 
Q 2066 3103 1784 3103 
Q 1356 3103 1142 2972 
Q 928 2841 928 2578 
Q 928 2378 1081 2264 
Q 1234 2150 1697 2047 
L 1894 2003 
Q 2506 1872 2764 1633 
Q 3022 1394 3022 966 
Q 3022 478 2636 193 
Q 2250 -91 1575 -91 
Q 1294 -91 989 -36 
Q 684 19 347 128 
L 347 722 
Q 666 556 975 473 
Q 1284 391 1588 391 
Q 1994 391 2212 530 
Q 2431 669 2431 922 
Q 2431 1156 2273 1281 
Q 2116 1406 1581 1522 
L 1381 1569 
Q 847 1681 609 1914 
Q 372 2147 372 2553 
Q 372 3047 722 3315 
Q 1072 3584 1716 3584 
Q 2034 3584 2315 3537 
Q 2597 3491 2834 3397 
z
" transform="scale(0.015625)"/>
     </defs>
     <use xlink:href="#DejaVuSans-4e"/>
     <use xlink:href="#DejaVuSans-75" x="74.804688"/>
     <use xlink:href="#DejaVuSans-6d" x="138.183594"/>
     <use xlink:href="#DejaVuSans-62" x="235.595703"/>
     <use xlink:href="#DejaVuSans-65" x="299.072266"/>
     <use xlink:href="#DejaVuSans-72" x="360.595703"/>
     <use xlink:href="#DejaVuSans-20" x="401.708984"/>
     <use xlink:href="#DejaVuSans-6f" x="433.496094"/>
     <use xlink:href="#DejaVuSans-66" x="494.677734"/>
     <use xlink:href="#DejaVuSans-20" x="529.882812"/>
     <use xlink:href="#DejaVuSans-4a" x="561.669922"/>
     <use xlink:href="#DejaVuSans-6f" x="591.162109"/>
     <use xlink:href="#DejaVuSans-62" x="652.34375"/>
     <use xlink:href="#DejaVuSans-73" x="715.820312"/>
    </g>
   </g>
   <g id="legend_2">
    <g id="patch_18">
     <path d="M 1264.533934 212.31925 
L 1362.928934 212.31925 
Q 1367.328934 212.31925 1367.328934 207.91925 
L 1367.328934 48.659875 
Q 1367.328934 44.259875 1362.928934 44.259875 
L 1264.533934 44.259875 
Q 1260.133934 44.259875 1260.133934 48.659875 
L 1260.133934 207.91925 
Q 1260.133934 212.31925 1264.533934 212.31925 
z
" style="fill: #ffffff; opacity: 0.8; stroke: #cccccc; stroke-linejoin: miter"/>
    </g>
    <g id="line2d_22">
     <path d="M 1268.933934 62.076438 
L 1290.933934 62.076438 
L 1312.933934 62.076438 
" style="fill: none; stroke-dasharray: ; stroke-dashoffset: 0; stroke: #000000; stroke-width: 1.5"/>
    </g>
    <g id="text_13">
     <!-- 5 -->
     <g transform="translate(1330.533934 69.776438) scale(0.22 -0.22)">
      <use xlink:href="#DejaVuSans-35"/>
     </g>
    </g>
    <g id="line2d_23">
     <path d="M 1268.933934 94.368313 
L 1290.933934 94.368313 
L 1312.933934 94.368313 
" style="fill: none; stroke-dasharray: 1.5,7.5; stroke-dashoffset: 0; stroke: #000000; stroke-width: 1.5"/>
    </g>
    <g id="text_14">
     <!-- 10 -->
     <g transform="translate(1330.533934 102.068313) scale(0.22 -0.22)">
      <use xlink:href="#DejaVuSans-31"/>
      <use xlink:href="#DejaVuSans-30" x="63.623047"/>
     </g>
    </g>
    <g id="line2d_24">
     <path d="M 1268.933934 126.660188 
L 1290.933934 126.660188 
L 1312.933934 126.660188 
" style="fill: none; stroke-dasharray: 1.5,1.5; stroke-dashoffset: 0; stroke: #000000; stroke-width: 1.5"/>
    </g>
    <g id="text_15">
     <!-- 15 -->
     <g transform="translate(1330.533934 134.360188) scale(0.22 -0.22)">
      <use xlink:href="#DejaVuSans-31"/>
      <use xlink:href="#DejaVuSans-35" x="63.623047"/>
     </g>
    </g>
    <g id="line2d_25">
     <path d="M 1268.933934 158.952063 
L 1290.933934 158.952063 
L 1312.933934 158.952063 
" style="fill: none; stroke-dasharray: 7.5,7.5; stroke-dashoffset: 0; stroke: #000000; stroke-width: 1.5"/>
    </g>
    <g id="text_16">
     <!-- 25 -->
     <g transform="translate(1330.533934 166.652063) scale(0.22 -0.22)">
      <use xlink:href="#DejaVuSans-32"/>
      <use xlink:href="#DejaVuSans-35" x="63.623047"/>
     </g>
    </g>
    <g id="line2d_26">
     <path d="M 1268.933934 191.243938 
L 1290.933934 191.243938 
L 1312.933934 191.243938 
" style="fill: none; stroke-dasharray: 4.5,7.5,1.5,7.5; stroke-dashoffset: 0; stroke: #000000; stroke-width: 1.5"/>
    </g>
    <g id="text_17">
     <!-- 50 -->
     <g transform="translate(1330.533934 198.943938) scale(0.22 -0.22)">
      <use xlink:href="#DejaVuSans-35"/>
      <use xlink:href="#DejaVuSans-30" x="63.623047"/>
     </g>
    </g>
   </g>
  </g>
  <g id="axes_4">
   <g id="patch_19">
    <path d="M 67.486875 698.539875 
L 559.839816 698.539875 
L 559.839816 396.139875 
L 67.486875 396.139875 
z
" style="fill: #ffffff"/>
   </g>
   <g id="matplotlib.axis_7">
    <g id="xtick_1">
     <g id="line2d_27">
      <defs>
       <path id="ma40b7dfed2" d="M 0 0 
L 0 3.5 
" style="stroke: #000000; stroke-width: 0.8"/>
      </defs>
      <g>
       <use xlink:href="#ma40b7dfed2" x="89.866554" y="698.539875" style="stroke: #000000; stroke-width: 0.8"/>
      </g>
     </g>
     <g id="text_18">
      <!-- 0.0 -->
      <g transform="translate(72.373117 722.256438) scale(0.22 -0.22)">
       <defs>
        <path id="DejaVuSans-2e" d="M 684 794 
L 1344 794 
L 1344 0 
L 684 0 
L 684 794 
z
" transform="scale(0.015625)"/>
       </defs>
       <use xlink:href="#DejaVuSans-30"/>
       <use xlink:href="#DejaVuSans-2e" x="63.623047"/>
       <use xlink:href="#DejaVuSans-30" x="95.410156"/>
      </g>
     </g>
    </g>
    <g id="xtick_2">
     <g id="line2d_28">
      <g>
       <use xlink:href="#ma40b7dfed2" x="179.385271" y="698.539875" style="stroke: #000000; stroke-width: 0.8"/>
      </g>
     </g>
     <g id="text_19">
      <!-- 0.2 -->
      <g transform="translate(161.891833 722.256438) scale(0.22 -0.22)">
       <use xlink:href="#DejaVuSans-30"/>
       <use xlink:href="#DejaVuSans-2e" x="63.623047"/>
       <use xlink:href="#DejaVuSans-32" x="95.410156"/>
      </g>
     </g>
    </g>
    <g id="xtick_3">
     <g id="line2d_29">
      <g>
       <use xlink:href="#ma40b7dfed2" x="268.903987" y="698.539875" style="stroke: #000000; stroke-width: 0.8"/>
      </g>
     </g>
     <g id="text_20">
      <!-- 0.4 -->
      <g transform="translate(251.41055 722.256438) scale(0.22 -0.22)">
       <use xlink:href="#DejaVuSans-30"/>
       <use xlink:href="#DejaVuSans-2e" x="63.623047"/>
       <use xlink:href="#DejaVuSans-34" x="95.410156"/>
      </g>
     </g>
    </g>
    <g id="xtick_4">
     <g id="line2d_30">
      <g>
       <use xlink:href="#ma40b7dfed2" x="358.422704" y="698.539875" style="stroke: #000000; stroke-width: 0.8"/>
      </g>
     </g>
     <g id="text_21">
      <!-- 0.6 -->
      <g transform="translate(340.929266 722.256438) scale(0.22 -0.22)">
       <use xlink:href="#DejaVuSans-30"/>
       <use xlink:href="#DejaVuSans-2e" x="63.623047"/>
       <use xlink:href="#DejaVuSans-36" x="95.410156"/>
      </g>
     </g>
    </g>
    <g id="xtick_5">
     <g id="line2d_31">
      <g>
       <use xlink:href="#ma40b7dfed2" x="447.94142" y="698.539875" style="stroke: #000000; stroke-width: 0.8"/>
      </g>
     </g>
     <g id="text_22">
      <!-- 0.8 -->
      <g transform="translate(430.447983 722.256438) scale(0.22 -0.22)">
       <defs>
        <path id="DejaVuSans-38" d="M 2034 2216 
Q 1584 2216 1326 1975 
Q 1069 1734 1069 1313 
Q 1069 891 1326 650 
Q 1584 409 2034 409 
Q 2484 409 2743 651 
Q 3003 894 3003 1313 
Q 3003 1734 2745 1975 
Q 2488 2216 2034 2216 
z
M 1403 2484 
Q 997 2584 770 2862 
Q 544 3141 544 3541 
Q 544 4100 942 4425 
Q 1341 4750 2034 4750 
Q 2731 4750 3128 4425 
Q 3525 4100 3525 3541 
Q 3525 3141 3298 2862 
Q 3072 2584 2669 2484 
Q 3125 2378 3379 2068 
Q 3634 1759 3634 1313 
Q 3634 634 3220 271 
Q 2806 -91 2034 -91 
Q 1263 -91 848 271 
Q 434 634 434 1313 
Q 434 1759 690 2068 
Q 947 2378 1403 2484 
z
M 1172 3481 
Q 1172 3119 1398 2916 
Q 1625 2713 2034 2713 
Q 2441 2713 2670 2916 
Q 2900 3119 2900 3481 
Q 2900 3844 2670 4047 
Q 2441 4250 2034 4250 
Q 1625 4250 1398 4047 
Q 1172 3844 1172 3481 
z
" transform="scale(0.015625)"/>
       </defs>
       <use xlink:href="#DejaVuSans-30"/>
       <use xlink:href="#DejaVuSans-2e" x="63.623047"/>
       <use xlink:href="#DejaVuSans-38" x="95.410156"/>
      </g>
     </g>
    </g>
    <g id="xtick_6">
     <g id="line2d_32">
      <g>
       <use xlink:href="#ma40b7dfed2" x="537.460137" y="698.539875" style="stroke: #000000; stroke-width: 0.8"/>
      </g>
     </g>
     <g id="text_23">
      <!-- 1.0 -->
      <g transform="translate(519.9667 722.256438) scale(0.22 -0.22)">
       <use xlink:href="#DejaVuSans-31"/>
       <use xlink:href="#DejaVuSans-2e" x="63.623047"/>
       <use xlink:href="#DejaVuSans-30" x="95.410156"/>
      </g>
     </g>
    </g>
    <g id="text_24">
     <!-- Diversity -->
     <g transform="translate(264.727096 747.548313) scale(0.22 -0.22)">
      <defs>
       <path id="DejaVuSans-44" d="M 1259 4147 
L 1259 519 
L 2022 519 
Q 2988 519 3436 956 
Q 3884 1394 3884 2338 
Q 3884 3275 3436 3711 
Q 2988 4147 2022 4147 
L 1259 4147 
z
M 628 4666 
L 1925 4666 
Q 3281 4666 3915 4102 
Q 4550 3538 4550 2338 
Q 4550 1131 3912 565 
Q 3275 0 1925 0 
L 628 0 
L 628 4666 
z
" transform="scale(0.015625)"/>
       <path id="DejaVuSans-79" d="M 2059 -325 
Q 1816 -950 1584 -1140 
Q 1353 -1331 966 -1331 
L 506 -1331 
L 506 -850 
L 844 -850 
Q 1081 -850 1212 -737 
Q 1344 -625 1503 -206 
L 1606 56 
L 191 3500 
L 800 3500 
L 1894 763 
L 2988 3500 
L 3597 3500 
L 2059 -325 
z
" transform="scale(0.015625)"/>
      </defs>
      <use xlink:href="#DejaVuSans-44"/>
      <use xlink:href="#DejaVuSans-69" x="77.001953"/>
      <use xlink:href="#DejaVuSans-76" x="104.785156"/>
      <use xlink:href="#DejaVuSans-65" x="163.964844"/>
      <use xlink:href="#DejaVuSans-72" x="225.488281"/>
      <use xlink:href="#DejaVuSans-73" x="266.601562"/>
      <use xlink:href="#DejaVuSans-69" x="318.701172"/>
      <use xlink:href="#DejaVuSans-74" x="346.484375"/>
      <use xlink:href="#DejaVuSans-79" x="385.693359"/>
     </g>
    </g>
   </g>
   <g id="matplotlib.axis_8">
    <g id="ytick_5">
     <g id="line2d_33">
      <g>
       <use xlink:href="#m1f9381a783" x="67.486875" y="698.539875" style="stroke: #000000; stroke-width: 0.8"/>
      </g>
     </g>
     <g id="text_25">
      <!-- 0 -->
      <g transform="translate(46.489375 706.898156) scale(0.22 -0.22)">
       <use xlink:href="#DejaVuSans-30"/>
      </g>
     </g>
    </g>
    <g id="ytick_6">
     <g id="line2d_34">
      <g>
       <use xlink:href="#m1f9381a783" x="67.486875" y="615.023189" style="stroke: #000000; stroke-width: 0.8"/>
      </g>
     </g>
     <g id="text_26">
      <!-- 20 -->
      <g transform="translate(32.491875 623.38147) scale(0.22 -0.22)">
       <use xlink:href="#DejaVuSans-32"/>
       <use xlink:href="#DejaVuSans-30" x="63.623047"/>
      </g>
     </g>
    </g>
    <g id="ytick_7">
     <g id="line2d_35">
      <g>
       <use xlink:href="#m1f9381a783" x="67.486875" y="531.506503" style="stroke: #000000; stroke-width: 0.8"/>
      </g>
     </g>
     <g id="text_27">
      <!-- 40 -->
      <g transform="translate(32.491875 539.864785) scale(0.22 -0.22)">
       <use xlink:href="#DejaVuSans-34"/>
       <use xlink:href="#DejaVuSans-30" x="63.623047"/>
      </g>
     </g>
    </g>
    <g id="ytick_8">
     <g id="line2d_36">
      <g>
       <use xlink:href="#m1f9381a783" x="67.486875" y="447.989817" style="stroke: #000000; stroke-width: 0.8"/>
      </g>
     </g>
     <g id="text_28">
      <!-- 60 -->
      <g transform="translate(32.491875 456.348099) scale(0.22 -0.22)">
       <use xlink:href="#DejaVuSans-36"/>
       <use xlink:href="#DejaVuSans-30" x="63.623047"/>
      </g>
     </g>
    </g>
    <g id="text_29">
     <!-- Improvement (%) -->
     <g transform="translate(23.916562 643.864875) rotate(-90) scale(0.22 -0.22)">
      <use xlink:href="#DejaVuSans-49"/>
      <use xlink:href="#DejaVuSans-6d" x="29.492188"/>
      <use xlink:href="#DejaVuSans-70" x="126.904297"/>
      <use xlink:href="#DejaVuSans-72" x="190.380859"/>
      <use xlink:href="#DejaVuSans-6f" x="229.244141"/>
      <use xlink:href="#DejaVuSans-76" x="290.425781"/>
      <use xlink:href="#DejaVuSans-65" x="349.605469"/>
      <use xlink:href="#DejaVuSans-6d" x="411.128906"/>
      <use xlink:href="#DejaVuSans-65" x="508.541016"/>
      <use xlink:href="#DejaVuSans-6e" x="570.064453"/>
      <use xlink:href="#DejaVuSans-74" x="633.443359"/>
      <use xlink:href="#DejaVuSans-20" x="672.652344"/>
      <use xlink:href="#DejaVuSans-28" x="704.439453"/>
      <use xlink:href="#DejaVuSans-25" x="743.453125"/>
      <use xlink:href="#DejaVuSans-29" x="838.472656"/>
     </g>
    </g>
   </g>
   <g id="line2d_37">
    <path d="M 89.866554 698.539875 
L 112.246233 683.924455 
L 134.625912 680.488091 
L 157.005592 676.529748 
L 179.385271 672.527907 
L 201.76495 669.222038 
L 224.144629 666.394651 
L 246.524308 662.218816 
L 268.903987 658.260473 
L 291.283666 655.041601 
L 313.663346 651.605237 
L 336.043025 646.602936 
L 358.422704 641.644133 
L 380.802383 635.336883 
L 403.182062 630.421578 
L 425.561741 622.591889 
L 447.94142 614.675203 
L 470.3211 605.888552 
L 492.700779 593.143557 
L 515.080458 578.136653 
L 537.460137 557.474973 
" clip-path="url(#pa6a934aafb)" style="fill: none; stroke-dasharray: ; stroke-dashoffset: 0; stroke: #000000; stroke-width: 1.5"/>
   </g>
   <g id="line2d_38">
    <path d="M 89.866554 698.539875 
L 112.246233 693.494075 
L 134.625912 691.319162 
L 157.005592 690.3622 
L 179.385271 688.535272 
L 201.76495 686.621348 
L 224.144629 684.79442 
L 246.524308 684.011452 
L 268.903987 682.619507 
L 291.283666 680.096607 
L 313.663346 678.269679 
L 336.043025 676.094766 
L 358.422704 674.963811 
L 380.802383 673.136883 
L 403.182062 670.43999 
L 425.561741 667.395111 
L 447.94142 664.524225 
L 470.3211 660.87037 
L 492.700779 657.651498 
L 515.080458 657.564501 
L 537.460137 657.651498 
" clip-path="url(#pa6a934aafb)" style="fill: none; stroke-dasharray: 1.5,7.5; stroke-dashoffset: 0; stroke: #000000; stroke-width: 1.5"/>
   </g>
   <g id="line2d_39">
    <path d="M 89.866554 698.539875 
L 112.246233 695.954835 
L 134.625912 695.159438 
L 157.005592 693.767493 
L 179.385271 692.474973 
L 201.76495 692.077274 
L 224.144629 691.580151 
L 246.524308 689.492234 
L 268.903987 688.796262 
L 291.283666 685.912947 
L 313.663346 685.415824 
L 336.043025 684.421578 
L 358.422704 683.029633 
L 380.802383 681.23999 
L 403.182062 679.350922 
L 425.561741 676.467608 
L 447.94142 674.876814 
L 470.3211 676.06991 
L 492.700779 674.479116 
L 515.080458 671.595801 
L 537.460137 671.695226 
" clip-path="url(#pa6a934aafb)" style="fill: none; stroke-dasharray: 1.5,1.5; stroke-dashoffset: 0; stroke: #000000; stroke-width: 1.5"/>
   </g>
   <g id="line2d_40">
    <path d="M 67.486875 698.539875 
L 559.839816 698.539875 
" clip-path="url(#pa6a934aafb)" style="fill: none; stroke: #000000; stroke-width: 1.5; stroke-linecap: square"/>
   </g>
   <g id="patch_20">
    <path d="M 67.486875 698.539875 
L 67.486875 396.139875 
" style="fill: none; stroke: #000000; stroke-width: 0.8; stroke-linejoin: miter; stroke-linecap: square"/>
   </g>
   <g id="patch_21">
    <path d="M 559.839816 698.539875 
L 559.839816 396.139875 
" style="fill: none; stroke: #000000; stroke-width: 0.8; stroke-linejoin: miter; stroke-linecap: square"/>
   </g>
   <g id="patch_22">
    <path d="M 67.486875 698.539875 
L 559.839816 698.539875 
" style="fill: none; stroke: #000000; stroke-width: 0.8; stroke-linejoin: miter; stroke-linecap: square"/>
   </g>
   <g id="patch_23">
    <path d="M 67.486875 396.139875 
L 559.839816 396.139875 
" style="fill: none; stroke: #000000; stroke-width: 0.8; stroke-linejoin: miter; stroke-linecap: square"/>
   </g>
   <g id="text_30">
    <!-- Number of Machines -->
    <g transform="translate(177.389846 390.139875) scale(0.264 -0.264)">
     <defs>
      <path id="DejaVuSans-4d" d="M 628 4666 
L 1569 4666 
L 2759 1491 
L 3956 4666 
L 4897 4666 
L 4897 0 
L 4281 0 
L 4281 4097 
L 3078 897 
L 2444 897 
L 1241 4097 
L 1241 0 
L 628 0 
L 628 4666 
z
" transform="scale(0.015625)"/>
      <path id="DejaVuSans-63" d="M 3122 3366 
L 3122 2828 
Q 2878 2963 2633 3030 
Q 2388 3097 2138 3097 
Q 1578 3097 1268 2742 
Q 959 2388 959 1747 
Q 959 1106 1268 751 
Q 1578 397 2138 397 
Q 2388 397 2633 464 
Q 2878 531 3122 666 
L 3122 134 
Q 2881 22 2623 -34 
Q 2366 -91 2075 -91 
Q 1284 -91 818 406 
Q 353 903 353 1747 
Q 353 2603 823 3093 
Q 1294 3584 2113 3584 
Q 2378 3584 2631 3529 
Q 2884 3475 3122 3366 
z
" transform="scale(0.015625)"/>
      <path id="DejaVuSans-68" d="M 3513 2113 
L 3513 0 
L 2938 0 
L 2938 2094 
Q 2938 2591 2744 2837 
Q 2550 3084 2163 3084 
Q 1697 3084 1428 2787 
Q 1159 2491 1159 1978 
L 1159 0 
L 581 0 
L 581 4863 
L 1159 4863 
L 1159 2956 
Q 1366 3272 1645 3428 
Q 1925 3584 2291 3584 
Q 2894 3584 3203 3211 
Q 3513 2838 3513 2113 
z
" transform="scale(0.015625)"/>
     </defs>
     <use xlink:href="#DejaVuSans-4e"/>
     <use xlink:href="#DejaVuSans-75" x="74.804688"/>
     <use xlink:href="#DejaVuSans-6d" x="138.183594"/>
     <use xlink:href="#DejaVuSans-62" x="235.595703"/>
     <use xlink:href="#DejaVuSans-65" x="299.072266"/>
     <use xlink:href="#DejaVuSans-72" x="360.595703"/>
     <use xlink:href="#DejaVuSans-20" x="401.708984"/>
     <use xlink:href="#DejaVuSans-6f" x="433.496094"/>
     <use xlink:href="#DejaVuSans-66" x="494.677734"/>
     <use xlink:href="#DejaVuSans-20" x="529.882812"/>
     <use xlink:href="#DejaVuSans-4d" x="561.669922"/>
     <use xlink:href="#DejaVuSans-61" x="647.949219"/>
     <use xlink:href="#DejaVuSans-63" x="709.228516"/>
     <use xlink:href="#DejaVuSans-68" x="764.208984"/>
     <use xlink:href="#DejaVuSans-69" x="827.587891"/>
     <use xlink:href="#DejaVuSans-6e" x="855.371094"/>
     <use xlink:href="#DejaVuSans-65" x="918.75"/>
     <use xlink:href="#DejaVuSans-73" x="980.273438"/>
    </g>
   </g>
   <g id="legend_3">
    <g id="patch_24">
     <path d="M 460.042316 510.6155 
L 544.439816 510.6155 
Q 548.839816 510.6155 548.839816 506.2155 
L 548.839816 411.539875 
Q 548.839816 407.139875 544.439816 407.139875 
L 460.042316 407.139875 
Q 455.642316 407.139875 455.642316 411.539875 
L 455.642316 506.2155 
Q 455.642316 510.6155 460.042316 510.6155 
z
" style="fill: #ffffff; opacity: 0.8; stroke: #cccccc; stroke-linejoin: miter"/>
    </g>
    <g id="line2d_41">
     <path d="M 464.442316 424.956438 
L 486.442316 424.956438 
L 508.442316 424.956438 
" style="fill: none; stroke-dasharray: ; stroke-dashoffset: 0; stroke: #000000; stroke-width: 1.5"/>
    </g>
    <g id="text_31">
     <!-- 1 -->
     <g transform="translate(526.042316 432.656438) scale(0.22 -0.22)">
      <use xlink:href="#DejaVuSans-31"/>
     </g>
    </g>
    <g id="line2d_42">
     <path d="M 464.442316 457.248313 
L 486.442316 457.248313 
L 508.442316 457.248313 
" style="fill: none; stroke-dasharray: 1.5,7.5; stroke-dashoffset: 0; stroke: #000000; stroke-width: 1.5"/>
    </g>
    <g id="text_32">
     <!-- 3 -->
     <g transform="translate(526.042316 464.948313) scale(0.22 -0.22)">
      <defs>
       <path id="DejaVuSans-33" d="M 2597 2516 
Q 3050 2419 3304 2112 
Q 3559 1806 3559 1356 
Q 3559 666 3084 287 
Q 2609 -91 1734 -91 
Q 1441 -91 1130 -33 
Q 819 25 488 141 
L 488 750 
Q 750 597 1062 519 
Q 1375 441 1716 441 
Q 2309 441 2620 675 
Q 2931 909 2931 1356 
Q 2931 1769 2642 2001 
Q 2353 2234 1838 2234 
L 1294 2234 
L 1294 2753 
L 1863 2753 
Q 2328 2753 2575 2939 
Q 2822 3125 2822 3475 
Q 2822 3834 2567 4026 
Q 2313 4219 1838 4219 
Q 1578 4219 1281 4162 
Q 984 4106 628 3988 
L 628 4550 
Q 988 4650 1302 4700 
Q 1616 4750 1894 4750 
Q 2613 4750 3031 4423 
Q 3450 4097 3450 3541 
Q 3450 3153 3228 2886 
Q 3006 2619 2597 2516 
z
" transform="scale(0.015625)"/>
      </defs>
      <use xlink:href="#DejaVuSans-33"/>
     </g>
    </g>
    <g id="line2d_43">
     <path d="M 464.442316 489.540188 
L 486.442316 489.540188 
L 508.442316 489.540188 
" style="fill: none; stroke-dasharray: 1.5,1.5; stroke-dashoffset: 0; stroke: #000000; stroke-width: 1.5"/>
    </g>
    <g id="text_33">
     <!-- 5 -->
     <g transform="translate(526.042316 497.240188) scale(0.22 -0.22)">
      <use xlink:href="#DejaVuSans-35"/>
     </g>
    </g>
   </g>
  </g>
  <g id="axes_5">
   <g id="patch_25">
    <path d="M 658.310404 698.539875 
L 1150.663346 698.539875 
L 1150.663346 396.139875 
L 658.310404 396.139875 
z
" style="fill: #ffffff"/>
   </g>
   <g id="matplotlib.axis_9">
    <g id="xtick_7">
     <g id="line2d_44">
      <g>
       <use xlink:href="#ma40b7dfed2" x="680.690084" y="698.539875" style="stroke: #000000; stroke-width: 0.8"/>
      </g>
     </g>
     <g id="text_34">
      <!-- 0.0 -->
      <g transform="translate(663.196646 722.256438) scale(0.22 -0.22)">
       <use xlink:href="#DejaVuSans-30"/>
       <use xlink:href="#DejaVuSans-2e" x="63.623047"/>
       <use xlink:href="#DejaVuSans-30" x="95.410156"/>
      </g>
     </g>
    </g>
    <g id="xtick_8">
     <g id="line2d_45">
      <g>
       <use xlink:href="#ma40b7dfed2" x="770.2088" y="698.539875" style="stroke: #000000; stroke-width: 0.8"/>
      </g>
     </g>
     <g id="text_35">
      <!-- 0.2 -->
      <g transform="translate(752.715363 722.256438) scale(0.22 -0.22)">
       <use xlink:href="#DejaVuSans-30"/>
       <use xlink:href="#DejaVuSans-2e" x="63.623047"/>
       <use xlink:href="#DejaVuSans-32" x="95.410156"/>
      </g>
     </g>
    </g>
    <g id="xtick_9">
     <g id="line2d_46">
      <g>
       <use xlink:href="#ma40b7dfed2" x="859.727517" y="698.539875" style="stroke: #000000; stroke-width: 0.8"/>
      </g>
     </g>
     <g id="text_36">
      <!-- 0.4 -->
      <g transform="translate(842.234079 722.256438) scale(0.22 -0.22)">
       <use xlink:href="#DejaVuSans-30"/>
       <use xlink:href="#DejaVuSans-2e" x="63.623047"/>
       <use xlink:href="#DejaVuSans-34" x="95.410156"/>
      </g>
     </g>
    </g>
    <g id="xtick_10">
     <g id="line2d_47">
      <g>
       <use xlink:href="#ma40b7dfed2" x="949.246233" y="698.539875" style="stroke: #000000; stroke-width: 0.8"/>
      </g>
     </g>
     <g id="text_37">
      <!-- 0.6 -->
      <g transform="translate(931.752796 722.256438) scale(0.22 -0.22)">
       <use xlink:href="#DejaVuSans-30"/>
       <use xlink:href="#DejaVuSans-2e" x="63.623047"/>
       <use xlink:href="#DejaVuSans-36" x="95.410156"/>
      </g>
     </g>
    </g>
    <g id="xtick_11">
     <g id="line2d_48">
      <g>
       <use xlink:href="#ma40b7dfed2" x="1038.76495" y="698.539875" style="stroke: #000000; stroke-width: 0.8"/>
      </g>
     </g>
     <g id="text_38">
      <!-- 0.8 -->
      <g transform="translate(1021.271512 722.256438) scale(0.22 -0.22)">
       <use xlink:href="#DejaVuSans-30"/>
       <use xlink:href="#DejaVuSans-2e" x="63.623047"/>
       <use xlink:href="#DejaVuSans-38" x="95.410156"/>
      </g>
     </g>
    </g>
    <g id="xtick_12">
     <g id="line2d_49">
      <g>
       <use xlink:href="#ma40b7dfed2" x="1128.283666" y="698.539875" style="stroke: #000000; stroke-width: 0.8"/>
      </g>
     </g>
     <g id="text_39">
      <!-- 1.0 -->
      <g transform="translate(1110.790229 722.256438) scale(0.22 -0.22)">
       <use xlink:href="#DejaVuSans-31"/>
       <use xlink:href="#DejaVuSans-2e" x="63.623047"/>
       <use xlink:href="#DejaVuSans-30" x="95.410156"/>
      </g>
     </g>
    </g>
    <g id="text_40">
     <!-- Diversity -->
     <g transform="translate(855.550625 747.548313) scale(0.22 -0.22)">
      <use xlink:href="#DejaVuSans-44"/>
      <use xlink:href="#DejaVuSans-69" x="77.001953"/>
      <use xlink:href="#DejaVuSans-76" x="104.785156"/>
      <use xlink:href="#DejaVuSans-65" x="163.964844"/>
      <use xlink:href="#DejaVuSans-72" x="225.488281"/>
      <use xlink:href="#DejaVuSans-73" x="266.601562"/>
      <use xlink:href="#DejaVuSans-69" x="318.701172"/>
      <use xlink:href="#DejaVuSans-74" x="346.484375"/>
      <use xlink:href="#DejaVuSans-79" x="385.693359"/>
     </g>
    </g>
   </g>
   <g id="matplotlib.axis_10"/>
   <g id="line2d_50">
    <path d="M 680.690084 698.539875 
L 703.069763 689.784093 
L 725.449442 687.292063 
L 747.829121 684.934737 
L 770.2088 682.375355 
L 792.588479 680.220086 
L 814.968158 678.603634 
L 837.347838 675.572786 
L 859.727517 672.946052 
L 882.107196 670.117261 
L 904.486875 667.557879 
L 926.866554 664.122918 
L 949.246233 660.890014 
L 971.625912 657.387702 
L 994.005592 654.22215 
L 1016.385271 647.621638 
L 1038.76495 641.021125 
L 1061.144629 635.161487 
L 1083.524308 630.244779 
L 1105.903987 619.40108 
L 1128.283666 608.692086 
" clip-path="url(#pc1eb2d6097)" style="fill: none; stroke-dasharray: ; stroke-dashoffset: 0; stroke: #000000; stroke-width: 1.5"/>
   </g>
   <g id="line2d_51">
    <path d="M 680.690084 698.539875 
L 703.069763 688.975867 
L 725.449442 686.551189 
L 747.829121 683.789751 
L 770.2088 681.028312 
L 792.588479 678.80569 
L 814.968158 676.448365 
L 837.347838 673.754278 
L 859.727517 671.127543 
L 882.107196 668.029344 
L 904.486875 665.402609 
L 926.866554 662.30441 
L 949.246233 659.610323 
L 971.625912 655.501841 
L 994.005592 651.393359 
L 1016.385271 646.746059 
L 1038.76495 642.09876 
L 1061.144629 637.45146 
L 1083.524308 628.695679 
L 1105.903987 622.49928 
L 1128.283666 609.971777 
" clip-path="url(#pc1eb2d6097)" style="fill: none; stroke-dasharray: 1.5,7.5; stroke-dashoffset: 0; stroke: #000000; stroke-width: 1.5"/>
   </g>
   <g id="line2d_52">
    <path d="M 680.690084 698.539875 
L 703.069763 688.571754 
L 725.449442 685.94502 
L 747.829121 683.250933 
L 770.2088 680.085382 
L 792.588479 677.593351 
L 814.968158 675.438082 
L 837.347838 672.676643 
L 859.727517 670.251965 
L 882.107196 667.28847 
L 904.486875 665.402609 
L 926.866554 661.832945 
L 949.246233 658.26328 
L 971.625912 653.481276 
L 994.005592 649.776907 
L 1016.385271 644.59079 
L 1038.76495 640.280251 
L 1061.144629 635.161487 
L 1083.524308 625.530127 
L 1105.903987 617.313163 
L 1128.283666 608.692086 
" clip-path="url(#pc1eb2d6097)" style="fill: none; stroke-dasharray: 1.5,1.5; stroke-dashoffset: 0; stroke: #000000; stroke-width: 1.5"/>
   </g>
   <g id="line2d_53">
    <path d="M 658.310404 698.539875 
L 1150.663346 698.539875 
" clip-path="url(#pc1eb2d6097)" style="fill: none; stroke: #000000; stroke-width: 1.5; stroke-linecap: square"/>
   </g>
   <g id="patch_26">
    <path d="M 658.310404 698.539875 
L 658.310404 396.139875 
" style="fill: none; stroke: #000000; stroke-width: 0.8; stroke-linejoin: miter; stroke-linecap: square"/>
   </g>
   <g id="patch_27">
    <path d="M 1150.663346 698.539875 
L 1150.663346 396.139875 
" style="fill: none; stroke: #000000; stroke-width: 0.8; stroke-linejoin: miter; stroke-linecap: square"/>
   </g>
   <g id="patch_28">
    <path d="M 658.310404 698.539875 
L 1150.663346 698.539875 
" style="fill: none; stroke: #000000; stroke-width: 0.8; stroke-linejoin: miter; stroke-linecap: square"/>
   </g>
   <g id="patch_29">
    <path d="M 658.310404 396.139875 
L 1150.663346 396.139875 
" style="fill: none; stroke: #000000; stroke-width: 0.8; stroke-linejoin: miter; stroke-linecap: square"/>
   </g>
   <g id="text_41">
    <!-- Quality Parameter -->
    <g transform="translate(784.451438 390.139875) scale(0.264 -0.264)">
     <defs>
      <path id="DejaVuSans-51" d="M 2522 4238 
Q 1834 4238 1429 3725 
Q 1025 3213 1025 2328 
Q 1025 1447 1429 934 
Q 1834 422 2522 422 
Q 3209 422 3611 934 
Q 4013 1447 4013 2328 
Q 4013 3213 3611 3725 
Q 3209 4238 2522 4238 
z
M 3406 84 
L 4238 -825 
L 3475 -825 
L 2784 -78 
Q 2681 -84 2626 -87 
Q 2572 -91 2522 -91 
Q 1538 -91 948 567 
Q 359 1225 359 2328 
Q 359 3434 948 4092 
Q 1538 4750 2522 4750 
Q 3503 4750 4090 4092 
Q 4678 3434 4678 2328 
Q 4678 1516 4351 937 
Q 4025 359 3406 84 
z
" transform="scale(0.015625)"/>
     </defs>
     <use xlink:href="#DejaVuSans-51"/>
     <use xlink:href="#DejaVuSans-75" x="78.710938"/>
     <use xlink:href="#DejaVuSans-61" x="142.089844"/>
     <use xlink:href="#DejaVuSans-6c" x="203.369141"/>
     <use xlink:href="#DejaVuSans-69" x="231.152344"/>
     <use xlink:href="#DejaVuSans-74" x="258.935547"/>
     <use xlink:href="#DejaVuSans-79" x="298.144531"/>
     <use xlink:href="#DejaVuSans-20" x="357.324219"/>
     <use xlink:href="#DejaVuSans-50" x="389.111328"/>
     <use xlink:href="#DejaVuSans-61" x="444.914062"/>
     <use xlink:href="#DejaVuSans-72" x="506.193359"/>
     <use xlink:href="#DejaVuSans-61" x="547.306641"/>
     <use xlink:href="#DejaVuSans-6d" x="608.585938"/>
     <use xlink:href="#DejaVuSans-65" x="705.998047"/>
     <use xlink:href="#DejaVuSans-74" x="767.521484"/>
     <use xlink:href="#DejaVuSans-65" x="806.730469"/>
     <use xlink:href="#DejaVuSans-72" x="868.253906"/>
    </g>
   </g>
   <g id="legend_4">
    <g id="patch_30">
     <path d="M 1029.876471 510.6155 
L 1135.263346 510.6155 
Q 1139.663346 510.6155 1139.663346 506.2155 
L 1139.663346 411.539875 
Q 1139.663346 407.139875 1135.263346 407.139875 
L 1029.876471 407.139875 
Q 1025.476471 407.139875 1025.476471 411.539875 
L 1025.476471 506.2155 
Q 1025.476471 510.6155 1029.876471 510.6155 
z
" style="fill: #ffffff; opacity: 0.8; stroke: #cccccc; stroke-linejoin: miter"/>
    </g>
    <g id="line2d_54">
     <path d="M 1034.276471 424.956438 
L 1056.276471 424.956438 
L 1078.276471 424.956438 
" style="fill: none; stroke-dasharray: ; stroke-dashoffset: 0; stroke: #000000; stroke-width: 1.5"/>
    </g>
    <g id="text_42">
     <!-- 0.3 -->
     <g transform="translate(1095.876471 432.656438) scale(0.22 -0.22)">
      <use xlink:href="#DejaVuSans-30"/>
      <use xlink:href="#DejaVuSans-2e" x="63.623047"/>
      <use xlink:href="#DejaVuSans-33" x="95.410156"/>
     </g>
    </g>
    <g id="line2d_55">
     <path d="M 1034.276471 457.248313 
L 1056.276471 457.248313 
L 1078.276471 457.248313 
" style="fill: none; stroke-dasharray: 1.5,7.5; stroke-dashoffset: 0; stroke: #000000; stroke-width: 1.5"/>
    </g>
    <g id="text_43">
     <!-- 0.6 -->
     <g transform="translate(1095.876471 464.948313) scale(0.22 -0.22)">
      <use xlink:href="#DejaVuSans-30"/>
      <use xlink:href="#DejaVuSans-2e" x="63.623047"/>
      <use xlink:href="#DejaVuSans-36" x="95.410156"/>
     </g>
    </g>
    <g id="line2d_56">
     <path d="M 1034.276471 489.540188 
L 1056.276471 489.540188 
L 1078.276471 489.540188 
" style="fill: none; stroke-dasharray: 1.5,1.5; stroke-dashoffset: 0; stroke: #000000; stroke-width: 1.5"/>
    </g>
    <g id="text_44">
     <!-- 1. -->
     <g transform="translate(1095.876471 497.240188) scale(0.22 -0.22)">
      <use xlink:href="#DejaVuSans-31"/>
      <use xlink:href="#DejaVuSans-2e" x="63.623047"/>
     </g>
    </g>
   </g>
  </g>
  <g id="axes_6">
   <g id="patch_31">
    <path d="M 1249.133934 698.539875 
L 1741.486875 698.539875 
L 1741.486875 396.139875 
L 1249.133934 396.139875 
z
" style="fill: #ffffff"/>
   </g>
   <g id="matplotlib.axis_11">
    <g id="xtick_13">
     <g id="line2d_57">
      <g>
       <use xlink:href="#ma40b7dfed2" x="1271.513613" y="698.539875" style="stroke: #000000; stroke-width: 0.8"/>
      </g>
     </g>
     <g id="text_45">
      <!-- 0.0 -->
      <g transform="translate(1254.020175 722.256438) scale(0.22 -0.22)">
       <use xlink:href="#DejaVuSans-30"/>
       <use xlink:href="#DejaVuSans-2e" x="63.623047"/>
       <use xlink:href="#DejaVuSans-30" x="95.410156"/>
      </g>
     </g>
    </g>
    <g id="xtick_14">
     <g id="line2d_58">
      <g>
       <use xlink:href="#ma40b7dfed2" x="1361.03233" y="698.539875" style="stroke: #000000; stroke-width: 0.8"/>
      </g>
     </g>
     <g id="text_46">
      <!-- 0.2 -->
      <g transform="translate(1343.538892 722.256438) scale(0.22 -0.22)">
       <use xlink:href="#DejaVuSans-30"/>
       <use xlink:href="#DejaVuSans-2e" x="63.623047"/>
       <use xlink:href="#DejaVuSans-32" x="95.410156"/>
      </g>
     </g>
    </g>
    <g id="xtick_15">
     <g id="line2d_59">
      <g>
       <use xlink:href="#ma40b7dfed2" x="1450.551046" y="698.539875" style="stroke: #000000; stroke-width: 0.8"/>
      </g>
     </g>
     <g id="text_47">
      <!-- 0.4 -->
      <g transform="translate(1433.057609 722.256438) scale(0.22 -0.22)">
       <use xlink:href="#DejaVuSans-30"/>
       <use xlink:href="#DejaVuSans-2e" x="63.623047"/>
       <use xlink:href="#DejaVuSans-34" x="95.410156"/>
      </g>
     </g>
    </g>
    <g id="xtick_16">
     <g id="line2d_60">
      <g>
       <use xlink:href="#ma40b7dfed2" x="1540.069763" y="698.539875" style="stroke: #000000; stroke-width: 0.8"/>
      </g>
     </g>
     <g id="text_48">
      <!-- 0.6 -->
      <g transform="translate(1522.576325 722.256438) scale(0.22 -0.22)">
       <use xlink:href="#DejaVuSans-30"/>
       <use xlink:href="#DejaVuSans-2e" x="63.623047"/>
       <use xlink:href="#DejaVuSans-36" x="95.410156"/>
      </g>
     </g>
    </g>
    <g id="xtick_17">
     <g id="line2d_61">
      <g>
       <use xlink:href="#ma40b7dfed2" x="1629.588479" y="698.539875" style="stroke: #000000; stroke-width: 0.8"/>
      </g>
     </g>
     <g id="text_49">
      <!-- 0.8 -->
      <g transform="translate(1612.095042 722.256438) scale(0.22 -0.22)">
       <use xlink:href="#DejaVuSans-30"/>
       <use xlink:href="#DejaVuSans-2e" x="63.623047"/>
       <use xlink:href="#DejaVuSans-38" x="95.410156"/>
      </g>
     </g>
    </g>
    <g id="xtick_18">
     <g id="line2d_62">
      <g>
       <use xlink:href="#ma40b7dfed2" x="1719.107196" y="698.539875" style="stroke: #000000; stroke-width: 0.8"/>
      </g>
     </g>
     <g id="text_50">
      <!-- 1.0 -->
      <g transform="translate(1701.613758 722.256438) scale(0.22 -0.22)">
       <use xlink:href="#DejaVuSans-31"/>
       <use xlink:href="#DejaVuSans-2e" x="63.623047"/>
       <use xlink:href="#DejaVuSans-30" x="95.410156"/>
      </g>
     </g>
    </g>
    <g id="text_51">
     <!-- Diversity -->
     <g transform="translate(1446.374154 747.548313) scale(0.22 -0.22)">
      <use xlink:href="#DejaVuSans-44"/>
      <use xlink:href="#DejaVuSans-69" x="77.001953"/>
      <use xlink:href="#DejaVuSans-76" x="104.785156"/>
      <use xlink:href="#DejaVuSans-65" x="163.964844"/>
      <use xlink:href="#DejaVuSans-72" x="225.488281"/>
      <use xlink:href="#DejaVuSans-73" x="266.601562"/>
      <use xlink:href="#DejaVuSans-69" x="318.701172"/>
      <use xlink:href="#DejaVuSans-74" x="346.484375"/>
      <use xlink:href="#DejaVuSans-79" x="385.693359"/>
     </g>
    </g>
   </g>
   <g id="matplotlib.axis_12"/>
   <g id="line2d_63">
    <path d="M 1271.513613 698.539875 
L 1293.893292 691.804658 
L 1316.272971 690.816827 
L 1338.65265 687.673726 
L 1361.03233 685.33885 
L 1383.412009 683.542793 
L 1405.791688 681.028312 
L 1428.171367 678.873043 
L 1450.551046 676.717773 
L 1472.930725 672.946052 
L 1495.310404 669.084528 
L 1517.690084 665.492412 
L 1540.069763 660.822662 
L 1562.449442 655.973306 
L 1584.829121 653.189417 
L 1607.2088 646.633806 
L 1629.588479 641.515041 
L 1651.968158 636.845291 
L 1674.347838 629.481454 
L 1696.727517 617.807079 
L 1719.107196 606.940929 
" clip-path="url(#pf82e1c1d15)" style="fill: none; stroke-dasharray: ; stroke-dashoffset: 0; stroke: #000000; stroke-width: 1.5"/>
   </g>
   <g id="line2d_64">
    <path d="M 1271.513613 698.539875 
L 1293.893292 690.547418 
L 1316.272971 688.302346 
L 1338.65265 685.967471 
L 1361.03233 683.45299 
L 1383.412009 682.195749 
L 1405.791688 679.860874 
L 1428.171367 675.99935 
L 1450.551046 672.856249 
L 1472.930725 670.521374 
L 1495.310404 668.186499 
L 1517.690084 664.684186 
L 1540.069763 661.181874 
L 1562.449442 655.7937 
L 1584.829121 651.213753 
L 1607.2088 644.478536 
L 1629.588479 638.910757 
L 1651.968158 634.779825 
L 1674.347838 627.865002 
L 1696.727517 618.615305 
L 1719.107196 606.312309 
" clip-path="url(#pf82e1c1d15)" style="fill: none; stroke-dasharray: 1.5,7.5; stroke-dashoffset: 0; stroke: #000000; stroke-width: 1.5"/>
   </g>
   <g id="line2d_65">
    <path d="M 1271.513613 698.539875 
L 1293.893292 687.853331 
L 1316.272971 684.979639 
L 1338.65265 682.465158 
L 1361.03233 678.513831 
L 1383.412009 675.729941 
L 1405.791688 674.382898 
L 1428.171367 671.149994 
L 1450.551046 668.904922 
L 1472.930725 665.582215 
L 1495.310404 664.055566 
L 1517.690084 661.541085 
L 1540.069763 658.757196 
L 1562.449442 656.242715 
L 1584.829121 651.483162 
L 1607.2088 646.813412 
L 1629.588479 641.515041 
L 1651.968158 636.396276 
L 1674.347838 628.314017 
L 1696.727517 620.411362 
L 1719.107196 609.275804 
" clip-path="url(#pf82e1c1d15)" style="fill: none; stroke-dasharray: 1.5,1.5; stroke-dashoffset: 0; stroke: #000000; stroke-width: 1.5"/>
   </g>
   <g id="line2d_66">
    <path d="M 1271.513613 698.539875 
L 1293.893292 686.236879 
L 1316.272971 682.285552 
L 1338.65265 679.860874 
L 1361.03233 677.346393 
L 1383.412009 674.023687 
L 1405.791688 672.048023 
L 1428.171367 669.982557 
L 1450.551046 667.28847 
L 1472.930725 664.863792 
L 1495.310404 663.157537 
L 1517.690084 659.296013 
L 1540.069763 657.589758 
L 1562.449442 653.818037 
L 1584.829121 651.303556 
L 1607.2088 647.352229 
L 1629.588479 642.592676 
L 1651.968158 635.677853 
L 1674.347838 626.966973 
L 1696.727517 622.117617 
L 1719.107196 613.945554 
" clip-path="url(#pf82e1c1d15)" style="fill: none; stroke-dasharray: 7.5,7.5; stroke-dashoffset: 0; stroke: #000000; stroke-width: 1.5"/>
   </g>
   <g id="line2d_67">
    <path d="M 1249.133934 698.539875 
L 1741.486875 698.539875 
" clip-path="url(#pf82e1c1d15)" style="fill: none; stroke: #000000; stroke-width: 1.5; stroke-linecap: square"/>
   </g>
   <g id="patch_32">
    <path d="M 1249.133934 698.539875 
L 1249.133934 396.139875 
" style="fill: none; stroke: #000000; stroke-width: 0.8; stroke-linejoin: miter; stroke-linecap: square"/>
   </g>
   <g id="patch_33">
    <path d="M 1741.486875 698.539875 
L 1741.486875 396.139875 
" style="fill: none; stroke: #000000; stroke-width: 0.8; stroke-linejoin: miter; stroke-linecap: square"/>
   </g>
   <g id="patch_34">
    <path d="M 1249.133934 698.539875 
L 1741.486875 698.539875 
" style="fill: none; stroke: #000000; stroke-width: 0.8; stroke-linejoin: miter; stroke-linecap: square"/>
   </g>
   <g id="patch_35">
    <path d="M 1249.133934 396.139875 
L 1741.486875 396.139875 
" style="fill: none; stroke: #000000; stroke-width: 0.8; stroke-linejoin: miter; stroke-linecap: square"/>
   </g>
   <g id="text_52">
    <!-- Mutation Operator -->
    <g transform="translate(1373.726029 390.139875) scale(0.264 -0.264)">
     <use xlink:href="#DejaVuSans-4d"/>
     <use xlink:href="#DejaVuSans-75" x="86.279297"/>
     <use xlink:href="#DejaVuSans-74" x="149.658203"/>
     <use xlink:href="#DejaVuSans-61" x="188.867188"/>
     <use xlink:href="#DejaVuSans-74" x="250.146484"/>
     <use xlink:href="#DejaVuSans-69" x="289.355469"/>
     <use xlink:href="#DejaVuSans-6f" x="317.138672"/>
     <use xlink:href="#DejaVuSans-6e" x="378.320312"/>
     <use xlink:href="#DejaVuSans-20" x="441.699219"/>
     <use xlink:href="#DejaVuSans-4f" x="473.486328"/>
     <use xlink:href="#DejaVuSans-70" x="552.197266"/>
     <use xlink:href="#DejaVuSans-65" x="615.673828"/>
     <use xlink:href="#DejaVuSans-72" x="677.197266"/>
     <use xlink:href="#DejaVuSans-61" x="718.310547"/>
     <use xlink:href="#DejaVuSans-74" x="779.589844"/>
     <use xlink:href="#DejaVuSans-6f" x="818.798828"/>
     <use xlink:href="#DejaVuSans-72" x="879.980469"/>
    </g>
   </g>
   <g id="legend_5">
    <g id="patch_36">
     <path d="M 1494.206875 542.907375 
L 1726.086875 542.907375 
Q 1730.486875 542.907375 1730.486875 538.507375 
L 1730.486875 411.539875 
Q 1730.486875 407.139875 1726.086875 407.139875 
L 1494.206875 407.139875 
Q 1489.806875 407.139875 1489.806875 411.539875 
L 1489.806875 538.507375 
Q 1489.806875 542.907375 1494.206875 542.907375 
z
" style="fill: #ffffff; opacity: 0.8; stroke: #cccccc; stroke-linejoin: miter"/>
    </g>
    <g id="line2d_68">
     <path d="M 1498.606875 424.956438 
L 1520.606875 424.956438 
L 1542.606875 424.956438 
" style="fill: none; stroke-dasharray: ; stroke-dashoffset: 0; stroke: #000000; stroke-width: 1.5"/>
    </g>
    <g id="text_53">
     <!-- 1(R+I) -->
     <g transform="translate(1560.206875 432.656438) scale(0.22 -0.22)">
      <defs>
       <path id="DejaVuSans-52" d="M 2841 2188 
Q 3044 2119 3236 1894 
Q 3428 1669 3622 1275 
L 4263 0 
L 3584 0 
L 2988 1197 
Q 2756 1666 2539 1819 
Q 2322 1972 1947 1972 
L 1259 1972 
L 1259 0 
L 628 0 
L 628 4666 
L 2053 4666 
Q 2853 4666 3247 4331 
Q 3641 3997 3641 3322 
Q 3641 2881 3436 2590 
Q 3231 2300 2841 2188 
z
M 1259 4147 
L 1259 2491 
L 2053 2491 
Q 2509 2491 2742 2702 
Q 2975 2913 2975 3322 
Q 2975 3731 2742 3939 
Q 2509 4147 2053 4147 
L 1259 4147 
z
" transform="scale(0.015625)"/>
       <path id="DejaVuSans-2b" d="M 2944 4013 
L 2944 2272 
L 4684 2272 
L 4684 1741 
L 2944 1741 
L 2944 0 
L 2419 0 
L 2419 1741 
L 678 1741 
L 678 2272 
L 2419 2272 
L 2419 4013 
L 2944 4013 
z
" transform="scale(0.015625)"/>
      </defs>
      <use xlink:href="#DejaVuSans-31"/>
      <use xlink:href="#DejaVuSans-28" x="63.623047"/>
      <use xlink:href="#DejaVuSans-52" x="102.636719"/>
      <use xlink:href="#DejaVuSans-2b" x="172.119141"/>
      <use xlink:href="#DejaVuSans-49" x="255.908203"/>
      <use xlink:href="#DejaVuSans-29" x="285.400391"/>
     </g>
    </g>
    <g id="line2d_69">
     <path d="M 1498.606875 457.248313 
L 1520.606875 457.248313 
L 1542.606875 457.248313 
" style="fill: none; stroke-dasharray: 1.5,7.5; stroke-dashoffset: 0; stroke: #000000; stroke-width: 1.5"/>
    </g>
    <g id="text_54">
     <!-- X(R+I), $\lambda=0.1$ -->
     <g transform="translate(1560.206875 464.948313) scale(0.22 -0.22)">
      <defs>
       <path id="DejaVuSans-58" d="M 403 4666 
L 1081 4666 
L 2241 2931 
L 3406 4666 
L 4084 4666 
L 2584 2425 
L 4184 0 
L 3506 0 
L 2194 1984 
L 872 0 
L 191 0 
L 1856 2491 
L 403 4666 
z
" transform="scale(0.015625)"/>
       <path id="DejaVuSans-2c" d="M 750 794 
L 1409 794 
L 1409 256 
L 897 -744 
L 494 -744 
L 750 256 
L 750 794 
z
" transform="scale(0.015625)"/>
       <path id="DejaVuSans-Oblique-3bb" d="M 2350 4316 
L 3125 0 
L 2516 0 
L 2038 2588 
L 328 0 
L -281 0 
L 1903 3356 
L 1794 3975 
Q 1725 4369 1391 4369 
L 1091 4369 
L 1184 4863 
L 1550 4856 
Q 2253 4847 2350 4316 
z
" transform="scale(0.015625)"/>
       <path id="DejaVuSans-3d" d="M 678 2906 
L 4684 2906 
L 4684 2381 
L 678 2381 
L 678 2906 
z
M 678 1631 
L 4684 1631 
L 4684 1100 
L 678 1100 
L 678 1631 
z
" transform="scale(0.015625)"/>
      </defs>
      <use xlink:href="#DejaVuSans-58" transform="translate(0 0.015625)"/>
      <use xlink:href="#DejaVuSans-28" transform="translate(68.505859 0.015625)"/>
      <use xlink:href="#DejaVuSans-52" transform="translate(107.519531 0.015625)"/>
      <use xlink:href="#DejaVuSans-2b" transform="translate(177.001953 0.015625)"/>
      <use xlink:href="#DejaVuSans-49" transform="translate(260.791016 0.015625)"/>
      <use xlink:href="#DejaVuSans-29" transform="translate(290.283203 0.015625)"/>
      <use xlink:href="#DejaVuSans-2c" transform="translate(329.296875 0.015625)"/>
      <use xlink:href="#DejaVuSans-20" transform="translate(361.083984 0.015625)"/>
      <use xlink:href="#DejaVuSans-Oblique-3bb" transform="translate(392.871094 0.015625)"/>
      <use xlink:href="#DejaVuSans-3d" transform="translate(471.533203 0.015625)"/>
      <use xlink:href="#DejaVuSans-30" transform="translate(574.804688 0.015625)"/>
      <use xlink:href="#DejaVuSans-2e" transform="translate(638.427734 0.015625)"/>
      <use xlink:href="#DejaVuSans-31" transform="translate(670.214844 0.015625)"/>
     </g>
    </g>
    <g id="line2d_70">
     <path d="M 1498.606875 489.540188 
L 1520.606875 489.540188 
L 1542.606875 489.540188 
" style="fill: none; stroke-dasharray: 1.5,1.5; stroke-dashoffset: 0; stroke: #000000; stroke-width: 1.5"/>
    </g>
    <g id="text_55">
     <!-- X(R+I), $\lambda=1$ -->
     <g transform="translate(1560.206875 497.240188) scale(0.22 -0.22)">
      <use xlink:href="#DejaVuSans-58" transform="translate(0 0.015625)"/>
      <use xlink:href="#DejaVuSans-28" transform="translate(68.505859 0.015625)"/>
      <use xlink:href="#DejaVuSans-52" transform="translate(107.519531 0.015625)"/>
      <use xlink:href="#DejaVuSans-2b" transform="translate(177.001953 0.015625)"/>
      <use xlink:href="#DejaVuSans-49" transform="translate(260.791016 0.015625)"/>
      <use xlink:href="#DejaVuSans-29" transform="translate(290.283203 0.015625)"/>
      <use xlink:href="#DejaVuSans-2c" transform="translate(329.296875 0.015625)"/>
      <use xlink:href="#DejaVuSans-20" transform="translate(361.083984 0.015625)"/>
      <use xlink:href="#DejaVuSans-Oblique-3bb" transform="translate(392.871094 0.015625)"/>
      <use xlink:href="#DejaVuSans-3d" transform="translate(471.533203 0.015625)"/>
      <use xlink:href="#DejaVuSans-31" transform="translate(574.804688 0.015625)"/>
     </g>
    </g>
    <g id="line2d_71">
     <path d="M 1498.606875 521.832063 
L 1520.606875 521.832063 
L 1542.606875 521.832063 
" style="fill: none; stroke-dasharray: 7.5,7.5; stroke-dashoffset: 0; stroke: #000000; stroke-width: 1.5"/>
    </g>
    <g id="text_56">
     <!-- X(R+I), $\lambda=1.5$ -->
     <g transform="translate(1560.206875 529.532063) scale(0.22 -0.22)">
      <use xlink:href="#DejaVuSans-58" transform="translate(0 0.015625)"/>
      <use xlink:href="#DejaVuSans-28" transform="translate(68.505859 0.015625)"/>
      <use xlink:href="#DejaVuSans-52" transform="translate(107.519531 0.015625)"/>
      <use xlink:href="#DejaVuSans-2b" transform="translate(177.001953 0.015625)"/>
      <use xlink:href="#DejaVuSans-49" transform="translate(260.791016 0.015625)"/>
      <use xlink:href="#DejaVuSans-29" transform="translate(290.283203 0.015625)"/>
      <use xlink:href="#DejaVuSans-2c" transform="translate(329.296875 0.015625)"/>
      <use xlink:href="#DejaVuSans-20" transform="translate(361.083984 0.015625)"/>
      <use xlink:href="#DejaVuSans-Oblique-3bb" transform="translate(392.871094 0.015625)"/>
      <use xlink:href="#DejaVuSans-3d" transform="translate(471.533203 0.015625)"/>
      <use xlink:href="#DejaVuSans-31" transform="translate(574.804688 0.015625)"/>
      <use xlink:href="#DejaVuSans-2e" transform="translate(638.427734 0.015625)"/>
      <use xlink:href="#DejaVuSans-35" transform="translate(670.214844 0.015625)"/>
     </g>
    </g>
   </g>
  </g>
 </g>
 <defs>
  <clipPath id="p7b719c5e94">
   <rect x="67.486875" y="33.259875" width="492.352941" height="302.4"/>
  </clipPath>
  <clipPath id="p38042fb186">
   <rect x="658.310404" y="33.259875" width="492.352941" height="302.4"/>
  </clipPath>
  <clipPath id="p791ac835c7">
   <rect x="1249.133934" y="33.259875" width="492.352941" height="302.4"/>
  </clipPath>
  <clipPath id="pa6a934aafb">
   <rect x="67.486875" y="396.139875" width="492.352941" height="302.4"/>
  </clipPath>
  <clipPath id="pc1eb2d6097">
   <rect x="658.310404" y="396.139875" width="492.352941" height="302.4"/>
  </clipPath>
  <clipPath id="pf82e1c1d15">
   <rect x="1249.133934" y="396.139875" width="492.352941" height="302.4"/>
  </clipPath>
 </defs>
</svg>
