<?xml version="1.0" encoding="utf-8" standalone="no"?>
<!DOCTYPE svg PUBLIC "-//W3C//DTD SVG 1.1//EN"
  "http://www.w3.org/Graphics/SVG/1.1/DTD/svg11.dtd">
<svg xmlns:xlink="http://www.w3.org/1999/xlink" width="1413.886875pt" height="870.203625pt" viewBox="0 0 1413.886875 870.203625" xmlns="http://www.w3.org/2000/svg" version="1.1">
 <metadata>
  <rdf:RDF xmlns:dc="http://purl.org/dc/elements/1.1/" xmlns:cc="http://creativecommons.org/ns#" xmlns:rdf="http://www.w3.org/1999/02/22-rdf-syntax-ns#">
   <cc:Work>
    <dc:type rdf:resource="http://purl.org/dc/dcmitype/StillImage"/>
    <dc:date>2025-01-26T14:12:42.041651</dc:date>
    <dc:format>image/svg+xml</dc:format>
    <dc:creator>
     <cc:Agent>
      <dc:title>Matplotlib v3.6.3, https://matplotlib.org/</dc:title>
     </cc:Agent>
    </dc:creator>
   </cc:Work>
  </rdf:RDF>
 </metadata>
 <defs>
  <style type="text/css">*{stroke-linejoin: round; stroke-linecap: butt}</style>
 </defs>
 <g id="figure_1">
  <g id="patch_1">
   <path d="M 0 870.203625 
L 1413.886875 870.203625 
L 1413.886875 0 
L 0 0 
z
" style="fill: #ffffff"/>
  </g>
  <g id="axes_1">
   <g id="patch_2">
    <path d="M 67.486875 402.859875 
L 461.369228 402.859875 
L 461.369228 33.259875 
L 67.486875 33.259875 
z
" style="fill: #ffffff"/>
   </g>
   <g id="matplotlib.axis_1"/>
   <g id="matplotlib.axis_2">
    <g id="ytick_1">
     <g id="line2d_1">
      <defs>
       <path id="m14036defdd" d="M 0 0 
L -3.5 0 
" style="stroke: #000000; stroke-width: 0.8"/>
      </defs>
      <g>
       <use xlink:href="#m14036defdd" x="67.486875" y="402.859875" style="stroke: #000000; stroke-width: 0.8"/>
      </g>
     </g>
     <g id="text_1">
      <!-- 0 -->
      <g transform="translate(46.489375 411.218156) scale(0.22 -0.22)">
       <defs>
        <path id="DejaVuSans-30" d="M 2034 4250 
Q 1547 4250 1301 3770 
Q 1056 3291 1056 2328 
Q 1056 1369 1301 889 
Q 1547 409 2034 409 
Q 2525 409 2770 889 
Q 3016 1369 3016 2328 
Q 3016 3291 2770 3770 
Q 2525 4250 2034 4250 
z
M 2034 4750 
Q 2819 4750 3233 4129 
Q 3647 3509 3647 2328 
Q 3647 1150 3233 529 
Q 2819 -91 2034 -91 
Q 1250 -91 836 529 
Q 422 1150 422 2328 
Q 422 3509 836 4129 
Q 1250 4750 2034 4750 
z
" transform="scale(0.015625)"/>
       </defs>
       <use xlink:href="#DejaVuSans-30"/>
      </g>
     </g>
    </g>
    <g id="ytick_2">
     <g id="line2d_2">
      <g>
       <use xlink:href="#m14036defdd" x="67.486875" y="351.8219" style="stroke: #000000; stroke-width: 0.8"/>
      </g>
     </g>
     <g id="text_2">
      <!-- 10 -->
      <g transform="translate(32.491875 360.180182) scale(0.22 -0.22)">
       <defs>
        <path id="DejaVuSans-31" d="M 794 531 
L 1825 531 
L 1825 4091 
L 703 3866 
L 703 4441 
L 1819 4666 
L 2450 4666 
L 2450 531 
L 3481 531 
L 3481 0 
L 794 0 
L 794 531 
z
" transform="scale(0.015625)"/>
       </defs>
       <use xlink:href="#DejaVuSans-31"/>
       <use xlink:href="#DejaVuSans-30" x="63.623047"/>
      </g>
     </g>
    </g>
    <g id="ytick_3">
     <g id="line2d_3">
      <g>
       <use xlink:href="#m14036defdd" x="67.486875" y="300.783926" style="stroke: #000000; stroke-width: 0.8"/>
      </g>
     </g>
     <g id="text_3">
      <!-- 20 -->
      <g transform="translate(32.491875 309.142207) scale(0.22 -0.22)">
       <defs>
        <path id="DejaVuSans-32" d="M 1228 531 
L 3431 531 
L 3431 0 
L 469 0 
L 469 531 
Q 828 903 1448 1529 
Q 2069 2156 2228 2338 
Q 2531 2678 2651 2914 
Q 2772 3150 2772 3378 
Q 2772 3750 2511 3984 
Q 2250 4219 1831 4219 
Q 1534 4219 1204 4116 
Q 875 4013 500 3803 
L 500 4441 
Q 881 4594 1212 4672 
Q 1544 4750 1819 4750 
Q 2544 4750 2975 4387 
Q 3406 4025 3406 3419 
Q 3406 3131 3298 2873 
Q 3191 2616 2906 2266 
Q 2828 2175 2409 1742 
Q 1991 1309 1228 531 
z
" transform="scale(0.015625)"/>
       </defs>
       <use xlink:href="#DejaVuSans-32"/>
       <use xlink:href="#DejaVuSans-30" x="63.623047"/>
      </g>
     </g>
    </g>
    <g id="ytick_4">
     <g id="line2d_4">
      <g>
       <use xlink:href="#m14036defdd" x="67.486875" y="249.745951" style="stroke: #000000; stroke-width: 0.8"/>
      </g>
     </g>
     <g id="text_4">
      <!-- 30 -->
      <g transform="translate(32.491875 258.104232) scale(0.22 -0.22)">
       <defs>
        <path id="DejaVuSans-33" d="M 2597 2516 
Q 3050 2419 3304 2112 
Q 3559 1806 3559 1356 
Q 3559 666 3084 287 
Q 2609 -91 1734 -91 
Q 1441 -91 1130 -33 
Q 819 25 488 141 
L 488 750 
Q 750 597 1062 519 
Q 1375 441 1716 441 
Q 2309 441 2620 675 
Q 2931 909 2931 1356 
Q 2931 1769 2642 2001 
Q 2353 2234 1838 2234 
L 1294 2234 
L 1294 2753 
L 1863 2753 
Q 2328 2753 2575 2939 
Q 2822 3125 2822 3475 
Q 2822 3834 2567 4026 
Q 2313 4219 1838 4219 
Q 1578 4219 1281 4162 
Q 984 4106 628 3988 
L 628 4550 
Q 988 4650 1302 4700 
Q 1616 4750 1894 4750 
Q 2613 4750 3031 4423 
Q 3450 4097 3450 3541 
Q 3450 3153 3228 2886 
Q 3006 2619 2597 2516 
z
" transform="scale(0.015625)"/>
       </defs>
       <use xlink:href="#DejaVuSans-33"/>
       <use xlink:href="#DejaVuSans-30" x="63.623047"/>
      </g>
     </g>
    </g>
    <g id="ytick_5">
     <g id="line2d_5">
      <g>
       <use xlink:href="#m14036defdd" x="67.486875" y="198.707976" style="stroke: #000000; stroke-width: 0.8"/>
      </g>
     </g>
     <g id="text_5">
      <!-- 40 -->
      <g transform="translate(32.491875 207.066258) scale(0.22 -0.22)">
       <defs>
        <path id="DejaVuSans-34" d="M 2419 4116 
L 825 1625 
L 2419 1625 
L 2419 4116 
z
M 2253 4666 
L 3047 4666 
L 3047 1625 
L 3713 1625 
L 3713 1100 
L 3047 1100 
L 3047 0 
L 2419 0 
L 2419 1100 
L 313 1100 
L 313 1709 
L 2253 4666 
z
" transform="scale(0.015625)"/>
       </defs>
       <use xlink:href="#DejaVuSans-34"/>
       <use xlink:href="#DejaVuSans-30" x="63.623047"/>
      </g>
     </g>
    </g>
    <g id="ytick_6">
     <g id="line2d_6">
      <g>
       <use xlink:href="#m14036defdd" x="67.486875" y="147.670002" style="stroke: #000000; stroke-width: 0.8"/>
      </g>
     </g>
     <g id="text_6">
      <!-- 50 -->
      <g transform="translate(32.491875 156.028283) scale(0.22 -0.22)">
       <defs>
        <path id="DejaVuSans-35" d="M 691 4666 
L 3169 4666 
L 3169 4134 
L 1269 4134 
L 1269 2991 
Q 1406 3038 1543 3061 
Q 1681 3084 1819 3084 
Q 2600 3084 3056 2656 
Q 3513 2228 3513 1497 
Q 3513 744 3044 326 
Q 2575 -91 1722 -91 
Q 1428 -91 1123 -41 
Q 819 9 494 109 
L 494 744 
Q 775 591 1075 516 
Q 1375 441 1709 441 
Q 2250 441 2565 725 
Q 2881 1009 2881 1497 
Q 2881 1984 2565 2268 
Q 2250 2553 1709 2553 
Q 1456 2553 1204 2497 
Q 953 2441 691 2322 
L 691 4666 
z
" transform="scale(0.015625)"/>
       </defs>
       <use xlink:href="#DejaVuSans-35"/>
       <use xlink:href="#DejaVuSans-30" x="63.623047"/>
      </g>
     </g>
    </g>
    <g id="ytick_7">
     <g id="line2d_7">
      <g>
       <use xlink:href="#m14036defdd" x="67.486875" y="96.632027" style="stroke: #000000; stroke-width: 0.8"/>
      </g>
     </g>
     <g id="text_7">
      <!-- 60 -->
      <g transform="translate(32.491875 104.990308) scale(0.22 -0.22)">
       <defs>
        <path id="DejaVuSans-36" d="M 2113 2584 
Q 1688 2584 1439 2293 
Q 1191 2003 1191 1497 
Q 1191 994 1439 701 
Q 1688 409 2113 409 
Q 2538 409 2786 701 
Q 3034 994 3034 1497 
Q 3034 2003 2786 2293 
Q 2538 2584 2113 2584 
z
M 3366 4563 
L 3366 3988 
Q 3128 4100 2886 4159 
Q 2644 4219 2406 4219 
Q 1781 4219 1451 3797 
Q 1122 3375 1075 2522 
Q 1259 2794 1537 2939 
Q 1816 3084 2150 3084 
Q 2853 3084 3261 2657 
Q 3669 2231 3669 1497 
Q 3669 778 3244 343 
Q 2819 -91 2113 -91 
Q 1303 -91 875 529 
Q 447 1150 447 2328 
Q 447 3434 972 4092 
Q 1497 4750 2381 4750 
Q 2619 4750 2861 4703 
Q 3103 4656 3366 4563 
z
" transform="scale(0.015625)"/>
       </defs>
       <use xlink:href="#DejaVuSans-36"/>
       <use xlink:href="#DejaVuSans-30" x="63.623047"/>
      </g>
     </g>
    </g>
    <g id="ytick_8">
     <g id="line2d_8">
      <g>
       <use xlink:href="#m14036defdd" x="67.486875" y="45.594052" style="stroke: #000000; stroke-width: 0.8"/>
      </g>
     </g>
     <g id="text_8">
      <!-- 70 -->
      <g transform="translate(32.491875 53.952333) scale(0.22 -0.22)">
       <defs>
        <path id="DejaVuSans-37" d="M 525 4666 
L 3525 4666 
L 3525 4397 
L 1831 0 
L 1172 0 
L 2766 4134 
L 525 4134 
L 525 4666 
z
" transform="scale(0.015625)"/>
       </defs>
       <use xlink:href="#DejaVuSans-37"/>
       <use xlink:href="#DejaVuSans-30" x="63.623047"/>
      </g>
     </g>
    </g>
    <g id="text_9">
     <!-- Improvement (%) -->
     <g transform="translate(23.916562 314.584875) rotate(-90) scale(0.22 -0.22)">
      <defs>
       <path id="DejaVuSans-49" d="M 628 4666 
L 1259 4666 
L 1259 0 
L 628 0 
L 628 4666 
z
" transform="scale(0.015625)"/>
       <path id="DejaVuSans-6d" d="M 3328 2828 
Q 3544 3216 3844 3400 
Q 4144 3584 4550 3584 
Q 5097 3584 5394 3201 
Q 5691 2819 5691 2113 
L 5691 0 
L 5113 0 
L 5113 2094 
Q 5113 2597 4934 2840 
Q 4756 3084 4391 3084 
Q 3944 3084 3684 2787 
Q 3425 2491 3425 1978 
L 3425 0 
L 2847 0 
L 2847 2094 
Q 2847 2600 2669 2842 
Q 2491 3084 2119 3084 
Q 1678 3084 1418 2786 
Q 1159 2488 1159 1978 
L 1159 0 
L 581 0 
L 581 3500 
L 1159 3500 
L 1159 2956 
Q 1356 3278 1631 3431 
Q 1906 3584 2284 3584 
Q 2666 3584 2933 3390 
Q 3200 3197 3328 2828 
z
" transform="scale(0.015625)"/>
       <path id="DejaVuSans-70" d="M 1159 525 
L 1159 -1331 
L 581 -1331 
L 581 3500 
L 1159 3500 
L 1159 2969 
Q 1341 3281 1617 3432 
Q 1894 3584 2278 3584 
Q 2916 3584 3314 3078 
Q 3713 2572 3713 1747 
Q 3713 922 3314 415 
Q 2916 -91 2278 -91 
Q 1894 -91 1617 61 
Q 1341 213 1159 525 
z
M 3116 1747 
Q 3116 2381 2855 2742 
Q 2594 3103 2138 3103 
Q 1681 3103 1420 2742 
Q 1159 2381 1159 1747 
Q 1159 1113 1420 752 
Q 1681 391 2138 391 
Q 2594 391 2855 752 
Q 3116 1113 3116 1747 
z
" transform="scale(0.015625)"/>
       <path id="DejaVuSans-72" d="M 2631 2963 
Q 2534 3019 2420 3045 
Q 2306 3072 2169 3072 
Q 1681 3072 1420 2755 
Q 1159 2438 1159 1844 
L 1159 0 
L 581 0 
L 581 3500 
L 1159 3500 
L 1159 2956 
Q 1341 3275 1631 3429 
Q 1922 3584 2338 3584 
Q 2397 3584 2469 3576 
Q 2541 3569 2628 3553 
L 2631 2963 
z
" transform="scale(0.015625)"/>
       <path id="DejaVuSans-6f" d="M 1959 3097 
Q 1497 3097 1228 2736 
Q 959 2375 959 1747 
Q 959 1119 1226 758 
Q 1494 397 1959 397 
Q 2419 397 2687 759 
Q 2956 1122 2956 1747 
Q 2956 2369 2687 2733 
Q 2419 3097 1959 3097 
z
M 1959 3584 
Q 2709 3584 3137 3096 
Q 3566 2609 3566 1747 
Q 3566 888 3137 398 
Q 2709 -91 1959 -91 
Q 1206 -91 779 398 
Q 353 888 353 1747 
Q 353 2609 779 3096 
Q 1206 3584 1959 3584 
z
" transform="scale(0.015625)"/>
       <path id="DejaVuSans-76" d="M 191 3500 
L 800 3500 
L 1894 563 
L 2988 3500 
L 3597 3500 
L 2284 0 
L 1503 0 
L 191 3500 
z
" transform="scale(0.015625)"/>
       <path id="DejaVuSans-65" d="M 3597 1894 
L 3597 1613 
L 953 1613 
Q 991 1019 1311 708 
Q 1631 397 2203 397 
Q 2534 397 2845 478 
Q 3156 559 3463 722 
L 3463 178 
Q 3153 47 2828 -22 
Q 2503 -91 2169 -91 
Q 1331 -91 842 396 
Q 353 884 353 1716 
Q 353 2575 817 3079 
Q 1281 3584 2069 3584 
Q 2775 3584 3186 3129 
Q 3597 2675 3597 1894 
z
M 3022 2063 
Q 3016 2534 2758 2815 
Q 2500 3097 2075 3097 
Q 1594 3097 1305 2825 
Q 1016 2553 972 2059 
L 3022 2063 
z
" transform="scale(0.015625)"/>
       <path id="DejaVuSans-6e" d="M 3513 2113 
L 3513 0 
L 2938 0 
L 2938 2094 
Q 2938 2591 2744 2837 
Q 2550 3084 2163 3084 
Q 1697 3084 1428 2787 
Q 1159 2491 1159 1978 
L 1159 0 
L 581 0 
L 581 3500 
L 1159 3500 
L 1159 2956 
Q 1366 3272 1645 3428 
Q 1925 3584 2291 3584 
Q 2894 3584 3203 3211 
Q 3513 2838 3513 2113 
z
" transform="scale(0.015625)"/>
       <path id="DejaVuSans-74" d="M 1172 4494 
L 1172 3500 
L 2356 3500 
L 2356 3053 
L 1172 3053 
L 1172 1153 
Q 1172 725 1289 603 
Q 1406 481 1766 481 
L 2356 481 
L 2356 0 
L 1766 0 
Q 1100 0 847 248 
Q 594 497 594 1153 
L 594 3053 
L 172 3053 
L 172 3500 
L 594 3500 
L 594 4494 
L 1172 4494 
z
" transform="scale(0.015625)"/>
       <path id="DejaVuSans-20" transform="scale(0.015625)"/>
       <path id="DejaVuSans-28" d="M 1984 4856 
Q 1566 4138 1362 3434 
Q 1159 2731 1159 2009 
Q 1159 1288 1364 580 
Q 1569 -128 1984 -844 
L 1484 -844 
Q 1016 -109 783 600 
Q 550 1309 550 2009 
Q 550 2706 781 3412 
Q 1013 4119 1484 4856 
L 1984 4856 
z
" transform="scale(0.015625)"/>
       <path id="DejaVuSans-25" d="M 4653 2053 
Q 4381 2053 4226 1822 
Q 4072 1591 4072 1178 
Q 4072 772 4226 539 
Q 4381 306 4653 306 
Q 4919 306 5073 539 
Q 5228 772 5228 1178 
Q 5228 1588 5073 1820 
Q 4919 2053 4653 2053 
z
M 4653 2450 
Q 5147 2450 5437 2106 
Q 5728 1763 5728 1178 
Q 5728 594 5436 251 
Q 5144 -91 4653 -91 
Q 4153 -91 3862 251 
Q 3572 594 3572 1178 
Q 3572 1766 3864 2108 
Q 4156 2450 4653 2450 
z
M 1428 4353 
Q 1159 4353 1004 4120 
Q 850 3888 850 3481 
Q 850 3069 1003 2837 
Q 1156 2606 1428 2606 
Q 1700 2606 1854 2837 
Q 2009 3069 2009 3481 
Q 2009 3884 1853 4118 
Q 1697 4353 1428 4353 
z
M 4250 4750 
L 4750 4750 
L 1831 -91 
L 1331 -91 
L 4250 4750 
z
M 1428 4750 
Q 1922 4750 2215 4408 
Q 2509 4066 2509 3481 
Q 2509 2891 2217 2550 
Q 1925 2209 1428 2209 
Q 931 2209 642 2551 
Q 353 2894 353 3481 
Q 353 4063 643 4406 
Q 934 4750 1428 4750 
z
" transform="scale(0.015625)"/>
       <path id="DejaVuSans-29" d="M 513 4856 
L 1013 4856 
Q 1481 4119 1714 3412 
Q 1947 2706 1947 2009 
Q 1947 1309 1714 600 
Q 1481 -109 1013 -844 
L 513 -844 
Q 928 -128 1133 580 
Q 1338 1288 1338 2009 
Q 1338 2731 1133 3434 
Q 928 4138 513 4856 
z
" transform="scale(0.015625)"/>
      </defs>
      <use xlink:href="#DejaVuSans-49"/>
      <use xlink:href="#DejaVuSans-6d" x="29.492188"/>
      <use xlink:href="#DejaVuSans-70" x="126.904297"/>
      <use xlink:href="#DejaVuSans-72" x="190.380859"/>
      <use xlink:href="#DejaVuSans-6f" x="229.244141"/>
      <use xlink:href="#DejaVuSans-76" x="290.425781"/>
      <use xlink:href="#DejaVuSans-65" x="349.605469"/>
      <use xlink:href="#DejaVuSans-6d" x="411.128906"/>
      <use xlink:href="#DejaVuSans-65" x="508.541016"/>
      <use xlink:href="#DejaVuSans-6e" x="570.064453"/>
      <use xlink:href="#DejaVuSans-74" x="633.443359"/>
      <use xlink:href="#DejaVuSans-20" x="672.652344"/>
      <use xlink:href="#DejaVuSans-28" x="704.439453"/>
      <use xlink:href="#DejaVuSans-25" x="743.453125"/>
      <use xlink:href="#DejaVuSans-29" x="838.472656"/>
     </g>
    </g>
   </g>
   <g id="line2d_9">
    <path d="M 85.390618 402.859875 
L 103.294362 391.335171 
L 121.198105 388.261917 
L 139.101848 385.078903 
L 157.005592 381.621492 
L 174.909335 378.822635 
L 192.813078 376.325616 
L 210.716822 372.868205 
L 228.620565 369.740071 
L 246.524308 366.118021 
L 264.428051 363.236845 
L 282.331795 359.120879 
L 300.235538 355.251872 
L 318.139281 350.202954 
L 336.043025 345.730271 
L 353.946768 339.034967 
L 371.850511 332.69638 
L 389.754255 326.330353 
L 407.657998 316.836192 
L 425.561741 306.546278 
L 443.465485 293.567266 
" clip-path="url(#p2b9616e41c)" style="fill: none; stroke-dasharray: ; stroke-dashoffset: 0; stroke: #000000; stroke-width: 1.5"/>
   </g>
   <g id="line2d_10">
    <path d="M 67.486875 402.859875 
L 461.369228 402.859875 
" clip-path="url(#p2b9616e41c)" style="fill: none; stroke: #000000; stroke-width: 1.5; stroke-linecap: square"/>
   </g>
   <g id="patch_3">
    <path d="M 67.486875 402.859875 
L 67.486875 33.259875 
" style="fill: none; stroke: #000000; stroke-width: 0.8; stroke-linejoin: miter; stroke-linecap: square"/>
   </g>
   <g id="patch_4">
    <path d="M 461.369228 402.859875 
L 461.369228 33.259875 
" style="fill: none; stroke: #000000; stroke-width: 0.8; stroke-linejoin: miter; stroke-linecap: square"/>
   </g>
   <g id="patch_5">
    <path d="M 67.486875 402.859875 
L 461.369228 402.859875 
" style="fill: none; stroke: #000000; stroke-width: 0.8; stroke-linejoin: miter; stroke-linecap: square"/>
   </g>
   <g id="patch_6">
    <path d="M 67.486875 33.259875 
L 461.369228 33.259875 
" style="fill: none; stroke: #000000; stroke-width: 0.8; stroke-linejoin: miter; stroke-linecap: square"/>
   </g>
   <g id="text_10">
    <!-- Overall -->
    <g transform="translate(217.252489 27.259875) scale(0.264 -0.264)">
     <defs>
      <path id="DejaVuSans-4f" d="M 2522 4238 
Q 1834 4238 1429 3725 
Q 1025 3213 1025 2328 
Q 1025 1447 1429 934 
Q 1834 422 2522 422 
Q 3209 422 3611 934 
Q 4013 1447 4013 2328 
Q 4013 3213 3611 3725 
Q 3209 4238 2522 4238 
z
M 2522 4750 
Q 3503 4750 4090 4092 
Q 4678 3434 4678 2328 
Q 4678 1225 4090 567 
Q 3503 -91 2522 -91 
Q 1538 -91 948 565 
Q 359 1222 359 2328 
Q 359 3434 948 4092 
Q 1538 4750 2522 4750 
z
" transform="scale(0.015625)"/>
      <path id="DejaVuSans-61" d="M 2194 1759 
Q 1497 1759 1228 1600 
Q 959 1441 959 1056 
Q 959 750 1161 570 
Q 1363 391 1709 391 
Q 2188 391 2477 730 
Q 2766 1069 2766 1631 
L 2766 1759 
L 2194 1759 
z
M 3341 1997 
L 3341 0 
L 2766 0 
L 2766 531 
Q 2569 213 2275 61 
Q 1981 -91 1556 -91 
Q 1019 -91 701 211 
Q 384 513 384 1019 
Q 384 1609 779 1909 
Q 1175 2209 1959 2209 
L 2766 2209 
L 2766 2266 
Q 2766 2663 2505 2880 
Q 2244 3097 1772 3097 
Q 1472 3097 1187 3025 
Q 903 2953 641 2809 
L 641 3341 
Q 956 3463 1253 3523 
Q 1550 3584 1831 3584 
Q 2591 3584 2966 3190 
Q 3341 2797 3341 1997 
z
" transform="scale(0.015625)"/>
      <path id="DejaVuSans-6c" d="M 603 4863 
L 1178 4863 
L 1178 0 
L 603 0 
L 603 4863 
z
" transform="scale(0.015625)"/>
     </defs>
     <use xlink:href="#DejaVuSans-4f"/>
     <use xlink:href="#DejaVuSans-76" x="78.710938"/>
     <use xlink:href="#DejaVuSans-65" x="137.890625"/>
     <use xlink:href="#DejaVuSans-72" x="199.414062"/>
     <use xlink:href="#DejaVuSans-61" x="240.527344"/>
     <use xlink:href="#DejaVuSans-6c" x="301.806641"/>
     <use xlink:href="#DejaVuSans-6c" x="329.589844"/>
    </g>
   </g>
  </g>
  <g id="axes_2">
   <g id="patch_7">
    <path d="M 540.145699 402.859875 
L 934.028051 402.859875 
L 934.028051 33.259875 
L 540.145699 33.259875 
z
" style="fill: #ffffff"/>
   </g>
   <g id="matplotlib.axis_3"/>
   <g id="matplotlib.axis_4"/>
   <g id="line2d_11">
    <path d="M 558.049442 402.859875 
L 575.953185 392.45598 
L 593.856928 392.390547 
L 611.760672 391.147314 
L 629.664415 389.838648 
L 647.568158 389.315182 
L 665.471902 388.529982 
L 683.375645 385.650917 
L 701.279388 385.52005 
L 719.183132 384.015084 
L 737.086875 383.753351 
L 754.990618 382.052085 
L 772.894362 382.052085 
L 790.798105 380.808853 
L 808.701848 379.500187 
L 826.605592 376.686555 
L 844.509335 375.835922 
L 862.413078 375.966788 
L 880.316822 375.835922 
L 898.220565 374.919856 
L 916.124308 376.097655 
" clip-path="url(#p187e0adec4)" style="fill: none; stroke-dasharray: ; stroke-dashoffset: 0; stroke: #000000; stroke-width: 1.5"/>
   </g>
   <g id="line2d_12">
    <path d="M 558.049442 402.859875 
L 575.953185 391.291267 
L 593.856928 388.909495 
L 611.760672 383.720634 
L 629.664415 380.573293 
L 647.568158 376.490255 
L 665.471902 373.768229 
L 683.375645 368.919622 
L 701.279388 362.199622 
L 719.183132 357.606204 
L 737.086875 353.09785 
L 754.990618 347.908989 
L 772.894362 343.060381 
L 790.798105 335.659875 
L 808.701848 331.832027 
L 826.605592 324.771774 
L 844.509335 319.157597 
L 862.413078 308.099369 
L 880.316822 296.530761 
L 898.220565 292.022407 
L 916.124308 285.217343 
" clip-path="url(#p187e0adec4)" style="fill: none; stroke-dasharray: 1.5,7.5; stroke-dashoffset: 0; stroke: #000000; stroke-width: 1.5"/>
   </g>
   <g id="line2d_13">
    <path d="M 558.049442 402.859875 
L 575.953185 392.935824 
L 593.856928 382.019369 
L 611.760672 378.616837 
L 629.664415 373.51304 
L 647.568158 368.125698 
L 665.471902 363.163672 
L 683.375645 360.186457 
L 701.279388 356.500381 
L 719.183132 349.553546 
L 737.086875 345.016837 
L 754.990618 339.204179 
L 772.894362 329.4219 
L 790.798105 322.616837 
L 808.701848 312.409242 
L 826.605592 300.642153 
L 844.509335 286.748483 
L 862.413078 275.832027 
L 880.316822 257.543419 
L 898.220565 225.928229 
L 916.124308 204.23709 
" clip-path="url(#p187e0adec4)" style="fill: none; stroke-dasharray: 1.5,1.5; stroke-dashoffset: 0; stroke: #000000; stroke-width: 1.5"/>
   </g>
   <g id="line2d_14">
    <path d="M 558.049442 402.859875 
L 575.953185 379.46747 
L 593.856928 376.915571 
L 611.760672 371.811774 
L 629.664415 357.776331 
L 647.568158 354.373799 
L 665.471902 349.270002 
L 683.375645 347.568736 
L 701.279388 344.591521 
L 719.183132 342.039622 
L 737.086875 335.234559 
L 754.990618 325.877597 
L 772.894362 319.49785 
L 790.798105 306.738356 
L 808.701848 295.680128 
L 826.605592 280.794052 
L 844.509335 257.826964 
L 862.413078 246.343419 
L 880.316822 212.743419 
L 898.220565 176.591521 
L 916.124308 66.859875 
" clip-path="url(#p187e0adec4)" style="fill: none; stroke-dasharray: 7.5,7.5; stroke-dashoffset: 0; stroke: #000000; stroke-width: 1.5"/>
   </g>
   <g id="line2d_15">
    <path d="M 540.145699 402.859875 
L 934.028051 402.859875 
" clip-path="url(#p187e0adec4)" style="fill: none; stroke: #000000; stroke-width: 1.5; stroke-linecap: square"/>
   </g>
   <g id="patch_8">
    <path d="M 540.145699 402.859875 
L 540.145699 33.259875 
" style="fill: none; stroke: #000000; stroke-width: 0.8; stroke-linejoin: miter; stroke-linecap: square"/>
   </g>
   <g id="patch_9">
    <path d="M 934.028051 402.859875 
L 934.028051 33.259875 
" style="fill: none; stroke: #000000; stroke-width: 0.8; stroke-linejoin: miter; stroke-linecap: square"/>
   </g>
   <g id="patch_10">
    <path d="M 540.145699 402.859875 
L 934.028051 402.859875 
" style="fill: none; stroke: #000000; stroke-width: 0.8; stroke-linejoin: miter; stroke-linecap: square"/>
   </g>
   <g id="patch_11">
    <path d="M 540.145699 33.259875 
L 934.028051 33.259875 
" style="fill: none; stroke: #000000; stroke-width: 0.8; stroke-linejoin: miter; stroke-linecap: square"/>
   </g>
   <g id="text_11">
    <!-- Population Size -->
    <g transform="translate(636.451313 27.259875) scale(0.264 -0.264)">
     <defs>
      <path id="DejaVuSans-50" d="M 1259 4147 
L 1259 2394 
L 2053 2394 
Q 2494 2394 2734 2622 
Q 2975 2850 2975 3272 
Q 2975 3691 2734 3919 
Q 2494 4147 2053 4147 
L 1259 4147 
z
M 628 4666 
L 2053 4666 
Q 2838 4666 3239 4311 
Q 3641 3956 3641 3272 
Q 3641 2581 3239 2228 
Q 2838 1875 2053 1875 
L 1259 1875 
L 1259 0 
L 628 0 
L 628 4666 
z
" transform="scale(0.015625)"/>
      <path id="DejaVuSans-75" d="M 544 1381 
L 544 3500 
L 1119 3500 
L 1119 1403 
Q 1119 906 1312 657 
Q 1506 409 1894 409 
Q 2359 409 2629 706 
Q 2900 1003 2900 1516 
L 2900 3500 
L 3475 3500 
L 3475 0 
L 2900 0 
L 2900 538 
Q 2691 219 2414 64 
Q 2138 -91 1772 -91 
Q 1169 -91 856 284 
Q 544 659 544 1381 
z
M 1991 3584 
L 1991 3584 
z
" transform="scale(0.015625)"/>
      <path id="DejaVuSans-69" d="M 603 3500 
L 1178 3500 
L 1178 0 
L 603 0 
L 603 3500 
z
M 603 4863 
L 1178 4863 
L 1178 4134 
L 603 4134 
L 603 4863 
z
" transform="scale(0.015625)"/>
      <path id="DejaVuSans-53" d="M 3425 4513 
L 3425 3897 
Q 3066 4069 2747 4153 
Q 2428 4238 2131 4238 
Q 1616 4238 1336 4038 
Q 1056 3838 1056 3469 
Q 1056 3159 1242 3001 
Q 1428 2844 1947 2747 
L 2328 2669 
Q 3034 2534 3370 2195 
Q 3706 1856 3706 1288 
Q 3706 609 3251 259 
Q 2797 -91 1919 -91 
Q 1588 -91 1214 -16 
Q 841 59 441 206 
L 441 856 
Q 825 641 1194 531 
Q 1563 422 1919 422 
Q 2459 422 2753 634 
Q 3047 847 3047 1241 
Q 3047 1584 2836 1778 
Q 2625 1972 2144 2069 
L 1759 2144 
Q 1053 2284 737 2584 
Q 422 2884 422 3419 
Q 422 4038 858 4394 
Q 1294 4750 2059 4750 
Q 2388 4750 2728 4690 
Q 3069 4631 3425 4513 
z
" transform="scale(0.015625)"/>
      <path id="DejaVuSans-7a" d="M 353 3500 
L 3084 3500 
L 3084 2975 
L 922 459 
L 3084 459 
L 3084 0 
L 275 0 
L 275 525 
L 2438 3041 
L 353 3041 
L 353 3500 
z
" transform="scale(0.015625)"/>
     </defs>
     <use xlink:href="#DejaVuSans-50"/>
     <use xlink:href="#DejaVuSans-6f" x="56.677734"/>
     <use xlink:href="#DejaVuSans-70" x="117.859375"/>
     <use xlink:href="#DejaVuSans-75" x="181.335938"/>
     <use xlink:href="#DejaVuSans-6c" x="244.714844"/>
     <use xlink:href="#DejaVuSans-61" x="272.498047"/>
     <use xlink:href="#DejaVuSans-74" x="333.777344"/>
     <use xlink:href="#DejaVuSans-69" x="372.986328"/>
     <use xlink:href="#DejaVuSans-6f" x="400.769531"/>
     <use xlink:href="#DejaVuSans-6e" x="461.951172"/>
     <use xlink:href="#DejaVuSans-20" x="525.330078"/>
     <use xlink:href="#DejaVuSans-53" x="557.117188"/>
     <use xlink:href="#DejaVuSans-69" x="620.59375"/>
     <use xlink:href="#DejaVuSans-7a" x="648.376953"/>
     <use xlink:href="#DejaVuSans-65" x="700.867188"/>
    </g>
   </g>
   <g id="legend_1">
    <g id="patch_12">
     <path d="M 555.545699 180.027375 
L 653.940699 180.027375 
Q 658.340699 180.027375 658.340699 175.627375 
L 658.340699 48.659875 
Q 658.340699 44.259875 653.940699 44.259875 
L 555.545699 44.259875 
Q 551.145699 44.259875 551.145699 48.659875 
L 551.145699 175.627375 
Q 551.145699 180.027375 555.545699 180.027375 
z
" style="fill: #ffffff; opacity: 0.8; stroke: #cccccc; stroke-linejoin: miter"/>
    </g>
    <g id="line2d_16">
     <path d="M 559.945699 62.076438 
L 581.945699 62.076438 
L 603.945699 62.076438 
" style="fill: none; stroke-dasharray: ; stroke-dashoffset: 0; stroke: #000000; stroke-width: 1.5"/>
    </g>
    <g id="text_12">
     <!-- 2 -->
     <g transform="translate(621.545699 69.776438) scale(0.22 -0.22)">
      <use xlink:href="#DejaVuSans-32"/>
     </g>
    </g>
    <g id="line2d_17">
     <path d="M 559.945699 94.368313 
L 581.945699 94.368313 
L 603.945699 94.368313 
" style="fill: none; stroke-dasharray: 1.5,7.5; stroke-dashoffset: 0; stroke: #000000; stroke-width: 1.5"/>
    </g>
    <g id="text_13">
     <!-- 5 -->
     <g transform="translate(621.545699 102.068313) scale(0.22 -0.22)">
      <use xlink:href="#DejaVuSans-35"/>
     </g>
    </g>
    <g id="line2d_18">
     <path d="M 559.945699 126.660188 
L 581.945699 126.660188 
L 603.945699 126.660188 
" style="fill: none; stroke-dasharray: 1.5,1.5; stroke-dashoffset: 0; stroke: #000000; stroke-width: 1.5"/>
    </g>
    <g id="text_14">
     <!-- 10 -->
     <g transform="translate(621.545699 134.360188) scale(0.22 -0.22)">
      <use xlink:href="#DejaVuSans-31"/>
      <use xlink:href="#DejaVuSans-30" x="63.623047"/>
     </g>
    </g>
    <g id="line2d_19">
     <path d="M 559.945699 158.952063 
L 581.945699 158.952063 
L 603.945699 158.952063 
" style="fill: none; stroke-dasharray: 7.5,7.5; stroke-dashoffset: 0; stroke: #000000; stroke-width: 1.5"/>
    </g>
    <g id="text_15">
     <!-- 25 -->
     <g transform="translate(621.545699 166.652063) scale(0.22 -0.22)">
      <use xlink:href="#DejaVuSans-32"/>
      <use xlink:href="#DejaVuSans-35" x="63.623047"/>
     </g>
    </g>
   </g>
  </g>
  <g id="axes_3">
   <g id="patch_13">
    <path d="M 1012.804522 402.859875 
L 1406.686875 402.859875 
L 1406.686875 33.259875 
L 1012.804522 33.259875 
z
" style="fill: #ffffff"/>
   </g>
   <g id="matplotlib.axis_5"/>
   <g id="matplotlib.axis_6"/>
   <g id="line2d_20">
    <path d="M 1030.708265 402.859875 
L 1048.612009 340.338356 
L 1066.515752 340.338356 
L 1084.419495 330.130761 
L 1102.323239 324.176331 
L 1120.226982 318.2219 
L 1138.130725 315.244685 
L 1156.034469 305.887723 
L 1173.938212 289.725698 
L 1191.841955 281.219369 
L 1209.745699 275.690255 
L 1227.649442 266.758609 
L 1245.553185 261.654812 
L 1263.456928 247.194052 
L 1281.360672 244.642153 
L 1299.264415 235.285191 
L 1317.168158 225.928229 
L 1335.071902 207.639622 
L 1352.975645 182.971267 
L 1370.879388 174.039622 
L 1388.783132 174.039622 
" clip-path="url(#p15f047955c)" style="fill: none; stroke-dasharray: ; stroke-dashoffset: 0; stroke: #000000; stroke-width: 1.5"/>
   </g>
   <g id="line2d_21">
    <path d="M 1030.708265 402.859875 
L 1048.612009 385.67709 
L 1066.515752 380.23304 
L 1084.419495 376.150002 
L 1102.323239 372.066964 
L 1120.226982 368.664432 
L 1138.130725 365.432027 
L 1156.034469 359.647723 
L 1173.938212 355.224432 
L 1191.841955 348.249242 
L 1209.745699 345.35709 
L 1227.649442 337.871521 
L 1245.553185 330.896331 
L 1263.456928 326.302913 
L 1281.360672 319.667976 
L 1299.264415 312.182407 
L 1317.168158 303.505951 
L 1335.071902 297.551521 
L 1352.975645 287.854305 
L 1370.879388 272.883166 
L 1388.783132 263.866457 
" clip-path="url(#p15f047955c)" style="fill: none; stroke-dasharray: 1.5,7.5; stroke-dashoffset: 0; stroke: #000000; stroke-width: 1.5"/>
   </g>
   <g id="line2d_22">
    <path d="M 1030.708265 402.859875 
L 1048.612009 393.219369 
L 1066.515752 386.69785 
L 1084.419495 383.011774 
L 1102.323239 380.459875 
L 1120.226982 375.923166 
L 1138.130725 372.23709 
L 1156.034469 366.991521 
L 1173.938212 365.432027 
L 1191.841955 362.454812 
L 1209.745699 358.059875 
L 1227.649442 356.216837 
L 1245.553185 351.680128 
L 1263.456928 346.151014 
L 1281.360672 342.464938 
L 1299.264415 331.123166 
L 1317.168158 325.310508 
L 1335.071902 317.654812 
L 1352.975645 309.148483 
L 1370.879388 295.680128 
L 1388.783132 281.644685 
" clip-path="url(#p15f047955c)" style="fill: none; stroke-dasharray: 1.5,1.5; stroke-dashoffset: 0; stroke: #000000; stroke-width: 1.5"/>
   </g>
   <g id="line2d_23">
    <path d="M 1030.708265 402.859875 
L 1048.612009 397.011774 
L 1066.515752 395.416837 
L 1084.419495 392.758609 
L 1102.323239 388.186457 
L 1120.226982 385.740888 
L 1138.130725 383.401647 
L 1156.034469 380.530761 
L 1173.938212 377.766204 
L 1191.841955 375.533293 
L 1209.745699 372.875065 
L 1227.649442 368.302913 
L 1245.553185 365.857343 
L 1263.456928 359.796584 
L 1281.360672 354.692786 
L 1299.264415 348.738356 
L 1317.168158 340.338356 
L 1335.071902 335.340888 
L 1352.975645 325.345951 
L 1370.879388 316.839622 
L 1388.783132 296.743419 
" clip-path="url(#p15f047955c)" style="fill: none; stroke-dasharray: 7.5,7.5; stroke-dashoffset: 0; stroke: #000000; stroke-width: 1.5"/>
   </g>
   <g id="line2d_24">
    <path d="M 1030.708265 402.859875 
L 1048.612009 398.691774 
L 1066.515752 397.075571 
L 1084.419495 395.629495 
L 1102.323239 393.332786 
L 1120.226982 392.226964 
L 1138.130725 390.780888 
L 1156.034469 390.270508 
L 1173.938212 389.164685 
L 1191.841955 386.69785 
L 1209.745699 385.081647 
L 1227.649442 382.614812 
L 1245.553185 379.807723 
L 1263.456928 377.511014 
L 1281.360672 373.768229 
L 1299.264415 370.195571 
L 1317.168158 366.963166 
L 1335.071902 362.454812 
L 1352.975645 355.904938 
L 1370.879388 348.164179 
L 1388.783132 336.935824 
" clip-path="url(#p15f047955c)" style="fill: none; stroke-dasharray: 4.5,7.5,1.5,7.5; stroke-dashoffset: 0; stroke: #000000; stroke-width: 1.5"/>
   </g>
   <g id="line2d_25">
    <path d="M 1012.804522 402.859875 
L 1406.686875 402.859875 
" clip-path="url(#p15f047955c)" style="fill: none; stroke: #000000; stroke-width: 1.5; stroke-linecap: square"/>
   </g>
   <g id="patch_14">
    <path d="M 1012.804522 402.859875 
L 1012.804522 33.259875 
" style="fill: none; stroke: #000000; stroke-width: 0.8; stroke-linejoin: miter; stroke-linecap: square"/>
   </g>
   <g id="patch_15">
    <path d="M 1406.686875 402.859875 
L 1406.686875 33.259875 
" style="fill: none; stroke: #000000; stroke-width: 0.8; stroke-linejoin: miter; stroke-linecap: square"/>
   </g>
   <g id="patch_16">
    <path d="M 1012.804522 402.859875 
L 1406.686875 402.859875 
" style="fill: none; stroke: #000000; stroke-width: 0.8; stroke-linejoin: miter; stroke-linecap: square"/>
   </g>
   <g id="patch_17">
    <path d="M 1012.804522 33.259875 
L 1406.686875 33.259875 
" style="fill: none; stroke: #000000; stroke-width: 0.8; stroke-linejoin: miter; stroke-linecap: square"/>
   </g>
   <g id="text_16">
    <!-- Number of Jobs -->
    <g transform="translate(1108.377949 27.259875) scale(0.264 -0.264)">
     <defs>
      <path id="DejaVuSans-4e" d="M 628 4666 
L 1478 4666 
L 3547 763 
L 3547 4666 
L 4159 4666 
L 4159 0 
L 3309 0 
L 1241 3903 
L 1241 0 
L 628 0 
L 628 4666 
z
" transform="scale(0.015625)"/>
      <path id="DejaVuSans-62" d="M 3116 1747 
Q 3116 2381 2855 2742 
Q 2594 3103 2138 3103 
Q 1681 3103 1420 2742 
Q 1159 2381 1159 1747 
Q 1159 1113 1420 752 
Q 1681 391 2138 391 
Q 2594 391 2855 752 
Q 3116 1113 3116 1747 
z
M 1159 2969 
Q 1341 3281 1617 3432 
Q 1894 3584 2278 3584 
Q 2916 3584 3314 3078 
Q 3713 2572 3713 1747 
Q 3713 922 3314 415 
Q 2916 -91 2278 -91 
Q 1894 -91 1617 61 
Q 1341 213 1159 525 
L 1159 0 
L 581 0 
L 581 4863 
L 1159 4863 
L 1159 2969 
z
" transform="scale(0.015625)"/>
      <path id="DejaVuSans-66" d="M 2375 4863 
L 2375 4384 
L 1825 4384 
Q 1516 4384 1395 4259 
Q 1275 4134 1275 3809 
L 1275 3500 
L 2222 3500 
L 2222 3053 
L 1275 3053 
L 1275 0 
L 697 0 
L 697 3053 
L 147 3053 
L 147 3500 
L 697 3500 
L 697 3744 
Q 697 4328 969 4595 
Q 1241 4863 1831 4863 
L 2375 4863 
z
" transform="scale(0.015625)"/>
      <path id="DejaVuSans-4a" d="M 628 4666 
L 1259 4666 
L 1259 325 
Q 1259 -519 939 -900 
Q 619 -1281 -91 -1281 
L -331 -1281 
L -331 -750 
L -134 -750 
Q 284 -750 456 -515 
Q 628 -281 628 325 
L 628 4666 
z
" transform="scale(0.015625)"/>
      <path id="DejaVuSans-73" d="M 2834 3397 
L 2834 2853 
Q 2591 2978 2328 3040 
Q 2066 3103 1784 3103 
Q 1356 3103 1142 2972 
Q 928 2841 928 2578 
Q 928 2378 1081 2264 
Q 1234 2150 1697 2047 
L 1894 2003 
Q 2506 1872 2764 1633 
Q 3022 1394 3022 966 
Q 3022 478 2636 193 
Q 2250 -91 1575 -91 
Q 1294 -91 989 -36 
Q 684 19 347 128 
L 347 722 
Q 666 556 975 473 
Q 1284 391 1588 391 
Q 1994 391 2212 530 
Q 2431 669 2431 922 
Q 2431 1156 2273 1281 
Q 2116 1406 1581 1522 
L 1381 1569 
Q 847 1681 609 1914 
Q 372 2147 372 2553 
Q 372 3047 722 3315 
Q 1072 3584 1716 3584 
Q 2034 3584 2315 3537 
Q 2597 3491 2834 3397 
z
" transform="scale(0.015625)"/>
     </defs>
     <use xlink:href="#DejaVuSans-4e"/>
     <use xlink:href="#DejaVuSans-75" x="74.804688"/>
     <use xlink:href="#DejaVuSans-6d" x="138.183594"/>
     <use xlink:href="#DejaVuSans-62" x="235.595703"/>
     <use xlink:href="#DejaVuSans-65" x="299.072266"/>
     <use xlink:href="#DejaVuSans-72" x="360.595703"/>
     <use xlink:href="#DejaVuSans-20" x="401.708984"/>
     <use xlink:href="#DejaVuSans-6f" x="433.496094"/>
     <use xlink:href="#DejaVuSans-66" x="494.677734"/>
     <use xlink:href="#DejaVuSans-20" x="529.882812"/>
     <use xlink:href="#DejaVuSans-4a" x="561.669922"/>
     <use xlink:href="#DejaVuSans-6f" x="591.162109"/>
     <use xlink:href="#DejaVuSans-62" x="652.34375"/>
     <use xlink:href="#DejaVuSans-73" x="715.820312"/>
    </g>
   </g>
   <g id="legend_2">
    <g id="patch_18">
     <path d="M 1028.204522 212.31925 
L 1126.599522 212.31925 
Q 1130.999522 212.31925 1130.999522 207.91925 
L 1130.999522 48.659875 
Q 1130.999522 44.259875 1126.599522 44.259875 
L 1028.204522 44.259875 
Q 1023.804522 44.259875 1023.804522 48.659875 
L 1023.804522 207.91925 
Q 1023.804522 212.31925 1028.204522 212.31925 
z
" style="fill: #ffffff; opacity: 0.8; stroke: #cccccc; stroke-linejoin: miter"/>
    </g>
    <g id="line2d_26">
     <path d="M 1032.604522 62.076438 
L 1054.604522 62.076438 
L 1076.604522 62.076438 
" style="fill: none; stroke-dasharray: ; stroke-dashoffset: 0; stroke: #000000; stroke-width: 1.5"/>
    </g>
    <g id="text_17">
     <!-- 5 -->
     <g transform="translate(1094.204522 69.776438) scale(0.22 -0.22)">
      <use xlink:href="#DejaVuSans-35"/>
     </g>
    </g>
    <g id="line2d_27">
     <path d="M 1032.604522 94.368313 
L 1054.604522 94.368313 
L 1076.604522 94.368313 
" style="fill: none; stroke-dasharray: 1.5,7.5; stroke-dashoffset: 0; stroke: #000000; stroke-width: 1.5"/>
    </g>
    <g id="text_18">
     <!-- 10 -->
     <g transform="translate(1094.204522 102.068313) scale(0.22 -0.22)">
      <use xlink:href="#DejaVuSans-31"/>
      <use xlink:href="#DejaVuSans-30" x="63.623047"/>
     </g>
    </g>
    <g id="line2d_28">
     <path d="M 1032.604522 126.660188 
L 1054.604522 126.660188 
L 1076.604522 126.660188 
" style="fill: none; stroke-dasharray: 1.5,1.5; stroke-dashoffset: 0; stroke: #000000; stroke-width: 1.5"/>
    </g>
    <g id="text_19">
     <!-- 15 -->
     <g transform="translate(1094.204522 134.360188) scale(0.22 -0.22)">
      <use xlink:href="#DejaVuSans-31"/>
      <use xlink:href="#DejaVuSans-35" x="63.623047"/>
     </g>
    </g>
    <g id="line2d_29">
     <path d="M 1032.604522 158.952063 
L 1054.604522 158.952063 
L 1076.604522 158.952063 
" style="fill: none; stroke-dasharray: 7.5,7.5; stroke-dashoffset: 0; stroke: #000000; stroke-width: 1.5"/>
    </g>
    <g id="text_20">
     <!-- 25 -->
     <g transform="translate(1094.204522 166.652063) scale(0.22 -0.22)">
      <use xlink:href="#DejaVuSans-32"/>
      <use xlink:href="#DejaVuSans-35" x="63.623047"/>
     </g>
    </g>
    <g id="line2d_30">
     <path d="M 1032.604522 191.243938 
L 1054.604522 191.243938 
L 1076.604522 191.243938 
" style="fill: none; stroke-dasharray: 4.5,7.5,1.5,7.5; stroke-dashoffset: 0; stroke: #000000; stroke-width: 1.5"/>
    </g>
    <g id="text_21">
     <!-- 50 -->
     <g transform="translate(1094.204522 198.943938) scale(0.22 -0.22)">
      <use xlink:href="#DejaVuSans-35"/>
      <use xlink:href="#DejaVuSans-30" x="63.623047"/>
     </g>
    </g>
   </g>
  </g>
  <g id="axes_4">
   <g id="patch_19">
    <path d="M 67.486875 809.419875 
L 461.369228 809.419875 
L 461.369228 439.819875 
L 67.486875 439.819875 
z
" style="fill: #ffffff"/>
   </g>
   <g id="matplotlib.axis_7">
    <g id="xtick_1">
     <g id="line2d_31">
      <defs>
       <path id="m19ce1bcce5" d="M 0 0 
L 0 3.5 
" style="stroke: #000000; stroke-width: 0.8"/>
      </defs>
      <g>
       <use xlink:href="#m19ce1bcce5" x="85.390618" y="809.419875" style="stroke: #000000; stroke-width: 0.8"/>
      </g>
     </g>
     <g id="text_22">
      <!-- 0.0 -->
      <g transform="translate(67.897181 833.136437) scale(0.22 -0.22)">
       <defs>
        <path id="DejaVuSans-2e" d="M 684 794 
L 1344 794 
L 1344 0 
L 684 0 
L 684 794 
z
" transform="scale(0.015625)"/>
       </defs>
       <use xlink:href="#DejaVuSans-30"/>
       <use xlink:href="#DejaVuSans-2e" x="63.623047"/>
       <use xlink:href="#DejaVuSans-30" x="95.410156"/>
      </g>
     </g>
    </g>
    <g id="xtick_2">
     <g id="line2d_32">
      <g>
       <use xlink:href="#m19ce1bcce5" x="157.005592" y="809.419875" style="stroke: #000000; stroke-width: 0.8"/>
      </g>
     </g>
     <g id="text_23">
      <!-- 0.2 -->
      <g transform="translate(139.512154 833.136437) scale(0.22 -0.22)">
       <use xlink:href="#DejaVuSans-30"/>
       <use xlink:href="#DejaVuSans-2e" x="63.623047"/>
       <use xlink:href="#DejaVuSans-32" x="95.410156"/>
      </g>
     </g>
    </g>
    <g id="xtick_3">
     <g id="line2d_33">
      <g>
       <use xlink:href="#m19ce1bcce5" x="228.620565" y="809.419875" style="stroke: #000000; stroke-width: 0.8"/>
      </g>
     </g>
     <g id="text_24">
      <!-- 0.4 -->
      <g transform="translate(211.127127 833.136437) scale(0.22 -0.22)">
       <use xlink:href="#DejaVuSans-30"/>
       <use xlink:href="#DejaVuSans-2e" x="63.623047"/>
       <use xlink:href="#DejaVuSans-34" x="95.410156"/>
      </g>
     </g>
    </g>
    <g id="xtick_4">
     <g id="line2d_34">
      <g>
       <use xlink:href="#m19ce1bcce5" x="300.235538" y="809.419875" style="stroke: #000000; stroke-width: 0.8"/>
      </g>
     </g>
     <g id="text_25">
      <!-- 0.6 -->
      <g transform="translate(282.742101 833.136437) scale(0.22 -0.22)">
       <use xlink:href="#DejaVuSans-30"/>
       <use xlink:href="#DejaVuSans-2e" x="63.623047"/>
       <use xlink:href="#DejaVuSans-36" x="95.410156"/>
      </g>
     </g>
    </g>
    <g id="xtick_5">
     <g id="line2d_35">
      <g>
       <use xlink:href="#m19ce1bcce5" x="371.850511" y="809.419875" style="stroke: #000000; stroke-width: 0.8"/>
      </g>
     </g>
     <g id="text_26">
      <!-- 0.8 -->
      <g transform="translate(354.357074 833.136437) scale(0.22 -0.22)">
       <defs>
        <path id="DejaVuSans-38" d="M 2034 2216 
Q 1584 2216 1326 1975 
Q 1069 1734 1069 1313 
Q 1069 891 1326 650 
Q 1584 409 2034 409 
Q 2484 409 2743 651 
Q 3003 894 3003 1313 
Q 3003 1734 2745 1975 
Q 2488 2216 2034 2216 
z
M 1403 2484 
Q 997 2584 770 2862 
Q 544 3141 544 3541 
Q 544 4100 942 4425 
Q 1341 4750 2034 4750 
Q 2731 4750 3128 4425 
Q 3525 4100 3525 3541 
Q 3525 3141 3298 2862 
Q 3072 2584 2669 2484 
Q 3125 2378 3379 2068 
Q 3634 1759 3634 1313 
Q 3634 634 3220 271 
Q 2806 -91 2034 -91 
Q 1263 -91 848 271 
Q 434 634 434 1313 
Q 434 1759 690 2068 
Q 947 2378 1403 2484 
z
M 1172 3481 
Q 1172 3119 1398 2916 
Q 1625 2713 2034 2713 
Q 2441 2713 2670 2916 
Q 2900 3119 2900 3481 
Q 2900 3844 2670 4047 
Q 2441 4250 2034 4250 
Q 1625 4250 1398 4047 
Q 1172 3844 1172 3481 
z
" transform="scale(0.015625)"/>
       </defs>
       <use xlink:href="#DejaVuSans-30"/>
       <use xlink:href="#DejaVuSans-2e" x="63.623047"/>
       <use xlink:href="#DejaVuSans-38" x="95.410156"/>
      </g>
     </g>
    </g>
    <g id="xtick_6">
     <g id="line2d_36">
      <g>
       <use xlink:href="#m19ce1bcce5" x="443.465485" y="809.419875" style="stroke: #000000; stroke-width: 0.8"/>
      </g>
     </g>
     <g id="text_27">
      <!-- 1.0 -->
      <g transform="translate(425.972047 833.136437) scale(0.22 -0.22)">
       <use xlink:href="#DejaVuSans-31"/>
       <use xlink:href="#DejaVuSans-2e" x="63.623047"/>
       <use xlink:href="#DejaVuSans-30" x="95.410156"/>
      </g>
     </g>
    </g>
    <g id="text_28">
     <!-- Diversity -->
     <g transform="translate(215.491801 858.428312) scale(0.22 -0.22)">
      <defs>
       <path id="DejaVuSans-44" d="M 1259 4147 
L 1259 519 
L 2022 519 
Q 2988 519 3436 956 
Q 3884 1394 3884 2338 
Q 3884 3275 3436 3711 
Q 2988 4147 2022 4147 
L 1259 4147 
z
M 628 4666 
L 1925 4666 
Q 3281 4666 3915 4102 
Q 4550 3538 4550 2338 
Q 4550 1131 3912 565 
Q 3275 0 1925 0 
L 628 0 
L 628 4666 
z
" transform="scale(0.015625)"/>
       <path id="DejaVuSans-79" d="M 2059 -325 
Q 1816 -950 1584 -1140 
Q 1353 -1331 966 -1331 
L 506 -1331 
L 506 -850 
L 844 -850 
Q 1081 -850 1212 -737 
Q 1344 -625 1503 -206 
L 1606 56 
L 191 3500 
L 800 3500 
L 1894 763 
L 2988 3500 
L 3597 3500 
L 2059 -325 
z
" transform="scale(0.015625)"/>
      </defs>
      <use xlink:href="#DejaVuSans-44"/>
      <use xlink:href="#DejaVuSans-69" x="77.001953"/>
      <use xlink:href="#DejaVuSans-76" x="104.785156"/>
      <use xlink:href="#DejaVuSans-65" x="163.964844"/>
      <use xlink:href="#DejaVuSans-72" x="225.488281"/>
      <use xlink:href="#DejaVuSans-73" x="266.601562"/>
      <use xlink:href="#DejaVuSans-69" x="318.701172"/>
      <use xlink:href="#DejaVuSans-74" x="346.484375"/>
      <use xlink:href="#DejaVuSans-79" x="385.693359"/>
     </g>
    </g>
   </g>
   <g id="matplotlib.axis_8">
    <g id="ytick_9">
     <g id="line2d_37">
      <g>
       <use xlink:href="#m14036defdd" x="67.486875" y="809.419875" style="stroke: #000000; stroke-width: 0.8"/>
      </g>
     </g>
     <g id="text_29">
      <!-- 0 -->
      <g transform="translate(46.489375 817.778156) scale(0.22 -0.22)">
       <use xlink:href="#DejaVuSans-30"/>
      </g>
     </g>
    </g>
    <g id="ytick_10">
     <g id="line2d_38">
      <g>
       <use xlink:href="#m14036defdd" x="67.486875" y="758.3819" style="stroke: #000000; stroke-width: 0.8"/>
      </g>
     </g>
     <g id="text_30">
      <!-- 10 -->
      <g transform="translate(32.491875 766.740182) scale(0.22 -0.22)">
       <use xlink:href="#DejaVuSans-31"/>
       <use xlink:href="#DejaVuSans-30" x="63.623047"/>
      </g>
     </g>
    </g>
    <g id="ytick_11">
     <g id="line2d_39">
      <g>
       <use xlink:href="#m14036defdd" x="67.486875" y="707.343926" style="stroke: #000000; stroke-width: 0.8"/>
      </g>
     </g>
     <g id="text_31">
      <!-- 20 -->
      <g transform="translate(32.491875 715.702207) scale(0.22 -0.22)">
       <use xlink:href="#DejaVuSans-32"/>
       <use xlink:href="#DejaVuSans-30" x="63.623047"/>
      </g>
     </g>
    </g>
    <g id="ytick_12">
     <g id="line2d_40">
      <g>
       <use xlink:href="#m14036defdd" x="67.486875" y="656.305951" style="stroke: #000000; stroke-width: 0.8"/>
      </g>
     </g>
     <g id="text_32">
      <!-- 30 -->
      <g transform="translate(32.491875 664.664232) scale(0.22 -0.22)">
       <use xlink:href="#DejaVuSans-33"/>
       <use xlink:href="#DejaVuSans-30" x="63.623047"/>
      </g>
     </g>
    </g>
    <g id="ytick_13">
     <g id="line2d_41">
      <g>
       <use xlink:href="#m14036defdd" x="67.486875" y="605.267976" style="stroke: #000000; stroke-width: 0.8"/>
      </g>
     </g>
     <g id="text_33">
      <!-- 40 -->
      <g transform="translate(32.491875 613.626258) scale(0.22 -0.22)">
       <use xlink:href="#DejaVuSans-34"/>
       <use xlink:href="#DejaVuSans-30" x="63.623047"/>
      </g>
     </g>
    </g>
    <g id="ytick_14">
     <g id="line2d_42">
      <g>
       <use xlink:href="#m14036defdd" x="67.486875" y="554.230002" style="stroke: #000000; stroke-width: 0.8"/>
      </g>
     </g>
     <g id="text_34">
      <!-- 50 -->
      <g transform="translate(32.491875 562.588283) scale(0.22 -0.22)">
       <use xlink:href="#DejaVuSans-35"/>
       <use xlink:href="#DejaVuSans-30" x="63.623047"/>
      </g>
     </g>
    </g>
    <g id="ytick_15">
     <g id="line2d_43">
      <g>
       <use xlink:href="#m14036defdd" x="67.486875" y="503.192027" style="stroke: #000000; stroke-width: 0.8"/>
      </g>
     </g>
     <g id="text_35">
      <!-- 60 -->
      <g transform="translate(32.491875 511.550308) scale(0.22 -0.22)">
       <use xlink:href="#DejaVuSans-36"/>
       <use xlink:href="#DejaVuSans-30" x="63.623047"/>
      </g>
     </g>
    </g>
    <g id="ytick_16">
     <g id="line2d_44">
      <g>
       <use xlink:href="#m14036defdd" x="67.486875" y="452.154052" style="stroke: #000000; stroke-width: 0.8"/>
      </g>
     </g>
     <g id="text_36">
      <!-- 70 -->
      <g transform="translate(32.491875 460.512333) scale(0.22 -0.22)">
       <use xlink:href="#DejaVuSans-37"/>
       <use xlink:href="#DejaVuSans-30" x="63.623047"/>
      </g>
     </g>
    </g>
    <g id="text_37">
     <!-- Improvement (%) -->
     <g transform="translate(23.916562 721.144875) rotate(-90) scale(0.22 -0.22)">
      <use xlink:href="#DejaVuSans-49"/>
      <use xlink:href="#DejaVuSans-6d" x="29.492188"/>
      <use xlink:href="#DejaVuSans-70" x="126.904297"/>
      <use xlink:href="#DejaVuSans-72" x="190.380859"/>
      <use xlink:href="#DejaVuSans-6f" x="229.244141"/>
      <use xlink:href="#DejaVuSans-76" x="290.425781"/>
      <use xlink:href="#DejaVuSans-65" x="349.605469"/>
      <use xlink:href="#DejaVuSans-6d" x="411.128906"/>
      <use xlink:href="#DejaVuSans-65" x="508.541016"/>
      <use xlink:href="#DejaVuSans-6e" x="570.064453"/>
      <use xlink:href="#DejaVuSans-74" x="633.443359"/>
      <use xlink:href="#DejaVuSans-20" x="672.652344"/>
      <use xlink:href="#DejaVuSans-28" x="704.439453"/>
      <use xlink:href="#DejaVuSans-25" x="743.453125"/>
      <use xlink:href="#DejaVuSans-29" x="838.472656"/>
     </g>
    </g>
   </g>
   <g id="line2d_45">
    <path d="M 85.390618 809.419875 
L 103.294362 791.556584 
L 121.198105 787.356584 
L 139.101848 782.518609 
L 157.005592 777.62747 
L 174.909335 773.586964 
L 192.813078 770.131267 
L 210.716822 765.02747 
L 228.620565 760.189495 
L 246.524308 756.255318 
L 264.428051 752.055318 
L 282.331795 745.941394 
L 300.235538 739.880634 
L 318.139281 732.171774 
L 336.043025 726.164179 
L 353.946768 716.594559 
L 371.850511 706.918609 
L 389.754255 696.179369 
L 407.657998 680.602153 
L 425.561741 662.260381 
L 443.465485 637.007217 
" clip-path="url(#p676107fdd3)" style="fill: none; stroke-dasharray: ; stroke-dashoffset: 0; stroke: #000000; stroke-width: 1.5"/>
   </g>
   <g id="line2d_46">
    <path d="M 85.390618 809.419875 
L 103.294362 803.252786 
L 121.198105 800.594559 
L 139.101848 799.424938 
L 157.005592 797.192027 
L 174.909335 794.852786 
L 192.813078 792.619875 
L 210.716822 791.662913 
L 228.620565 789.961647 
L 246.524308 786.878103 
L 264.428051 784.645191 
L 282.331795 781.986964 
L 300.235538 780.604685 
L 318.139281 778.371774 
L 336.043025 775.075571 
L 353.946768 771.354052 
L 371.850511 767.845191 
L 389.754255 763.379369 
L 407.657998 759.445191 
L 425.561741 759.338862 
L 443.465485 759.445191 
" clip-path="url(#p676107fdd3)" style="fill: none; stroke-dasharray: 1.5,7.5; stroke-dashoffset: 0; stroke: #000000; stroke-width: 1.5"/>
   </g>
   <g id="line2d_47">
    <path d="M 85.390618 809.419875 
L 103.294362 806.260381 
L 121.198105 805.288229 
L 139.101848 803.586964 
L 157.005592 802.007217 
L 174.909335 801.521141 
L 192.813078 800.913546 
L 210.716822 798.361647 
L 228.620565 797.511014 
L 246.524308 793.986964 
L 264.428051 793.379369 
L 282.331795 792.164179 
L 300.235538 790.462913 
L 318.139281 788.275571 
L 336.043025 785.96671 
L 353.946768 782.44266 
L 371.850511 780.498356 
L 389.754255 781.956584 
L 407.657998 780.01228 
L 425.561741 776.488229 
L 443.465485 776.609748 
" clip-path="url(#p676107fdd3)" style="fill: none; stroke-dasharray: 1.5,1.5; stroke-dashoffset: 0; stroke: #000000; stroke-width: 1.5"/>
   </g>
   <g id="line2d_48">
    <path d="M 67.486875 809.419875 
L 461.369228 809.419875 
" clip-path="url(#p676107fdd3)" style="fill: none; stroke: #000000; stroke-width: 1.5; stroke-linecap: square"/>
   </g>
   <g id="patch_20">
    <path d="M 67.486875 809.419875 
L 67.486875 439.819875 
" style="fill: none; stroke: #000000; stroke-width: 0.8; stroke-linejoin: miter; stroke-linecap: square"/>
   </g>
   <g id="patch_21">
    <path d="M 461.369228 809.419875 
L 461.369228 439.819875 
" style="fill: none; stroke: #000000; stroke-width: 0.8; stroke-linejoin: miter; stroke-linecap: square"/>
   </g>
   <g id="patch_22">
    <path d="M 67.486875 809.419875 
L 461.369228 809.419875 
" style="fill: none; stroke: #000000; stroke-width: 0.8; stroke-linejoin: miter; stroke-linecap: square"/>
   </g>
   <g id="patch_23">
    <path d="M 67.486875 439.819875 
L 461.369228 439.819875 
" style="fill: none; stroke: #000000; stroke-width: 0.8; stroke-linejoin: miter; stroke-linecap: square"/>
   </g>
   <g id="text_38">
    <!-- Number of Machines -->
    <g transform="translate(128.154551 433.819875) scale(0.264 -0.264)">
     <defs>
      <path id="DejaVuSans-4d" d="M 628 4666 
L 1569 4666 
L 2759 1491 
L 3956 4666 
L 4897 4666 
L 4897 0 
L 4281 0 
L 4281 4097 
L 3078 897 
L 2444 897 
L 1241 4097 
L 1241 0 
L 628 0 
L 628 4666 
z
" transform="scale(0.015625)"/>
      <path id="DejaVuSans-63" d="M 3122 3366 
L 3122 2828 
Q 2878 2963 2633 3030 
Q 2388 3097 2138 3097 
Q 1578 3097 1268 2742 
Q 959 2388 959 1747 
Q 959 1106 1268 751 
Q 1578 397 2138 397 
Q 2388 397 2633 464 
Q 2878 531 3122 666 
L 3122 134 
Q 2881 22 2623 -34 
Q 2366 -91 2075 -91 
Q 1284 -91 818 406 
Q 353 903 353 1747 
Q 353 2603 823 3093 
Q 1294 3584 2113 3584 
Q 2378 3584 2631 3529 
Q 2884 3475 3122 3366 
z
" transform="scale(0.015625)"/>
      <path id="DejaVuSans-68" d="M 3513 2113 
L 3513 0 
L 2938 0 
L 2938 2094 
Q 2938 2591 2744 2837 
Q 2550 3084 2163 3084 
Q 1697 3084 1428 2787 
Q 1159 2491 1159 1978 
L 1159 0 
L 581 0 
L 581 4863 
L 1159 4863 
L 1159 2956 
Q 1366 3272 1645 3428 
Q 1925 3584 2291 3584 
Q 2894 3584 3203 3211 
Q 3513 2838 3513 2113 
z
" transform="scale(0.015625)"/>
     </defs>
     <use xlink:href="#DejaVuSans-4e"/>
     <use xlink:href="#DejaVuSans-75" x="74.804688"/>
     <use xlink:href="#DejaVuSans-6d" x="138.183594"/>
     <use xlink:href="#DejaVuSans-62" x="235.595703"/>
     <use xlink:href="#DejaVuSans-65" x="299.072266"/>
     <use xlink:href="#DejaVuSans-72" x="360.595703"/>
     <use xlink:href="#DejaVuSans-20" x="401.708984"/>
     <use xlink:href="#DejaVuSans-6f" x="433.496094"/>
     <use xlink:href="#DejaVuSans-66" x="494.677734"/>
     <use xlink:href="#DejaVuSans-20" x="529.882812"/>
     <use xlink:href="#DejaVuSans-4d" x="561.669922"/>
     <use xlink:href="#DejaVuSans-61" x="647.949219"/>
     <use xlink:href="#DejaVuSans-63" x="709.228516"/>
     <use xlink:href="#DejaVuSans-68" x="764.208984"/>
     <use xlink:href="#DejaVuSans-69" x="827.587891"/>
     <use xlink:href="#DejaVuSans-6e" x="855.371094"/>
     <use xlink:href="#DejaVuSans-65" x="918.75"/>
     <use xlink:href="#DejaVuSans-73" x="980.273438"/>
    </g>
   </g>
   <g id="legend_3">
    <g id="patch_24">
     <path d="M 361.571728 554.2955 
L 445.969228 554.2955 
Q 450.369228 554.2955 450.369228 549.8955 
L 450.369228 455.219875 
Q 450.369228 450.819875 445.969228 450.819875 
L 361.571728 450.819875 
Q 357.171728 450.819875 357.171728 455.219875 
L 357.171728 549.8955 
Q 357.171728 554.2955 361.571728 554.2955 
z
" style="fill: #ffffff; opacity: 0.8; stroke: #cccccc; stroke-linejoin: miter"/>
    </g>
    <g id="line2d_49">
     <path d="M 365.971728 468.636437 
L 387.971728 468.636437 
L 409.971728 468.636437 
" style="fill: none; stroke-dasharray: ; stroke-dashoffset: 0; stroke: #000000; stroke-width: 1.5"/>
    </g>
    <g id="text_39">
     <!-- 1 -->
     <g transform="translate(427.571728 476.336437) scale(0.22 -0.22)">
      <use xlink:href="#DejaVuSans-31"/>
     </g>
    </g>
    <g id="line2d_50">
     <path d="M 365.971728 500.928312 
L 387.971728 500.928312 
L 409.971728 500.928312 
" style="fill: none; stroke-dasharray: 1.5,7.5; stroke-dashoffset: 0; stroke: #000000; stroke-width: 1.5"/>
    </g>
    <g id="text_40">
     <!-- 3 -->
     <g transform="translate(427.571728 508.628312) scale(0.22 -0.22)">
      <use xlink:href="#DejaVuSans-33"/>
     </g>
    </g>
    <g id="line2d_51">
     <path d="M 365.971728 533.220187 
L 387.971728 533.220187 
L 409.971728 533.220187 
" style="fill: none; stroke-dasharray: 1.5,1.5; stroke-dashoffset: 0; stroke: #000000; stroke-width: 1.5"/>
    </g>
    <g id="text_41">
     <!-- 5 -->
     <g transform="translate(427.571728 540.920187) scale(0.22 -0.22)">
      <use xlink:href="#DejaVuSans-35"/>
     </g>
    </g>
   </g>
  </g>
  <g id="axes_5">
   <g id="patch_25">
    <path d="M 540.145699 809.419875 
L 934.028051 809.419875 
L 934.028051 439.819875 
L 540.145699 439.819875 
z
" style="fill: #ffffff"/>
   </g>
   <g id="matplotlib.axis_9">
    <g id="xtick_7">
     <g id="line2d_52">
      <g>
       <use xlink:href="#m19ce1bcce5" x="558.049442" y="809.419875" style="stroke: #000000; stroke-width: 0.8"/>
      </g>
     </g>
     <g id="text_42">
      <!-- 0.0 -->
      <g transform="translate(540.556004 833.136437) scale(0.22 -0.22)">
       <use xlink:href="#DejaVuSans-30"/>
       <use xlink:href="#DejaVuSans-2e" x="63.623047"/>
       <use xlink:href="#DejaVuSans-30" x="95.410156"/>
      </g>
     </g>
    </g>
    <g id="xtick_8">
     <g id="line2d_53">
      <g>
       <use xlink:href="#m19ce1bcce5" x="629.664415" y="809.419875" style="stroke: #000000; stroke-width: 0.8"/>
      </g>
     </g>
     <g id="text_43">
      <!-- 0.2 -->
      <g transform="translate(612.170978 833.136437) scale(0.22 -0.22)">
       <use xlink:href="#DejaVuSans-30"/>
       <use xlink:href="#DejaVuSans-2e" x="63.623047"/>
       <use xlink:href="#DejaVuSans-32" x="95.410156"/>
      </g>
     </g>
    </g>
    <g id="xtick_9">
     <g id="line2d_54">
      <g>
       <use xlink:href="#m19ce1bcce5" x="701.279388" y="809.419875" style="stroke: #000000; stroke-width: 0.8"/>
      </g>
     </g>
     <g id="text_44">
      <!-- 0.4 -->
      <g transform="translate(683.785951 833.136437) scale(0.22 -0.22)">
       <use xlink:href="#DejaVuSans-30"/>
       <use xlink:href="#DejaVuSans-2e" x="63.623047"/>
       <use xlink:href="#DejaVuSans-34" x="95.410156"/>
      </g>
     </g>
    </g>
    <g id="xtick_10">
     <g id="line2d_55">
      <g>
       <use xlink:href="#m19ce1bcce5" x="772.894362" y="809.419875" style="stroke: #000000; stroke-width: 0.8"/>
      </g>
     </g>
     <g id="text_45">
      <!-- 0.6 -->
      <g transform="translate(755.400924 833.136437) scale(0.22 -0.22)">
       <use xlink:href="#DejaVuSans-30"/>
       <use xlink:href="#DejaVuSans-2e" x="63.623047"/>
       <use xlink:href="#DejaVuSans-36" x="95.410156"/>
      </g>
     </g>
    </g>
    <g id="xtick_11">
     <g id="line2d_56">
      <g>
       <use xlink:href="#m19ce1bcce5" x="844.509335" y="809.419875" style="stroke: #000000; stroke-width: 0.8"/>
      </g>
     </g>
     <g id="text_46">
      <!-- 0.8 -->
      <g transform="translate(827.015897 833.136437) scale(0.22 -0.22)">
       <use xlink:href="#DejaVuSans-30"/>
       <use xlink:href="#DejaVuSans-2e" x="63.623047"/>
       <use xlink:href="#DejaVuSans-38" x="95.410156"/>
      </g>
     </g>
    </g>
    <g id="xtick_12">
     <g id="line2d_57">
      <g>
       <use xlink:href="#m19ce1bcce5" x="916.124308" y="809.419875" style="stroke: #000000; stroke-width: 0.8"/>
      </g>
     </g>
     <g id="text_47">
      <!-- 1.0 -->
      <g transform="translate(898.630871 833.136437) scale(0.22 -0.22)">
       <use xlink:href="#DejaVuSans-31"/>
       <use xlink:href="#DejaVuSans-2e" x="63.623047"/>
       <use xlink:href="#DejaVuSans-30" x="95.410156"/>
      </g>
     </g>
    </g>
    <g id="text_48">
     <!-- Diversity -->
     <g transform="translate(688.150625 858.428312) scale(0.22 -0.22)">
      <use xlink:href="#DejaVuSans-44"/>
      <use xlink:href="#DejaVuSans-69" x="77.001953"/>
      <use xlink:href="#DejaVuSans-76" x="104.785156"/>
      <use xlink:href="#DejaVuSans-65" x="163.964844"/>
      <use xlink:href="#DejaVuSans-72" x="225.488281"/>
      <use xlink:href="#DejaVuSans-73" x="266.601562"/>
      <use xlink:href="#DejaVuSans-69" x="318.701172"/>
      <use xlink:href="#DejaVuSans-74" x="346.484375"/>
      <use xlink:href="#DejaVuSans-79" x="385.693359"/>
     </g>
    </g>
   </g>
   <g id="matplotlib.axis_10"/>
   <g id="line2d_58">
    <path d="M 558.049442 809.419875 
L 575.953185 798.718364 
L 593.856928 795.67255 
L 611.760672 792.791374 
L 629.664415 789.66324 
L 647.568158 787.029022 
L 665.471902 785.053358 
L 683.375645 781.348989 
L 701.279388 778.138536 
L 719.183132 774.681124 
L 737.086875 771.552991 
L 754.990618 767.354706 
L 772.894362 763.403378 
L 790.798105 759.122774 
L 808.701848 755.253766 
L 826.605592 747.186474 
L 844.509335 739.119181 
L 862.413078 731.957401 
L 880.316822 725.948091 
L 898.220565 712.694681 
L 916.124308 699.60591 
" clip-path="url(#peabd438019)" style="fill: none; stroke-dasharray: ; stroke-dashoffset: 0; stroke: #000000; stroke-width: 1.5"/>
   </g>
   <g id="line2d_59">
    <path d="M 558.049442 809.419875 
L 575.953185 797.730532 
L 593.856928 794.767037 
L 611.760672 791.391945 
L 629.664415 788.016853 
L 647.568158 785.300316 
L 665.471902 782.41914 
L 683.375645 779.126367 
L 701.279388 775.915914 
L 719.183132 772.129226 
L 737.086875 768.918773 
L 754.990618 765.132084 
L 772.894362 761.839312 
L 790.798105 756.817833 
L 808.701848 751.796355 
L 826.605592 746.116323 
L 844.509335 740.43629 
L 862.413078 734.756257 
L 880.316822 724.054746 
L 898.220565 716.481369 
L 916.124308 701.169977 
" clip-path="url(#peabd438019)" style="fill: none; stroke-dasharray: 1.5,7.5; stroke-dashoffset: 0; stroke: #000000; stroke-width: 1.5"/>
   </g>
   <g id="line2d_60">
    <path d="M 558.049442 809.419875 
L 575.953185 797.236617 
L 593.856928 794.026163 
L 611.760672 790.733391 
L 629.664415 786.864383 
L 647.568158 783.818568 
L 665.471902 781.18435 
L 683.375645 777.809258 
L 701.279388 774.845763 
L 719.183132 771.223713 
L 737.086875 768.918773 
L 754.990618 764.555849 
L 772.894362 760.192925 
L 790.798105 754.348254 
L 808.701848 749.820692 
L 826.605592 743.482104 
L 844.509335 738.213668 
L 862.413078 731.957401 
L 880.316822 720.185739 
L 898.220565 710.142782 
L 916.124308 699.60591 
" clip-path="url(#peabd438019)" style="fill: none; stroke-dasharray: 1.5,1.5; stroke-dashoffset: 0; stroke: #000000; stroke-width: 1.5"/>
   </g>
   <g id="line2d_61">
    <path d="M 540.145699 809.419875 
L 934.028051 809.419875 
" clip-path="url(#peabd438019)" style="fill: none; stroke: #000000; stroke-width: 1.5; stroke-linecap: square"/>
   </g>
   <g id="patch_26">
    <path d="M 540.145699 809.419875 
L 540.145699 439.819875 
" style="fill: none; stroke: #000000; stroke-width: 0.8; stroke-linejoin: miter; stroke-linecap: square"/>
   </g>
   <g id="patch_27">
    <path d="M 934.028051 809.419875 
L 934.028051 439.819875 
" style="fill: none; stroke: #000000; stroke-width: 0.8; stroke-linejoin: miter; stroke-linecap: square"/>
   </g>
   <g id="patch_28">
    <path d="M 540.145699 809.419875 
L 934.028051 809.419875 
" style="fill: none; stroke: #000000; stroke-width: 0.8; stroke-linejoin: miter; stroke-linecap: square"/>
   </g>
   <g id="patch_29">
    <path d="M 540.145699 439.819875 
L 934.028051 439.819875 
" style="fill: none; stroke: #000000; stroke-width: 0.8; stroke-linejoin: miter; stroke-linecap: square"/>
   </g>
   <g id="text_49">
    <!-- Quality Parameter -->
    <g transform="translate(617.051438 433.819875) scale(0.264 -0.264)">
     <defs>
      <path id="DejaVuSans-51" d="M 2522 4238 
Q 1834 4238 1429 3725 
Q 1025 3213 1025 2328 
Q 1025 1447 1429 934 
Q 1834 422 2522 422 
Q 3209 422 3611 934 
Q 4013 1447 4013 2328 
Q 4013 3213 3611 3725 
Q 3209 4238 2522 4238 
z
M 3406 84 
L 4238 -825 
L 3475 -825 
L 2784 -78 
Q 2681 -84 2626 -87 
Q 2572 -91 2522 -91 
Q 1538 -91 948 567 
Q 359 1225 359 2328 
Q 359 3434 948 4092 
Q 1538 4750 2522 4750 
Q 3503 4750 4090 4092 
Q 4678 3434 4678 2328 
Q 4678 1516 4351 937 
Q 4025 359 3406 84 
z
" transform="scale(0.015625)"/>
     </defs>
     <use xlink:href="#DejaVuSans-51"/>
     <use xlink:href="#DejaVuSans-75" x="78.710938"/>
     <use xlink:href="#DejaVuSans-61" x="142.089844"/>
     <use xlink:href="#DejaVuSans-6c" x="203.369141"/>
     <use xlink:href="#DejaVuSans-69" x="231.152344"/>
     <use xlink:href="#DejaVuSans-74" x="258.935547"/>
     <use xlink:href="#DejaVuSans-79" x="298.144531"/>
     <use xlink:href="#DejaVuSans-20" x="357.324219"/>
     <use xlink:href="#DejaVuSans-50" x="389.111328"/>
     <use xlink:href="#DejaVuSans-61" x="444.914062"/>
     <use xlink:href="#DejaVuSans-72" x="506.193359"/>
     <use xlink:href="#DejaVuSans-61" x="547.306641"/>
     <use xlink:href="#DejaVuSans-6d" x="608.585938"/>
     <use xlink:href="#DejaVuSans-65" x="705.998047"/>
     <use xlink:href="#DejaVuSans-74" x="767.521484"/>
     <use xlink:href="#DejaVuSans-65" x="806.730469"/>
     <use xlink:href="#DejaVuSans-72" x="868.253906"/>
    </g>
   </g>
   <g id="legend_4">
    <g id="patch_30">
     <path d="M 813.241176 554.2955 
L 918.628051 554.2955 
Q 923.028051 554.2955 923.028051 549.8955 
L 923.028051 455.219875 
Q 923.028051 450.819875 918.628051 450.819875 
L 813.241176 450.819875 
Q 808.841176 450.819875 808.841176 455.219875 
L 808.841176 549.8955 
Q 808.841176 554.2955 813.241176 554.2955 
z
" style="fill: #ffffff; opacity: 0.8; stroke: #cccccc; stroke-linejoin: miter"/>
    </g>
    <g id="line2d_62">
     <path d="M 817.641176 468.636437 
L 839.641176 468.636437 
L 861.641176 468.636437 
" style="fill: none; stroke-dasharray: ; stroke-dashoffset: 0; stroke: #000000; stroke-width: 1.5"/>
    </g>
    <g id="text_50">
     <!-- 0.3 -->
     <g transform="translate(879.241176 476.336437) scale(0.22 -0.22)">
      <use xlink:href="#DejaVuSans-30"/>
      <use xlink:href="#DejaVuSans-2e" x="63.623047"/>
      <use xlink:href="#DejaVuSans-33" x="95.410156"/>
     </g>
    </g>
    <g id="line2d_63">
     <path d="M 817.641176 500.928312 
L 839.641176 500.928312 
L 861.641176 500.928312 
" style="fill: none; stroke-dasharray: 1.5,7.5; stroke-dashoffset: 0; stroke: #000000; stroke-width: 1.5"/>
    </g>
    <g id="text_51">
     <!-- 0.6 -->
     <g transform="translate(879.241176 508.628312) scale(0.22 -0.22)">
      <use xlink:href="#DejaVuSans-30"/>
      <use xlink:href="#DejaVuSans-2e" x="63.623047"/>
      <use xlink:href="#DejaVuSans-36" x="95.410156"/>
     </g>
    </g>
    <g id="line2d_64">
     <path d="M 817.641176 533.220187 
L 839.641176 533.220187 
L 861.641176 533.220187 
" style="fill: none; stroke-dasharray: 1.5,1.5; stroke-dashoffset: 0; stroke: #000000; stroke-width: 1.5"/>
    </g>
    <g id="text_52">
     <!-- 1. -->
     <g transform="translate(879.241176 540.920187) scale(0.22 -0.22)">
      <use xlink:href="#DejaVuSans-31"/>
      <use xlink:href="#DejaVuSans-2e" x="63.623047"/>
     </g>
    </g>
   </g>
  </g>
  <g id="axes_6">
   <g id="patch_31">
    <path d="M 1012.804522 809.419875 
L 1406.686875 809.419875 
L 1406.686875 439.819875 
L 1012.804522 439.819875 
z
" style="fill: #ffffff"/>
   </g>
   <g id="matplotlib.axis_11">
    <g id="xtick_13">
     <g id="line2d_65">
      <g>
       <use xlink:href="#m19ce1bcce5" x="1030.708265" y="809.419875" style="stroke: #000000; stroke-width: 0.8"/>
      </g>
     </g>
     <g id="text_53">
      <!-- 0.0 -->
      <g transform="translate(1013.214828 833.136437) scale(0.22 -0.22)">
       <use xlink:href="#DejaVuSans-30"/>
       <use xlink:href="#DejaVuSans-2e" x="63.623047"/>
       <use xlink:href="#DejaVuSans-30" x="95.410156"/>
      </g>
     </g>
    </g>
    <g id="xtick_14">
     <g id="line2d_66">
      <g>
       <use xlink:href="#m19ce1bcce5" x="1102.323239" y="809.419875" style="stroke: #000000; stroke-width: 0.8"/>
      </g>
     </g>
     <g id="text_54">
      <!-- 0.2 -->
      <g transform="translate(1084.829801 833.136437) scale(0.22 -0.22)">
       <use xlink:href="#DejaVuSans-30"/>
       <use xlink:href="#DejaVuSans-2e" x="63.623047"/>
       <use xlink:href="#DejaVuSans-32" x="95.410156"/>
      </g>
     </g>
    </g>
    <g id="xtick_15">
     <g id="line2d_67">
      <g>
       <use xlink:href="#m19ce1bcce5" x="1173.938212" y="809.419875" style="stroke: #000000; stroke-width: 0.8"/>
      </g>
     </g>
     <g id="text_55">
      <!-- 0.4 -->
      <g transform="translate(1156.444774 833.136437) scale(0.22 -0.22)">
       <use xlink:href="#DejaVuSans-30"/>
       <use xlink:href="#DejaVuSans-2e" x="63.623047"/>
       <use xlink:href="#DejaVuSans-34" x="95.410156"/>
      </g>
     </g>
    </g>
    <g id="xtick_16">
     <g id="line2d_68">
      <g>
       <use xlink:href="#m19ce1bcce5" x="1245.553185" y="809.419875" style="stroke: #000000; stroke-width: 0.8"/>
      </g>
     </g>
     <g id="text_56">
      <!-- 0.6 -->
      <g transform="translate(1228.059748 833.136437) scale(0.22 -0.22)">
       <use xlink:href="#DejaVuSans-30"/>
       <use xlink:href="#DejaVuSans-2e" x="63.623047"/>
       <use xlink:href="#DejaVuSans-36" x="95.410156"/>
      </g>
     </g>
    </g>
    <g id="xtick_17">
     <g id="line2d_69">
      <g>
       <use xlink:href="#m19ce1bcce5" x="1317.168158" y="809.419875" style="stroke: #000000; stroke-width: 0.8"/>
      </g>
     </g>
     <g id="text_57">
      <!-- 0.8 -->
      <g transform="translate(1299.674721 833.136437) scale(0.22 -0.22)">
       <use xlink:href="#DejaVuSans-30"/>
       <use xlink:href="#DejaVuSans-2e" x="63.623047"/>
       <use xlink:href="#DejaVuSans-38" x="95.410156"/>
      </g>
     </g>
    </g>
    <g id="xtick_18">
     <g id="line2d_70">
      <g>
       <use xlink:href="#m19ce1bcce5" x="1388.783132" y="809.419875" style="stroke: #000000; stroke-width: 0.8"/>
      </g>
     </g>
     <g id="text_58">
      <!-- 1.0 -->
      <g transform="translate(1371.289694 833.136437) scale(0.22 -0.22)">
       <use xlink:href="#DejaVuSans-31"/>
       <use xlink:href="#DejaVuSans-2e" x="63.623047"/>
       <use xlink:href="#DejaVuSans-30" x="95.410156"/>
      </g>
     </g>
    </g>
    <g id="text_59">
     <!-- Diversity -->
     <g transform="translate(1160.809449 858.428312) scale(0.22 -0.22)">
      <use xlink:href="#DejaVuSans-44"/>
      <use xlink:href="#DejaVuSans-69" x="77.001953"/>
      <use xlink:href="#DejaVuSans-76" x="104.785156"/>
      <use xlink:href="#DejaVuSans-65" x="163.964844"/>
      <use xlink:href="#DejaVuSans-72" x="225.488281"/>
      <use xlink:href="#DejaVuSans-73" x="266.601562"/>
      <use xlink:href="#DejaVuSans-69" x="318.701172"/>
      <use xlink:href="#DejaVuSans-74" x="346.484375"/>
      <use xlink:href="#DejaVuSans-79" x="385.693359"/>
     </g>
    </g>
   </g>
   <g id="matplotlib.axis_12"/>
   <g id="line2d_71">
    <path d="M 1030.708265 809.419875 
L 1048.612009 801.187944 
L 1066.515752 799.980594 
L 1084.419495 796.139026 
L 1102.323239 793.285289 
L 1120.226982 791.090108 
L 1138.130725 788.016853 
L 1156.034469 785.382635 
L 1173.938212 782.748417 
L 1191.841955 778.138536 
L 1209.745699 773.418895 
L 1227.649442 769.028532 
L 1245.553185 763.321059 
L 1263.456928 757.394069 
L 1281.360672 753.991537 
L 1299.264415 745.979124 
L 1317.168158 739.722856 
L 1335.071902 734.015383 
L 1352.975645 725.015138 
L 1370.879388 710.746457 
L 1388.783132 697.465608 
" clip-path="url(#pc86cceec5e)" style="fill: none; stroke-dasharray: ; stroke-dashoffset: 0; stroke: #000000; stroke-width: 1.5"/>
   </g>
   <g id="line2d_72">
    <path d="M 1030.708265 809.419875 
L 1048.612009 799.651316 
L 1066.515752 796.907339 
L 1084.419495 794.053603 
L 1102.323239 790.980349 
L 1120.226982 789.443721 
L 1138.130725 786.589985 
L 1156.034469 781.870345 
L 1173.938212 778.028777 
L 1191.841955 775.17504 
L 1209.745699 772.321304 
L 1227.649442 768.0407 
L 1245.553185 763.760095 
L 1263.456928 757.17455 
L 1281.360672 751.576837 
L 1299.264415 743.344906 
L 1317.168158 736.539842 
L 1335.071902 731.490924 
L 1352.975645 723.039475 
L 1370.879388 711.734289 
L 1388.783132 696.697294 
" clip-path="url(#pc86cceec5e)" style="fill: none; stroke-dasharray: 1.5,7.5; stroke-dashoffset: 0; stroke: #000000; stroke-width: 1.5"/>
   </g>
   <g id="line2d_73">
    <path d="M 1030.708265 809.419875 
L 1048.612009 796.358544 
L 1066.515752 792.846253 
L 1084.419495 789.772999 
L 1102.323239 784.943599 
L 1120.226982 781.541067 
L 1138.130725 779.894681 
L 1156.034469 775.943354 
L 1173.938212 773.199377 
L 1191.841955 769.138291 
L 1209.745699 767.272386 
L 1227.649442 764.199132 
L 1245.553185 760.7966 
L 1263.456928 757.723346 
L 1281.360672 751.906114 
L 1299.264415 746.198642 
L 1317.168158 739.722856 
L 1335.071902 733.466588 
L 1352.975645 723.58827 
L 1370.879388 713.929471 
L 1388.783132 700.319344 
" clip-path="url(#pc86cceec5e)" style="fill: none; stroke-dasharray: 1.5,1.5; stroke-dashoffset: 0; stroke: #000000; stroke-width: 1.5"/>
   </g>
   <g id="line2d_74">
    <path d="M 1030.708265 809.419875 
L 1048.612009 794.38288 
L 1066.515752 789.553481 
L 1084.419495 786.589985 
L 1102.323239 783.516731 
L 1120.226982 779.455645 
L 1138.130725 777.040945 
L 1156.034469 774.516486 
L 1173.938212 771.223713 
L 1191.841955 768.260218 
L 1209.745699 766.174795 
L 1227.649442 761.455155 
L 1245.553185 759.369732 
L 1263.456928 754.759851 
L 1281.360672 751.686596 
L 1299.264415 746.857196 
L 1317.168158 741.039965 
L 1335.071902 732.588515 
L 1352.975645 721.941884 
L 1370.879388 716.014893 
L 1388.783132 706.026817 
" clip-path="url(#pc86cceec5e)" style="fill: none; stroke-dasharray: 7.5,7.5; stroke-dashoffset: 0; stroke: #000000; stroke-width: 1.5"/>
   </g>
   <g id="line2d_75">
    <path d="M 1012.804522 809.419875 
L 1406.686875 809.419875 
" clip-path="url(#pc86cceec5e)" style="fill: none; stroke: #000000; stroke-width: 1.5; stroke-linecap: square"/>
   </g>
   <g id="patch_32">
    <path d="M 1012.804522 809.419875 
L 1012.804522 439.819875 
" style="fill: none; stroke: #000000; stroke-width: 0.8; stroke-linejoin: miter; stroke-linecap: square"/>
   </g>
   <g id="patch_33">
    <path d="M 1406.686875 809.419875 
L 1406.686875 439.819875 
" style="fill: none; stroke: #000000; stroke-width: 0.8; stroke-linejoin: miter; stroke-linecap: square"/>
   </g>
   <g id="patch_34">
    <path d="M 1012.804522 809.419875 
L 1406.686875 809.419875 
" style="fill: none; stroke: #000000; stroke-width: 0.8; stroke-linejoin: miter; stroke-linecap: square"/>
   </g>
   <g id="patch_35">
    <path d="M 1012.804522 439.819875 
L 1406.686875 439.819875 
" style="fill: none; stroke: #000000; stroke-width: 0.8; stroke-linejoin: miter; stroke-linecap: square"/>
   </g>
   <g id="text_60">
    <!-- Mutation Operator -->
    <g transform="translate(1088.161324 433.819875) scale(0.264 -0.264)">
     <use xlink:href="#DejaVuSans-4d"/>
     <use xlink:href="#DejaVuSans-75" x="86.279297"/>
     <use xlink:href="#DejaVuSans-74" x="149.658203"/>
     <use xlink:href="#DejaVuSans-61" x="188.867188"/>
     <use xlink:href="#DejaVuSans-74" x="250.146484"/>
     <use xlink:href="#DejaVuSans-69" x="289.355469"/>
     <use xlink:href="#DejaVuSans-6f" x="317.138672"/>
     <use xlink:href="#DejaVuSans-6e" x="378.320312"/>
     <use xlink:href="#DejaVuSans-20" x="441.699219"/>
     <use xlink:href="#DejaVuSans-4f" x="473.486328"/>
     <use xlink:href="#DejaVuSans-70" x="552.197266"/>
     <use xlink:href="#DejaVuSans-65" x="615.673828"/>
     <use xlink:href="#DejaVuSans-72" x="677.197266"/>
     <use xlink:href="#DejaVuSans-61" x="718.310547"/>
     <use xlink:href="#DejaVuSans-74" x="779.589844"/>
     <use xlink:href="#DejaVuSans-6f" x="818.798828"/>
     <use xlink:href="#DejaVuSans-72" x="879.980469"/>
    </g>
   </g>
   <g id="legend_5">
    <g id="patch_36">
     <path d="M 1159.406875 586.587375 
L 1391.286875 586.587375 
Q 1395.686875 586.587375 1395.686875 582.187375 
L 1395.686875 455.219875 
Q 1395.686875 450.819875 1391.286875 450.819875 
L 1159.406875 450.819875 
Q 1155.006875 450.819875 1155.006875 455.219875 
L 1155.006875 582.187375 
Q 1155.006875 586.587375 1159.406875 586.587375 
z
" style="fill: #ffffff; opacity: 0.8; stroke: #cccccc; stroke-linejoin: miter"/>
    </g>
    <g id="line2d_76">
     <path d="M 1163.806875 468.636437 
L 1185.806875 468.636437 
L 1207.806875 468.636437 
" style="fill: none; stroke-dasharray: ; stroke-dashoffset: 0; stroke: #000000; stroke-width: 1.5"/>
    </g>
    <g id="text_61">
     <!-- 1(R+I) -->
     <g transform="translate(1225.406875 476.336437) scale(0.22 -0.22)">
      <defs>
       <path id="DejaVuSans-52" d="M 2841 2188 
Q 3044 2119 3236 1894 
Q 3428 1669 3622 1275 
L 4263 0 
L 3584 0 
L 2988 1197 
Q 2756 1666 2539 1819 
Q 2322 1972 1947 1972 
L 1259 1972 
L 1259 0 
L 628 0 
L 628 4666 
L 2053 4666 
Q 2853 4666 3247 4331 
Q 3641 3997 3641 3322 
Q 3641 2881 3436 2590 
Q 3231 2300 2841 2188 
z
M 1259 4147 
L 1259 2491 
L 2053 2491 
Q 2509 2491 2742 2702 
Q 2975 2913 2975 3322 
Q 2975 3731 2742 3939 
Q 2509 4147 2053 4147 
L 1259 4147 
z
" transform="scale(0.015625)"/>
       <path id="DejaVuSans-2b" d="M 2944 4013 
L 2944 2272 
L 4684 2272 
L 4684 1741 
L 2944 1741 
L 2944 0 
L 2419 0 
L 2419 1741 
L 678 1741 
L 678 2272 
L 2419 2272 
L 2419 4013 
L 2944 4013 
z
" transform="scale(0.015625)"/>
      </defs>
      <use xlink:href="#DejaVuSans-31"/>
      <use xlink:href="#DejaVuSans-28" x="63.623047"/>
      <use xlink:href="#DejaVuSans-52" x="102.636719"/>
      <use xlink:href="#DejaVuSans-2b" x="172.119141"/>
      <use xlink:href="#DejaVuSans-49" x="255.908203"/>
      <use xlink:href="#DejaVuSans-29" x="285.400391"/>
     </g>
    </g>
    <g id="line2d_77">
     <path d="M 1163.806875 500.928312 
L 1185.806875 500.928312 
L 1207.806875 500.928312 
" style="fill: none; stroke-dasharray: 1.5,7.5; stroke-dashoffset: 0; stroke: #000000; stroke-width: 1.5"/>
    </g>
    <g id="text_62">
     <!-- X(R+I), $\lambda=0.1$ -->
     <g transform="translate(1225.406875 508.628312) scale(0.22 -0.22)">
      <defs>
       <path id="DejaVuSans-58" d="M 403 4666 
L 1081 4666 
L 2241 2931 
L 3406 4666 
L 4084 4666 
L 2584 2425 
L 4184 0 
L 3506 0 
L 2194 1984 
L 872 0 
L 191 0 
L 1856 2491 
L 403 4666 
z
" transform="scale(0.015625)"/>
       <path id="DejaVuSans-2c" d="M 750 794 
L 1409 794 
L 1409 256 
L 897 -744 
L 494 -744 
L 750 256 
L 750 794 
z
" transform="scale(0.015625)"/>
       <path id="DejaVuSans-Oblique-3bb" d="M 2350 4316 
L 3125 0 
L 2516 0 
L 2038 2588 
L 328 0 
L -281 0 
L 1903 3356 
L 1794 3975 
Q 1725 4369 1391 4369 
L 1091 4369 
L 1184 4863 
L 1550 4856 
Q 2253 4847 2350 4316 
z
" transform="scale(0.015625)"/>
       <path id="DejaVuSans-3d" d="M 678 2906 
L 4684 2906 
L 4684 2381 
L 678 2381 
L 678 2906 
z
M 678 1631 
L 4684 1631 
L 4684 1100 
L 678 1100 
L 678 1631 
z
" transform="scale(0.015625)"/>
      </defs>
      <use xlink:href="#DejaVuSans-58" transform="translate(0 0.015625)"/>
      <use xlink:href="#DejaVuSans-28" transform="translate(68.505859 0.015625)"/>
      <use xlink:href="#DejaVuSans-52" transform="translate(107.519531 0.015625)"/>
      <use xlink:href="#DejaVuSans-2b" transform="translate(177.001953 0.015625)"/>
      <use xlink:href="#DejaVuSans-49" transform="translate(260.791016 0.015625)"/>
      <use xlink:href="#DejaVuSans-29" transform="translate(290.283203 0.015625)"/>
      <use xlink:href="#DejaVuSans-2c" transform="translate(329.296875 0.015625)"/>
      <use xlink:href="#DejaVuSans-20" transform="translate(361.083984 0.015625)"/>
      <use xlink:href="#DejaVuSans-Oblique-3bb" transform="translate(392.871094 0.015625)"/>
      <use xlink:href="#DejaVuSans-3d" transform="translate(471.533203 0.015625)"/>
      <use xlink:href="#DejaVuSans-30" transform="translate(574.804688 0.015625)"/>
      <use xlink:href="#DejaVuSans-2e" transform="translate(638.427734 0.015625)"/>
      <use xlink:href="#DejaVuSans-31" transform="translate(670.214844 0.015625)"/>
     </g>
    </g>
    <g id="line2d_78">
     <path d="M 1163.806875 533.220187 
L 1185.806875 533.220187 
L 1207.806875 533.220187 
" style="fill: none; stroke-dasharray: 1.5,1.5; stroke-dashoffset: 0; stroke: #000000; stroke-width: 1.5"/>
    </g>
    <g id="text_63">
     <!-- X(R+I), $\lambda=1$ -->
     <g transform="translate(1225.406875 540.920187) scale(0.22 -0.22)">
      <use xlink:href="#DejaVuSans-58" transform="translate(0 0.015625)"/>
      <use xlink:href="#DejaVuSans-28" transform="translate(68.505859 0.015625)"/>
      <use xlink:href="#DejaVuSans-52" transform="translate(107.519531 0.015625)"/>
      <use xlink:href="#DejaVuSans-2b" transform="translate(177.001953 0.015625)"/>
      <use xlink:href="#DejaVuSans-49" transform="translate(260.791016 0.015625)"/>
      <use xlink:href="#DejaVuSans-29" transform="translate(290.283203 0.015625)"/>
      <use xlink:href="#DejaVuSans-2c" transform="translate(329.296875 0.015625)"/>
      <use xlink:href="#DejaVuSans-20" transform="translate(361.083984 0.015625)"/>
      <use xlink:href="#DejaVuSans-Oblique-3bb" transform="translate(392.871094 0.015625)"/>
      <use xlink:href="#DejaVuSans-3d" transform="translate(471.533203 0.015625)"/>
      <use xlink:href="#DejaVuSans-31" transform="translate(574.804688 0.015625)"/>
     </g>
    </g>
    <g id="line2d_79">
     <path d="M 1163.806875 565.512062 
L 1185.806875 565.512062 
L 1207.806875 565.512062 
" style="fill: none; stroke-dasharray: 7.5,7.5; stroke-dashoffset: 0; stroke: #000000; stroke-width: 1.5"/>
    </g>
    <g id="text_64">
     <!-- X(R+I), $\lambda=1.5$ -->
     <g transform="translate(1225.406875 573.212062) scale(0.22 -0.22)">
      <use xlink:href="#DejaVuSans-58" transform="translate(0 0.015625)"/>
      <use xlink:href="#DejaVuSans-28" transform="translate(68.505859 0.015625)"/>
      <use xlink:href="#DejaVuSans-52" transform="translate(107.519531 0.015625)"/>
      <use xlink:href="#DejaVuSans-2b" transform="translate(177.001953 0.015625)"/>
      <use xlink:href="#DejaVuSans-49" transform="translate(260.791016 0.015625)"/>
      <use xlink:href="#DejaVuSans-29" transform="translate(290.283203 0.015625)"/>
      <use xlink:href="#DejaVuSans-2c" transform="translate(329.296875 0.015625)"/>
      <use xlink:href="#DejaVuSans-20" transform="translate(361.083984 0.015625)"/>
      <use xlink:href="#DejaVuSans-Oblique-3bb" transform="translate(392.871094 0.015625)"/>
      <use xlink:href="#DejaVuSans-3d" transform="translate(471.533203 0.015625)"/>
      <use xlink:href="#DejaVuSans-31" transform="translate(574.804688 0.015625)"/>
      <use xlink:href="#DejaVuSans-2e" transform="translate(638.427734 0.015625)"/>
      <use xlink:href="#DejaVuSans-35" transform="translate(670.214844 0.015625)"/>
     </g>
    </g>
   </g>
  </g>
 </g>
 <defs>
  <clipPath id="p2b9616e41c">
   <rect x="67.486875" y="33.259875" width="393.882353" height="369.6"/>
  </clipPath>
  <clipPath id="p187e0adec4">
   <rect x="540.145699" y="33.259875" width="393.882353" height="369.6"/>
  </clipPath>
  <clipPath id="p15f047955c">
   <rect x="1012.804522" y="33.259875" width="393.882353" height="369.6"/>
  </clipPath>
  <clipPath id="p676107fdd3">
   <rect x="67.486875" y="439.819875" width="393.882353" height="369.6"/>
  </clipPath>
  <clipPath id="peabd438019">
   <rect x="540.145699" y="439.819875" width="393.882353" height="369.6"/>
  </clipPath>
  <clipPath id="pc86cceec5e">
   <rect x="1012.804522" y="439.819875" width="393.882353" height="369.6"/>
  </clipPath>
 </defs>
</svg>
